%TF.GenerationSoftware,KiCad,Pcbnew,7.0.9*%
%TF.CreationDate,2024-01-09T22:17:35+09:00*%
%TF.ProjectId,f_panel,665f7061-6e65-46c2-9e6b-696361645f70,rev?*%
%TF.SameCoordinates,Original*%
%TF.FileFunction,Copper,L1,Top*%
%TF.FilePolarity,Positive*%
%FSLAX46Y46*%
G04 Gerber Fmt 4.6, Leading zero omitted, Abs format (unit mm)*
G04 Created by KiCad (PCBNEW 7.0.9) date 2024-01-09 22:17:35*
%MOMM*%
%LPD*%
G01*
G04 APERTURE LIST*
G04 APERTURE END LIST*
%TA.AperFunction,NonConductor*%
G36*
X162942539Y-50520185D02*
G01*
X162988294Y-50572989D01*
X162999500Y-50624500D01*
X162999500Y-112875500D01*
X162979815Y-112942539D01*
X162927011Y-112988294D01*
X162875500Y-112999500D01*
X100624500Y-112999500D01*
X100557461Y-112979815D01*
X100511706Y-112927011D01*
X100500500Y-112875500D01*
X100500500Y-109567763D01*
X102145787Y-109567763D01*
X102175413Y-109837013D01*
X102175415Y-109837024D01*
X102243926Y-110099082D01*
X102243928Y-110099088D01*
X102349870Y-110348390D01*
X102421998Y-110466575D01*
X102490979Y-110579605D01*
X102490986Y-110579615D01*
X102664253Y-110787819D01*
X102664259Y-110787824D01*
X102865998Y-110968582D01*
X103091910Y-111118044D01*
X103337176Y-111233020D01*
X103337183Y-111233022D01*
X103337185Y-111233023D01*
X103596557Y-111311057D01*
X103596564Y-111311058D01*
X103596569Y-111311060D01*
X103864561Y-111350500D01*
X103864566Y-111350500D01*
X104067636Y-111350500D01*
X104119133Y-111346730D01*
X104270156Y-111335677D01*
X104382758Y-111310593D01*
X104534546Y-111276782D01*
X104534548Y-111276781D01*
X104534553Y-111276780D01*
X104787558Y-111180014D01*
X105023777Y-111047441D01*
X105238177Y-110881888D01*
X105426186Y-110686881D01*
X105583799Y-110466579D01*
X105657787Y-110322669D01*
X105707649Y-110225690D01*
X105707651Y-110225684D01*
X105707656Y-110225675D01*
X105795118Y-109969305D01*
X105844319Y-109702933D01*
X105849259Y-109567763D01*
X157645787Y-109567763D01*
X157675413Y-109837013D01*
X157675415Y-109837024D01*
X157743926Y-110099082D01*
X157743928Y-110099088D01*
X157849870Y-110348390D01*
X157921998Y-110466575D01*
X157990979Y-110579605D01*
X157990986Y-110579615D01*
X158164253Y-110787819D01*
X158164259Y-110787824D01*
X158365998Y-110968582D01*
X158591910Y-111118044D01*
X158837176Y-111233020D01*
X158837183Y-111233022D01*
X158837185Y-111233023D01*
X159096557Y-111311057D01*
X159096564Y-111311058D01*
X159096569Y-111311060D01*
X159364561Y-111350500D01*
X159364566Y-111350500D01*
X159567636Y-111350500D01*
X159619133Y-111346730D01*
X159770156Y-111335677D01*
X159882758Y-111310593D01*
X160034546Y-111276782D01*
X160034548Y-111276781D01*
X160034553Y-111276780D01*
X160287558Y-111180014D01*
X160523777Y-111047441D01*
X160738177Y-110881888D01*
X160926186Y-110686881D01*
X161083799Y-110466579D01*
X161157787Y-110322669D01*
X161207649Y-110225690D01*
X161207651Y-110225684D01*
X161207656Y-110225675D01*
X161295118Y-109969305D01*
X161344319Y-109702933D01*
X161354212Y-109432235D01*
X161324586Y-109162982D01*
X161256072Y-108900912D01*
X161150130Y-108651610D01*
X161009018Y-108420390D01*
X160919747Y-108313119D01*
X160835746Y-108212180D01*
X160835740Y-108212175D01*
X160634002Y-108031418D01*
X160408092Y-107881957D01*
X160408090Y-107881956D01*
X160162824Y-107766980D01*
X160162819Y-107766978D01*
X160162814Y-107766976D01*
X159903442Y-107688942D01*
X159903428Y-107688939D01*
X159787791Y-107671921D01*
X159635439Y-107649500D01*
X159432369Y-107649500D01*
X159432364Y-107649500D01*
X159229844Y-107664323D01*
X159229831Y-107664325D01*
X158965453Y-107723217D01*
X158965446Y-107723220D01*
X158712439Y-107819987D01*
X158476226Y-107952557D01*
X158261822Y-108118112D01*
X158073822Y-108313109D01*
X158073816Y-108313116D01*
X157916202Y-108533419D01*
X157916199Y-108533424D01*
X157792350Y-108774309D01*
X157792343Y-108774327D01*
X157704884Y-109030685D01*
X157704881Y-109030699D01*
X157655681Y-109297068D01*
X157655680Y-109297075D01*
X157645787Y-109567763D01*
X105849259Y-109567763D01*
X105854212Y-109432235D01*
X105824586Y-109162982D01*
X105756072Y-108900912D01*
X105650130Y-108651610D01*
X105509018Y-108420390D01*
X105419747Y-108313119D01*
X105335746Y-108212180D01*
X105335740Y-108212175D01*
X105134002Y-108031418D01*
X104908092Y-107881957D01*
X104908090Y-107881956D01*
X104662824Y-107766980D01*
X104662819Y-107766978D01*
X104662814Y-107766976D01*
X104403442Y-107688942D01*
X104403428Y-107688939D01*
X104287791Y-107671921D01*
X104135439Y-107649500D01*
X103932369Y-107649500D01*
X103932364Y-107649500D01*
X103729844Y-107664323D01*
X103729831Y-107664325D01*
X103465453Y-107723217D01*
X103465446Y-107723220D01*
X103212439Y-107819987D01*
X102976226Y-107952557D01*
X102761822Y-108118112D01*
X102573822Y-108313109D01*
X102573816Y-108313116D01*
X102416202Y-108533419D01*
X102416199Y-108533424D01*
X102292350Y-108774309D01*
X102292343Y-108774327D01*
X102204884Y-109030685D01*
X102204881Y-109030699D01*
X102155681Y-109297068D01*
X102155680Y-109297075D01*
X102145787Y-109567763D01*
X100500500Y-109567763D01*
X100500500Y-100919361D01*
X124209500Y-100919361D01*
X124248793Y-101154837D01*
X124317509Y-101354998D01*
X124326307Y-101380625D01*
X124439929Y-101590579D01*
X124586557Y-101778968D01*
X124741019Y-101921160D01*
X124762196Y-101940655D01*
X124959822Y-102069770D01*
X124962048Y-102071224D01*
X125180667Y-102167119D01*
X125412089Y-102225723D01*
X125590420Y-102240500D01*
X125590422Y-102240500D01*
X125709578Y-102240500D01*
X125709580Y-102240500D01*
X125887911Y-102225723D01*
X126119333Y-102167119D01*
X126337952Y-102071224D01*
X126537806Y-101940653D01*
X126713443Y-101778968D01*
X126860071Y-101590579D01*
X126973693Y-101380625D01*
X127051207Y-101154834D01*
X127079426Y-100985726D01*
X128324500Y-100985726D01*
X128364660Y-101354996D01*
X128444511Y-101717763D01*
X128465133Y-101778965D01*
X128563117Y-102069770D01*
X128563119Y-102069775D01*
X128563121Y-102069780D01*
X128719080Y-102406881D01*
X128719083Y-102406887D01*
X128719085Y-102406890D01*
X128910587Y-102725170D01*
X129135379Y-103020879D01*
X129319177Y-103214912D01*
X129390819Y-103290543D01*
X129390824Y-103290548D01*
X129673922Y-103531015D01*
X129673926Y-103531018D01*
X129673931Y-103531022D01*
X129823887Y-103632694D01*
X129981373Y-103739473D01*
X129981377Y-103739475D01*
X130309557Y-103913466D01*
X130309561Y-103913467D01*
X130309566Y-103913470D01*
X130654629Y-104050955D01*
X130654636Y-104050957D01*
X130892394Y-104116969D01*
X131012537Y-104150327D01*
X131012548Y-104150328D01*
X131012549Y-104150329D01*
X131379079Y-104210419D01*
X131379083Y-104210419D01*
X131379094Y-104210421D01*
X131657209Y-104225500D01*
X131657211Y-104225500D01*
X131842789Y-104225500D01*
X131842791Y-104225500D01*
X132120906Y-104210421D01*
X132120917Y-104210419D01*
X132120920Y-104210419D01*
X132374641Y-104168823D01*
X132487463Y-104150327D01*
X132845374Y-104050954D01*
X133190443Y-103913466D01*
X133518623Y-103739475D01*
X133826069Y-103531022D01*
X134109174Y-103290550D01*
X134364621Y-103020879D01*
X134589413Y-102725170D01*
X134780915Y-102406890D01*
X134936883Y-102069770D01*
X135055488Y-101717764D01*
X135135339Y-101354998D01*
X135175500Y-100985725D01*
X135175500Y-100614275D01*
X135135339Y-100245002D01*
X135055488Y-99882236D01*
X134936883Y-99530230D01*
X134780915Y-99193110D01*
X134589413Y-98874830D01*
X134364621Y-98579121D01*
X134109174Y-98309450D01*
X134064103Y-98271166D01*
X133826077Y-98068984D01*
X133826071Y-98068980D01*
X133826069Y-98068978D01*
X133747324Y-98015587D01*
X133518626Y-97860526D01*
X133190451Y-97686538D01*
X133190433Y-97686529D01*
X132845370Y-97549044D01*
X132845363Y-97549042D01*
X132487476Y-97449676D01*
X132487450Y-97449670D01*
X132120920Y-97389580D01*
X132120907Y-97389579D01*
X132120906Y-97389579D01*
X131842791Y-97374500D01*
X131657209Y-97374500D01*
X131379094Y-97389579D01*
X131379092Y-97389579D01*
X131379079Y-97389580D01*
X131012549Y-97449670D01*
X131012523Y-97449676D01*
X130654636Y-97549042D01*
X130654629Y-97549044D01*
X130309566Y-97686529D01*
X130309548Y-97686538D01*
X129981373Y-97860526D01*
X129673932Y-98068977D01*
X129673922Y-98068984D01*
X129390824Y-98309451D01*
X129390819Y-98309456D01*
X129135379Y-98579121D01*
X129135371Y-98579130D01*
X128910584Y-98874834D01*
X128910582Y-98874837D01*
X128719080Y-99193118D01*
X128563121Y-99530219D01*
X128444511Y-99882236D01*
X128364660Y-100245003D01*
X128324500Y-100614273D01*
X128324500Y-100985726D01*
X127079426Y-100985726D01*
X127090500Y-100919363D01*
X127090500Y-100680637D01*
X127051207Y-100445166D01*
X126973693Y-100219375D01*
X126860071Y-100009421D01*
X126713443Y-99821032D01*
X126537806Y-99659347D01*
X126537803Y-99659344D01*
X126337951Y-99528775D01*
X126198058Y-99467413D01*
X126119333Y-99432881D01*
X126119331Y-99432880D01*
X125887907Y-99374276D01*
X125745002Y-99362435D01*
X125709580Y-99359500D01*
X125590420Y-99359500D01*
X125558197Y-99362170D01*
X125412092Y-99374276D01*
X125180668Y-99432880D01*
X124962048Y-99528775D01*
X124762196Y-99659344D01*
X124586555Y-99821034D01*
X124439930Y-100009419D01*
X124326307Y-100219374D01*
X124326304Y-100219382D01*
X124248793Y-100445162D01*
X124209500Y-100680638D01*
X124209500Y-100919361D01*
X100500500Y-100919361D01*
X100500500Y-54067763D01*
X102145787Y-54067763D01*
X102175413Y-54337013D01*
X102175415Y-54337024D01*
X102243926Y-54599082D01*
X102243928Y-54599088D01*
X102349870Y-54848390D01*
X102421998Y-54966575D01*
X102490979Y-55079605D01*
X102490986Y-55079615D01*
X102664253Y-55287819D01*
X102664259Y-55287824D01*
X102685317Y-55306692D01*
X102865998Y-55468582D01*
X103091910Y-55618044D01*
X103337176Y-55733020D01*
X103337183Y-55733022D01*
X103337185Y-55733023D01*
X103596557Y-55811057D01*
X103596564Y-55811058D01*
X103596569Y-55811060D01*
X103864561Y-55850500D01*
X103864566Y-55850500D01*
X104067636Y-55850500D01*
X104119133Y-55846730D01*
X104270156Y-55835677D01*
X104382758Y-55810593D01*
X104534546Y-55776782D01*
X104534548Y-55776781D01*
X104534553Y-55776780D01*
X104787558Y-55680014D01*
X105023777Y-55547441D01*
X105238177Y-55381888D01*
X105426186Y-55186881D01*
X105502652Y-55080001D01*
X112029532Y-55080001D01*
X112049364Y-55306686D01*
X112049366Y-55306697D01*
X112108258Y-55526488D01*
X112108261Y-55526497D01*
X112204431Y-55732732D01*
X112204432Y-55732734D01*
X112334954Y-55919141D01*
X112495858Y-56080045D01*
X112495861Y-56080047D01*
X112682266Y-56210568D01*
X112888504Y-56306739D01*
X113108308Y-56365635D01*
X113278216Y-56380500D01*
X113391784Y-56380500D01*
X113561692Y-56365635D01*
X113781496Y-56306739D01*
X113987734Y-56210568D01*
X114174139Y-56080047D01*
X114335047Y-55919139D01*
X114465568Y-55732734D01*
X114561739Y-55526496D01*
X114620635Y-55306692D01*
X114640468Y-55080000D01*
X114640433Y-55079605D01*
X114630545Y-54966579D01*
X114620635Y-54853308D01*
X114561739Y-54633504D01*
X114466843Y-54430000D01*
X136830000Y-54430000D01*
X136830000Y-70940000D01*
X153340000Y-70940000D01*
X153340000Y-54430000D01*
X136830000Y-54430000D01*
X114466843Y-54430000D01*
X114465568Y-54427266D01*
X114335047Y-54240861D01*
X114335045Y-54240858D01*
X114174141Y-54079954D01*
X114156730Y-54067763D01*
X157645787Y-54067763D01*
X157675413Y-54337013D01*
X157675415Y-54337024D01*
X157743926Y-54599082D01*
X157743928Y-54599088D01*
X157849870Y-54848390D01*
X157921998Y-54966575D01*
X157990979Y-55079605D01*
X157990986Y-55079615D01*
X158164253Y-55287819D01*
X158164259Y-55287824D01*
X158185317Y-55306692D01*
X158365998Y-55468582D01*
X158591910Y-55618044D01*
X158837176Y-55733020D01*
X158837183Y-55733022D01*
X158837185Y-55733023D01*
X159096557Y-55811057D01*
X159096564Y-55811058D01*
X159096569Y-55811060D01*
X159364561Y-55850500D01*
X159364566Y-55850500D01*
X159567636Y-55850500D01*
X159619133Y-55846730D01*
X159770156Y-55835677D01*
X159882758Y-55810593D01*
X160034546Y-55776782D01*
X160034548Y-55776781D01*
X160034553Y-55776780D01*
X160287558Y-55680014D01*
X160523777Y-55547441D01*
X160738177Y-55381888D01*
X160926186Y-55186881D01*
X161083799Y-54966579D01*
X161157787Y-54822669D01*
X161207649Y-54725690D01*
X161207651Y-54725684D01*
X161207656Y-54725675D01*
X161295118Y-54469305D01*
X161344319Y-54202933D01*
X161354212Y-53932235D01*
X161324586Y-53662982D01*
X161256072Y-53400912D01*
X161150130Y-53151610D01*
X161009018Y-52920390D01*
X160919747Y-52813119D01*
X160835746Y-52712180D01*
X160835740Y-52712175D01*
X160634002Y-52531418D01*
X160408092Y-52381957D01*
X160408090Y-52381956D01*
X160162824Y-52266980D01*
X160162819Y-52266978D01*
X160162814Y-52266976D01*
X159903442Y-52188942D01*
X159903428Y-52188939D01*
X159787791Y-52171921D01*
X159635439Y-52149500D01*
X159432369Y-52149500D01*
X159432364Y-52149500D01*
X159229844Y-52164323D01*
X159229831Y-52164325D01*
X158965453Y-52223217D01*
X158965446Y-52223220D01*
X158712439Y-52319987D01*
X158476226Y-52452557D01*
X158261822Y-52618112D01*
X158073822Y-52813109D01*
X158073816Y-52813116D01*
X157916202Y-53033419D01*
X157916199Y-53033424D01*
X157792350Y-53274309D01*
X157792343Y-53274327D01*
X157704884Y-53530685D01*
X157704881Y-53530699D01*
X157655681Y-53797068D01*
X157655680Y-53797075D01*
X157645787Y-54067763D01*
X114156730Y-54067763D01*
X113987734Y-53949432D01*
X113987732Y-53949431D01*
X113781497Y-53853261D01*
X113781488Y-53853258D01*
X113561697Y-53794366D01*
X113561687Y-53794364D01*
X113391784Y-53779500D01*
X113278216Y-53779500D01*
X113108312Y-53794364D01*
X113108302Y-53794366D01*
X112888511Y-53853258D01*
X112888502Y-53853261D01*
X112682267Y-53949431D01*
X112682265Y-53949432D01*
X112495858Y-54079954D01*
X112334954Y-54240858D01*
X112204432Y-54427265D01*
X112204431Y-54427267D01*
X112108261Y-54633502D01*
X112108258Y-54633511D01*
X112049366Y-54853302D01*
X112049364Y-54853313D01*
X112029532Y-55079998D01*
X112029532Y-55080001D01*
X105502652Y-55080001D01*
X105583799Y-54966579D01*
X105657787Y-54822669D01*
X105707649Y-54725690D01*
X105707651Y-54725684D01*
X105707656Y-54725675D01*
X105795118Y-54469305D01*
X105844319Y-54202933D01*
X105854212Y-53932235D01*
X105824586Y-53662982D01*
X105756072Y-53400912D01*
X105650130Y-53151610D01*
X105509018Y-52920390D01*
X105419747Y-52813119D01*
X105335746Y-52712180D01*
X105335740Y-52712175D01*
X105134002Y-52531418D01*
X104908092Y-52381957D01*
X104908090Y-52381956D01*
X104662824Y-52266980D01*
X104662819Y-52266978D01*
X104662814Y-52266976D01*
X104403442Y-52188942D01*
X104403428Y-52188939D01*
X104287791Y-52171921D01*
X104135439Y-52149500D01*
X103932369Y-52149500D01*
X103932364Y-52149500D01*
X103729844Y-52164323D01*
X103729831Y-52164325D01*
X103465453Y-52223217D01*
X103465446Y-52223220D01*
X103212439Y-52319987D01*
X102976226Y-52452557D01*
X102761822Y-52618112D01*
X102573822Y-52813109D01*
X102573816Y-52813116D01*
X102416202Y-53033419D01*
X102416199Y-53033424D01*
X102292350Y-53274309D01*
X102292343Y-53274327D01*
X102204884Y-53530685D01*
X102204881Y-53530699D01*
X102155681Y-53797068D01*
X102155680Y-53797075D01*
X102145787Y-54067763D01*
X100500500Y-54067763D01*
X100500500Y-50624500D01*
X100520185Y-50557461D01*
X100572989Y-50511706D01*
X100624500Y-50500500D01*
X162875500Y-50500500D01*
X162942539Y-50520185D01*
G37*
%TD.AperFunction*%
M02*
