  0
SECTION
  2
HEADER
  9
$ANGBASE
  50
0.0
  9
$ANGDIR
  70
1
  9
$MEASUREMENT
  70
0
  0
ENDSEC
  0
SECTION
  2
TABLES
  0
TABLE
  2
LTYPE
  70
4
  0
LTYPE
  5
40F
  2
CONTINUOUS
  70
0
  3
Solid line
  72
65
  73
0
  40
0.0
  0
LTYPE
  5
410
  2
DASHDOT
 70
0
  3
Dash Dot ____ _ ____ _
 72
65
 73
4
 40
2.0
 49
1.25
 49
-0.25
 49
0.25
 49
-0.25
  0
LTYPE
  5
411
  2
DASHED
 70
0
  3
Dashed __ __ __ __ __
 72
65
 73
2
 40
0.75
 49
0.5
 49
-0.25
  0
LTYPE
  5
43B
  2
DOTTED
 70
0
  3
Dotted .  .  .  .
 72
65
 73
2
 40
0.2
 49
0.0
 49
-0.2
  0
ENDTAB
  0
TABLE
  2
STYLE
  70
4
  0
STYLE
  2
KICAD
  70
0
  40
0
  41
1
  42
1
  50
0
  71
0
  3
isocp.shx
  0
STYLE
  2
KICADB
  70
0
  40
0
  41
1
  42
1
  50
0
  71
0
  3
isocp.shx
  0
STYLE
  2
KICADI
  70
0
  40
0
  41
1
  42
1
  50
15
  71
0
  3
isocp.shx
  0
STYLE
  2
KICADBI
  70
0
  40
0
  41
1
  42
1
  50
15
  71
0
  3
isocp.shx
  0
ENDTAB
  0
TABLE
  2
LAYER
  70
1
  0
LAYER
  2
BLACK
  70
0
  62
7
  6
CONTINUOUS
  0
ENDTAB
  0
ENDSEC
  0
SECTION
  2
ENTITIES
0
LINE
8
BLACK
6
CONTINUOUS
10
4.6812992125984252
20
-4.8468503937007874
11
4.6201181102362208
21
-4.8468503937007874
0
LINE
8
BLACK
6
CONTINUOUS
10
4.6201181102362208
20
-4.8468503937007874
11
4.6104330708661418
21
-4.8371653543307085
0
LINE
8
BLACK
6
CONTINUOUS
10
4.6104330708661418
20
-4.8371653543307085
11
4.6104330708661418
21
-4.814566929133858
0
LINE
8
BLACK
6
CONTINUOUS
10
4.6104330708661418
20
-4.814566929133858
11
4.6812992125984252
21
-4.814566929133858
0
LINE
8
BLACK
6
CONTINUOUS
10
4.6812992125984252
20
-4.814566929133858
11
4.6812992125984252
21
-4.8468503937007874
0
LINE
8
BLACK
6
CONTINUOUS
10
4.9135826771653539
20
-4.8468503937007874
11
4.8427165354330706
21
-4.8468503937007874
0
LINE
8
BLACK
6
CONTINUOUS
10
4.8427165354330706
20
-4.8468503937007874
11
4.8427165354330706
21
-4.814566929133858
0
LINE
8
BLACK
6
CONTINUOUS
10
4.8427165354330706
20
-4.814566929133858
11
4.9135826771653539
21
-4.814566929133858
0
LINE
8
BLACK
6
CONTINUOUS
10
4.9135826771653539
20
-4.814566929133858
11
4.9135826771653539
21
-4.8468503937007874
0
LINE
8
BLACK
6
CONTINUOUS
10
5.5312992125984248
20
-4.8468503937007874
11
5.4701181102362204
21
-4.8468503937007874
0
LINE
8
BLACK
6
CONTINUOUS
10
5.4701181102362204
20
-4.8468503937007874
11
5.4604330708661415
21
-4.8371653543307085
0
LINE
8
BLACK
6
CONTINUOUS
10
5.4604330708661415
20
-4.8371653543307085
11
5.4604330708661415
21
-4.814566929133858
0
LINE
8
BLACK
6
CONTINUOUS
10
5.4604330708661415
20
-4.814566929133858
11
5.5312992125984248
21
-4.814566929133858
0
LINE
8
BLACK
6
CONTINUOUS
10
5.5312992125984248
20
-4.814566929133858
11
5.5312992125984248
21
-4.8468503937007874
0
LINE
8
BLACK
6
CONTINUOUS
10
5.7635826771653544
20
-4.8468503937007874
11
5.6927165354330711
21
-4.8468503937007874
0
LINE
8
BLACK
6
CONTINUOUS
10
5.6927165354330711
20
-4.8468503937007874
11
5.6927165354330711
21
-4.814566929133858
0
LINE
8
BLACK
6
CONTINUOUS
10
5.6927165354330711
20
-4.814566929133858
11
5.7635826771653544
21
-4.814566929133858
0
LINE
8
BLACK
6
CONTINUOUS
10
5.7635826771653544
20
-4.814566929133858
11
5.7635826771653544
21
-4.8468503937007874
0
LINE
8
BLACK
6
CONTINUOUS
10
4.6812992125984252
20
-4.7877952755905513
11
4.6104330708661418
21
-4.7877952755905513
0
LINE
8
BLACK
6
CONTINUOUS
10
4.6104330708661418
20
-4.7877952755905513
11
4.6104330708661418
21
-4.7555118110236219
0
LINE
8
BLACK
6
CONTINUOUS
10
4.6104330708661418
20
-4.7555118110236219
11
4.6812992125984252
21
-4.7555118110236219
0
LINE
8
BLACK
6
CONTINUOUS
10
4.6812992125984252
20
-4.7555118110236219
11
4.6812992125984252
21
-4.7877952755905513
0
LINE
8
BLACK
6
CONTINUOUS
10
4.9135826771653539
20
-4.7877952755905513
11
4.8427165354330706
21
-4.7877952755905513
0
LINE
8
BLACK
6
CONTINUOUS
10
4.8427165354330706
20
-4.7877952755905513
11
4.8427165354330706
21
-4.7555118110236219
0
LINE
8
BLACK
6
CONTINUOUS
10
4.8427165354330706
20
-4.7555118110236219
11
4.9135826771653539
21
-4.7555118110236219
0
LINE
8
BLACK
6
CONTINUOUS
10
4.9135826771653539
20
-4.7555118110236219
11
4.9135826771653539
21
-4.7877952755905513
0
LINE
8
BLACK
6
CONTINUOUS
10
5.5312992125984248
20
-4.7877952755905513
11
5.4604330708661415
21
-4.7877952755905513
0
LINE
8
BLACK
6
CONTINUOUS
10
5.4604330708661415
20
-4.7877952755905513
11
5.4604330708661415
21
-4.7555118110236219
0
LINE
8
BLACK
6
CONTINUOUS
10
5.4604330708661415
20
-4.7555118110236219
11
5.5312992125984248
21
-4.7555118110236219
0
LINE
8
BLACK
6
CONTINUOUS
10
5.5312992125984248
20
-4.7555118110236219
11
5.5312992125984248
21
-4.7877952755905513
0
LINE
8
BLACK
6
CONTINUOUS
10
5.7635826771653544
20
-4.7877952755905513
11
5.6927165354330711
21
-4.7877952755905513
0
LINE
8
BLACK
6
CONTINUOUS
10
5.6927165354330711
20
-4.7877952755905513
11
5.6927165354330711
21
-4.7555118110236219
0
LINE
8
BLACK
6
CONTINUOUS
10
5.6927165354330711
20
-4.7555118110236219
11
5.7635826771653544
21
-4.7555118110236219
0
LINE
8
BLACK
6
CONTINUOUS
10
5.7635826771653544
20
-4.7555118110236219
11
5.7635826771653544
21
-4.7877952755905513
0
LINE
8
BLACK
6
CONTINUOUS
10
3.9846456692913383
20
-4.1887795275590554
11
3.9523622047244094
21
-4.1887795275590554
0
LINE
8
BLACK
6
CONTINUOUS
10
3.9523622047244094
20
-4.1887795275590554
11
3.9523622047244094
21
-4.1179133858267711
0
LINE
8
BLACK
6
CONTINUOUS
10
3.9523622047244094
20
-4.1179133858267711
11
3.9846456692913383
21
-4.1179133858267711
0
LINE
8
BLACK
6
CONTINUOUS
10
3.9846456692913383
20
-4.1179133858267711
11
3.9846456692913383
21
-4.1887795275590554
0
LINE
8
BLACK
6
CONTINUOUS
10
4.0437007874015745
20
-4.1887795275590554
11
4.0114173228346459
21
-4.1887795275590554
0
LINE
8
BLACK
6
CONTINUOUS
10
4.0114173228346459
20
-4.1887795275590554
11
4.0114173228346459
21
-4.1179133858267711
0
LINE
8
BLACK
6
CONTINUOUS
10
4.0114173228346459
20
-4.1179133858267711
11
4.0437007874015745
21
-4.1179133858267711
0
LINE
8
BLACK
6
CONTINUOUS
10
4.0437007874015745
20
-4.1179133858267711
11
4.0437007874015745
21
-4.1887795275590554
0
LINE
8
BLACK
6
CONTINUOUS
10
6.3625984251968504
20
-4.1887795275590554
11
6.3303149606299209
21
-4.1887795275590554
0
LINE
8
BLACK
6
CONTINUOUS
10
6.3303149606299209
20
-4.1887795275590554
11
6.3303149606299209
21
-4.1179133858267711
0
LINE
8
BLACK
6
CONTINUOUS
10
6.3303149606299209
20
-4.1179133858267711
11
6.3625984251968504
21
-4.1179133858267711
0
LINE
8
BLACK
6
CONTINUOUS
10
6.3625984251968504
20
-4.1179133858267711
11
6.3625984251968504
21
-4.1887795275590554
0
LINE
8
BLACK
6
CONTINUOUS
10
6.4216535433070865
20
-4.1790944881889764
11
6.4119685039370076
21
-4.1887795275590554
0
LINE
8
BLACK
6
CONTINUOUS
10
6.4119685039370076
20
-4.1887795275590554
11
6.3893700787401571
21
-4.1887795275590554
0
LINE
8
BLACK
6
CONTINUOUS
10
6.3893700787401571
20
-4.1887795275590554
11
6.3893700787401571
21
-4.1179133858267711
0
LINE
8
BLACK
6
CONTINUOUS
10
6.3893700787401571
20
-4.1179133858267711
11
6.4216535433070865
21
-4.1179133858267711
0
LINE
8
BLACK
6
CONTINUOUS
10
6.4216535433070865
20
-4.1179133858267711
11
6.4216535433070865
21
-4.1790944881889764
0
LINE
8
BLACK
6
CONTINUOUS
10
4.4594752362204719
20
-4.1398240157480313
11
4.4626683858267713
21
-4.1419575984251971
0
LINE
8
BLACK
6
CONTINUOUS
10
4.4626683858267713
20
-4.1419575984251971
11
4.4648019685039371
21
-4.1451507480314964
0
LINE
8
BLACK
6
CONTINUOUS
10
4.4648019685039371
20
-4.1451507480314964
11
4.465551181102362
21
-4.1489173228346452
0
LINE
8
BLACK
6
CONTINUOUS
10
4.465551181102362
20
-4.1489173228346452
11
4.465551181102362
21
-4.1754921259842517
0
LINE
8
BLACK
6
CONTINUOUS
10
4.465551181102362
20
-4.1754921259842517
11
4.4648019685039371
21
-4.1792587007874014
0
LINE
8
BLACK
6
CONTINUOUS
10
4.4648019685039371
20
-4.1792587007874014
11
4.4626683858267713
21
-4.1824518503937007
0
LINE
8
BLACK
6
CONTINUOUS
10
4.4626683858267713
20
-4.1824518503937007
11
4.4594752362204719
21
-4.1845854330708656
0
LINE
8
BLACK
6
CONTINUOUS
10
4.4594752362204719
20
-4.1845854330708656
11
4.4557086614173231
21
-4.1853346456692915
0
LINE
8
BLACK
6
CONTINUOUS
10
4.4557086614173231
20
-4.1853346456692915
11
4.4183070866141732
21
-4.1853346456692915
0
LINE
8
BLACK
6
CONTINUOUS
10
4.4183070866141732
20
-4.1853346456692915
11
4.4145405118110235
21
-4.1845854330708656
0
LINE
8
BLACK
6
CONTINUOUS
10
4.4145405118110235
20
-4.1845854330708656
11
4.4113473622047241
21
-4.1824518503937007
0
LINE
8
BLACK
6
CONTINUOUS
10
4.4113473622047241
20
-4.1824518503937007
11
4.4092137795275592
21
-4.1792587007874014
0
LINE
8
BLACK
6
CONTINUOUS
10
4.4092137795275592
20
-4.1792587007874014
11
4.4084645669291334
21
-4.1754921259842517
0
LINE
8
BLACK
6
CONTINUOUS
10
4.4084645669291334
20
-4.1754921259842517
11
4.4084645669291334
21
-4.1489173228346452
0
LINE
8
BLACK
6
CONTINUOUS
10
4.4084645669291334
20
-4.1489173228346452
11
4.4092137795275592
21
-4.1451507480314964
0
LINE
8
BLACK
6
CONTINUOUS
10
4.4092137795275592
20
-4.1451507480314964
11
4.4113473622047241
21
-4.1419575984251971
0
LINE
8
BLACK
6
CONTINUOUS
10
4.4113473622047241
20
-4.1419575984251971
11
4.4145405118110235
21
-4.1398240157480313
0
LINE
8
BLACK
6
CONTINUOUS
10
4.4145405118110235
20
-4.1398240157480313
11
4.4183070866141732
21
-4.1390748031496063
0
LINE
8
BLACK
6
CONTINUOUS
10
4.4183070866141732
20
-4.1390748031496063
11
4.4557086614173231
21
-4.1390748031496063
0
LINE
8
BLACK
6
CONTINUOUS
10
4.4557086614173231
20
-4.1390748031496063
11
4.4594752362204719
21
-4.1398240157480313
0
LINE
8
BLACK
6
CONTINUOUS
10
4.4594752362204719
20
-4.0581311023622044
11
4.4626683858267713
21
-4.0602646850393702
0
LINE
8
BLACK
6
CONTINUOUS
10
4.4626683858267713
20
-4.0602646850393702
11
4.4648019685039371
21
-4.0634578346456696
0
LINE
8
BLACK
6
CONTINUOUS
10
4.4648019685039371
20
-4.0634578346456696
11
4.465551181102362
21
-4.0672244094488192
0
LINE
8
BLACK
6
CONTINUOUS
10
4.465551181102362
20
-4.0672244094488192
11
4.465551181102362
21
-4.0937992125984248
0
LINE
8
BLACK
6
CONTINUOUS
10
4.465551181102362
20
-4.0937992125984248
11
4.4648019685039371
21
-4.0975657874015745
0
LINE
8
BLACK
6
CONTINUOUS
10
4.4648019685039371
20
-4.0975657874015745
11
4.4626683858267713
21
-4.1007589370078739
0
LINE
8
BLACK
6
CONTINUOUS
10
4.4626683858267713
20
-4.1007589370078739
11
4.4594752362204719
21
-4.1028925196850397
0
LINE
8
BLACK
6
CONTINUOUS
10
4.4594752362204719
20
-4.1028925196850397
11
4.4557086614173231
21
-4.1036417322834646
0
LINE
8
BLACK
6
CONTINUOUS
10
4.4557086614173231
20
-4.1036417322834646
11
4.4183070866141732
21
-4.1036417322834646
0
LINE
8
BLACK
6
CONTINUOUS
10
4.4183070866141732
20
-4.1036417322834646
11
4.4145405118110235
21
-4.1028925196850397
0
LINE
8
BLACK
6
CONTINUOUS
10
4.4145405118110235
20
-4.1028925196850397
11
4.4113473622047241
21
-4.1007589370078739
0
LINE
8
BLACK
6
CONTINUOUS
10
4.4113473622047241
20
-4.1007589370078739
11
4.4092137795275592
21
-4.0975657874015745
0
LINE
8
BLACK
6
CONTINUOUS
10
4.4092137795275592
20
-4.0975657874015745
11
4.4084645669291334
21
-4.0937992125984248
0
LINE
8
BLACK
6
CONTINUOUS
10
4.4084645669291334
20
-4.0937992125984248
11
4.4084645669291334
21
-4.0672244094488192
0
LINE
8
BLACK
6
CONTINUOUS
10
4.4084645669291334
20
-4.0672244094488192
11
4.4092137795275592
21
-4.0634578346456696
0
LINE
8
BLACK
6
CONTINUOUS
10
4.4092137795275592
20
-4.0634578346456696
11
4.4113473622047241
21
-4.0602646850393702
0
LINE
8
BLACK
6
CONTINUOUS
10
4.4113473622047241
20
-4.0602646850393702
11
4.4145405118110235
21
-4.0581311023622044
0
LINE
8
BLACK
6
CONTINUOUS
10
4.4145405118110235
20
-4.0581311023622044
11
4.4183070866141732
21
-4.0573818897637794
0
LINE
8
BLACK
6
CONTINUOUS
10
4.4183070866141732
20
-4.0573818897637794
11
4.4557086614173231
21
-4.0573818897637794
0
LINE
8
BLACK
6
CONTINUOUS
10
4.4557086614173231
20
-4.0573818897637794
11
4.4594752362204719
21
-4.0581311023622044
0
LINE
8
BLACK
6
CONTINUOUS
10
3.9846456692913383
20
-3.9564960629921258
11
3.9523622047244094
21
-3.9564960629921258
0
LINE
8
BLACK
6
CONTINUOUS
10
3.9523622047244094
20
-3.9564960629921258
11
3.9523622047244094
21
-3.8953149606299213
0
LINE
8
BLACK
6
CONTINUOUS
10
3.9523622047244094
20
-3.8953149606299213
11
3.9620472440944883
21
-3.8856299212598424
0
LINE
8
BLACK
6
CONTINUOUS
10
3.9620472440944883
20
-3.8856299212598424
11
3.9846456692913383
21
-3.8856299212598424
0
LINE
8
BLACK
6
CONTINUOUS
10
3.9846456692913383
20
-3.8856299212598424
11
3.9846456692913383
21
-3.9564960629921258
0
LINE
8
BLACK
6
CONTINUOUS
10
4.0437007874015745
20
-3.9564960629921258
11
4.0114173228346459
21
-3.9564960629921258
0
LINE
8
BLACK
6
CONTINUOUS
10
4.0114173228346459
20
-3.9564960629921258
11
4.0114173228346459
21
-3.8856299212598424
0
LINE
8
BLACK
6
CONTINUOUS
10
4.0114173228346459
20
-3.8856299212598424
11
4.0437007874015745
21
-3.8856299212598424
0
LINE
8
BLACK
6
CONTINUOUS
10
4.0437007874015745
20
-3.8856299212598424
11
4.0437007874015745
21
-3.9564960629921258
0
LINE
8
BLACK
6
CONTINUOUS
10
6.3625984251968504
20
-3.9564960629921258
11
6.3303149606299209
21
-3.9564960629921258
0
LINE
8
BLACK
6
CONTINUOUS
10
6.3303149606299209
20
-3.9564960629921258
11
6.3303149606299209
21
-3.8856299212598424
0
LINE
8
BLACK
6
CONTINUOUS
10
6.3303149606299209
20
-3.8856299212598424
11
6.3625984251968504
21
-3.8856299212598424
0
LINE
8
BLACK
6
CONTINUOUS
10
6.3625984251968504
20
-3.8856299212598424
11
6.3625984251968504
21
-3.9564960629921258
0
LINE
8
BLACK
6
CONTINUOUS
10
6.4216535433070865
20
-3.9564960629921258
11
6.3893700787401571
21
-3.9564960629921258
0
LINE
8
BLACK
6
CONTINUOUS
10
6.3893700787401571
20
-3.9564960629921258
11
6.3893700787401571
21
-3.8856299212598424
0
LINE
8
BLACK
6
CONTINUOUS
10
6.3893700787401571
20
-3.8856299212598424
11
6.4216535433070865
21
-3.8856299212598424
0
LINE
8
BLACK
6
CONTINUOUS
10
6.4216535433070865
20
-3.8856299212598424
11
6.4216535433070865
21
-3.9564960629921258
0
LINE
8
BLACK
6
CONTINUOUS
10
3.9846456692913383
20
-3.3387795275590548
11
3.9523622047244094
21
-3.3387795275590548
0
LINE
8
BLACK
6
CONTINUOUS
10
3.9523622047244094
20
-3.3387795275590548
11
3.9523622047244094
21
-3.2679133858267715
0
LINE
8
BLACK
6
CONTINUOUS
10
3.9523622047244094
20
-3.2679133858267715
11
3.9846456692913383
21
-3.2679133858267715
0
LINE
8
BLACK
6
CONTINUOUS
10
3.9846456692913383
20
-3.2679133858267715
11
3.9846456692913383
21
-3.3387795275590548
0
LINE
8
BLACK
6
CONTINUOUS
10
4.0437007874015745
20
-3.3387795275590548
11
4.0114173228346459
21
-3.3387795275590548
0
LINE
8
BLACK
6
CONTINUOUS
10
4.0114173228346459
20
-3.3387795275590548
11
4.0114173228346459
21
-3.2679133858267715
0
LINE
8
BLACK
6
CONTINUOUS
10
4.0114173228346459
20
-3.2679133858267715
11
4.0437007874015745
21
-3.2679133858267715
0
LINE
8
BLACK
6
CONTINUOUS
10
4.0437007874015745
20
-3.2679133858267715
11
4.0437007874015745
21
-3.3387795275590548
0
LINE
8
BLACK
6
CONTINUOUS
10
6.3625984251968504
20
-3.3387795275590548
11
6.3303149606299209
21
-3.3387795275590548
0
LINE
8
BLACK
6
CONTINUOUS
10
6.3303149606299209
20
-3.3387795275590548
11
6.3303149606299209
21
-3.2679133858267715
0
LINE
8
BLACK
6
CONTINUOUS
10
6.3303149606299209
20
-3.2679133858267715
11
6.3625984251968504
21
-3.2679133858267715
0
LINE
8
BLACK
6
CONTINUOUS
10
6.3625984251968504
20
-3.2679133858267715
11
6.3625984251968504
21
-3.3387795275590548
0
LINE
8
BLACK
6
CONTINUOUS
10
6.4216535433070865
20
-3.3290944881889764
11
6.4119685039370076
21
-3.3387795275590548
0
LINE
8
BLACK
6
CONTINUOUS
10
6.4119685039370076
20
-3.3387795275590548
11
6.3893700787401571
21
-3.3387795275590548
0
LINE
8
BLACK
6
CONTINUOUS
10
6.3893700787401571
20
-3.3387795275590548
11
6.3893700787401571
21
-3.2679133858267715
0
LINE
8
BLACK
6
CONTINUOUS
10
6.3893700787401571
20
-3.2679133858267715
11
6.4216535433070865
21
-3.2679133858267715
0
LINE
8
BLACK
6
CONTINUOUS
10
6.4216535433070865
20
-3.2679133858267715
11
6.4216535433070865
21
-3.3290944881889764
0
LINE
8
BLACK
6
CONTINUOUS
10
3.9846456692913383
20
-3.1064960629921261
11
3.9523622047244094
21
-3.1064960629921261
0
LINE
8
BLACK
6
CONTINUOUS
10
3.9523622047244094
20
-3.1064960629921261
11
3.9523622047244094
21
-3.0453149606299212
0
LINE
8
BLACK
6
CONTINUOUS
10
3.9523622047244094
20
-3.0453149606299212
11
3.9620472440944883
21
-3.0356299212598423
0
LINE
8
BLACK
6
CONTINUOUS
10
3.9620472440944883
20
-3.0356299212598423
11
3.9846456692913383
21
-3.0356299212598423
0
LINE
8
BLACK
6
CONTINUOUS
10
3.9846456692913383
20
-3.0356299212598423
11
3.9846456692913383
21
-3.1064960629921261
0
LINE
8
BLACK
6
CONTINUOUS
10
4.0437007874015745
20
-3.1064960629921261
11
4.0114173228346459
21
-3.1064960629921261
0
LINE
8
BLACK
6
CONTINUOUS
10
4.0114173228346459
20
-3.1064960629921261
11
4.0114173228346459
21
-3.0356299212598423
0
LINE
8
BLACK
6
CONTINUOUS
10
4.0114173228346459
20
-3.0356299212598423
11
4.0437007874015745
21
-3.0356299212598423
0
LINE
8
BLACK
6
CONTINUOUS
10
4.0437007874015745
20
-3.0356299212598423
11
4.0437007874015745
21
-3.1064960629921261
0
LINE
8
BLACK
6
CONTINUOUS
10
6.3625984251968504
20
-3.1064960629921261
11
6.3303149606299209
21
-3.1064960629921261
0
LINE
8
BLACK
6
CONTINUOUS
10
6.3303149606299209
20
-3.1064960629921261
11
6.3303149606299209
21
-3.0356299212598423
0
LINE
8
BLACK
6
CONTINUOUS
10
6.3303149606299209
20
-3.0356299212598423
11
6.3625984251968504
21
-3.0356299212598423
0
LINE
8
BLACK
6
CONTINUOUS
10
6.3625984251968504
20
-3.0356299212598423
11
6.3625984251968504
21
-3.1064960629921261
0
LINE
8
BLACK
6
CONTINUOUS
10
6.4216535433070865
20
-3.1064960629921261
11
6.3893700787401571
21
-3.1064960629921261
0
LINE
8
BLACK
6
CONTINUOUS
10
6.3893700787401571
20
-3.1064960629921261
11
6.3893700787401571
21
-3.0356299212598423
0
LINE
8
BLACK
6
CONTINUOUS
10
6.3893700787401571
20
-3.0356299212598423
11
6.4216535433070865
21
-3.0356299212598423
0
LINE
8
BLACK
6
CONTINUOUS
10
6.4216535433070865
20
-3.0356299212598423
11
6.4216535433070865
21
-3.1064960629921261
0
LINE
8
BLACK
6
CONTINUOUS
10
4.6812992125984252
20
-2.4688976377952754
11
4.6104330708661418
21
-2.4688976377952754
0
LINE
8
BLACK
6
CONTINUOUS
10
4.6104330708661418
20
-2.4688976377952754
11
4.6104330708661418
21
-2.4366141732283464
0
LINE
8
BLACK
6
CONTINUOUS
10
4.6104330708661418
20
-2.4366141732283464
11
4.6812992125984252
21
-2.4366141732283464
0
LINE
8
BLACK
6
CONTINUOUS
10
4.6812992125984252
20
-2.4366141732283464
11
4.6812992125984252
21
-2.4688976377952754
0
LINE
8
BLACK
6
CONTINUOUS
10
4.9135826771653539
20
-2.4688976377952754
11
4.8427165354330706
21
-2.4688976377952754
0
LINE
8
BLACK
6
CONTINUOUS
10
4.8427165354330706
20
-2.4688976377952754
11
4.8427165354330706
21
-2.4366141732283464
0
LINE
8
BLACK
6
CONTINUOUS
10
4.8427165354330706
20
-2.4366141732283464
11
4.9135826771653539
21
-2.4366141732283464
0
LINE
8
BLACK
6
CONTINUOUS
10
4.9135826771653539
20
-2.4366141732283464
11
4.9135826771653539
21
-2.4688976377952754
0
LINE
8
BLACK
6
CONTINUOUS
10
5.5312992125984248
20
-2.4688976377952754
11
5.4604330708661415
21
-2.4688976377952754
0
LINE
8
BLACK
6
CONTINUOUS
10
5.4604330708661415
20
-2.4688976377952754
11
5.4604330708661415
21
-2.4366141732283464
0
LINE
8
BLACK
6
CONTINUOUS
10
5.4604330708661415
20
-2.4366141732283464
11
5.5312992125984248
21
-2.4366141732283464
0
LINE
8
BLACK
6
CONTINUOUS
10
5.5312992125984248
20
-2.4366141732283464
11
5.5312992125984248
21
-2.4688976377952754
0
LINE
8
BLACK
6
CONTINUOUS
10
5.7635826771653544
20
-2.4688976377952754
11
5.6927165354330711
21
-2.4688976377952754
0
LINE
8
BLACK
6
CONTINUOUS
10
5.6927165354330711
20
-2.4688976377952754
11
5.6927165354330711
21
-2.4366141732283464
0
LINE
8
BLACK
6
CONTINUOUS
10
5.6927165354330711
20
-2.4366141732283464
11
5.7635826771653544
21
-2.4366141732283464
0
LINE
8
BLACK
6
CONTINUOUS
10
5.7635826771653544
20
-2.4366141732283464
11
5.7635826771653544
21
-2.4688976377952754
0
LINE
8
BLACK
6
CONTINUOUS
10
4.6812992125984252
20
-2.4098425196850393
11
4.6104330708661418
21
-2.4098425196850393
0
LINE
8
BLACK
6
CONTINUOUS
10
4.6104330708661418
20
-2.4098425196850393
11
4.6104330708661418
21
-2.3775590551181103
0
LINE
8
BLACK
6
CONTINUOUS
10
4.6104330708661418
20
-2.3775590551181103
11
4.6812992125984252
21
-2.3775590551181103
0
LINE
8
BLACK
6
CONTINUOUS
10
4.6812992125984252
20
-2.3775590551181103
11
4.6812992125984252
21
-2.4098425196850393
0
LINE
8
BLACK
6
CONTINUOUS
10
4.9135826771653539
20
-2.3872440944881888
11
4.9135826771653539
21
-2.4098425196850393
0
LINE
8
BLACK
6
CONTINUOUS
10
4.9135826771653539
20
-2.4098425196850393
11
4.8427165354330706
21
-2.4098425196850393
0
LINE
8
BLACK
6
CONTINUOUS
10
4.8427165354330706
20
-2.4098425196850393
11
4.8427165354330706
21
-2.3775590551181103
0
LINE
8
BLACK
6
CONTINUOUS
10
4.8427165354330706
20
-2.3775590551181103
11
4.9038976377952759
21
-2.3775590551181103
0
LINE
8
BLACK
6
CONTINUOUS
10
4.9038976377952759
20
-2.3775590551181103
11
4.9135826771653539
21
-2.3872440944881888
0
LINE
8
BLACK
6
CONTINUOUS
10
5.5312992125984248
20
-2.4098425196850393
11
5.4604330708661415
21
-2.4098425196850393
0
LINE
8
BLACK
6
CONTINUOUS
10
5.4604330708661415
20
-2.4098425196850393
11
5.4604330708661415
21
-2.3775590551181103
0
LINE
8
BLACK
6
CONTINUOUS
10
5.4604330708661415
20
-2.3775590551181103
11
5.5312992125984248
21
-2.3775590551181103
0
LINE
8
BLACK
6
CONTINUOUS
10
5.5312992125984248
20
-2.3775590551181103
11
5.5312992125984248
21
-2.4098425196850393
0
LINE
8
BLACK
6
CONTINUOUS
10
5.7635826771653544
20
-2.3872440944881888
11
5.7635826771653544
21
-2.4098425196850393
0
LINE
8
BLACK
6
CONTINUOUS
10
5.7635826771653544
20
-2.4098425196850393
11
5.6927165354330711
21
-2.4098425196850393
0
LINE
8
BLACK
6
CONTINUOUS
10
5.6927165354330711
20
-2.4098425196850393
11
5.6927165354330711
21
-2.3775590551181103
0
LINE
8
BLACK
6
CONTINUOUS
10
5.6927165354330711
20
-2.3775590551181103
11
5.7538976377952755
21
-2.3775590551181103
0
LINE
8
BLACK
6
CONTINUOUS
10
5.7538976377952755
20
-2.3775590551181103
11
5.7635826771653544
21
-2.3872440944881888
  0
ENDSEC
  0
EOF
