%TF.GenerationSoftware,KiCad,Pcbnew,7.0.9*%
%TF.CreationDate,2023-12-12T23:07:43+09:00*%
%TF.ProjectId,shikisaku,7368696b-6973-4616-9b75-2e6b69636164,rev?*%
%TF.SameCoordinates,Original*%
%TF.FileFunction,Legend,Top*%
%TF.FilePolarity,Positive*%
%FSLAX46Y46*%
G04 Gerber Fmt 4.6, Leading zero omitted, Abs format (unit mm)*
G04 Created by KiCad (PCBNEW 7.0.9) date 2023-12-12 23:07:43*
%MOMM*%
%LPD*%
G01*
G04 APERTURE LIST*
%ADD10C,0.150000*%
%ADD11C,0.153000*%
%ADD12C,0.100000*%
%ADD13C,0.120000*%
G04 APERTURE END LIST*
D10*
X101000000Y-68000000D02*
X108000000Y-68000000D01*
X108000000Y-68000000D02*
X108000000Y-61000000D01*
X108000000Y-115500000D02*
X108000000Y-122500000D01*
X162500000Y-115500000D02*
X155500000Y-115500000D01*
X155500000Y-115500000D02*
X155500000Y-122500000D01*
X101000000Y-115500000D02*
X108000000Y-115500000D01*
X155500000Y-61000000D02*
X155500000Y-68000000D01*
X155500000Y-68000000D02*
X162500000Y-68000000D01*
D11*
X115939286Y-88347044D02*
X116082143Y-88394663D01*
X116082143Y-88394663D02*
X116320238Y-88394663D01*
X116320238Y-88394663D02*
X116415476Y-88347044D01*
X116415476Y-88347044D02*
X116463095Y-88299424D01*
X116463095Y-88299424D02*
X116510714Y-88204186D01*
X116510714Y-88204186D02*
X116510714Y-88108948D01*
X116510714Y-88108948D02*
X116463095Y-88013710D01*
X116463095Y-88013710D02*
X116415476Y-87966091D01*
X116415476Y-87966091D02*
X116320238Y-87918472D01*
X116320238Y-87918472D02*
X116129762Y-87870853D01*
X116129762Y-87870853D02*
X116034524Y-87823234D01*
X116034524Y-87823234D02*
X115986905Y-87775615D01*
X115986905Y-87775615D02*
X115939286Y-87680377D01*
X115939286Y-87680377D02*
X115939286Y-87585139D01*
X115939286Y-87585139D02*
X115986905Y-87489901D01*
X115986905Y-87489901D02*
X116034524Y-87442282D01*
X116034524Y-87442282D02*
X116129762Y-87394663D01*
X116129762Y-87394663D02*
X116367857Y-87394663D01*
X116367857Y-87394663D02*
X116510714Y-87442282D01*
X116844048Y-87394663D02*
X117082143Y-88394663D01*
X117082143Y-88394663D02*
X117272619Y-87680377D01*
X117272619Y-87680377D02*
X117463095Y-88394663D01*
X117463095Y-88394663D02*
X117701191Y-87394663D01*
X117844048Y-88489901D02*
X118605952Y-88489901D01*
X118844048Y-88394663D02*
X118844048Y-87394663D01*
X118844048Y-87394663D02*
X119225000Y-87394663D01*
X119225000Y-87394663D02*
X119320238Y-87442282D01*
X119320238Y-87442282D02*
X119367857Y-87489901D01*
X119367857Y-87489901D02*
X119415476Y-87585139D01*
X119415476Y-87585139D02*
X119415476Y-87727996D01*
X119415476Y-87727996D02*
X119367857Y-87823234D01*
X119367857Y-87823234D02*
X119320238Y-87870853D01*
X119320238Y-87870853D02*
X119225000Y-87918472D01*
X119225000Y-87918472D02*
X118844048Y-87918472D01*
X120034524Y-87394663D02*
X120225000Y-87394663D01*
X120225000Y-87394663D02*
X120320238Y-87442282D01*
X120320238Y-87442282D02*
X120415476Y-87537520D01*
X120415476Y-87537520D02*
X120463095Y-87727996D01*
X120463095Y-87727996D02*
X120463095Y-88061329D01*
X120463095Y-88061329D02*
X120415476Y-88251805D01*
X120415476Y-88251805D02*
X120320238Y-88347044D01*
X120320238Y-88347044D02*
X120225000Y-88394663D01*
X120225000Y-88394663D02*
X120034524Y-88394663D01*
X120034524Y-88394663D02*
X119939286Y-88347044D01*
X119939286Y-88347044D02*
X119844048Y-88251805D01*
X119844048Y-88251805D02*
X119796429Y-88061329D01*
X119796429Y-88061329D02*
X119796429Y-87727996D01*
X119796429Y-87727996D02*
X119844048Y-87537520D01*
X119844048Y-87537520D02*
X119939286Y-87442282D01*
X119939286Y-87442282D02*
X120034524Y-87394663D01*
X120796429Y-87394663D02*
X121034524Y-88394663D01*
X121034524Y-88394663D02*
X121225000Y-87680377D01*
X121225000Y-87680377D02*
X121415476Y-88394663D01*
X121415476Y-88394663D02*
X121653572Y-87394663D01*
X122034524Y-87870853D02*
X122367857Y-87870853D01*
X122510714Y-88394663D02*
X122034524Y-88394663D01*
X122034524Y-88394663D02*
X122034524Y-87394663D01*
X122034524Y-87394663D02*
X122510714Y-87394663D01*
X123510714Y-88394663D02*
X123177381Y-87918472D01*
X122939286Y-88394663D02*
X122939286Y-87394663D01*
X122939286Y-87394663D02*
X123320238Y-87394663D01*
X123320238Y-87394663D02*
X123415476Y-87442282D01*
X123415476Y-87442282D02*
X123463095Y-87489901D01*
X123463095Y-87489901D02*
X123510714Y-87585139D01*
X123510714Y-87585139D02*
X123510714Y-87727996D01*
X123510714Y-87727996D02*
X123463095Y-87823234D01*
X123463095Y-87823234D02*
X123415476Y-87870853D01*
X123415476Y-87870853D02*
X123320238Y-87918472D01*
X123320238Y-87918472D02*
X122939286Y-87918472D01*
X113900853Y-92869047D02*
X113948472Y-92726190D01*
X113948472Y-92726190D02*
X113996091Y-92678571D01*
X113996091Y-92678571D02*
X114091329Y-92630952D01*
X114091329Y-92630952D02*
X114234186Y-92630952D01*
X114234186Y-92630952D02*
X114329424Y-92678571D01*
X114329424Y-92678571D02*
X114377044Y-92726190D01*
X114377044Y-92726190D02*
X114424663Y-92821428D01*
X114424663Y-92821428D02*
X114424663Y-93202380D01*
X114424663Y-93202380D02*
X113424663Y-93202380D01*
X113424663Y-93202380D02*
X113424663Y-92869047D01*
X113424663Y-92869047D02*
X113472282Y-92773809D01*
X113472282Y-92773809D02*
X113519901Y-92726190D01*
X113519901Y-92726190D02*
X113615139Y-92678571D01*
X113615139Y-92678571D02*
X113710377Y-92678571D01*
X113710377Y-92678571D02*
X113805615Y-92726190D01*
X113805615Y-92726190D02*
X113853234Y-92773809D01*
X113853234Y-92773809D02*
X113900853Y-92869047D01*
X113900853Y-92869047D02*
X113900853Y-93202380D01*
X114138948Y-92249999D02*
X114138948Y-91773809D01*
X114424663Y-92345237D02*
X113424663Y-92011904D01*
X113424663Y-92011904D02*
X114424663Y-91678571D01*
X113424663Y-91488094D02*
X113424663Y-90916666D01*
X114424663Y-91202380D02*
X113424663Y-91202380D01*
X113424663Y-90726189D02*
X113424663Y-90154761D01*
X114424663Y-90440475D02*
X113424663Y-90440475D01*
X118288095Y-77234663D02*
X118288095Y-78044186D01*
X118288095Y-78044186D02*
X118335714Y-78139424D01*
X118335714Y-78139424D02*
X118383333Y-78187044D01*
X118383333Y-78187044D02*
X118478571Y-78234663D01*
X118478571Y-78234663D02*
X118669047Y-78234663D01*
X118669047Y-78234663D02*
X118764285Y-78187044D01*
X118764285Y-78187044D02*
X118811904Y-78139424D01*
X118811904Y-78139424D02*
X118859523Y-78044186D01*
X118859523Y-78044186D02*
X118859523Y-77234663D01*
X119859523Y-78234663D02*
X119288095Y-78234663D01*
X119573809Y-78234663D02*
X119573809Y-77234663D01*
X119573809Y-77234663D02*
X119478571Y-77377520D01*
X119478571Y-77377520D02*
X119383333Y-77472758D01*
X119383333Y-77472758D02*
X119288095Y-77520377D01*
X121460336Y-101148095D02*
X120650813Y-101148095D01*
X120650813Y-101148095D02*
X120555575Y-101195714D01*
X120555575Y-101195714D02*
X120507956Y-101243333D01*
X120507956Y-101243333D02*
X120460336Y-101338571D01*
X120460336Y-101338571D02*
X120460336Y-101529047D01*
X120460336Y-101529047D02*
X120507956Y-101624285D01*
X120507956Y-101624285D02*
X120555575Y-101671904D01*
X120555575Y-101671904D02*
X120650813Y-101719523D01*
X120650813Y-101719523D02*
X121460336Y-101719523D01*
X121460336Y-102671904D02*
X121460336Y-102195714D01*
X121460336Y-102195714D02*
X120984146Y-102148095D01*
X120984146Y-102148095D02*
X121031765Y-102195714D01*
X121031765Y-102195714D02*
X121079384Y-102290952D01*
X121079384Y-102290952D02*
X121079384Y-102529047D01*
X121079384Y-102529047D02*
X121031765Y-102624285D01*
X121031765Y-102624285D02*
X120984146Y-102671904D01*
X120984146Y-102671904D02*
X120888908Y-102719523D01*
X120888908Y-102719523D02*
X120650813Y-102719523D01*
X120650813Y-102719523D02*
X120555575Y-102671904D01*
X120555575Y-102671904D02*
X120507956Y-102624285D01*
X120507956Y-102624285D02*
X120460336Y-102529047D01*
X120460336Y-102529047D02*
X120460336Y-102290952D01*
X120460336Y-102290952D02*
X120507956Y-102195714D01*
X120507956Y-102195714D02*
X120555575Y-102148095D01*
X136750952Y-67392044D02*
X136893809Y-67439663D01*
X136893809Y-67439663D02*
X137131904Y-67439663D01*
X137131904Y-67439663D02*
X137227142Y-67392044D01*
X137227142Y-67392044D02*
X137274761Y-67344424D01*
X137274761Y-67344424D02*
X137322380Y-67249186D01*
X137322380Y-67249186D02*
X137322380Y-67153948D01*
X137322380Y-67153948D02*
X137274761Y-67058710D01*
X137274761Y-67058710D02*
X137227142Y-67011091D01*
X137227142Y-67011091D02*
X137131904Y-66963472D01*
X137131904Y-66963472D02*
X136941428Y-66915853D01*
X136941428Y-66915853D02*
X136846190Y-66868234D01*
X136846190Y-66868234D02*
X136798571Y-66820615D01*
X136798571Y-66820615D02*
X136750952Y-66725377D01*
X136750952Y-66725377D02*
X136750952Y-66630139D01*
X136750952Y-66630139D02*
X136798571Y-66534901D01*
X136798571Y-66534901D02*
X136846190Y-66487282D01*
X136846190Y-66487282D02*
X136941428Y-66439663D01*
X136941428Y-66439663D02*
X137179523Y-66439663D01*
X137179523Y-66439663D02*
X137322380Y-66487282D01*
X137655714Y-66439663D02*
X137893809Y-67439663D01*
X137893809Y-67439663D02*
X138084285Y-66725377D01*
X138084285Y-66725377D02*
X138274761Y-67439663D01*
X138274761Y-67439663D02*
X138512857Y-66439663D01*
X138655714Y-67534901D02*
X139417618Y-67534901D01*
X139655714Y-67439663D02*
X139655714Y-66439663D01*
X140227142Y-67439663D02*
X139798571Y-66868234D01*
X140227142Y-66439663D02*
X139655714Y-67011091D01*
X140655714Y-66915853D02*
X140989047Y-66915853D01*
X141131904Y-67439663D02*
X140655714Y-67439663D01*
X140655714Y-67439663D02*
X140655714Y-66439663D01*
X140655714Y-66439663D02*
X141131904Y-66439663D01*
X141750952Y-66963472D02*
X141750952Y-67439663D01*
X141417619Y-66439663D02*
X141750952Y-66963472D01*
X141750952Y-66963472D02*
X142084285Y-66439663D01*
X110739762Y-62312044D02*
X110882619Y-62359663D01*
X110882619Y-62359663D02*
X111120714Y-62359663D01*
X111120714Y-62359663D02*
X111215952Y-62312044D01*
X111215952Y-62312044D02*
X111263571Y-62264424D01*
X111263571Y-62264424D02*
X111311190Y-62169186D01*
X111311190Y-62169186D02*
X111311190Y-62073948D01*
X111311190Y-62073948D02*
X111263571Y-61978710D01*
X111263571Y-61978710D02*
X111215952Y-61931091D01*
X111215952Y-61931091D02*
X111120714Y-61883472D01*
X111120714Y-61883472D02*
X110930238Y-61835853D01*
X110930238Y-61835853D02*
X110835000Y-61788234D01*
X110835000Y-61788234D02*
X110787381Y-61740615D01*
X110787381Y-61740615D02*
X110739762Y-61645377D01*
X110739762Y-61645377D02*
X110739762Y-61550139D01*
X110739762Y-61550139D02*
X110787381Y-61454901D01*
X110787381Y-61454901D02*
X110835000Y-61407282D01*
X110835000Y-61407282D02*
X110930238Y-61359663D01*
X110930238Y-61359663D02*
X111168333Y-61359663D01*
X111168333Y-61359663D02*
X111311190Y-61407282D01*
X111644524Y-61359663D02*
X111882619Y-62359663D01*
X111882619Y-62359663D02*
X112073095Y-61645377D01*
X112073095Y-61645377D02*
X112263571Y-62359663D01*
X112263571Y-62359663D02*
X112501667Y-61359663D01*
X112644524Y-62454901D02*
X113406428Y-62454901D01*
X114215952Y-62359663D02*
X113882619Y-61883472D01*
X113644524Y-62359663D02*
X113644524Y-61359663D01*
X113644524Y-61359663D02*
X114025476Y-61359663D01*
X114025476Y-61359663D02*
X114120714Y-61407282D01*
X114120714Y-61407282D02*
X114168333Y-61454901D01*
X114168333Y-61454901D02*
X114215952Y-61550139D01*
X114215952Y-61550139D02*
X114215952Y-61692996D01*
X114215952Y-61692996D02*
X114168333Y-61788234D01*
X114168333Y-61788234D02*
X114120714Y-61835853D01*
X114120714Y-61835853D02*
X114025476Y-61883472D01*
X114025476Y-61883472D02*
X113644524Y-61883472D01*
X114596905Y-62312044D02*
X114739762Y-62359663D01*
X114739762Y-62359663D02*
X114977857Y-62359663D01*
X114977857Y-62359663D02*
X115073095Y-62312044D01*
X115073095Y-62312044D02*
X115120714Y-62264424D01*
X115120714Y-62264424D02*
X115168333Y-62169186D01*
X115168333Y-62169186D02*
X115168333Y-62073948D01*
X115168333Y-62073948D02*
X115120714Y-61978710D01*
X115120714Y-61978710D02*
X115073095Y-61931091D01*
X115073095Y-61931091D02*
X114977857Y-61883472D01*
X114977857Y-61883472D02*
X114787381Y-61835853D01*
X114787381Y-61835853D02*
X114692143Y-61788234D01*
X114692143Y-61788234D02*
X114644524Y-61740615D01*
X114644524Y-61740615D02*
X114596905Y-61645377D01*
X114596905Y-61645377D02*
X114596905Y-61550139D01*
X114596905Y-61550139D02*
X114644524Y-61454901D01*
X114644524Y-61454901D02*
X114692143Y-61407282D01*
X114692143Y-61407282D02*
X114787381Y-61359663D01*
X114787381Y-61359663D02*
X115025476Y-61359663D01*
X115025476Y-61359663D02*
X115168333Y-61407282D01*
X115454048Y-61359663D02*
X116025476Y-61359663D01*
X115739762Y-62359663D02*
X115739762Y-61359663D01*
X111154424Y-104849166D02*
X111202044Y-104896785D01*
X111202044Y-104896785D02*
X111249663Y-105039642D01*
X111249663Y-105039642D02*
X111249663Y-105134880D01*
X111249663Y-105134880D02*
X111202044Y-105277737D01*
X111202044Y-105277737D02*
X111106805Y-105372975D01*
X111106805Y-105372975D02*
X111011567Y-105420594D01*
X111011567Y-105420594D02*
X110821091Y-105468213D01*
X110821091Y-105468213D02*
X110678234Y-105468213D01*
X110678234Y-105468213D02*
X110487758Y-105420594D01*
X110487758Y-105420594D02*
X110392520Y-105372975D01*
X110392520Y-105372975D02*
X110297282Y-105277737D01*
X110297282Y-105277737D02*
X110249663Y-105134880D01*
X110249663Y-105134880D02*
X110249663Y-105039642D01*
X110249663Y-105039642D02*
X110297282Y-104896785D01*
X110297282Y-104896785D02*
X110344901Y-104849166D01*
X111249663Y-103896785D02*
X111249663Y-104468213D01*
X111249663Y-104182499D02*
X110249663Y-104182499D01*
X110249663Y-104182499D02*
X110392520Y-104277737D01*
X110392520Y-104277737D02*
X110487758Y-104372975D01*
X110487758Y-104372975D02*
X110535377Y-104468213D01*
X108723333Y-102194663D02*
X108390000Y-101718472D01*
X108151905Y-102194663D02*
X108151905Y-101194663D01*
X108151905Y-101194663D02*
X108532857Y-101194663D01*
X108532857Y-101194663D02*
X108628095Y-101242282D01*
X108628095Y-101242282D02*
X108675714Y-101289901D01*
X108675714Y-101289901D02*
X108723333Y-101385139D01*
X108723333Y-101385139D02*
X108723333Y-101527996D01*
X108723333Y-101527996D02*
X108675714Y-101623234D01*
X108675714Y-101623234D02*
X108628095Y-101670853D01*
X108628095Y-101670853D02*
X108532857Y-101718472D01*
X108532857Y-101718472D02*
X108151905Y-101718472D01*
X109675714Y-102194663D02*
X109104286Y-102194663D01*
X109390000Y-102194663D02*
X109390000Y-101194663D01*
X109390000Y-101194663D02*
X109294762Y-101337520D01*
X109294762Y-101337520D02*
X109199524Y-101432758D01*
X109199524Y-101432758D02*
X109104286Y-101480377D01*
D12*
%TO.C,D5*%
X163250000Y-82994000D02*
X163250000Y-84944000D01*
X163250000Y-84944000D02*
X162300000Y-84944000D01*
%TO.C,D2*%
X118916000Y-123250000D02*
X116966000Y-123250000D01*
X116966000Y-123250000D02*
X116966000Y-122300000D01*
%TO.C,D8*%
X100250000Y-78916000D02*
X100250000Y-76966000D01*
X100250000Y-76966000D02*
X101200000Y-76966000D01*
%TO.C,D4*%
X163250000Y-104584000D02*
X163250000Y-106534000D01*
X163250000Y-106534000D02*
X162300000Y-106534000D01*
%TO.C,D1*%
X100250000Y-100506000D02*
X100250000Y-98556000D01*
X100250000Y-98556000D02*
X101200000Y-98556000D01*
%TO.C,D3*%
X140506000Y-123250000D02*
X138556000Y-123250000D01*
X138556000Y-123250000D02*
X138556000Y-122300000D01*
%TO.C,D6*%
X144584000Y-60250000D02*
X146534000Y-60250000D01*
X146534000Y-60250000D02*
X146534000Y-61200000D01*
%TO.C,D7*%
X122994000Y-60250000D02*
X124944000Y-60250000D01*
X124944000Y-60250000D02*
X124944000Y-61200000D01*
%TO.C,G\u002A\u002A\u002A*%
G36*
X131254015Y-109764332D02*
G01*
X131403101Y-109794090D01*
X131535839Y-109840412D01*
X131546038Y-109845027D01*
X131633386Y-109889834D01*
X131699936Y-109935111D01*
X131751293Y-109985066D01*
X131776426Y-110017984D01*
X131814300Y-110073031D01*
X131972150Y-110074613D01*
X132182016Y-110088481D01*
X132400968Y-110125413D01*
X132626321Y-110184543D01*
X132855391Y-110265008D01*
X133085493Y-110365942D01*
X133313942Y-110486481D01*
X133390000Y-110531315D01*
X133503333Y-110599940D01*
X133683333Y-110565494D01*
X133818433Y-110540707D01*
X133938009Y-110521474D01*
X134049787Y-110506994D01*
X134161495Y-110496465D01*
X134280860Y-110489082D01*
X134415609Y-110484045D01*
X134484380Y-110482306D01*
X134594406Y-110480076D01*
X134680883Y-110479209D01*
X134746915Y-110480159D01*
X134795605Y-110483384D01*
X134830055Y-110489338D01*
X134853368Y-110498479D01*
X134868647Y-110511262D01*
X134878996Y-110528143D01*
X134884386Y-110541102D01*
X134888355Y-110571543D01*
X134886952Y-110625298D01*
X134880601Y-110699652D01*
X134869728Y-110791889D01*
X134854758Y-110899295D01*
X134836115Y-111019154D01*
X134814227Y-111148751D01*
X134789516Y-111285371D01*
X134762410Y-111426300D01*
X134733333Y-111568822D01*
X134702711Y-111710222D01*
X134697932Y-111731512D01*
X134681572Y-111807380D01*
X134668537Y-111874411D01*
X134659569Y-111928208D01*
X134655408Y-111964378D01*
X134656347Y-111978179D01*
X134670070Y-112001268D01*
X134691231Y-112044492D01*
X134717786Y-112103061D01*
X134747689Y-112172186D01*
X134778897Y-112247079D01*
X134809362Y-112322949D01*
X134837041Y-112395009D01*
X134852852Y-112438333D01*
X134920535Y-112650514D01*
X134981904Y-112888025D01*
X135036807Y-113150249D01*
X135064190Y-113304756D01*
X135080001Y-113400279D01*
X135091580Y-113473123D01*
X135099221Y-113526889D01*
X135103216Y-113565179D01*
X135103861Y-113591593D01*
X135101446Y-113609733D01*
X135096268Y-113623199D01*
X135090872Y-113632205D01*
X135052140Y-113670300D01*
X135004702Y-113685514D01*
X134954888Y-113676991D01*
X134920629Y-113655259D01*
X134912031Y-113647298D01*
X134905477Y-113642977D01*
X134900051Y-113645510D01*
X134894834Y-113658110D01*
X134888909Y-113683993D01*
X134881358Y-113726372D01*
X134871263Y-113788460D01*
X134857707Y-113873472D01*
X134856930Y-113878333D01*
X134796050Y-114198322D01*
X134718796Y-114498833D01*
X134679803Y-114624456D01*
X134648647Y-114716068D01*
X134622073Y-114784811D01*
X134598198Y-114833686D01*
X134575136Y-114865695D01*
X134551005Y-114883840D01*
X134523919Y-114891122D01*
X134512083Y-114891666D01*
X134463864Y-114880842D01*
X134427741Y-114847651D01*
X134402692Y-114791020D01*
X134397607Y-114771184D01*
X134381082Y-114698333D01*
X134358724Y-114741295D01*
X134328289Y-114791330D01*
X134282818Y-114855200D01*
X134226277Y-114928032D01*
X134162634Y-115004953D01*
X134095856Y-115081090D01*
X134029910Y-115151570D01*
X134001026Y-115180670D01*
X133888108Y-115285802D01*
X133772652Y-115381921D01*
X133659701Y-115465170D01*
X133554301Y-115531690D01*
X133513095Y-115553916D01*
X133460796Y-115579291D01*
X133420162Y-115594414D01*
X133380104Y-115601929D01*
X133329532Y-115604483D01*
X133300082Y-115604719D01*
X133244412Y-115604339D01*
X133208764Y-115601738D01*
X133186498Y-115595221D01*
X133170976Y-115583099D01*
X133159443Y-115568882D01*
X133132280Y-115532765D01*
X133174493Y-115295549D01*
X133188100Y-115217731D01*
X133199880Y-115147767D01*
X133209073Y-115090391D01*
X133214918Y-115050337D01*
X133216686Y-115033158D01*
X133214409Y-115020039D01*
X133203757Y-115013561D01*
X133178956Y-115012701D01*
X133134234Y-115016437D01*
X133126666Y-115017206D01*
X132575642Y-115061768D01*
X132017107Y-115083199D01*
X131449567Y-115081498D01*
X130871530Y-115056666D01*
X130366616Y-115016973D01*
X130269898Y-115007827D01*
X130276368Y-115046413D01*
X130280993Y-115072920D01*
X130289373Y-115119930D01*
X130300480Y-115181716D01*
X130313286Y-115252547D01*
X130319175Y-115285000D01*
X130335183Y-115375358D01*
X130345960Y-115443526D01*
X130351644Y-115493433D01*
X130352375Y-115529007D01*
X130348293Y-115554178D01*
X130339537Y-115572875D01*
X130329838Y-115585178D01*
X130310926Y-115600172D01*
X130283671Y-115608129D01*
X130240456Y-115610792D01*
X130217933Y-115610774D01*
X130161374Y-115607482D01*
X130106191Y-115599891D01*
X130073813Y-115592323D01*
X129990812Y-115557803D01*
X129896579Y-115503893D01*
X129794429Y-115433550D01*
X129687680Y-115349732D01*
X129579648Y-115255396D01*
X129473651Y-115153500D01*
X129373004Y-115047002D01*
X129281024Y-114938859D01*
X129201029Y-114832029D01*
X129171380Y-114787605D01*
X129117508Y-114703544D01*
X129101688Y-114773790D01*
X129078989Y-114836795D01*
X129044567Y-114875937D01*
X128998265Y-114891383D01*
X128990000Y-114891666D01*
X128959244Y-114887693D01*
X128933102Y-114873560D01*
X128909215Y-114845945D01*
X128885225Y-114801526D01*
X128858774Y-114736981D01*
X128836724Y-114675727D01*
X128800762Y-114567209D01*
X128767719Y-114455780D01*
X128736725Y-114337631D01*
X128706909Y-114208955D01*
X128677399Y-114065945D01*
X128647324Y-113904795D01*
X128615814Y-113721695D01*
X128608976Y-113680367D01*
X128602702Y-113651565D01*
X128594076Y-113645023D01*
X128579152Y-113655457D01*
X128531699Y-113681736D01*
X128481927Y-113683683D01*
X128436222Y-113662171D01*
X128409127Y-113632205D01*
X128402104Y-113619878D01*
X128397630Y-113605522D01*
X128395999Y-113585537D01*
X128397504Y-113556322D01*
X128402439Y-113514276D01*
X128411096Y-113455797D01*
X128423770Y-113377285D01*
X128435809Y-113304756D01*
X128443490Y-113263503D01*
X128662343Y-113263503D01*
X128666908Y-113273997D01*
X128675847Y-113277871D01*
X128688944Y-113278361D01*
X128693995Y-113278333D01*
X128718180Y-113280217D01*
X128737687Y-113287884D01*
X128753656Y-113304356D01*
X128767225Y-113332657D01*
X128779532Y-113375809D01*
X128791717Y-113436835D01*
X128804917Y-113518756D01*
X128817761Y-113606896D01*
X128832884Y-113708307D01*
X128849878Y-113813979D01*
X128867958Y-113919731D01*
X128886338Y-114021382D01*
X128904234Y-114114749D01*
X128920860Y-114195652D01*
X128935430Y-114259909D01*
X128947160Y-114303338D01*
X128950260Y-114312350D01*
X128962521Y-114344599D01*
X128995654Y-114311466D01*
X129040347Y-114283869D01*
X129090962Y-114280524D01*
X129124349Y-114292210D01*
X129141297Y-114309699D01*
X129165588Y-114345322D01*
X129193315Y-114393034D01*
X129209238Y-114423483D01*
X129241257Y-114483231D01*
X129282794Y-114555080D01*
X129328079Y-114629280D01*
X129364780Y-114686273D01*
X129439022Y-114787665D01*
X129530009Y-114895439D01*
X129631987Y-115003821D01*
X129739207Y-115107038D01*
X129845916Y-115199313D01*
X129946364Y-115274875D01*
X129960508Y-115284392D01*
X130013409Y-115318463D01*
X130058042Y-115345497D01*
X130089927Y-115362903D01*
X130104584Y-115368089D01*
X130104864Y-115367913D01*
X130105557Y-115352761D01*
X130102252Y-115316605D01*
X130095553Y-115264704D01*
X130086069Y-115202318D01*
X130085071Y-115196199D01*
X130061383Y-115043507D01*
X130041449Y-114895738D01*
X130024932Y-114748477D01*
X130011497Y-114597311D01*
X130000810Y-114437827D01*
X129992534Y-114265611D01*
X129986333Y-114076249D01*
X129981873Y-113865329D01*
X129981335Y-113831666D01*
X129974661Y-113398074D01*
X130189999Y-113398074D01*
X130190068Y-113701537D01*
X130190914Y-113827279D01*
X130193279Y-113956067D01*
X130196985Y-114085047D01*
X130201858Y-114211362D01*
X130207720Y-114332157D01*
X130214395Y-114444576D01*
X130221707Y-114545764D01*
X130229479Y-114632865D01*
X130237535Y-114703023D01*
X130245698Y-114753383D01*
X130253792Y-114781088D01*
X130257007Y-114785210D01*
X130276662Y-114790150D01*
X130319700Y-114796294D01*
X130382875Y-114803392D01*
X130462943Y-114811194D01*
X130556659Y-114819449D01*
X130660778Y-114827906D01*
X130772056Y-114836315D01*
X130887248Y-114844424D01*
X131003109Y-114851984D01*
X131116395Y-114858744D01*
X131223861Y-114864453D01*
X131322261Y-114868861D01*
X131356666Y-114870145D01*
X131426860Y-114871679D01*
X131518881Y-114872310D01*
X131627904Y-114872118D01*
X131749109Y-114871182D01*
X131877672Y-114869579D01*
X132008771Y-114867390D01*
X132137584Y-114864693D01*
X132259287Y-114861567D01*
X132369058Y-114858090D01*
X132462075Y-114854342D01*
X132523333Y-114851067D01*
X132610515Y-114845231D01*
X132705355Y-114838292D01*
X132803521Y-114830624D01*
X132900682Y-114822606D01*
X132992506Y-114814612D01*
X133074659Y-114807019D01*
X133142811Y-114800203D01*
X133192628Y-114794540D01*
X133218349Y-114790713D01*
X133233929Y-114786365D01*
X133244725Y-114777569D01*
X133252383Y-114759413D01*
X133258553Y-114726988D01*
X133264883Y-114675384D01*
X133268610Y-114640969D01*
X133284214Y-114478310D01*
X133295814Y-114317184D01*
X133303740Y-114150634D01*
X133308318Y-113971703D01*
X133309879Y-113773434D01*
X133309882Y-113766257D01*
X133310000Y-113407515D01*
X133246666Y-113314784D01*
X133183333Y-113222054D01*
X133176666Y-113593527D01*
X133174039Y-113716648D01*
X133170972Y-113814929D01*
X133167358Y-113890191D01*
X133163089Y-113944258D01*
X133158057Y-113978952D01*
X133152938Y-113994861D01*
X133137477Y-114017443D01*
X133117859Y-114034656D01*
X133090513Y-114047207D01*
X133051869Y-114055804D01*
X132998359Y-114061156D01*
X132926412Y-114063970D01*
X132832459Y-114064955D01*
X132799300Y-114065000D01*
X132696000Y-114064728D01*
X132613301Y-114062134D01*
X132548903Y-114054550D01*
X132500509Y-114039305D01*
X132465818Y-114013731D01*
X132442533Y-113975159D01*
X132428353Y-113920920D01*
X132421317Y-113851666D01*
X132630000Y-113851666D01*
X132796666Y-113851666D01*
X132963333Y-113851666D01*
X132963333Y-113558333D01*
X132963026Y-113459003D01*
X132961994Y-113383561D01*
X132960074Y-113329235D01*
X132957099Y-113293253D01*
X132952907Y-113272843D01*
X132947331Y-113265232D01*
X132945905Y-113265000D01*
X132926290Y-113267305D01*
X132886619Y-113273548D01*
X132833039Y-113282720D01*
X132783333Y-113291666D01*
X132724661Y-113302382D01*
X132676584Y-113311042D01*
X132644579Y-113316668D01*
X132634094Y-113318333D01*
X132632850Y-113331001D01*
X132631757Y-113366344D01*
X132630879Y-113420370D01*
X132630275Y-113489089D01*
X132630007Y-113568508D01*
X132630000Y-113585000D01*
X132630000Y-113851666D01*
X132421317Y-113851666D01*
X132420980Y-113848346D01*
X132418115Y-113754766D01*
X132417458Y-113637513D01*
X132417419Y-113621666D01*
X132416530Y-113516181D01*
X132414503Y-113433468D01*
X132411388Y-113374543D01*
X132407235Y-113340423D01*
X132403117Y-113331666D01*
X132389204Y-113320757D01*
X132371689Y-113293706D01*
X132367483Y-113285353D01*
X132354733Y-113234376D01*
X132367709Y-113190171D01*
X132406051Y-113153954D01*
X132406059Y-113153949D01*
X132428737Y-113145547D01*
X132472881Y-113133980D01*
X132533634Y-113120346D01*
X132606136Y-113105741D01*
X132676666Y-113092806D01*
X132759039Y-113078299D01*
X132837409Y-113064339D01*
X132905924Y-113051983D01*
X132958728Y-113042282D01*
X132985835Y-113037122D01*
X133055003Y-113023454D01*
X132964097Y-112872931D01*
X132846512Y-112672954D01*
X132723825Y-112454320D01*
X132599666Y-112223566D01*
X132541259Y-112111666D01*
X132417226Y-111871666D01*
X132416892Y-111945000D01*
X132413884Y-112039163D01*
X132406017Y-112154671D01*
X132393907Y-112286766D01*
X132378170Y-112430695D01*
X132359420Y-112581703D01*
X132338275Y-112735033D01*
X132315350Y-112885931D01*
X132291260Y-113029642D01*
X132266621Y-113161411D01*
X132247680Y-113251666D01*
X132228280Y-113334357D01*
X132211033Y-113395289D01*
X132193876Y-113439037D01*
X132174747Y-113470173D01*
X132151583Y-113493271D01*
X132132686Y-113506584D01*
X132110562Y-113518923D01*
X132087529Y-113526084D01*
X132056968Y-113528709D01*
X132012257Y-113527440D01*
X131956666Y-113523667D01*
X131851535Y-113517079D01*
X131758928Y-113514616D01*
X131667107Y-113516311D01*
X131564330Y-113522196D01*
X131528477Y-113524871D01*
X131393621Y-113535344D01*
X131344506Y-113490172D01*
X131319971Y-113464854D01*
X131301630Y-113437110D01*
X131286177Y-113399972D01*
X131270302Y-113346469D01*
X131262941Y-113318333D01*
X131234182Y-113193243D01*
X131205924Y-113045696D01*
X131178760Y-112879903D01*
X131153286Y-112700074D01*
X131130096Y-112510418D01*
X131109786Y-112315146D01*
X131092951Y-112118468D01*
X131092436Y-112111666D01*
X131076363Y-111898333D01*
X130932026Y-112169763D01*
X130744269Y-112511604D01*
X130556592Y-112830623D01*
X130511798Y-112903442D01*
X130482985Y-112951240D01*
X130461200Y-112990023D01*
X130449213Y-113014700D01*
X130447972Y-113020750D01*
X130462092Y-113024564D01*
X130498808Y-113032326D01*
X130554462Y-113043323D01*
X130625394Y-113056845D01*
X130707945Y-113072176D01*
X130770689Y-113083605D01*
X130870744Y-113101845D01*
X130947918Y-113116463D01*
X131005609Y-113128372D01*
X131047216Y-113138483D01*
X131076135Y-113147707D01*
X131095766Y-113156957D01*
X131109506Y-113167143D01*
X131118937Y-113177040D01*
X131139902Y-113206667D01*
X131149868Y-113231085D01*
X131150000Y-113233072D01*
X131143996Y-113259866D01*
X131129591Y-113291839D01*
X131112190Y-113319060D01*
X131097203Y-113331595D01*
X131096324Y-113331666D01*
X131091864Y-113344648D01*
X131088162Y-113382203D01*
X131085314Y-113442245D01*
X131083421Y-113522690D01*
X131082581Y-113621452D01*
X131082580Y-113621666D01*
X131081835Y-113730891D01*
X131079805Y-113816855D01*
X131075849Y-113882959D01*
X131069326Y-113932599D01*
X131059595Y-113969175D01*
X131046014Y-113996086D01*
X131027942Y-114016731D01*
X131004739Y-114034507D01*
X131004694Y-114034538D01*
X130987801Y-114045065D01*
X130970176Y-114052842D01*
X130947674Y-114058282D01*
X130916149Y-114061802D01*
X130871455Y-114063817D01*
X130809446Y-114064742D01*
X130725976Y-114064993D01*
X130700699Y-114065000D01*
X130599489Y-114064459D01*
X130521350Y-114062303D01*
X130462697Y-114057736D01*
X130419946Y-114049957D01*
X130389514Y-114038168D01*
X130367817Y-114021572D01*
X130351270Y-113999370D01*
X130343559Y-113985436D01*
X130337297Y-113969048D01*
X130332421Y-113944918D01*
X130328773Y-113909952D01*
X130326197Y-113861056D01*
X130325960Y-113851666D01*
X130536666Y-113851666D01*
X130703333Y-113851666D01*
X130870000Y-113851666D01*
X130870000Y-113585000D01*
X130869805Y-113503950D01*
X130869262Y-113432818D01*
X130868433Y-113375594D01*
X130867377Y-113336272D01*
X130866158Y-113318841D01*
X130865905Y-113318333D01*
X130851953Y-113316072D01*
X130817255Y-113309941D01*
X130767287Y-113300919D01*
X130716666Y-113291666D01*
X130656295Y-113280851D01*
X130604821Y-113272144D01*
X130568392Y-113266552D01*
X130554094Y-113265000D01*
X130548193Y-113270170D01*
X130543710Y-113287531D01*
X130540483Y-113319855D01*
X130538345Y-113369913D01*
X130537132Y-113440478D01*
X130536680Y-113534323D01*
X130536666Y-113558333D01*
X130536666Y-113851666D01*
X130325960Y-113851666D01*
X130324536Y-113795134D01*
X130323635Y-113709094D01*
X130323336Y-113599840D01*
X130323333Y-113585662D01*
X130322979Y-113490738D01*
X130321981Y-113405188D01*
X130320434Y-113332440D01*
X130318434Y-113275924D01*
X130316074Y-113239067D01*
X130313451Y-113225299D01*
X130313333Y-113225277D01*
X130301781Y-113235779D01*
X130280209Y-113263348D01*
X130252840Y-113302504D01*
X130246666Y-113311814D01*
X130189999Y-113398074D01*
X129974661Y-113398074D01*
X129973742Y-113338333D01*
X130030026Y-113252247D01*
X130058838Y-113206021D01*
X130073571Y-113175446D01*
X130076323Y-113154973D01*
X130071488Y-113142428D01*
X130058285Y-113100936D01*
X130060103Y-113053051D01*
X130069490Y-113025952D01*
X130094187Y-113001317D01*
X130132656Y-112981814D01*
X130172010Y-112973282D01*
X130184059Y-112974047D01*
X130199399Y-112969277D01*
X130220699Y-112948613D01*
X130250071Y-112909543D01*
X130289628Y-112849552D01*
X130292519Y-112845000D01*
X130470529Y-112553149D01*
X130645395Y-112245082D01*
X130811440Y-111931125D01*
X130951986Y-111645000D01*
X130988823Y-111568313D01*
X131023172Y-111499337D01*
X131053007Y-111441938D01*
X131076307Y-111399979D01*
X131091049Y-111377326D01*
X131093328Y-111374999D01*
X131130486Y-111360282D01*
X131176283Y-111359461D01*
X131218272Y-111371628D01*
X131237091Y-111385469D01*
X131245525Y-111397884D01*
X131252435Y-111416808D01*
X131258281Y-111445750D01*
X131263521Y-111488219D01*
X131268612Y-111547723D01*
X131274015Y-111627771D01*
X131278473Y-111702136D01*
X131293355Y-111938195D01*
X131309380Y-112151828D01*
X131326972Y-112347265D01*
X131346551Y-112528738D01*
X131368539Y-112700476D01*
X131393358Y-112866711D01*
X131396368Y-112885396D01*
X131411945Y-112977158D01*
X131428186Y-113065463D01*
X131444237Y-113146290D01*
X131459238Y-113215618D01*
X131472333Y-113269427D01*
X131482665Y-113303695D01*
X131487729Y-113313840D01*
X131503414Y-113315356D01*
X131538937Y-113313028D01*
X131587830Y-113307365D01*
X131610614Y-113304142D01*
X131675643Y-113296140D01*
X131733728Y-113293645D01*
X131796274Y-113296651D01*
X131865533Y-113304021D01*
X131923223Y-113310609D01*
X131970128Y-113315089D01*
X132000578Y-113316974D01*
X132009229Y-113316369D01*
X132015187Y-113299909D01*
X132024896Y-113262226D01*
X132037289Y-113208327D01*
X132051299Y-113143215D01*
X132065856Y-113071897D01*
X132079893Y-112999377D01*
X132092343Y-112930660D01*
X132095586Y-112911666D01*
X132138316Y-112627028D01*
X132172483Y-112331716D01*
X132198605Y-112020584D01*
X132216025Y-111714871D01*
X132221117Y-111611004D01*
X132226174Y-111530618D01*
X132231754Y-111470535D01*
X132238418Y-111427578D01*
X132246725Y-111398568D01*
X132257236Y-111380326D01*
X132270510Y-111369675D01*
X132277386Y-111366568D01*
X132320011Y-111358375D01*
X132364639Y-111361803D01*
X132399475Y-111375471D01*
X132406525Y-111381666D01*
X132417955Y-111399644D01*
X132439336Y-111438050D01*
X132468827Y-111493395D01*
X132504590Y-111562186D01*
X132544786Y-111640934D01*
X132580354Y-111711666D01*
X132723850Y-111993737D01*
X132862252Y-112254888D01*
X132998074Y-112499760D01*
X133133833Y-112732991D01*
X133137804Y-112739644D01*
X133186612Y-112820954D01*
X133224046Y-112881956D01*
X133252156Y-112925387D01*
X133272989Y-112953980D01*
X133288595Y-112970473D01*
X133301021Y-112977600D01*
X133312315Y-112978097D01*
X133315808Y-112977357D01*
X133351727Y-112978398D01*
X133391622Y-112993037D01*
X133423863Y-113015918D01*
X133435050Y-113032264D01*
X133443033Y-113072961D01*
X133439604Y-113113701D01*
X133425961Y-113142593D01*
X133423724Y-113144675D01*
X133415562Y-113156038D01*
X133417653Y-113172701D01*
X133431975Y-113199969D01*
X133460391Y-113242974D01*
X133516666Y-113325000D01*
X133515677Y-113838333D01*
X133515183Y-113981121D01*
X133514188Y-114101573D01*
X133512524Y-114204017D01*
X133510023Y-114292783D01*
X133506517Y-114372198D01*
X133501838Y-114446592D01*
X133495817Y-114520292D01*
X133488288Y-114597628D01*
X133484986Y-114628969D01*
X133473743Y-114728564D01*
X133460784Y-114834458D01*
X133446758Y-114942084D01*
X133432315Y-115046878D01*
X133418107Y-115144276D01*
X133404783Y-115229713D01*
X133392993Y-115298625D01*
X133383388Y-115346447D01*
X133381897Y-115352641D01*
X133372598Y-115389688D01*
X133424632Y-115358323D01*
X133460243Y-115336061D01*
X133508940Y-115304590D01*
X133561771Y-115269716D01*
X133576666Y-115259741D01*
X133619259Y-115227878D01*
X133675040Y-115181420D01*
X133738733Y-115125014D01*
X133805067Y-115063309D01*
X133857652Y-115012095D01*
X133990926Y-114870483D01*
X134103812Y-114730509D01*
X134201245Y-114585465D01*
X134288164Y-114428640D01*
X134290761Y-114423483D01*
X134318694Y-114371568D01*
X134345431Y-114328279D01*
X134367065Y-114299661D01*
X134375650Y-114292210D01*
X134426288Y-114278876D01*
X134475701Y-114290499D01*
X134504345Y-114311466D01*
X134537478Y-114344599D01*
X134549739Y-114312350D01*
X134560365Y-114276674D01*
X134574088Y-114218796D01*
X134590126Y-114142900D01*
X134607691Y-114053165D01*
X134625999Y-113953774D01*
X134644265Y-113848908D01*
X134661702Y-113742748D01*
X134677526Y-113639476D01*
X134682238Y-113606896D01*
X134697199Y-113504854D01*
X134710180Y-113426276D01*
X134722314Y-113368141D01*
X134734732Y-113327427D01*
X134748568Y-113301114D01*
X134764953Y-113286181D01*
X134785020Y-113279606D01*
X134805399Y-113278333D01*
X134832604Y-113276569D01*
X134843333Y-113272548D01*
X134840357Y-113250131D01*
X134832186Y-113206896D01*
X134819959Y-113147927D01*
X134804812Y-113078312D01*
X134787883Y-113003136D01*
X134770308Y-112927483D01*
X134753226Y-112856440D01*
X134737773Y-112795094D01*
X134730243Y-112766826D01*
X134670343Y-112568635D01*
X134601673Y-112382589D01*
X134518946Y-112194515D01*
X134508923Y-112173433D01*
X134479813Y-112110390D01*
X134455545Y-112053601D01*
X134438311Y-112008517D01*
X134430305Y-111980591D01*
X134430000Y-111977192D01*
X134432822Y-111955509D01*
X134440734Y-111911970D01*
X134452900Y-111850720D01*
X134468484Y-111775904D01*
X134486652Y-111691666D01*
X134496780Y-111645794D01*
X134519116Y-111541904D01*
X134542799Y-111425535D01*
X134566858Y-111302001D01*
X134590325Y-111176615D01*
X134612229Y-111054692D01*
X134631600Y-110941545D01*
X134647469Y-110842488D01*
X134658866Y-110762835D01*
X134660913Y-110746490D01*
X134667956Y-110687981D01*
X134418978Y-110695735D01*
X134298909Y-110700558D01*
X134190425Y-110707608D01*
X134086596Y-110717728D01*
X133980488Y-110731765D01*
X133865172Y-110750562D01*
X133733715Y-110774965D01*
X133676260Y-110786246D01*
X133462521Y-110828707D01*
X133296260Y-110728610D01*
X133057855Y-110595061D01*
X132826336Y-110485894D01*
X132599750Y-110400333D01*
X132376140Y-110337601D01*
X132243333Y-110310725D01*
X132178789Y-110302414D01*
X132093072Y-110295616D01*
X131991637Y-110290430D01*
X131879942Y-110286958D01*
X131763442Y-110285299D01*
X131647592Y-110285552D01*
X131537850Y-110287819D01*
X131439672Y-110292198D01*
X131396666Y-110295208D01*
X131231348Y-110317629D01*
X131052920Y-110358306D01*
X130865955Y-110415533D01*
X130675027Y-110487606D01*
X130484708Y-110572820D01*
X130299572Y-110669470D01*
X130146829Y-110761177D01*
X130108779Y-110785734D01*
X130078825Y-110803500D01*
X130052121Y-110814741D01*
X130023824Y-110819723D01*
X129989087Y-110818711D01*
X129943067Y-110811971D01*
X129880918Y-110799769D01*
X129797795Y-110782370D01*
X129790000Y-110780742D01*
X129589896Y-110743720D01*
X129393645Y-110717654D01*
X129189771Y-110701192D01*
X129066666Y-110695621D01*
X128981961Y-110692876D01*
X128920272Y-110691463D01*
X128877967Y-110691633D01*
X128851419Y-110693637D01*
X128836996Y-110697728D01*
X128831069Y-110704155D01*
X128830000Y-110712012D01*
X128832765Y-110753166D01*
X128840586Y-110816499D01*
X128852751Y-110898156D01*
X128868545Y-110994284D01*
X128887257Y-111101025D01*
X128908173Y-111214525D01*
X128930581Y-111330929D01*
X128953768Y-111446382D01*
X128977020Y-111557027D01*
X128999626Y-111659010D01*
X129020873Y-111748476D01*
X129023812Y-111760236D01*
X129040619Y-111829339D01*
X129054692Y-111891701D01*
X129064802Y-111941531D01*
X129069720Y-111973040D01*
X129070000Y-111977921D01*
X129064152Y-112004279D01*
X129048435Y-112047129D01*
X129025581Y-112099462D01*
X129009997Y-112131672D01*
X128907697Y-112358182D01*
X128818889Y-112603873D01*
X128742916Y-112870661D01*
X128712690Y-112998333D01*
X128692143Y-113090523D01*
X128677051Y-113159897D01*
X128667198Y-113209691D01*
X128662368Y-113243147D01*
X128662343Y-113263503D01*
X128443490Y-113263503D01*
X128487282Y-113028310D01*
X128545390Y-112776185D01*
X128609976Y-112549014D01*
X128647000Y-112438333D01*
X128671779Y-112371255D01*
X128700900Y-112296951D01*
X128732260Y-112220311D01*
X128763756Y-112146226D01*
X128793286Y-112079588D01*
X128818746Y-112025287D01*
X128838034Y-111988215D01*
X128845497Y-111976621D01*
X128850269Y-111952611D01*
X128844972Y-111929310D01*
X128830426Y-111883450D01*
X128812611Y-111815012D01*
X128792265Y-111727783D01*
X128770128Y-111625549D01*
X128746938Y-111512095D01*
X128723436Y-111391207D01*
X128700361Y-111266672D01*
X128678451Y-111142276D01*
X128658446Y-111021805D01*
X128641085Y-110909045D01*
X128629343Y-110825000D01*
X128617502Y-110733177D01*
X128609545Y-110663804D01*
X128605580Y-110612932D01*
X128605716Y-110576611D01*
X128610062Y-110550893D01*
X128618727Y-110531830D01*
X128631819Y-110515471D01*
X128638037Y-110509083D01*
X128672741Y-110474379D01*
X128994703Y-110482289D01*
X129169503Y-110488276D01*
X129324829Y-110497539D01*
X129467754Y-110510800D01*
X129605349Y-110528784D01*
X129744686Y-110552214D01*
X129819964Y-110566748D01*
X129989929Y-110600826D01*
X130126631Y-110521172D01*
X130347722Y-110400960D01*
X130567455Y-110298355D01*
X130783185Y-110214278D01*
X130992265Y-110149652D01*
X131192051Y-110105397D01*
X131379897Y-110082436D01*
X131387334Y-110081960D01*
X131446150Y-110077060D01*
X131484457Y-110071058D01*
X131499655Y-110064422D01*
X131498922Y-110061922D01*
X131471595Y-110045134D01*
X131424201Y-110026357D01*
X131363065Y-110007419D01*
X131294513Y-109990148D01*
X131224870Y-109976372D01*
X131180788Y-109970011D01*
X131050108Y-109963187D01*
X130905164Y-109970473D01*
X130753539Y-109990686D01*
X130602817Y-110022643D01*
X130460581Y-110065161D01*
X130385214Y-110094089D01*
X130307930Y-110124323D01*
X130249730Y-110140713D01*
X130206831Y-110143125D01*
X130175445Y-110131428D01*
X130151789Y-110105492D01*
X130140937Y-110085605D01*
X130126846Y-110039739D01*
X130133632Y-110000772D01*
X130162991Y-109965904D01*
X130216621Y-109932337D01*
X130240988Y-109920583D01*
X130403862Y-109855846D01*
X130574474Y-109806277D01*
X130748810Y-109772108D01*
X130922855Y-109753573D01*
X131092595Y-109750903D01*
X131254015Y-109764332D01*
G37*
D13*
%TO.C,SW_POWER*%
X123805000Y-95770000D02*
X123805000Y-94520000D01*
X123515000Y-95480000D02*
X123515000Y-89510000D01*
X123515000Y-89510000D02*
X115895000Y-89510000D01*
X123505000Y-95470000D02*
X123505000Y-94720000D01*
X123505000Y-94720000D02*
X121705000Y-94720000D01*
X123505000Y-93220000D02*
X122755000Y-93220000D01*
X122755000Y-93220000D02*
X122755000Y-90270000D01*
X122755000Y-90270000D02*
X119705000Y-90270000D01*
X122555000Y-95770000D02*
X123805000Y-95770000D01*
X121705000Y-95470000D02*
X123505000Y-95470000D01*
X121705000Y-94720000D02*
X121705000Y-95470000D01*
X120205000Y-95470000D02*
X120205000Y-94720000D01*
X120205000Y-94720000D02*
X119205000Y-94720000D01*
X119205000Y-95470000D02*
X120205000Y-95470000D01*
X119205000Y-94720000D02*
X119205000Y-95470000D01*
X117705000Y-95470000D02*
X117705000Y-94720000D01*
X117705000Y-94720000D02*
X115905000Y-94720000D01*
X116655000Y-93220000D02*
X116655000Y-90270000D01*
X116655000Y-90270000D02*
X119705000Y-90270000D01*
X115905000Y-95470000D02*
X117705000Y-95470000D01*
X115905000Y-94720000D02*
X115905000Y-95470000D01*
X115905000Y-93220000D02*
X116655000Y-93220000D01*
X115895000Y-95480000D02*
X123515000Y-95480000D01*
X115895000Y-89510000D02*
X115895000Y-95480000D01*
%TO.C,BATT*%
X112210000Y-87940000D02*
X112210000Y-89360000D01*
X100490000Y-87940000D02*
X112210000Y-87940000D01*
X112210000Y-89360000D02*
X107710000Y-89360000D01*
X107710000Y-89360000D02*
X107710000Y-91750000D01*
X111900000Y-90200000D02*
X111900000Y-90800000D01*
X106600000Y-90250000D02*
X101100000Y-90250000D01*
X101100000Y-90250000D02*
X101100000Y-90750000D01*
X111300000Y-90500000D02*
X111900000Y-90200000D01*
X106600000Y-90750000D02*
X106600000Y-90250000D01*
X101100000Y-90750000D02*
X106600000Y-90750000D01*
X111900000Y-90800000D02*
X111300000Y-90500000D01*
X100490000Y-91750000D02*
X100490000Y-87940000D01*
X100490000Y-91750000D02*
X100490000Y-95560000D01*
X106600000Y-92750000D02*
X101100000Y-92750000D01*
X101100000Y-92750000D02*
X101100000Y-93250000D01*
X106600000Y-93250000D02*
X106600000Y-92750000D01*
X101100000Y-93250000D02*
X106600000Y-93250000D01*
X112210000Y-94140000D02*
X107710000Y-94140000D01*
X107710000Y-94140000D02*
X107710000Y-91750000D01*
X112210000Y-95560000D02*
X112210000Y-94140000D01*
X100490000Y-95560000D02*
X112210000Y-95560000D01*
D12*
%TO.C,U1*%
X103700000Y-68780000D02*
X101160000Y-68780000D01*
X103700000Y-86780000D02*
X101160000Y-86780000D01*
X103700000Y-68780000D02*
X134400000Y-68780000D01*
X134400000Y-68780000D02*
X134400000Y-71540000D01*
X134400000Y-71540000D02*
X103700000Y-71540000D01*
X103700000Y-71540000D02*
X103700000Y-68780000D01*
X103700000Y-84020000D02*
X134400000Y-84020000D01*
X134400000Y-84020000D02*
X134400000Y-86780000D01*
X134400000Y-86780000D02*
X103700000Y-86780000D01*
X103700000Y-86780000D02*
X103700000Y-84020000D01*
%TO.C,U5*%
X122275000Y-96800000D02*
X114555000Y-96800000D01*
X114555000Y-96800000D02*
X114555000Y-107020000D01*
X114555000Y-107020000D02*
X122275000Y-107020000D01*
X122275000Y-107020000D02*
X122275000Y-96800000D01*
D13*
%TO.C,SW_KEY*%
X127670000Y-61060000D02*
X127670000Y-62310000D01*
X127960000Y-61350000D02*
X127960000Y-67320000D01*
X127960000Y-67320000D02*
X135580000Y-67320000D01*
X127970000Y-61360000D02*
X127970000Y-62110000D01*
X127970000Y-62110000D02*
X129770000Y-62110000D01*
X127970000Y-63610000D02*
X128720000Y-63610000D01*
X128720000Y-63610000D02*
X128720000Y-66560000D01*
X128720000Y-66560000D02*
X131770000Y-66560000D01*
X128920000Y-61060000D02*
X127670000Y-61060000D01*
X129770000Y-61360000D02*
X127970000Y-61360000D01*
X129770000Y-62110000D02*
X129770000Y-61360000D01*
X131270000Y-61360000D02*
X131270000Y-62110000D01*
X131270000Y-62110000D02*
X132270000Y-62110000D01*
X132270000Y-61360000D02*
X131270000Y-61360000D01*
X132270000Y-62110000D02*
X132270000Y-61360000D01*
X133770000Y-61360000D02*
X133770000Y-62110000D01*
X133770000Y-62110000D02*
X135570000Y-62110000D01*
X134820000Y-63610000D02*
X134820000Y-66560000D01*
X134820000Y-66560000D02*
X131770000Y-66560000D01*
X135570000Y-61360000D02*
X133770000Y-61360000D01*
X135570000Y-62110000D02*
X135570000Y-61360000D01*
X135570000Y-63610000D02*
X134820000Y-63610000D01*
X135580000Y-61350000D02*
X127960000Y-61350000D01*
X135580000Y-67320000D02*
X135580000Y-61350000D01*
%TO.C,SW_RST*%
X116360000Y-66930000D02*
X116360000Y-66470000D01*
X116360000Y-66470000D02*
X117360000Y-66470000D01*
X116360000Y-63690000D02*
X116360000Y-63230000D01*
X116360000Y-63230000D02*
X110160000Y-63230000D01*
X110160000Y-66930000D02*
X116360000Y-66930000D01*
X110160000Y-66930000D02*
X110160000Y-66470000D01*
X110160000Y-63690000D02*
X110160000Y-63230000D01*
X114760000Y-65630000D02*
X111910000Y-65630000D01*
X111910000Y-65630000D02*
X111910000Y-64580000D01*
X111910000Y-64580000D02*
X114760000Y-64580000D01*
X114760000Y-64580000D02*
X114760000Y-65630000D01*
%TO.C,C1*%
X111965000Y-104943752D02*
X111965000Y-104421248D01*
X113435000Y-104943752D02*
X113435000Y-104421248D01*
%TO.C,R1*%
X112160000Y-100740000D02*
X105620000Y-100740000D01*
X112160000Y-100410000D02*
X112160000Y-100740000D01*
X112160000Y-98330000D02*
X112160000Y-98000000D01*
X112160000Y-98000000D02*
X105620000Y-98000000D01*
X105620000Y-100740000D02*
X105620000Y-100410000D01*
X105620000Y-98000000D02*
X105620000Y-98330000D01*
%TD*%
M02*
