M48
; DRILL file {KiCad 7.0.9} date Tuesday, December 12, 2023 at 11:07:48 PM
; FORMAT={-:-/ absolute / inch / decimal}
; #@! TF.CreationDate,2023-12-12T23:07:48+09:00
; #@! TF.GenerationSoftware,Kicad,Pcbnew,7.0.9
; #@! TF.FileFunction,Plated,1,2,PTH
FMAT,2
INCH
; #@! TA.AperFunction,Plated,PTH,ViaDrill
T1C0.0236
; #@! TA.AperFunction,Plated,PTH,ComponentDrill
T2C0.0315
; #@! TA.AperFunction,Plated,PTH,ComponentDrill
T3C0.0354
; #@! TA.AperFunction,Plated,PTH,ComponentDrill
T4C0.0374
; #@! TA.AperFunction,Plated,PTH,ComponentDrill
T5C0.0394
; #@! TA.AperFunction,Plated,PTH,ComponentDrill
T6C0.0433
; #@! TA.AperFunction,Plated,PTH,ComponentDrill
T7C0.0512
%
G90
G05
T1
X3.987Y-2.9872
X4.237Y-3.7622
X4.237Y-3.9122
X4.562Y-4.8122
X4.962Y-2.4122
X5.412Y-4.8122
X5.862Y-2.4122
X6.387Y-3.3872
X6.387Y-4.2372
T2
X4.137Y-3.9122
X4.437Y-3.9122
T3
X4.562Y-3.861
X4.562Y-4.161
X4.662Y-3.861
X4.662Y-4.161
X4.762Y-3.861
X4.762Y-4.161
T4
X5.512Y-2.9138
X5.512Y-3.0122
X5.512Y-3.1106
X5.512Y-3.2091
X5.862Y-2.9138
X5.862Y-3.0122
X5.862Y-3.1106
X5.862Y-3.2091
T5
X4.3228Y-3.563
X4.3228Y-3.6614
X4.6636Y-3.6622
X4.762Y-3.6622
X5.1386Y-2.5122
X5.187Y-3.5622
X5.237Y-2.5122
X5.287Y-3.5622
X5.387Y-3.5622
X5.487Y-3.5622
X5.587Y-3.5622
T6
X4.137Y-2.7622
X4.137Y-3.3622
X4.237Y-2.7622
X4.237Y-3.3622
X4.337Y-2.7622
X4.337Y-3.3622
X4.437Y-2.7622
X4.437Y-3.3622
X4.537Y-2.7622
X4.537Y-3.3622
X4.637Y-2.7622
X4.637Y-3.3622
X4.737Y-2.7622
X4.737Y-3.3622
X4.837Y-2.7622
X4.837Y-3.3622
X4.937Y-2.7622
X4.937Y-3.3622
X5.037Y-2.7622
X5.037Y-3.3622
X5.137Y-2.7622
X5.137Y-3.3622
X5.237Y-2.7622
X5.237Y-3.3622
T7
X4.3311Y-2.5622
X4.587Y-2.5622
T0
M30
