  0
SECTION
  2
HEADER
  9
$ANGBASE
  50
0.0
  9
$ANGDIR
  70
1
  9
$MEASUREMENT
  70
0
  0
ENDSEC
  0
SECTION
  2
TABLES
  0
TABLE
  2
LTYPE
  70
4
  0
LTYPE
  5
40F
  2
CONTINUOUS
  70
0
  3
Solid line
  72
65
  73
0
  40
0.0
  0
LTYPE
  5
410
  2
DASHDOT
 70
0
  3
Dash Dot ____ _ ____ _
 72
65
 73
4
 40
2.0
 49
1.25
 49
-0.25
 49
0.25
 49
-0.25
  0
LTYPE
  5
411
  2
DASHED
 70
0
  3
Dashed __ __ __ __ __
 72
65
 73
2
 40
0.75
 49
0.5
 49
-0.25
  0
LTYPE
  5
43B
  2
DOTTED
 70
0
  3
Dotted .  .  .  .
 72
65
 73
2
 40
0.2
 49
0.0
 49
-0.2
  0
ENDTAB
  0
TABLE
  2
STYLE
  70
4
  0
STYLE
  2
KICAD
  70
0
  40
0
  41
1
  42
1
  50
0
  71
0
  3
isocp.shx
  0
STYLE
  2
KICADB
  70
0
  40
0
  41
1
  42
1
  50
0
  71
0
  3
isocp.shx
  0
STYLE
  2
KICADI
  70
0
  40
0
  41
1
  42
1
  50
15
  71
0
  3
isocp.shx
  0
STYLE
  2
KICADBI
  70
0
  40
0
  41
1
  42
1
  50
15
  71
0
  3
isocp.shx
  0
ENDTAB
  0
TABLE
  2
LAYER
  70
1
  0
LAYER
  2
BLACK
  70
0
  62
7
  6
CONTINUOUS
  0
ENDTAB
  0
ENDSEC
  0
SECTION
  2
ENTITIES
0
LINE
8
BLACK
6
CONTINUOUS
10
3.9187147637795277
20
-2.3608127952755904
11
3.9192913385826769
21
-2.3622047244094486
0
LINE
8
BLACK
6
CONTINUOUS
10
3.9192913385826769
20
-2.3622047244094486
11
3.9187147637795277
21
-2.3635966535433068
0
LINE
8
BLACK
6
CONTINUOUS
10
3.9187147637795277
20
-2.3635966535433068
11
3.917322834645669
21
-2.3641732283464565
0
LINE
8
BLACK
6
CONTINUOUS
10
3.917322834645669
20
-2.3641732283464565
11
3.6902518897637795
21
-2.3641732283464565
0
LINE
8
BLACK
6
CONTINUOUS
10
3.6902518897637795
20
-2.3641732283464565
11
3.7118413779527559
21
-2.4056462992125982
0
LINE
8
BLACK
6
CONTINUOUS
10
3.7118413779527559
20
-2.4056462992125982
11
3.7119726771653543
21
-2.4071472047244096
0
LINE
8
BLACK
6
CONTINUOUS
10
3.7119726771653543
20
-2.4071472047244096
11
3.7110042519685038
21
-2.4083013385826773
0
LINE
8
BLACK
6
CONTINUOUS
10
3.7110042519685038
20
-2.4083013385826773
11
3.7095033858267716
21
-2.4084326377952756
0
LINE
8
BLACK
6
CONTINUOUS
10
3.7095033858267716
20
-2.4084326377952756
11
3.7083492125984252
21
-2.4074642125984251
0
LINE
8
BLACK
6
CONTINUOUS
10
3.7083492125984252
20
-2.4074642125984251
11
3.688976377952756
21
-2.3702493307086612
0
LINE
8
BLACK
6
CONTINUOUS
10
3.688976377952756
20
-2.3702493307086612
11
3.688976377952756
21
-4.8541600787401578
0
LINE
8
BLACK
6
CONTINUOUS
10
3.688976377952756
20
-4.8541600787401578
11
3.7083492125984252
21
-4.8169452362204721
0
LINE
8
BLACK
6
CONTINUOUS
10
3.7083492125984252
20
-4.8169452362204721
11
3.7095033858267716
21
-4.8159768110236216
0
LINE
8
BLACK
6
CONTINUOUS
10
3.7095033858267716
20
-4.8159768110236216
11
3.7110042519685038
21
-4.81610811023622
0
LINE
8
BLACK
6
CONTINUOUS
10
3.7110042519685038
20
-4.81610811023622
11
3.7119726771653543
21
-4.8172622440944881
0
LINE
8
BLACK
6
CONTINUOUS
10
3.7119726771653543
20
-4.8172622440944881
11
3.7118413779527559
21
-4.8187631496062995
0
LINE
8
BLACK
6
CONTINUOUS
10
3.7118413779527559
20
-4.8187631496062995
11
3.6902518897637795
21
-4.8602362204724407
0
LINE
8
BLACK
6
CONTINUOUS
10
3.6902518897637795
20
-4.8602362204724407
11
3.917322834645669
21
-4.8602362204724407
0
LINE
8
BLACK
6
CONTINUOUS
10
3.917322834645669
20
-4.8602362204724407
11
3.9187147637795277
21
-4.8608127952755904
0
LINE
8
BLACK
6
CONTINUOUS
10
3.9187147637795277
20
-4.8608127952755904
11
3.9192913385826769
21
-4.8622047244094491
0
LINE
8
BLACK
6
CONTINUOUS
10
3.9192913385826769
20
-4.8622047244094491
11
3.9187147637795277
21
-4.8635966535433068
0
LINE
8
BLACK
6
CONTINUOUS
10
3.9187147637795277
20
-4.8635966535433068
11
3.917322834645669
21
-4.8641732283464565
0
LINE
8
BLACK
6
CONTINUOUS
10
3.917322834645669
20
-4.8641732283464565
11
3.6870078740157481
21
-4.8641732283464565
0
LINE
8
BLACK
6
CONTINUOUS
10
3.6870078740157481
20
-4.8641732283464565
11
3.6639204724409447
21
-4.8641732283464565
0
LINE
8
BLACK
6
CONTINUOUS
10
3.6639204724409447
20
-4.8641732283464565
11
3.6625285433070864
21
-4.8635966535433068
0
LINE
8
BLACK
6
CONTINUOUS
10
3.6625285433070864
20
-4.8635966535433068
11
3.6619519685039368
21
-4.8622047244094491
0
LINE
8
BLACK
6
CONTINUOUS
10
3.6619519685039368
20
-4.8622047244094491
11
3.6625285433070864
21
-4.8608127952755904
0
LINE
8
BLACK
6
CONTINUOUS
10
3.6625285433070864
20
-4.8608127952755904
11
3.6639204724409447
21
-4.8602362204724407
0
LINE
8
BLACK
6
CONTINUOUS
10
3.6639204724409447
20
-4.8602362204724407
11
3.6837638582677164
21
-4.8602362204724407
0
LINE
8
BLACK
6
CONTINUOUS
10
3.6837638582677164
20
-4.8602362204724407
11
3.6621743307086612
21
-4.8187631102362207
0
LINE
8
BLACK
6
CONTINUOUS
10
3.6621743307086612
20
-4.8187631102362207
11
3.6620430708661416
21
-4.8172622440944881
0
LINE
8
BLACK
6
CONTINUOUS
10
3.6620430708661416
20
-4.8172622440944881
11
3.663011496062992
21
-4.8161080708661412
0
LINE
8
BLACK
6
CONTINUOUS
10
3.663011496062992
20
-4.8161080708661412
11
3.6645123622047242
21
-4.8159768110236216
0
LINE
8
BLACK
6
CONTINUOUS
10
3.6645123622047242
20
-4.8159768110236216
11
3.6656665354330706
21
-4.8169452362204721
0
LINE
8
BLACK
6
CONTINUOUS
10
3.6656665354330706
20
-4.8169452362204721
11
3.6850393700787403
21
-4.8541601181102365
0
LINE
8
BLACK
6
CONTINUOUS
10
3.6850393700787403
20
-4.8541601181102365
11
3.6850393700787403
21
-2.3702492913385824
0
LINE
8
BLACK
6
CONTINUOUS
10
3.6850393700787403
20
-2.3702492913385824
11
3.6656665354330706
21
-2.4074642125984251
0
LINE
8
BLACK
6
CONTINUOUS
10
3.6656665354330706
20
-2.4074642125984251
11
3.6645123622047242
21
-2.4084326377952756
0
LINE
8
BLACK
6
CONTINUOUS
10
3.6645123622047242
20
-2.4084326377952756
11
3.663011496062992
21
-2.408301377952756
0
LINE
8
BLACK
6
CONTINUOUS
10
3.663011496062992
20
-2.408301377952756
11
3.6620430708661416
21
-2.4071472047244096
0
LINE
8
BLACK
6
CONTINUOUS
10
3.6620430708661416
20
-2.4071472047244096
11
3.6621743307086612
21
-2.405646338582677
0
LINE
8
BLACK
6
CONTINUOUS
10
3.6621743307086612
20
-2.405646338582677
11
3.6837638582677164
21
-2.3641732283464565
0
LINE
8
BLACK
6
CONTINUOUS
10
3.6837638582677164
20
-2.3641732283464565
11
3.6639204724409447
21
-2.3641732283464565
0
LINE
8
BLACK
6
CONTINUOUS
10
3.6639204724409447
20
-2.3641732283464565
11
3.6625285433070864
21
-2.3635966535433068
0
LINE
8
BLACK
6
CONTINUOUS
10
3.6625285433070864
20
-2.3635966535433068
11
3.6619519685039368
21
-2.3622047244094486
0
LINE
8
BLACK
6
CONTINUOUS
10
3.6619519685039368
20
-2.3622047244094486
11
3.6625285433070864
21
-2.3608127952755904
0
LINE
8
BLACK
6
CONTINUOUS
10
3.6625285433070864
20
-2.3608127952755904
11
3.6639204724409447
21
-2.3602362204724407
0
LINE
8
BLACK
6
CONTINUOUS
10
3.6639204724409447
20
-2.3602362204724407
11
3.917322834645669
21
-2.3602362204724407
0
LINE
8
BLACK
6
CONTINUOUS
10
3.917322834645669
20
-2.3602362204724407
11
3.9187147637795277
21
-2.3608127952755904
0
LINE
8
BLACK
6
CONTINUOUS
10
4.6931102362204724
20
-2.3602362204724407
11
4.6945021653543302
21
-2.3608127952755904
0
LINE
8
BLACK
6
CONTINUOUS
10
4.6945021653543302
20
-2.3608127952755904
11
4.6950787401574798
21
-2.3622047244094486
0
LINE
8
BLACK
6
CONTINUOUS
10
4.6950787401574798
20
-2.3622047244094486
11
4.6950787401574798
21
-2.4822834645669292
0
LINE
8
BLACK
6
CONTINUOUS
10
4.6950787401574798
20
-2.4822834645669292
11
4.8289370078740159
21
-2.4822834645669292
0
LINE
8
BLACK
6
CONTINUOUS
10
4.8289370078740159
20
-2.4822834645669292
11
4.8289370078740159
21
-2.3622047244094486
0
LINE
8
BLACK
6
CONTINUOUS
10
4.8289370078740159
20
-2.3622047244094486
11
4.8295135826771656
21
-2.3608127952755904
0
LINE
8
BLACK
6
CONTINUOUS
10
4.8295135826771656
20
-2.3608127952755904
11
4.8309055118110233
21
-2.3602362204724407
0
LINE
8
BLACK
6
CONTINUOUS
10
4.8309055118110233
20
-2.3602362204724407
11
5.5431102362204721
21
-2.3602362204724407
0
LINE
8
BLACK
6
CONTINUOUS
10
5.5431102362204721
20
-2.3602362204724407
11
5.5445021653543307
21
-2.3608127952755904
0
LINE
8
BLACK
6
CONTINUOUS
10
5.5445021653543307
20
-2.3608127952755904
11
5.5450787401574804
21
-2.3622047244094486
0
LINE
8
BLACK
6
CONTINUOUS
10
5.5450787401574804
20
-2.3622047244094486
11
5.5450787401574804
21
-2.4822834645669292
0
LINE
8
BLACK
6
CONTINUOUS
10
5.5450787401574804
20
-2.4822834645669292
11
5.6789370078740156
21
-2.4822834645669292
0
LINE
8
BLACK
6
CONTINUOUS
10
5.6789370078740156
20
-2.4822834645669292
11
5.6789370078740156
21
-2.3622047244094486
0
LINE
8
BLACK
6
CONTINUOUS
10
5.6789370078740156
20
-2.3622047244094486
11
5.6795135826771652
21
-2.3608127952755904
0
LINE
8
BLACK
6
CONTINUOUS
10
5.6795135826771652
20
-2.3608127952755904
11
5.6809055118110239
21
-2.3602362204724407
0
LINE
8
BLACK
6
CONTINUOUS
10
5.6809055118110239
20
-2.3602362204724407
11
6.4370078740157481
21
-2.3602362204724407
0
LINE
8
BLACK
6
CONTINUOUS
10
6.4370078740157481
20
-2.3602362204724407
11
6.4383998031496059
21
-2.3608127952755904
0
LINE
8
BLACK
6
CONTINUOUS
10
6.4383998031496059
20
-2.3608127952755904
11
6.4389763779527556
21
-2.3622047244094486
0
LINE
8
BLACK
6
CONTINUOUS
10
6.4389763779527556
20
-2.3622047244094486
11
6.4389763779527556
21
-3.1183070866141733
0
LINE
8
BLACK
6
CONTINUOUS
10
6.4389763779527556
20
-3.1183070866141733
11
6.4383998031496059
21
-3.1196990157480315
0
LINE
8
BLACK
6
CONTINUOUS
10
6.4383998031496059
20
-3.1196990157480315
11
6.4370078740157481
21
-3.1202755905511812
0
LINE
8
BLACK
6
CONTINUOUS
10
6.4370078740157481
20
-3.1202755905511812
11
6.3169291338582676
21
-3.1202755905511812
0
LINE
8
BLACK
6
CONTINUOUS
10
6.3169291338582676
20
-3.1202755905511812
11
6.3169291338582676
21
-3.2541338582677164
0
LINE
8
BLACK
6
CONTINUOUS
10
6.3169291338582676
20
-3.2541338582677164
11
6.4370078740157481
21
-3.2541338582677164
0
LINE
8
BLACK
6
CONTINUOUS
10
6.4370078740157481
20
-3.2541338582677164
11
6.4383998031496059
21
-3.254710433070866
0
LINE
8
BLACK
6
CONTINUOUS
10
6.4383998031496059
20
-3.254710433070866
11
6.4389763779527556
21
-3.2561023622047243
0
LINE
8
BLACK
6
CONTINUOUS
10
6.4389763779527556
20
-3.2561023622047243
11
6.4389763779527556
21
-3.968307086614173
0
LINE
8
BLACK
6
CONTINUOUS
10
6.4389763779527556
20
-3.968307086614173
11
6.4383998031496059
21
-3.9696990157480312
0
LINE
8
BLACK
6
CONTINUOUS
10
6.4383998031496059
20
-3.9696990157480312
11
6.4370078740157481
21
-3.9702755905511808
0
LINE
8
BLACK
6
CONTINUOUS
10
6.4370078740157481
20
-3.9702755905511808
11
6.3169291338582676
21
-3.9702755905511808
0
LINE
8
BLACK
6
CONTINUOUS
10
6.3169291338582676
20
-3.9702755905511808
11
6.3169291338582676
21
-4.1041338582677165
0
LINE
8
BLACK
6
CONTINUOUS
10
6.3169291338582676
20
-4.1041338582677165
11
6.4370078740157481
21
-4.1041338582677165
0
LINE
8
BLACK
6
CONTINUOUS
10
6.4370078740157481
20
-4.1041338582677165
11
6.4383998031496059
21
-4.1047104330708661
0
LINE
8
BLACK
6
CONTINUOUS
10
6.4383998031496059
20
-4.1047104330708661
11
6.4389763779527556
21
-4.1061023622047239
0
LINE
8
BLACK
6
CONTINUOUS
10
6.4389763779527556
20
-4.1061023622047239
11
6.4389763779527556
21
-4.8622047244094491
0
LINE
8
BLACK
6
CONTINUOUS
10
6.4389763779527556
20
-4.8622047244094491
11
6.4383998031496059
21
-4.8635966535433068
0
LINE
8
BLACK
6
CONTINUOUS
10
6.4383998031496059
20
-4.8635966535433068
11
6.4370078740157481
21
-4.8641732283464565
0
LINE
8
BLACK
6
CONTINUOUS
10
6.4370078740157481
20
-4.8641732283464565
11
5.6809055118110239
21
-4.8641732283464565
0
LINE
8
BLACK
6
CONTINUOUS
10
5.6809055118110239
20
-4.8641732283464565
11
5.6795135826771652
21
-4.8635966535433068
0
LINE
8
BLACK
6
CONTINUOUS
10
5.6795135826771652
20
-4.8635966535433068
11
5.6789370078740156
21
-4.8622047244094491
0
LINE
8
BLACK
6
CONTINUOUS
10
5.6789370078740156
20
-4.8622047244094491
11
5.6789370078740156
21
-4.7421259842519685
0
LINE
8
BLACK
6
CONTINUOUS
10
5.6789370078740156
20
-4.7421259842519685
11
5.5450787401574804
21
-4.7421259842519685
0
LINE
8
BLACK
6
CONTINUOUS
10
5.5450787401574804
20
-4.7421259842519685
11
5.5450787401574804
21
-4.8622047244094491
0
LINE
8
BLACK
6
CONTINUOUS
10
5.5450787401574804
20
-4.8622047244094491
11
5.5445021653543307
21
-4.8635966535433068
0
LINE
8
BLACK
6
CONTINUOUS
10
5.5445021653543307
20
-4.8635966535433068
11
5.5431102362204721
21
-4.8641732283464565
0
LINE
8
BLACK
6
CONTINUOUS
10
5.5431102362204721
20
-4.8641732283464565
11
4.8309055118110233
21
-4.8641732283464565
0
LINE
8
BLACK
6
CONTINUOUS
10
4.8309055118110233
20
-4.8641732283464565
11
4.8295135826771656
21
-4.8635966535433068
0
LINE
8
BLACK
6
CONTINUOUS
10
4.8295135826771656
20
-4.8635966535433068
11
4.8289370078740159
21
-4.8622047244094491
0
LINE
8
BLACK
6
CONTINUOUS
10
4.8289370078740159
20
-4.8622047244094491
11
4.8289370078740159
21
-4.7421259842519685
0
LINE
8
BLACK
6
CONTINUOUS
10
4.8289370078740159
20
-4.7421259842519685
11
4.6950787401574798
21
-4.7421259842519685
0
LINE
8
BLACK
6
CONTINUOUS
10
4.6950787401574798
20
-4.7421259842519685
11
4.6950787401574798
21
-4.8622047244094491
0
LINE
8
BLACK
6
CONTINUOUS
10
4.6950787401574798
20
-4.8622047244094491
11
4.6945021653543302
21
-4.8635966535433068
0
LINE
8
BLACK
6
CONTINUOUS
10
4.6945021653543302
20
-4.8635966535433068
11
4.6931102362204724
21
-4.8641732283464565
0
LINE
8
BLACK
6
CONTINUOUS
10
4.6931102362204724
20
-4.8641732283464565
11
3.9370078740157481
21
-4.8641732283464565
0
LINE
8
BLACK
6
CONTINUOUS
10
3.9370078740157481
20
-4.8641732283464565
11
3.9356159448818895
21
-4.8635966535433068
0
LINE
8
BLACK
6
CONTINUOUS
10
3.9356159448818895
20
-4.8635966535433068
11
3.9350393700787403
21
-4.8622047244094491
0
LINE
8
BLACK
6
CONTINUOUS
10
3.9350393700787403
20
-4.8622047244094491
11
3.9350393700787403
21
-4.1061023622047239
0
LINE
8
BLACK
6
CONTINUOUS
10
3.9350393700787403
20
-4.1061023622047239
11
3.9356159448818895
21
-4.1047104330708661
0
LINE
8
BLACK
6
CONTINUOUS
10
3.9356159448818895
20
-4.1047104330708661
11
3.9370078740157481
21
-4.1041338582677165
0
LINE
8
BLACK
6
CONTINUOUS
10
3.9370078740157481
20
-4.1041338582677165
11
4.0570866141732287
21
-4.1041338582677165
0
LINE
8
BLACK
6
CONTINUOUS
10
4.0570866141732287
20
-4.1041338582677165
11
4.0570866141732287
21
-3.9702755905511808
0
LINE
8
BLACK
6
CONTINUOUS
10
4.0570866141732287
20
-3.9702755905511808
11
3.9370078740157481
21
-3.9702755905511808
0
LINE
8
BLACK
6
CONTINUOUS
10
3.9370078740157481
20
-3.9702755905511808
11
3.9356159448818895
21
-3.9696990157480312
0
LINE
8
BLACK
6
CONTINUOUS
10
3.9356159448818895
20
-3.9696990157480312
11
3.9350393700787403
21
-3.968307086614173
0
LINE
8
BLACK
6
CONTINUOUS
10
3.9350393700787403
20
-3.968307086614173
11
3.9350393700787403
21
-3.2561023622047243
0
LINE
8
BLACK
6
CONTINUOUS
10
3.9350393700787403
20
-3.2561023622047243
11
3.9356159448818895
21
-3.254710433070866
0
LINE
8
BLACK
6
CONTINUOUS
10
3.9356159448818895
20
-3.254710433070866
11
3.9370078740157481
21
-3.2541338582677164
0
LINE
8
BLACK
6
CONTINUOUS
10
3.9370078740157481
20
-3.2541338582677164
11
4.0570866141732287
21
-3.2541338582677164
0
LINE
8
BLACK
6
CONTINUOUS
10
4.0570866141732287
20
-3.2541338582677164
11
4.0570866141732287
21
-3.1202755905511812
0
LINE
8
BLACK
6
CONTINUOUS
10
4.0570866141732287
20
-3.1202755905511812
11
3.9370078740157481
21
-3.1202755905511812
0
LINE
8
BLACK
6
CONTINUOUS
10
3.9370078740157481
20
-3.1202755905511812
11
3.9356159448818895
21
-3.1196990157480315
0
LINE
8
BLACK
6
CONTINUOUS
10
3.9356159448818895
20
-3.1196990157480315
11
3.9350393700787403
21
-3.1183070866141733
0
LINE
8
BLACK
6
CONTINUOUS
10
3.9350393700787403
20
-3.1183070866141733
11
3.9350393700787403
21
-2.3622047244094486
0
LINE
8
BLACK
6
CONTINUOUS
10
3.9350393700787403
20
-2.3622047244094486
11
3.9356159448818895
21
-2.3608127952755904
0
LINE
8
BLACK
6
CONTINUOUS
10
3.9356159448818895
20
-2.3608127952755904
11
3.9370078740157481
21
-2.3602362204724407
0
LINE
8
BLACK
6
CONTINUOUS
10
3.9370078740157481
20
-2.3602362204724407
11
4.6931102362204724
21
-2.3602362204724407
0
LINE
8
BLACK
6
CONTINUOUS
10
3.938976377952756
20
-2.3641732283464565
11
3.938976377952756
21
-3.1163385826771655
0
LINE
8
BLACK
6
CONTINUOUS
10
3.938976377952756
20
-3.1163385826771655
11
4.0590551181102361
21
-3.1163385826771655
0
LINE
8
BLACK
6
CONTINUOUS
10
4.0590551181102361
20
-3.1163385826771655
11
4.0604470472440948
21
-3.1169151574803147
0
LINE
8
BLACK
6
CONTINUOUS
10
4.0604470472440948
20
-3.1169151574803147
11
4.0610236220472444
21
-3.1183070866141733
0
LINE
8
BLACK
6
CONTINUOUS
10
4.0610236220472444
20
-3.1183070866141733
11
4.0610236220472444
21
-3.2561023622047243
0
LINE
8
BLACK
6
CONTINUOUS
10
4.0610236220472444
20
-3.2561023622047243
11
4.0604470472440948
21
-3.2574942913385825
0
LINE
8
BLACK
6
CONTINUOUS
10
4.0604470472440948
20
-3.2574942913385825
11
4.0590551181102361
21
-3.2580708661417321
0
LINE
8
BLACK
6
CONTINUOUS
10
4.0590551181102361
20
-3.2580708661417321
11
3.938976377952756
21
-3.2580708661417321
0
LINE
8
BLACK
6
CONTINUOUS
10
3.938976377952756
20
-3.2580708661417321
11
3.938976377952756
21
-3.9663385826771651
0
LINE
8
BLACK
6
CONTINUOUS
10
3.938976377952756
20
-3.9663385826771651
11
4.0590551181102361
21
-3.9663385826771651
0
LINE
8
BLACK
6
CONTINUOUS
10
4.0590551181102361
20
-3.9663385826771651
11
4.0604470472440948
21
-3.9669151574803148
0
LINE
8
BLACK
6
CONTINUOUS
10
4.0604470472440948
20
-3.9669151574803148
11
4.0610236220472444
21
-3.968307086614173
0
LINE
8
BLACK
6
CONTINUOUS
10
4.0610236220472444
20
-3.968307086614173
11
4.0610236220472444
21
-4.1061023622047239
0
LINE
8
BLACK
6
CONTINUOUS
10
4.0610236220472444
20
-4.1061023622047239
11
4.0604470472440948
21
-4.1074942913385826
0
LINE
8
BLACK
6
CONTINUOUS
10
4.0604470472440948
20
-4.1074942913385826
11
4.0590551181102361
21
-4.1080708661417322
0
LINE
8
BLACK
6
CONTINUOUS
10
4.0590551181102361
20
-4.1080708661417322
11
3.938976377952756
21
-4.1080708661417322
0
LINE
8
BLACK
6
CONTINUOUS
10
3.938976377952756
20
-4.1080708661417322
11
3.938976377952756
21
-4.8602362204724407
0
LINE
8
BLACK
6
CONTINUOUS
10
3.938976377952756
20
-4.8602362204724407
11
4.6911417322834641
21
-4.8602362204724407
0
LINE
8
BLACK
6
CONTINUOUS
10
4.6911417322834641
20
-4.8602362204724407
11
4.6911417322834641
21
-4.7401574803149602
0
LINE
8
BLACK
6
CONTINUOUS
10
4.6911417322834641
20
-4.7401574803149602
11
4.6917183070866137
21
-4.7387655511811024
0
LINE
8
BLACK
6
CONTINUOUS
10
4.6917183070866137
20
-4.7387655511811024
11
4.6931102362204724
21
-4.7381889763779528
0
LINE
8
BLACK
6
CONTINUOUS
10
4.6931102362204724
20
-4.7381889763779528
11
4.8309055118110233
21
-4.7381889763779528
0
LINE
8
BLACK
6
CONTINUOUS
10
4.8309055118110233
20
-4.7381889763779528
11
4.832297440944882
21
-4.7387655511811024
0
LINE
8
BLACK
6
CONTINUOUS
10
4.832297440944882
20
-4.7387655511811024
11
4.8328740157480317
21
-4.7401574803149602
0
LINE
8
BLACK
6
CONTINUOUS
10
4.8328740157480317
20
-4.7401574803149602
11
4.8328740157480317
21
-4.8602362204724407
0
LINE
8
BLACK
6
CONTINUOUS
10
4.8328740157480317
20
-4.8602362204724407
11
5.5411417322834646
21
-4.8602362204724407
0
LINE
8
BLACK
6
CONTINUOUS
10
5.5411417322834646
20
-4.8602362204724407
11
5.5411417322834646
21
-4.7401574803149602
0
LINE
8
BLACK
6
CONTINUOUS
10
5.5411417322834646
20
-4.7401574803149602
11
5.5417183070866143
21
-4.7387655511811024
0
LINE
8
BLACK
6
CONTINUOUS
10
5.5417183070866143
20
-4.7387655511811024
11
5.5431102362204721
21
-4.7381889763779528
0
LINE
8
BLACK
6
CONTINUOUS
10
5.5431102362204721
20
-4.7381889763779528
11
5.6809055118110239
21
-4.7381889763779528
0
LINE
8
BLACK
6
CONTINUOUS
10
5.6809055118110239
20
-4.7381889763779528
11
5.6822974409448817
21
-4.7387655511811024
0
LINE
8
BLACK
6
CONTINUOUS
10
5.6822974409448817
20
-4.7387655511811024
11
5.6828740157480313
21
-4.7401574803149602
0
LINE
8
BLACK
6
CONTINUOUS
10
5.6828740157480313
20
-4.7401574803149602
11
5.6828740157480313
21
-4.8602362204724407
0
LINE
8
BLACK
6
CONTINUOUS
10
5.6828740157480313
20
-4.8602362204724407
11
6.4350393700787398
21
-4.8602362204724407
0
LINE
8
BLACK
6
CONTINUOUS
10
6.4350393700787398
20
-4.8602362204724407
11
6.4350393700787398
21
-4.1080708661417322
0
LINE
8
BLACK
6
CONTINUOUS
10
6.4350393700787398
20
-4.1080708661417322
11
6.3149606299212593
21
-4.1080708661417322
0
LINE
8
BLACK
6
CONTINUOUS
10
6.3149606299212593
20
-4.1080708661417322
11
6.3135687007874015
21
-4.1074942913385826
0
LINE
8
BLACK
6
CONTINUOUS
10
6.3135687007874015
20
-4.1074942913385826
11
6.3129921259842519
21
-4.1061023622047239
0
LINE
8
BLACK
6
CONTINUOUS
10
6.3129921259842519
20
-4.1061023622047239
11
6.3129921259842519
21
-3.968307086614173
0
LINE
8
BLACK
6
CONTINUOUS
10
6.3129921259842519
20
-3.968307086614173
11
6.3135687007874015
21
-3.9669151574803148
0
LINE
8
BLACK
6
CONTINUOUS
10
6.3135687007874015
20
-3.9669151574803148
11
6.3149606299212593
21
-3.9663385826771651
0
LINE
8
BLACK
6
CONTINUOUS
10
6.3149606299212593
20
-3.9663385826771651
11
6.4350393700787398
21
-3.9663385826771651
0
LINE
8
BLACK
6
CONTINUOUS
10
6.4350393700787398
20
-3.9663385826771651
11
6.4350393700787398
21
-3.2580708661417321
0
LINE
8
BLACK
6
CONTINUOUS
10
6.4350393700787398
20
-3.2580708661417321
11
6.3149606299212593
21
-3.2580708661417321
0
LINE
8
BLACK
6
CONTINUOUS
10
6.3149606299212593
20
-3.2580708661417321
11
6.3135687007874015
21
-3.2574942913385825
0
LINE
8
BLACK
6
CONTINUOUS
10
6.3135687007874015
20
-3.2574942913385825
11
6.3129921259842519
21
-3.2561023622047243
0
LINE
8
BLACK
6
CONTINUOUS
10
6.3129921259842519
20
-3.2561023622047243
11
6.3129921259842519
21
-3.1183070866141733
0
LINE
8
BLACK
6
CONTINUOUS
10
6.3129921259842519
20
-3.1183070866141733
11
6.3135687007874015
21
-3.1169151574803147
0
LINE
8
BLACK
6
CONTINUOUS
10
6.3135687007874015
20
-3.1169151574803147
11
6.3149606299212593
21
-3.1163385826771655
0
LINE
8
BLACK
6
CONTINUOUS
10
6.3149606299212593
20
-3.1163385826771655
11
6.4350393700787398
21
-3.1163385826771655
0
LINE
8
BLACK
6
CONTINUOUS
10
6.4350393700787398
20
-3.1163385826771655
11
6.4350393700787398
21
-2.3641732283464565
0
LINE
8
BLACK
6
CONTINUOUS
10
6.4350393700787398
20
-2.3641732283464565
11
5.6828740157480313
21
-2.3641732283464565
0
LINE
8
BLACK
6
CONTINUOUS
10
5.6828740157480313
20
-2.3641732283464565
11
5.6828740157480313
21
-2.484251968503937
0
LINE
8
BLACK
6
CONTINUOUS
10
5.6828740157480313
20
-2.484251968503937
11
5.6822974409448817
21
-2.4856438976377953
0
LINE
8
BLACK
6
CONTINUOUS
10
5.6822974409448817
20
-2.4856438976377953
11
5.6809055118110239
21
-2.4862204724409449
0
LINE
8
BLACK
6
CONTINUOUS
10
5.6809055118110239
20
-2.4862204724409449
11
5.5431102362204721
21
-2.4862204724409449
0
LINE
8
BLACK
6
CONTINUOUS
10
5.5431102362204721
20
-2.4862204724409449
11
5.5417183070866143
21
-2.4856438976377953
0
LINE
8
BLACK
6
CONTINUOUS
10
5.5417183070866143
20
-2.4856438976377953
11
5.5411417322834646
21
-2.484251968503937
0
LINE
8
BLACK
6
CONTINUOUS
10
5.5411417322834646
20
-2.484251968503937
11
5.5411417322834646
21
-2.3641732283464565
0
LINE
8
BLACK
6
CONTINUOUS
10
5.5411417322834646
20
-2.3641732283464565
11
4.8328740157480317
21
-2.3641732283464565
0
LINE
8
BLACK
6
CONTINUOUS
10
4.8328740157480317
20
-2.3641732283464565
11
4.8328740157480317
21
-2.484251968503937
0
LINE
8
BLACK
6
CONTINUOUS
10
4.8328740157480317
20
-2.484251968503937
11
4.832297440944882
21
-2.4856438976377953
0
LINE
8
BLACK
6
CONTINUOUS
10
4.832297440944882
20
-2.4856438976377953
11
4.8309055118110233
21
-2.4862204724409449
0
LINE
8
BLACK
6
CONTINUOUS
10
4.8309055118110233
20
-2.4862204724409449
11
4.6931102362204724
21
-2.4862204724409449
0
LINE
8
BLACK
6
CONTINUOUS
10
4.6931102362204724
20
-2.4862204724409449
11
4.6917183070866137
21
-2.4856438976377953
0
LINE
8
BLACK
6
CONTINUOUS
10
4.6917183070866137
20
-2.4856438976377953
11
4.6911417322834641
21
-2.484251968503937
0
LINE
8
BLACK
6
CONTINUOUS
10
4.6911417322834641
20
-2.484251968503937
11
4.6911417322834641
21
-2.3641732283464565
0
LINE
8
BLACK
6
CONTINUOUS
10
4.6911417322834641
20
-2.3641732283464565
11
3.938976377952756
21
-2.3641732283464565
0
LINE
8
BLACK
6
CONTINUOUS
10
3.6531493700787401
20
-3.7687850787401573
11
3.6532846062992124
21
-3.7688985433070865
0
LINE
8
BLACK
6
CONTINUOUS
10
3.6532846062992124
20
-3.7688985433070865
11
3.6534599606299212
21
-3.7689187401574804
0
LINE
8
BLACK
6
CONTINUOUS
10
3.6534599606299212
20
-3.7689187401574804
11
3.6572094881889763
21
-3.770793503937008
0
LINE
8
BLACK
6
CONTINUOUS
10
3.6572094881889763
20
-3.770793503937008
11
3.6579184645669289
21
-3.7713193307086614
0
LINE
8
BLACK
6
CONTINUOUS
10
3.6579184645669289
20
-3.7713193307086614
11
3.6579768503937009
21
-3.7713465748031494
0
LINE
8
BLACK
6
CONTINUOUS
10
3.6579768503937009
20
-3.7713465748031494
11
3.6598516535433072
21
-3.7732213385826769
0
LINE
8
BLACK
6
CONTINUOUS
10
3.6598516535433072
20
-3.7732213385826769
11
3.6603580314960631
21
-3.7739444881889761
0
LINE
8
BLACK
6
CONTINUOUS
10
3.6603580314960631
20
-3.7739444881889761
11
3.6604048031496061
21
-3.7739887795275591
0
LINE
8
BLACK
6
CONTINUOUS
10
3.6604048031496061
20
-3.7739887795275591
11
3.6622795669291337
21
-3.7777383070866142
0
LINE
8
BLACK
6
CONTINUOUS
10
3.6622795669291337
20
-3.7777383070866142
11
3.6625719291338581
21
-3.7787212204724407
0
LINE
8
BLACK
6
CONTINUOUS
10
3.6625719291338581
20
-3.7787212204724407
11
3.6625309055118112
21
-3.7788929133858269
0
LINE
8
BLACK
6
CONTINUOUS
10
3.6625309055118112
20
-3.7788929133858269
11
3.6625912992125982
21
-3.7790588188976377
0
LINE
8
BLACK
6
CONTINUOUS
10
3.6625912992125982
20
-3.7790588188976377
11
3.6625912992125982
21
-3.7865578740157479
0
LINE
8
BLACK
6
CONTINUOUS
10
3.6625912992125982
20
-3.7865578740157479
11
3.6624132283464568
21
-3.7875677952755904
0
LINE
8
BLACK
6
CONTINUOUS
10
3.6624132283464568
20
-3.7875677952755904
11
3.6622997244094488
21
-3.7877030314960627
0
LINE
8
BLACK
6
CONTINUOUS
10
3.6622997244094488
20
-3.7877030314960627
11
3.6622795669291337
21
-3.7878783858267715
0
LINE
8
BLACK
6
CONTINUOUS
10
3.6622795669291337
20
-3.7878783858267715
11
3.6604048031496061
21
-3.7916279133858266
0
LINE
8
BLACK
6
CONTINUOUS
10
3.6604048031496061
20
-3.7916279133858266
11
3.6598788188976377
21
-3.7923370078740155
0
LINE
8
BLACK
6
CONTINUOUS
10
3.6598788188976377
20
-3.7923370078740155
11
3.6598516535433072
21
-3.7923953543307087
0
LINE
8
BLACK
6
CONTINUOUS
10
3.6598516535433072
20
-3.7923953543307087
11
3.6579768503937009
21
-3.7942701181102363
0
LINE
8
BLACK
6
CONTINUOUS
10
3.6579768503937009
20
-3.7942701181102363
11
3.6572537795275588
21
-3.7947763779527559
0
LINE
8
BLACK
6
CONTINUOUS
10
3.6572537795275588
20
-3.7947763779527559
11
3.6572094881889763
21
-3.7948231889763777
0
LINE
8
BLACK
6
CONTINUOUS
10
3.6572094881889763
20
-3.7948231889763777
11
3.6534599606299212
21
-3.7966979527559053
0
LINE
8
BLACK
6
CONTINUOUS
10
3.6534599606299212
20
-3.7966979527559053
11
3.6524770078740159
21
-3.7969903149606297
0
LINE
8
BLACK
6
CONTINUOUS
10
3.6524770078740159
20
-3.7969903149606297
11
3.6523053149606297
21
-3.7969492913385827
0
LINE
8
BLACK
6
CONTINUOUS
10
3.6523053149606297
20
-3.7969492913385827
11
3.6521394488188976
21
-3.7970096850393702
0
LINE
8
BLACK
6
CONTINUOUS
10
3.6521394488188976
20
-3.7970096850393702
11
3.6371413385826772
21
-3.7970096850393702
0
LINE
8
BLACK
6
CONTINUOUS
10
3.6371413385826772
20
-3.7970096850393702
11
3.6365609448818899
21
-3.7969073228346457
0
LINE
8
BLACK
6
CONTINUOUS
10
3.6365609448818899
20
-3.7969073228346457
11
3.6364251968503938
21
-3.796921535433071
0
LINE
8
BLACK
6
CONTINUOUS
10
3.6364251968503938
20
-3.796921535433071
11
3.6289261417322836
21
-3.7950467716535434
0
LINE
8
BLACK
6
CONTINUOUS
10
3.6289261417322836
20
-3.7950467716535434
11
3.6280209055118111
21
-3.7946430314960629
0
LINE
8
BLACK
6
CONTINUOUS
10
3.6280209055118111
20
-3.7946430314960629
11
3.6280044094488186
21
-3.7946390157480314
0
LINE
8
BLACK
6
CONTINUOUS
10
3.6280044094488186
20
-3.7946390157480314
11
3.6223800787401572
21
-3.7908894881889763
0
LINE
8
BLACK
6
CONTINUOUS
10
3.6223800787401572
20
-3.7908894881889763
11
3.6220547244094488
21
-3.7905786614173227
0
LINE
8
BLACK
6
CONTINUOUS
10
3.6220547244094488
20
-3.7905786614173227
11
3.6219300787401574
21
-3.7905205511811024
0
LINE
8
BLACK
6
CONTINUOUS
10
3.6219300787401574
20
-3.7905205511811024
11
3.6200553149606298
21
-3.7886457874015749
0
LINE
8
BLACK
6
CONTINUOUS
10
3.6200553149606298
20
-3.7886457874015749
11
3.6195490157480315
21
-3.787922677165354
0
LINE
8
BLACK
6
CONTINUOUS
10
3.6195490157480315
20
-3.787922677165354
11
3.6195022047244092
21
-3.7878783858267715
0
LINE
8
BLACK
6
CONTINUOUS
10
3.6195022047244092
20
-3.7878783858267715
11
3.6176274409448816
21
-3.7841288582677164
0
LINE
8
BLACK
6
CONTINUOUS
10
3.6176274409448816
20
-3.7841288582677164
11
3.6173350787401573
21
-3.7831459055118111
0
LINE
8
BLACK
6
CONTINUOUS
10
3.6173350787401573
20
-3.7831459055118111
11
3.6173760629921259
21
-3.7829742125984249
0
LINE
8
BLACK
6
CONTINUOUS
10
3.6173760629921259
20
-3.7829742125984249
11
3.6173157086614172
21
-3.7828083464566928
0
LINE
8
BLACK
6
CONTINUOUS
10
3.6173157086614172
20
-3.7828083464566928
11
3.6173157086614172
21
-3.7753092913385826
0
LINE
8
BLACK
6
CONTINUOUS
10
3.6173157086614172
20
-3.7753092913385826
11
3.617493779527559
21
-3.7742993700787402
0
LINE
8
BLACK
6
CONTINUOUS
10
3.617493779527559
20
-3.7742993700787402
11
3.6187920866141732
21
-3.772752125984252
0
LINE
8
BLACK
6
CONTINUOUS
10
3.6187920866141732
20
-3.772752125984252
11
3.6207812204724408
21
-3.7724013779527557
0
LINE
8
BLACK
6
CONTINUOUS
10
3.6207812204724408
20
-3.7724013779527557
11
3.6225303937007873
21
-3.7734112992125985
0
LINE
8
BLACK
6
CONTINUOUS
10
3.6225303937007873
20
-3.7734112992125985
11
3.6232212204724408
21
-3.7753092913385826
0
LINE
8
BLACK
6
CONTINUOUS
10
3.6232212204724408
20
-3.7753092913385826
11
3.6232212204724408
21
-3.7821112992125983
0
LINE
8
BLACK
6
CONTINUOUS
10
3.6232212204724408
20
-3.7821112992125983
11
3.6245699606299211
21
-3.7848087795275589
0
LINE
8
BLACK
6
CONTINUOUS
10
3.6245699606299211
20
-3.7848087795275589
11
3.6258990944881888
21
-3.7861379133858266
0
LINE
8
BLACK
6
CONTINUOUS
10
3.6258990944881888
20
-3.7861379133858266
11
3.6308546456692912
21
-3.7894416141732283
0
LINE
8
BLACK
6
CONTINUOUS
10
3.6308546456692912
20
-3.7894416141732283
11
3.6337718110236219
21
-3.7901709055118111
0
LINE
8
BLACK
6
CONTINUOUS
10
3.6337718110236219
20
-3.7901709055118111
11
3.6326255511811021
21
-3.7878783858267715
0
LINE
8
BLACK
6
CONTINUOUS
10
3.6326255511811021
20
-3.7878783858267715
11
3.6323331889763777
21
-3.7868954330708662
0
LINE
8
BLACK
6
CONTINUOUS
10
3.6323331889763777
20
-3.7868954330708662
11
3.6323741732283463
21
-3.78672374015748
0
LINE
8
BLACK
6
CONTINUOUS
10
3.6323741732283463
20
-3.78672374015748
11
3.6323138188976376
21
-3.7865578740157479
0
LINE
8
BLACK
6
CONTINUOUS
10
3.6323138188976376
20
-3.7865578740157479
11
3.6323138188976376
21
-3.7790588188976377
0
LINE
8
BLACK
6
CONTINUOUS
10
3.6323138188976376
20
-3.7790588188976377
11
3.6324918897637795
21
-3.7780488976377953
0
LINE
8
BLACK
6
CONTINUOUS
10
3.6324918897637795
20
-3.7780488976377953
11
3.6326053543307086
21
-3.7779136220472438
0
LINE
8
BLACK
6
CONTINUOUS
10
3.6326053543307086
20
-3.7779136220472438
11
3.6326255511811021
21
-3.7777383070866142
0
LINE
8
BLACK
6
CONTINUOUS
10
3.6326255511811021
20
-3.7777383070866142
11
3.6345003149606296
21
-3.7739887795275591
0
LINE
8
BLACK
6
CONTINUOUS
10
3.6345003149606296
20
-3.7739887795275591
11
3.6350262204724411
21
-3.7732796850393702
0
LINE
8
BLACK
6
CONTINUOUS
10
3.6350262204724411
20
-3.7732796850393702
11
3.6350534251968503
21
-3.7732213779527557
0
LINE
8
BLACK
6
CONTINUOUS
10
3.6350534251968503
20
-3.7732213779527557
11
3.6369281889763778
21
-3.7713466141732281
0
LINE
8
BLACK
6
CONTINUOUS
10
3.6369281889763778
20
-3.7713466141732281
11
3.6376512598425195
21
-3.7708403149606298
0
LINE
8
BLACK
6
CONTINUOUS
10
3.6376512598425195
20
-3.7708403149606298
11
3.6376955905511812
21
-3.770793503937008
0
LINE
8
BLACK
6
CONTINUOUS
10
3.6376955905511812
20
-3.770793503937008
11
3.6414451181102363
21
-3.7689187401574804
0
LINE
8
BLACK
6
CONTINUOUS
10
3.6414451181102363
20
-3.7689187401574804
11
3.6424280314960629
21
-3.768626377952756
0
LINE
8
BLACK
6
CONTINUOUS
10
3.6424280314960629
20
-3.768626377952756
11
3.6425997244094486
21
-3.7686673622047242
0
LINE
8
BLACK
6
CONTINUOUS
10
3.6425997244094486
20
-3.7686673622047242
11
3.6427656299212599
21
-3.7686070078740155
0
LINE
8
BLACK
6
CONTINUOUS
10
3.6427656299212599
20
-3.7686070078740155
11
3.6521394488188976
21
-3.7686070078740155
0
LINE
8
BLACK
6
CONTINUOUS
10
3.6521394488188976
20
-3.7686070078740155
11
3.6531493700787401
21
-3.7687850787401573
0
LINE
8
BLACK
6
CONTINUOUS
10
3.6407651968503938
20
-3.7758612598425194
11
3.6395680708661415
21
-3.7770583858267717
0
LINE
8
BLACK
6
CONTINUOUS
10
3.6395680708661415
20
-3.7770583858267717
11
3.6382193307086612
21
-3.7797558661417323
0
LINE
8
BLACK
6
CONTINUOUS
10
3.6382193307086612
20
-3.7797558661417323
11
3.6382193307086612
21
-3.7858608267716534
0
LINE
8
BLACK
6
CONTINUOUS
10
3.6382193307086612
20
-3.7858608267716534
11
3.6395680708661415
21
-3.788558307086614
0
LINE
8
BLACK
6
CONTINUOUS
10
3.6395680708661415
20
-3.788558307086614
11
3.6407651968503938
21
-3.7897554330708663
0
LINE
8
BLACK
6
CONTINUOUS
10
3.6407651968503938
20
-3.7897554330708663
11
3.6434626771653544
21
-3.7911041732283466
0
LINE
8
BLACK
6
CONTINUOUS
10
3.6434626771653544
20
-3.7911041732283466
11
3.651442401574803
21
-3.7911041732283466
0
LINE
8
BLACK
6
CONTINUOUS
10
3.651442401574803
20
-3.7911041732283466
11
3.6541398818897637
21
-3.7897553937007875
0
LINE
8
BLACK
6
CONTINUOUS
10
3.6541398818897637
20
-3.7897553937007875
11
3.6553370472440943
21
-3.7885582677165353
0
LINE
8
BLACK
6
CONTINUOUS
10
3.6553370472440943
20
-3.7885582677165353
11
3.6566857874015746
21
-3.7858608267716534
0
LINE
8
BLACK
6
CONTINUOUS
10
3.6566857874015746
20
-3.7858608267716534
11
3.6566857874015746
21
-3.7797558661417323
0
LINE
8
BLACK
6
CONTINUOUS
10
3.6566857874015746
20
-3.7797558661417323
11
3.6553370472440943
21
-3.7770583858267717
0
LINE
8
BLACK
6
CONTINUOUS
10
3.6553370472440943
20
-3.7770583858267717
11
3.6541398818897637
21
-3.7758612598425194
0
LINE
8
BLACK
6
CONTINUOUS
10
3.6541398818897637
20
-3.7758612598425194
11
3.651442401574803
21
-3.7745125196850391
0
LINE
8
BLACK
6
CONTINUOUS
10
3.651442401574803
20
-3.7745125196850391
11
3.6434626771653544
21
-3.7745125196850391
0
LINE
8
BLACK
6
CONTINUOUS
10
3.6434626771653544
20
-3.7745125196850391
11
3.6407651968503938
21
-3.7758612598425194
0
LINE
8
BLACK
6
CONTINUOUS
10
3.6531493700787401
20
-3.7312897637795275
11
3.6532846062992124
21
-3.7314032283464567
0
LINE
8
BLACK
6
CONTINUOUS
10
3.6532846062992124
20
-3.7314032283464567
11
3.6534599606299212
21
-3.7314234251968501
0
LINE
8
BLACK
6
CONTINUOUS
10
3.6534599606299212
20
-3.7314234251968501
11
3.6572094881889763
21
-3.7332981889763777
0
LINE
8
BLACK
6
CONTINUOUS
10
3.6572094881889763
20
-3.7332981889763777
11
3.6579184645669289
21
-3.7338240157480316
0
LINE
8
BLACK
6
CONTINUOUS
10
3.6579184645669289
20
-3.7338240157480316
11
3.6579768503937009
21
-3.7338512598425195
0
LINE
8
BLACK
6
CONTINUOUS
10
3.6579768503937009
20
-3.7338512598425195
11
3.6598516535433072
21
-3.7357260236220471
0
LINE
8
BLACK
6
CONTINUOUS
10
3.6598516535433072
20
-3.7357260236220471
11
3.6603580314960631
21
-3.7364491732283462
0
LINE
8
BLACK
6
CONTINUOUS
10
3.6603580314960631
20
-3.7364491732283462
11
3.6604048031496061
21
-3.7364934645669292
0
LINE
8
BLACK
6
CONTINUOUS
10
3.6604048031496061
20
-3.7364934645669292
11
3.6622795669291337
21
-3.7402429921259843
0
LINE
8
BLACK
6
CONTINUOUS
10
3.6622795669291337
20
-3.7402429921259843
11
3.6625719291338581
21
-3.7412259055118109
0
LINE
8
BLACK
6
CONTINUOUS
10
3.6625719291338581
20
-3.7412259055118109
11
3.6625309055118112
21
-3.7413975984251966
0
LINE
8
BLACK
6
CONTINUOUS
10
3.6625309055118112
20
-3.7413975984251966
11
3.6625912992125982
21
-3.7415635039370079
0
LINE
8
BLACK
6
CONTINUOUS
10
3.6625912992125982
20
-3.7415635039370079
11
3.6625912992125982
21
-3.7528120866141732
0
LINE
8
BLACK
6
CONTINUOUS
10
3.6625912992125982
20
-3.7528120866141732
11
3.6624132283464568
21
-3.7538220078740157
0
LINE
8
BLACK
6
CONTINUOUS
10
3.6624132283464568
20
-3.7538220078740157
11
3.6622997244094488
21
-3.7539572440944879
0
LINE
8
BLACK
6
CONTINUOUS
10
3.6622997244094488
20
-3.7539572440944879
11
3.6622795669291337
21
-3.7541325984251968
0
LINE
8
BLACK
6
CONTINUOUS
10
3.6622795669291337
20
-3.7541325984251968
11
3.6604048031496061
21
-3.7578821259842519
0
LINE
8
BLACK
6
CONTINUOUS
10
3.6604048031496061
20
-3.7578821259842519
11
3.6598788188976377
21
-3.7585912204724408
0
LINE
8
BLACK
6
CONTINUOUS
10
3.6598788188976377
20
-3.7585912204724408
11
3.6598516535433072
21
-3.758649566929134
0
LINE
8
BLACK
6
CONTINUOUS
10
3.6598516535433072
20
-3.758649566929134
11
3.6579768503937009
21
-3.7605243307086615
0
LINE
8
BLACK
6
CONTINUOUS
10
3.6579768503937009
20
-3.7605243307086615
11
3.657136811023622
21
-3.7611125196850392
0
LINE
8
BLACK
6
CONTINUOUS
10
3.657136811023622
20
-3.7611125196850392
11
3.6551247244094487
21
-3.7612885039370076
0
LINE
8
BLACK
6
CONTINUOUS
10
3.6551247244094487
20
-3.7612885039370076
11
3.6534701968503938
21
-3.7601299999999998
0
LINE
8
BLACK
6
CONTINUOUS
10
3.6534701968503938
20
-3.7601299999999998
11
3.6529474803149604
21
-3.7581790157480315
0
LINE
8
BLACK
6
CONTINUOUS
10
3.6529474803149604
20
-3.7581790157480315
11
3.6538011023622046
21
-3.7563484251968502
0
LINE
8
BLACK
6
CONTINUOUS
10
3.6538011023622046
20
-3.7563484251968502
11
3.6553370472440943
21
-3.7548124803149605
0
LINE
8
BLACK
6
CONTINUOUS
10
3.6553370472440943
20
-3.7548124803149605
11
3.6566857874015746
21
-3.7521150393700786
0
LINE
8
BLACK
6
CONTINUOUS
10
3.6566857874015746
20
-3.7521150393700786
11
3.6566857874015746
21
-3.7422605511811025
0
LINE
8
BLACK
6
CONTINUOUS
10
3.6566857874015746
20
-3.7422605511811025
11
3.6553370472440943
21
-3.7395630708661418
0
LINE
8
BLACK
6
CONTINUOUS
10
3.6553370472440943
20
-3.7395630708661418
11
3.6541398818897637
21
-3.7383659448818896
0
LINE
8
BLACK
6
CONTINUOUS
10
3.6541398818897637
20
-3.7383659448818896
11
3.651442401574803
21
-3.7370172047244092
0
LINE
8
BLACK
6
CONTINUOUS
10
3.651442401574803
20
-3.7370172047244092
11
3.6434626771653544
21
-3.7370172047244092
0
LINE
8
BLACK
6
CONTINUOUS
10
3.6434626771653544
20
-3.7370172047244092
11
3.6407651968503938
21
-3.7383659448818896
0
LINE
8
BLACK
6
CONTINUOUS
10
3.6407651968503938
20
-3.7383659448818896
11
3.6395680708661415
21
-3.7395630708661418
0
LINE
8
BLACK
6
CONTINUOUS
10
3.6395680708661415
20
-3.7395630708661418
11
3.6382193307086612
21
-3.7422605511811025
0
LINE
8
BLACK
6
CONTINUOUS
10
3.6382193307086612
20
-3.7422605511811025
11
3.6382193307086612
21
-3.7471877952755905
0
LINE
8
BLACK
6
CONTINUOUS
10
3.6382193307086612
20
-3.7471877952755905
11
3.6381422047244092
21
-3.747625118110236
0
LINE
8
BLACK
6
CONTINUOUS
10
3.6381422047244092
20
-3.747625118110236
11
3.6381632283464564
21
-3.7477606299212596
0
LINE
8
BLACK
6
CONTINUOUS
10
3.6381632283464564
20
-3.7477606299212596
11
3.6380998425196851
21
-3.7478652755905513
0
LINE
8
BLACK
6
CONTINUOUS
10
3.6380998425196851
20
-3.7478652755905513
11
3.6380412598425198
21
-3.748197716535433
0
LINE
8
BLACK
6
CONTINUOUS
10
3.6380412598425198
20
-3.748197716535433
11
3.6375295669291337
21
-3.7488074803149605
0
LINE
8
BLACK
6
CONTINUOUS
10
3.6375295669291337
20
-3.7488074803149605
11
3.6371173622047244
21
-3.7494885433070864
0
LINE
8
BLACK
6
CONTINUOUS
10
3.6371173622047244
20
-3.7494885433070864
11
3.6368943307086612
21
-3.7495644881889763
0
LINE
8
BLACK
6
CONTINUOUS
10
3.6368943307086612
20
-3.7495644881889763
11
3.6367429527559056
21
-3.7497449606299211
0
LINE
8
BLACK
6
CONTINUOUS
10
3.6367429527559056
20
-3.7497449606299211
11
3.6359589763779527
21
-3.7498831889763777
0
LINE
8
BLACK
6
CONTINUOUS
10
3.6359589763779527
20
-3.7498831889763777
11
3.6352054724409446
21
-3.7501399212598425
0
LINE
8
BLACK
6
CONTINUOUS
10
3.6352054724409446
20
-3.7501399212598425
11
3.6349858267716533
21
-3.7500547637795276
0
LINE
8
BLACK
6
CONTINUOUS
10
3.6349858267716533
20
-3.7500547637795276
11
3.6347538188976376
21
-3.7500957086614171
0
LINE
8
BLACK
6
CONTINUOUS
10
3.6347538188976376
20
-3.7500957086614171
11
3.6340643307086613
21
-3.7496975984251968
0
LINE
8
BLACK
6
CONTINUOUS
10
3.6340643307086613
20
-3.7496975984251968
11
3.6333221653543308
21
-3.7494099606299214
0
LINE
8
BLACK
6
CONTINUOUS
10
3.6333221653543308
20
-3.7494099606299214
11
3.6232212204724408
21
-3.7405716141732284
0
LINE
8
BLACK
6
CONTINUOUS
10
3.6232212204724408
20
-3.7405716141732284
11
3.6232212204724408
21
-3.7584363779527559
0
LINE
8
BLACK
6
CONTINUOUS
10
3.6232212204724408
20
-3.7584363779527559
11
3.6230431496062989
21
-3.7594462992125983
0
LINE
8
BLACK
6
CONTINUOUS
10
3.6230431496062989
20
-3.7594462992125983
11
3.6217448425196848
21
-3.7609935433070865
0
LINE
8
BLACK
6
CONTINUOUS
10
3.6217448425196848
20
-3.7609935433070865
11
3.6197557086614172
21
-3.7613442913385824
0
LINE
8
BLACK
6
CONTINUOUS
10
3.6197557086614172
20
-3.7613442913385824
11
3.6180065354330706
21
-3.7603343700787399
0
LINE
8
BLACK
6
CONTINUOUS
10
3.6180065354330706
20
-3.7603343700787399
11
3.6173157086614172
21
-3.7584363779527559
0
LINE
8
BLACK
6
CONTINUOUS
10
3.6173157086614172
20
-3.7584363779527559
11
3.6173157086614172
21
-3.7340644488188977
0
LINE
8
BLACK
6
CONTINUOUS
10
3.6173157086614172
20
-3.7340644488188977
11
3.6173927952755904
21
-3.733627086614173
0
LINE
8
BLACK
6
CONTINUOUS
10
3.6173927952755904
20
-3.733627086614173
11
3.6173718110236219
21
-3.7334916141732282
0
LINE
8
BLACK
6
CONTINUOUS
10
3.6173718110236219
20
-3.7334916141732282
11
3.617435157480315
21
-3.7333869291338582
0
LINE
8
BLACK
6
CONTINUOUS
10
3.617435157480315
20
-3.7333869291338582
11
3.617493779527559
21
-3.7330545275590552
0
LINE
8
BLACK
6
CONTINUOUS
10
3.617493779527559
20
-3.7330545275590552
11
3.618005433070866
21
-3.7324447244094485
0
LINE
8
BLACK
6
CONTINUOUS
10
3.618005433070866
20
-3.7324447244094485
11
3.6184176771653545
21
-3.7317637007874014
0
LINE
8
BLACK
6
CONTINUOUS
10
3.6184176771653545
20
-3.7317637007874014
11
3.6186406692913384
21
-3.7316877165354332
0
LINE
8
BLACK
6
CONTINUOUS
10
3.6186406692913384
20
-3.7316877165354332
11
3.6187920866141732
21
-3.7315072834645671
0
LINE
8
BLACK
6
CONTINUOUS
10
3.6187920866141732
20
-3.7315072834645671
11
3.6195760236220473
21
-3.7313690157480313
0
LINE
8
BLACK
6
CONTINUOUS
10
3.6195760236220473
20
-3.7313690157480313
11
3.6203295669291338
21
-3.7311123228346457
0
LINE
8
BLACK
6
CONTINUOUS
10
3.6203295669291338
20
-3.7311123228346457
11
3.6205491732283464
21
-3.7311974409448818
0
LINE
8
BLACK
6
CONTINUOUS
10
3.6205491732283464
20
-3.7311974409448818
11
3.6207812204724408
21
-3.7311565354330707
0
LINE
8
BLACK
6
CONTINUOUS
10
3.6207812204724408
20
-3.7311565354330707
11
3.6214706692913383
21
-3.7315546062992127
0
LINE
8
BLACK
6
CONTINUOUS
10
3.6214706692913383
20
-3.7315546062992127
11
3.622212874015748
21
-3.7318422834645668
0
LINE
8
BLACK
6
CONTINUOUS
10
3.622212874015748
20
-3.7318422834645668
11
3.6324486614173228
21
-3.7407985826771655
0
LINE
8
BLACK
6
CONTINUOUS
10
3.6324486614173228
20
-3.7407985826771655
11
3.6324918897637795
21
-3.7405535826771654
0
LINE
8
BLACK
6
CONTINUOUS
10
3.6324918897637795
20
-3.7405535826771654
11
3.6326053543307086
21
-3.7404183070866139
0
LINE
8
BLACK
6
CONTINUOUS
10
3.6326053543307086
20
-3.7404183070866139
11
3.6326255511811021
21
-3.7402429921259843
0
LINE
8
BLACK
6
CONTINUOUS
10
3.6326255511811021
20
-3.7402429921259843
11
3.6345003149606296
21
-3.7364934645669292
0
LINE
8
BLACK
6
CONTINUOUS
10
3.6345003149606296
20
-3.7364934645669292
11
3.6350262204724411
21
-3.7357843700787399
0
LINE
8
BLACK
6
CONTINUOUS
10
3.6350262204724411
20
-3.7357843700787399
11
3.6350534251968503
21
-3.7357260629921258
0
LINE
8
BLACK
6
CONTINUOUS
10
3.6350534251968503
20
-3.7357260629921258
11
3.6369281889763778
21
-3.7338512992125983
0
LINE
8
BLACK
6
CONTINUOUS
10
3.6369281889763778
20
-3.7338512992125983
11
3.6376512598425195
21
-3.7333449999999999
0
LINE
8
BLACK
6
CONTINUOUS
10
3.6376512598425195
20
-3.7333449999999999
11
3.6376955905511812
21
-3.7332981889763777
0
LINE
8
BLACK
6
CONTINUOUS
10
3.6376955905511812
20
-3.7332981889763777
11
3.6414451181102363
21
-3.7314234251968501
0
LINE
8
BLACK
6
CONTINUOUS
10
3.6414451181102363
20
-3.7314234251968501
11
3.6424280314960629
21
-3.7311310629921257
0
LINE
8
BLACK
6
CONTINUOUS
10
3.6424280314960629
20
-3.7311310629921257
11
3.6425997244094486
21
-3.7311720472440943
0
LINE
8
BLACK
6
CONTINUOUS
10
3.6425997244094486
20
-3.7311720472440943
11
3.6427656299212599
21
-3.7311116929133856
0
LINE
8
BLACK
6
CONTINUOUS
10
3.6427656299212599
20
-3.7311116929133856
11
3.6521394488188976
21
-3.7311116929133856
0
LINE
8
BLACK
6
CONTINUOUS
10
3.6521394488188976
20
-3.7311116929133856
11
3.6531493700787401
21
-3.7312897637795275
0
LINE
8
BLACK
6
CONTINUOUS
10
3.6582625590551179
20
-3.7124878346456693
11
3.6585280314960631
21
-3.7124646456692911
0
LINE
8
BLACK
6
CONTINUOUS
10
3.6585280314960631
20
-3.7124646456692911
11
3.6591564566929131
21
-3.7129046850393701
0
LINE
8
BLACK
6
CONTINUOUS
10
3.6591564566929131
20
-3.7129046850393701
11
3.6598516929133855
21
-3.7132288582677164
0
LINE
8
BLACK
6
CONTINUOUS
10
3.6598516929133855
20
-3.7132288582677164
11
3.6617264566929135
21
-3.715103622047244
0
LINE
8
BLACK
6
CONTINUOUS
10
3.6617264566929135
20
-3.715103622047244
11
3.661949842519685
21
-3.7154226377952755
0
LINE
8
BLACK
6
CONTINUOUS
10
3.661949842519685
20
-3.7154226377952755
11
3.6620573228346456
21
-3.7154979133858266
0
LINE
8
BLACK
6
CONTINUOUS
10
3.6620573228346456
20
-3.7154979133858266
11
3.6620912598425197
21
-3.7156246456692914
0
LINE
8
BLACK
6
CONTINUOUS
10
3.6620912598425197
20
-3.7156246456692914
11
3.6620961417322833
21
-3.7156316141732284
0
LINE
8
BLACK
6
CONTINUOUS
10
3.6620961417322833
20
-3.7156316141732284
11
3.6621957086614172
21
-3.7157151574803149
0
LINE
8
BLACK
6
CONTINUOUS
10
3.6621957086614172
20
-3.7157151574803149
11
3.6622095275590549
21
-3.7157935039370078
0
LINE
8
BLACK
6
CONTINUOUS
10
3.6622095275590549
20
-3.7157935039370078
11
3.6623146456692912
21
-3.7159436614173229
0
LINE
8
BLACK
6
CONTINUOUS
10
3.6623146456692912
20
-3.7159436614173229
11
3.6623814960629919
21
-3.7167078740157478
0
LINE
8
BLACK
6
CONTINUOUS
10
3.6623814960629919
20
-3.7167078740157478
11
3.6625800393700785
21
-3.7174488976377953
0
LINE
8
BLACK
6
CONTINUOUS
10
3.6625800393700785
20
-3.7174488976377953
11
3.6625229921259841
21
-3.7175712204724407
0
LINE
8
BLACK
6
CONTINUOUS
10
3.6625229921259841
20
-3.7175712204724407
11
3.6625464566929131
21
-3.7177042913385825
0
LINE
8
BLACK
6
CONTINUOUS
10
3.6625464566929131
20
-3.7177042913385825
11
3.6624788976377953
21
-3.7178212598425198
0
LINE
8
BLACK
6
CONTINUOUS
10
3.6624788976377953
20
-3.7178212598425198
11
3.6624906692913384
21
-3.7179557480314962
0
LINE
8
BLACK
6
CONTINUOUS
10
3.6624906692913384
20
-3.7179557480314962
11
3.6620506692913386
21
-3.7185841338582675
0
LINE
8
BLACK
6
CONTINUOUS
10
3.6620506692913386
20
-3.7185841338582675
11
3.6617264566929135
21
-3.7192794488188974
0
LINE
8
BLACK
6
CONTINUOUS
10
3.6617264566929135
20
-3.7192794488188974
11
3.6598516929133855
21
-3.7211542125984249
0
LINE
8
BLACK
6
CONTINUOUS
10
3.6598516929133855
20
-3.7211542125984249
11
3.6595326771653545
21
-3.7213775590551181
0
LINE
8
BLACK
6
CONTINUOUS
10
3.6595326771653545
20
-3.7213775590551181
11
3.6594574409448817
21
-3.7214850393700787
0
LINE
8
BLACK
6
CONTINUOUS
10
3.6594574409448817
20
-3.7214850393700787
11
3.6593307086614173
21
-3.7215189763779528
0
LINE
8
BLACK
6
CONTINUOUS
10
3.6593307086614173
20
-3.7215189763779528
11
3.659011653543307
21
-3.7217424015748031
0
LINE
8
BLACK
6
CONTINUOUS
10
3.659011653543307
20
-3.7217424015748031
11
3.6582473228346455
21
-3.7218092519685038
0
LINE
8
BLACK
6
CONTINUOUS
10
3.6582473228346455
20
-3.7218092519685038
11
3.6575064566929134
21
-3.7220077952755903
0
LINE
8
BLACK
6
CONTINUOUS
10
3.6575064566929134
20
-3.7220077952755903
11
3.6572650393700785
21
-3.7218951968503937
0
LINE
8
BLACK
6
CONTINUOUS
10
3.6572650393700785
20
-3.7218951968503937
11
3.6569995669291337
21
-3.721918464566929
0
LINE
8
BLACK
6
CONTINUOUS
10
3.6569995669291337
20
-3.721918464566929
11
3.656371023622047
21
-3.721478346456693
0
LINE
8
BLACK
6
CONTINUOUS
10
3.656371023622047
20
-3.721478346456693
11
3.6556758661417321
21
-3.7211542125984249
0
LINE
8
BLACK
6
CONTINUOUS
10
3.6556758661417321
20
-3.7211542125984249
11
3.6538011023622046
21
-3.7192794881889761
0
LINE
8
BLACK
6
CONTINUOUS
10
3.6538011023622046
20
-3.7192794881889761
11
3.6535776377952756
21
-3.7189603937007871
0
LINE
8
BLACK
6
CONTINUOUS
10
3.6535776377952756
20
-3.7189603937007871
11
3.6534701968503938
21
-3.7188851574803148
0
LINE
8
BLACK
6
CONTINUOUS
10
3.6534701968503938
20
-3.7188851574803148
11
3.6534362204724409
21
-3.7187584251968504
0
LINE
8
BLACK
6
CONTINUOUS
10
3.6534362204724409
20
-3.7187584251968504
11
3.6534312992125981
21
-3.7187514173228347
0
LINE
8
BLACK
6
CONTINUOUS
10
3.6534312992125981
20
-3.7187514173228347
11
3.6533318110236221
21
-3.7186679133858265
0
LINE
8
BLACK
6
CONTINUOUS
10
3.6533318110236221
20
-3.7186679133858265
11
3.653317992125984
21
-3.7185895669291336
0
LINE
8
BLACK
6
CONTINUOUS
10
3.653317992125984
20
-3.7185895669291336
11
3.6532128740157481
21
-3.7184394488188977
0
LINE
8
BLACK
6
CONTINUOUS
10
3.6532128740157481
20
-3.7184394488188977
11
3.6531459842519682
21
-3.7176750787401573
0
LINE
8
BLACK
6
CONTINUOUS
10
3.6531459842519682
20
-3.7176750787401573
11
3.6529474803149604
21
-3.7169341732283465
0
LINE
8
BLACK
6
CONTINUOUS
10
3.6529474803149604
20
-3.7169341732283465
11
3.6530044881889765
21
-3.7168118110236219
0
LINE
8
BLACK
6
CONTINUOUS
10
3.6530044881889765
20
-3.7168118110236219
11
3.6529810629921258
21
-3.7166787795275589
0
LINE
8
BLACK
6
CONTINUOUS
10
3.6529810629921258
20
-3.7166787795275589
11
3.6530485433070865
21
-3.716561811023622
0
LINE
8
BLACK
6
CONTINUOUS
10
3.6530485433070865
20
-3.716561811023622
11
3.6530368110236218
21
-3.7164273228346456
0
LINE
8
BLACK
6
CONTINUOUS
10
3.6530368110236218
20
-3.7164273228346456
11
3.6534769291338582
21
-3.7157987007874014
0
LINE
8
BLACK
6
CONTINUOUS
10
3.6534769291338582
20
-3.7157987007874014
11
3.6538011023622046
21
-3.7151035826771652
0
LINE
8
BLACK
6
CONTINUOUS
10
3.6538011023622046
20
-3.7151035826771652
11
3.6556758661417321
21
-3.7132288582677164
0
LINE
8
BLACK
6
CONTINUOUS
10
3.6556758661417321
20
-3.7132288582677164
11
3.6559948818897636
21
-3.7130054330708662
0
LINE
8
BLACK
6
CONTINUOUS
10
3.6559948818897636
20
-3.7130054330708662
11
3.6560701574803147
21
-3.7128979921259844
0
LINE
8
BLACK
6
CONTINUOUS
10
3.6560701574803147
20
-3.7128979921259844
11
3.6561968503937008
21
-3.7128640157480315
0
LINE
8
BLACK
6
CONTINUOUS
10
3.6561968503937008
20
-3.7128640157480315
11
3.6565159448818898
21
-3.7126406299212595
0
LINE
8
BLACK
6
CONTINUOUS
10
3.6565159448818898
20
-3.7126406299212595
11
3.6572801968503934
21
-3.7125737795275588
0
LINE
8
BLACK
6
CONTINUOUS
10
3.6572801968503934
20
-3.7125737795275588
11
3.6580211023622047
21
-3.712375275590551
0
LINE
8
BLACK
6
CONTINUOUS
10
3.6580211023622047
20
-3.712375275590551
11
3.6582625590551179
21
-3.7124878346456693
0
LINE
8
BLACK
6
CONTINUOUS
10
3.6531493700787401
20
-3.6750468110236221
11
3.6532846062992124
21
-3.6751602755905513
0
LINE
8
BLACK
6
CONTINUOUS
10
3.6532846062992124
20
-3.6751602755905513
11
3.6534599606299212
21
-3.6751804724409447
0
LINE
8
BLACK
6
CONTINUOUS
10
3.6534599606299212
20
-3.6751804724409447
11
3.6572094881889763
21
-3.6770552362204723
0
LINE
8
BLACK
6
CONTINUOUS
10
3.6572094881889763
20
-3.6770552362204723
11
3.6579184645669289
21
-3.6775810629921257
0
LINE
8
BLACK
6
CONTINUOUS
10
3.6579184645669289
20
-3.6775810629921257
11
3.6579768503937009
21
-3.6776083070866141
0
LINE
8
BLACK
6
CONTINUOUS
10
3.6579768503937009
20
-3.6776083070866141
11
3.6598516535433072
21
-3.6794830708661417
0
LINE
8
BLACK
6
CONTINUOUS
10
3.6598516535433072
20
-3.6794830708661417
11
3.6603580314960631
21
-3.6802062204724408
0
LINE
8
BLACK
6
CONTINUOUS
10
3.6603580314960631
20
-3.6802062204724408
11
3.6604048031496061
21
-3.6802505118110234
0
LINE
8
BLACK
6
CONTINUOUS
10
3.6604048031496061
20
-3.6802505118110234
11
3.6622795669291337
21
-3.6840000393700785
0
LINE
8
BLACK
6
CONTINUOUS
10
3.6622795669291337
20
-3.6840000393700785
11
3.6625719291338581
21
-3.6849829527559055
0
LINE
8
BLACK
6
CONTINUOUS
10
3.6625719291338581
20
-3.6849829527559055
11
3.6625309055118112
21
-3.6851546456692912
0
LINE
8
BLACK
6
CONTINUOUS
10
3.6625309055118112
20
-3.6851546456692912
11
3.6625912992125982
21
-3.6853205511811025
0
LINE
8
BLACK
6
CONTINUOUS
10
3.6625912992125982
20
-3.6853205511811025
11
3.6625912992125982
21
-3.6946943700787402
0
LINE
8
BLACK
6
CONTINUOUS
10
3.6625912992125982
20
-3.6946943700787402
11
3.6624132283464568
21
-3.6957042913385827
0
LINE
8
BLACK
6
CONTINUOUS
10
3.6624132283464568
20
-3.6957042913385827
11
3.6622997244094488
21
-3.695839527559055
0
LINE
8
BLACK
6
CONTINUOUS
10
3.6622997244094488
20
-3.695839527559055
11
3.6622795669291337
21
-3.6960148818897638
0
LINE
8
BLACK
6
CONTINUOUS
10
3.6622795669291337
20
-3.6960148818897638
11
3.6604048031496061
21
-3.6997644094488189
0
LINE
8
BLACK
6
CONTINUOUS
10
3.6604048031496061
20
-3.6997644094488189
11
3.6598788188976377
21
-3.7004735039370078
0
LINE
8
BLACK
6
CONTINUOUS
10
3.6598788188976377
20
-3.7004735039370078
11
3.6598516535433072
21
-3.7005318503937006
0
LINE
8
BLACK
6
CONTINUOUS
10
3.6598516535433072
20
-3.7005318503937006
11
3.6579768503937009
21
-3.7024066141732281
0
LINE
8
BLACK
6
CONTINUOUS
10
3.6579768503937009
20
-3.7024066141732281
11
3.657136811023622
21
-3.7029948031496063
0
LINE
8
BLACK
6
CONTINUOUS
10
3.657136811023622
20
-3.7029948031496063
11
3.6551247244094487
21
-3.7031707874015747
0
LINE
8
BLACK
6
CONTINUOUS
10
3.6551247244094487
20
-3.7031707874015747
11
3.6534701968503938
21
-3.7020122834645668
0
LINE
8
BLACK
6
CONTINUOUS
10
3.6534701968503938
20
-3.7020122834645668
11
3.6529474803149604
21
-3.7000612992125985
0
LINE
8
BLACK
6
CONTINUOUS
10
3.6529474803149604
20
-3.7000612992125985
11
3.6538011023622046
21
-3.6982307086614172
0
LINE
8
BLACK
6
CONTINUOUS
10
3.6538011023622046
20
-3.6982307086614172
11
3.6553370472440943
21
-3.6966947637795275
0
LINE
8
BLACK
6
CONTINUOUS
10
3.6553370472440943
20
-3.6966947637795275
11
3.6566857874015746
21
-3.6939973228346457
0
LINE
8
BLACK
6
CONTINUOUS
10
3.6566857874015746
20
-3.6939973228346457
11
3.6566857874015746
21
-3.6860175984251966
0
LINE
8
BLACK
6
CONTINUOUS
10
3.6566857874015746
20
-3.6860175984251966
11
3.6553370472440943
21
-3.683320118110236
0
LINE
8
BLACK
6
CONTINUOUS
10
3.6553370472440943
20
-3.683320118110236
11
3.6541398818897637
21
-3.6821229921259842
0
LINE
8
BLACK
6
CONTINUOUS
10
3.6541398818897637
20
-3.6821229921259842
11
3.651442401574803
21
-3.6807742519685038
0
LINE
8
BLACK
6
CONTINUOUS
10
3.651442401574803
20
-3.6807742519685038
11
3.6434626771653544
21
-3.6807742519685038
0
LINE
8
BLACK
6
CONTINUOUS
10
3.6434626771653544
20
-3.6807742519685038
11
3.6407651968503938
21
-3.6821229921259842
0
LINE
8
BLACK
6
CONTINUOUS
10
3.6407651968503938
20
-3.6821229921259842
11
3.6395680708661415
21
-3.683320118110236
0
LINE
8
BLACK
6
CONTINUOUS
10
3.6395680708661415
20
-3.683320118110236
11
3.6382193307086612
21
-3.6860175984251966
0
LINE
8
BLACK
6
CONTINUOUS
10
3.6382193307086612
20
-3.6860175984251966
11
3.6382193307086612
21
-3.6939973228346457
0
LINE
8
BLACK
6
CONTINUOUS
10
3.6382193307086612
20
-3.6939973228346457
11
3.6395680708661415
21
-3.6966948031496063
0
LINE
8
BLACK
6
CONTINUOUS
10
3.6395680708661415
20
-3.6966948031496063
11
3.6411040157480312
21
-3.698230748031496
0
LINE
8
BLACK
6
CONTINUOUS
10
3.6411040157480312
20
-3.698230748031496
11
3.6416922047244094
21
-3.6990707874015749
0
LINE
8
BLACK
6
CONTINUOUS
10
3.6416922047244094
20
-3.6990707874015749
11
3.6416938582677165
21
-3.6990901181102362
0
LINE
8
BLACK
6
CONTINUOUS
10
3.6416938582677165
20
-3.6990901181102362
11
3.6417074803149605
21
-3.6991040551181102
0
LINE
8
BLACK
6
CONTINUOUS
10
3.6417074803149605
20
-3.6991040551181102
11
3.6417817716535432
21
-3.7000946062992126
0
LINE
8
BLACK
6
CONTINUOUS
10
3.6417817716535432
20
-3.7000946062992126
11
3.6418682283464565
21
-3.7010828740157478
0
LINE
8
BLACK
6
CONTINUOUS
10
3.6418682283464565
20
-3.7010828740157478
11
3.6418570472440943
21
-3.7010987795275589
0
LINE
8
BLACK
6
CONTINUOUS
10
3.6418570472440943
20
-3.7010987795275589
11
3.6418585433070865
21
-3.7011182283464565
0
LINE
8
BLACK
6
CONTINUOUS
10
3.6418585433070865
20
-3.7011182283464565
11
3.6412785433070867
21
-3.7019250000000001
0
LINE
8
BLACK
6
CONTINUOUS
10
3.6412785433070867
20
-3.7019250000000001
11
3.6407097244094486
21
-3.7027374409448819
0
LINE
8
BLACK
6
CONTINUOUS
10
3.6407097244094486
20
-3.7027374409448819
11
3.6406909055118111
21
-3.7027424409448817
0
LINE
8
BLACK
6
CONTINUOUS
10
3.6406909055118111
20
-3.7027424409448817
11
3.6406796062992126
21
-3.7027582283464566
0
LINE
8
BLACK
6
CONTINUOUS
10
3.6406796062992126
20
-3.7027582283464566
11
3.6397174015748033
21
-3.7030032677165354
0
LINE
8
BLACK
6
CONTINUOUS
10
3.6397174015748033
20
-3.7030032677165354
11
3.6387587401574804
21
-3.7032601574803148
0
LINE
8
BLACK
6
CONTINUOUS
10
3.6387587401574804
20
-3.7032601574803148
11
3.6387411417322832
21
-3.7032519291338581
0
LINE
8
BLACK
6
CONTINUOUS
10
3.6387411417322832
20
-3.7032519291338581
11
3.6387222834645669
21
-3.7032567716535434
0
LINE
8
BLACK
6
CONTINUOUS
10
3.6387222834645669
20
-3.7032567716535434
11
3.6199746456692914
21
-3.7013820078740158
0
LINE
8
BLACK
6
CONTINUOUS
10
3.6199746456692914
20
-3.7013820078740158
11
3.6198242913385825
21
-3.7013396850393701
0
LINE
8
BLACK
6
CONTINUOUS
10
3.6198242913385825
20
-3.7013396850393701
11
3.6197557086614172
21
-3.7013518110236219
0
LINE
8
BLACK
6
CONTINUOUS
10
3.6197557086614172
20
-3.7013518110236219
11
3.61964968503937
21
-3.701290590551181
0
LINE
8
BLACK
6
CONTINUOUS
10
3.61964968503937
20
-3.701290590551181
11
3.6189874803149604
21
-3.7011043307086613
0
LINE
8
BLACK
6
CONTINUOUS
10
3.6189874803149604
20
-3.7011043307086613
11
3.6185495669291337
21
-3.7006553937007873
0
LINE
8
BLACK
6
CONTINUOUS
10
3.6185495669291337
20
-3.7006553937007873
11
3.6180065354330706
21
-3.7003418897637794
0
LINE
8
BLACK
6
CONTINUOUS
10
3.6180065354330706
20
-3.7003418897637794
11
3.6178653543307084
21
-3.6999540157480313
0
LINE
8
BLACK
6
CONTINUOUS
10
3.6178653543307084
20
-3.6999540157480313
11
3.617577086614173
21
-3.6996585039370076
0
LINE
8
BLACK
6
CONTINUOUS
10
3.617577086614173
20
-3.6996585039370076
11
3.6175301574803149
21
-3.6990331102362202
0
LINE
8
BLACK
6
CONTINUOUS
10
3.6175301574803149
20
-3.6990331102362202
11
3.6173157086614172
21
-3.6984438976377954
0
LINE
8
BLACK
6
CONTINUOUS
10
3.6173157086614172
20
-3.6984438976377954
11
3.6173157086614172
21
-3.6796962598425198
0
LINE
8
BLACK
6
CONTINUOUS
10
3.6173157086614172
20
-3.6796962598425198
11
3.617493779527559
21
-3.6786863385826769
0
LINE
8
BLACK
6
CONTINUOUS
10
3.617493779527559
20
-3.6786863385826769
11
3.6187920866141732
21
-3.6771390944881888
0
LINE
8
BLACK
6
CONTINUOUS
10
3.6187920866141732
20
-3.6771390944881888
11
3.6207812204724408
21
-3.6767883464566928
0
LINE
8
BLACK
6
CONTINUOUS
10
3.6207812204724408
20
-3.6767883464566928
11
3.6225303937007873
21
-3.6777982677165353
0
LINE
8
BLACK
6
CONTINUOUS
10
3.6225303937007873
20
-3.6777982677165353
11
3.6232212204724408
21
-3.6796962598425198
0
LINE
8
BLACK
6
CONTINUOUS
10
3.6232212204724408
20
-3.6796962598425198
11
3.6232212204724408
21
-3.6957716535433072
0
LINE
8
BLACK
6
CONTINUOUS
10
3.6232212204724408
20
-3.6957716535433072
11
3.6329924803149605
21
-3.6967487795275589
0
LINE
8
BLACK
6
CONTINUOUS
10
3.6329924803149605
20
-3.6967487795275589
11
3.6326255511811021
21
-3.6960148818897638
0
LINE
8
BLACK
6
CONTINUOUS
10
3.6326255511811021
20
-3.6960148818897638
11
3.6323331889763777
21
-3.695031929133858
0
LINE
8
BLACK
6
CONTINUOUS
10
3.6323331889763777
20
-3.695031929133858
11
3.6323741732283463
21
-3.6948602362204723
0
LINE
8
BLACK
6
CONTINUOUS
10
3.6323741732283463
20
-3.6948602362204723
11
3.6323138188976376
21
-3.6946943700787402
0
LINE
8
BLACK
6
CONTINUOUS
10
3.6323138188976376
20
-3.6946943700787402
11
3.6323138188976376
21
-3.6853205511811025
0
LINE
8
BLACK
6
CONTINUOUS
10
3.6323138188976376
20
-3.6853205511811025
11
3.6324918897637795
21
-3.6843106299212596
0
LINE
8
BLACK
6
CONTINUOUS
10
3.6324918897637795
20
-3.6843106299212596
11
3.6326053543307086
21
-3.6841753543307085
0
LINE
8
BLACK
6
CONTINUOUS
10
3.6326053543307086
20
-3.6841753543307085
11
3.6326255511811021
21
-3.6840000393700785
0
LINE
8
BLACK
6
CONTINUOUS
10
3.6326255511811021
20
-3.6840000393700785
11
3.6345003149606296
21
-3.6802505118110234
0
LINE
8
BLACK
6
CONTINUOUS
10
3.6345003149606296
20
-3.6802505118110234
11
3.6350262204724411
21
-3.6795414173228345
0
LINE
8
BLACK
6
CONTINUOUS
10
3.6350262204724411
20
-3.6795414173228345
11
3.6350534251968503
21
-3.6794831102362204
0
LINE
8
BLACK
6
CONTINUOUS
10
3.6350534251968503
20
-3.6794831102362204
11
3.6369281889763778
21
-3.6776083464566929
0
LINE
8
BLACK
6
CONTINUOUS
10
3.6369281889763778
20
-3.6776083464566929
11
3.6376512598425195
21
-3.6771020472440945
0
LINE
8
BLACK
6
CONTINUOUS
10
3.6376512598425195
20
-3.6771020472440945
11
3.6376955905511812
21
-3.6770552362204723
0
LINE
8
BLACK
6
CONTINUOUS
10
3.6376955905511812
20
-3.6770552362204723
11
3.6414451181102363
21
-3.6751804724409447
0
LINE
8
BLACK
6
CONTINUOUS
10
3.6414451181102363
20
-3.6751804724409447
11
3.6424280314960629
21
-3.6748881102362203
0
LINE
8
BLACK
6
CONTINUOUS
10
3.6424280314960629
20
-3.6748881102362203
11
3.6425997244094486
21
-3.6749290944881889
0
LINE
8
BLACK
6
CONTINUOUS
10
3.6425997244094486
20
-3.6749290944881889
11
3.6427656299212599
21
-3.6748687401574802
0
LINE
8
BLACK
6
CONTINUOUS
10
3.6427656299212599
20
-3.6748687401574802
11
3.6521394488188976
21
-3.6748687401574802
0
LINE
8
BLACK
6
CONTINUOUS
10
3.6521394488188976
20
-3.6748687401574802
11
3.6531493700787401
21
-3.6750468110236221
0
LINE
8
BLACK
6
CONTINUOUS
10
3.645220748031496
20
-3.6374757480314961
11
3.6453565354330708
21
-3.6374615748031496
0
LINE
8
BLACK
6
CONTINUOUS
10
3.6453565354330708
20
-3.6374615748031496
11
3.652855590551181
21
-3.6393363385826771
0
LINE
8
BLACK
6
CONTINUOUS
10
3.652855590551181
20
-3.6393363385826771
11
3.653321023622047
21
-3.6395438976377954
0
LINE
8
BLACK
6
CONTINUOUS
10
3.653321023622047
20
-3.6395438976377954
11
3.6534599606299212
21
-3.6395599212598424
0
LINE
8
BLACK
6
CONTINUOUS
10
3.6534599606299212
20
-3.6395599212598424
11
3.6572094881889763
21
-3.64143468503937
0
LINE
8
BLACK
6
CONTINUOUS
10
3.6572094881889763
20
-3.64143468503937
11
3.6579184645669289
21
-3.6419605118110234
0
LINE
8
BLACK
6
CONTINUOUS
10
3.6579184645669289
20
-3.6419605118110234
11
3.6579768503937009
21
-3.6419877559055118
0
LINE
8
BLACK
6
CONTINUOUS
10
3.6579768503937009
20
-3.6419877559055118
11
3.6598516535433072
21
-3.6438625196850394
0
LINE
8
BLACK
6
CONTINUOUS
10
3.6598516535433072
20
-3.6438625196850394
11
3.6603580314960631
21
-3.6445856692913385
0
LINE
8
BLACK
6
CONTINUOUS
10
3.6603580314960631
20
-3.6445856692913385
11
3.6604048031496061
21
-3.6446299606299211
0
LINE
8
BLACK
6
CONTINUOUS
10
3.6604048031496061
20
-3.6446299606299211
11
3.6622795669291337
21
-3.6483794881889762
0
LINE
8
BLACK
6
CONTINUOUS
10
3.6622795669291337
20
-3.6483794881889762
11
3.6625719291338581
21
-3.6493624015748032
0
LINE
8
BLACK
6
CONTINUOUS
10
3.6625719291338581
20
-3.6493624015748032
11
3.6625309055118112
21
-3.6495340944881889
0
LINE
8
BLACK
6
CONTINUOUS
10
3.6625309055118112
20
-3.6495340944881889
11
3.6625912992125982
21
-3.6496999999999997
0
LINE
8
BLACK
6
CONTINUOUS
10
3.6625912992125982
20
-3.6496999999999997
11
3.6625912992125982
21
-3.6534495275590548
0
LINE
8
BLACK
6
CONTINUOUS
10
3.6625912992125982
20
-3.6534495275590548
11
3.6624132283464568
21
-3.6544594488188977
0
LINE
8
BLACK
6
CONTINUOUS
10
3.6624132283464568
20
-3.6544594488188977
11
3.6622997244094488
21
-3.65459468503937
0
LINE
8
BLACK
6
CONTINUOUS
10
3.6622997244094488
20
-3.65459468503937
11
3.6622795669291337
21
-3.6547700393700788
0
LINE
8
BLACK
6
CONTINUOUS
10
3.6622795669291337
20
-3.6547700393700788
11
3.6604048031496061
21
-3.6585195669291339
0
LINE
8
BLACK
6
CONTINUOUS
10
3.6604048031496061
20
-3.6585195669291339
11
3.6598788188976377
21
-3.6592286614173228
0
LINE
8
BLACK
6
CONTINUOUS
10
3.6598788188976377
20
-3.6592286614173228
11
3.6598516535433072
21
-3.6592870078740156
0
LINE
8
BLACK
6
CONTINUOUS
10
3.6598516535433072
20
-3.6592870078740156
11
3.6579768503937009
21
-3.6611617716535432
0
LINE
8
BLACK
6
CONTINUOUS
10
3.6579768503937009
20
-3.6611617716535432
11
3.6572537795275588
21
-3.6616680314960628
0
LINE
8
BLACK
6
CONTINUOUS
10
3.6572537795275588
20
-3.6616680314960628
11
3.6572094881889763
21
-3.661714842519685
0
LINE
8
BLACK
6
CONTINUOUS
10
3.6572094881889763
20
-3.661714842519685
11
3.6534599606299212
21
-3.6635896062992126
0
LINE
8
BLACK
6
CONTINUOUS
10
3.6534599606299212
20
-3.6635896062992126
11
3.652971496062992
21
-3.6637348818897637
0
LINE
8
BLACK
6
CONTINUOUS
10
3.652971496062992
20
-3.6637348818897637
11
3.652855590551181
21
-3.6638131889763779
0
LINE
8
BLACK
6
CONTINUOUS
10
3.652855590551181
20
-3.6638131889763779
11
3.6453565354330708
21
-3.6656879527559054
0
LINE
8
BLACK
6
CONTINUOUS
10
3.6453565354330708
20
-3.6656879527559054
11
3.6447686220472439
21
-3.6657294094488186
0
LINE
8
BLACK
6
CONTINUOUS
10
3.6447686220472439
20
-3.6657294094488186
11
3.6446403937007874
21
-3.6657761023622046
0
LINE
8
BLACK
6
CONTINUOUS
10
3.6446403937007874
20
-3.6657761023622046
11
3.6352665748031496
21
-3.6657761023622046
0
LINE
8
BLACK
6
CONTINUOUS
10
3.6352665748031496
20
-3.6657761023622046
11
3.6346861811023623
21
-3.6656737401574802
0
LINE
8
BLACK
6
CONTINUOUS
10
3.6346861811023623
20
-3.6656737401574802
11
3.6345504330708662
21
-3.6656879527559054
0
LINE
8
BLACK
6
CONTINUOUS
10
3.6345504330708662
20
-3.6656879527559054
11
3.627051377952756
21
-3.6638131889763779
0
LINE
8
BLACK
6
CONTINUOUS
10
3.627051377952756
20
-3.6638131889763779
11
3.6265859055118108
21
-3.6636055905511808
0
LINE
8
BLACK
6
CONTINUOUS
10
3.6265859055118108
20
-3.6636055905511808
11
3.6264470078740159
21
-3.6635896062992126
0
LINE
8
BLACK
6
CONTINUOUS
10
3.6264470078740159
20
-3.6635896062992126
11
3.6226974803149607
21
-3.661714842519685
0
LINE
8
BLACK
6
CONTINUOUS
10
3.6226974803149607
20
-3.661714842519685
11
3.6219883858267714
21
-3.6611889370078741
0
LINE
8
BLACK
6
CONTINUOUS
10
3.6219883858267714
20
-3.6611889370078741
11
3.6219300787401574
21
-3.6611617322834644
0
LINE
8
BLACK
6
CONTINUOUS
10
3.6219300787401574
20
-3.6611617322834644
11
3.6200553149606298
21
-3.6592869685039369
0
LINE
8
BLACK
6
CONTINUOUS
10
3.6200553149606298
20
-3.6592869685039369
11
3.6195490157480315
21
-3.6585638582677165
0
LINE
8
BLACK
6
CONTINUOUS
10
3.6195490157480315
20
-3.6585638582677165
11
3.6195022047244092
21
-3.6585195669291339
0
LINE
8
BLACK
6
CONTINUOUS
10
3.6195022047244092
20
-3.6585195669291339
11
3.6176274409448816
21
-3.6547700393700788
0
LINE
8
BLACK
6
CONTINUOUS
10
3.6176274409448816
20
-3.6547700393700788
11
3.6173350787401573
21
-3.6537870866141731
0
LINE
8
BLACK
6
CONTINUOUS
10
3.6173350787401573
20
-3.6537870866141731
11
3.6173760629921259
21
-3.6536153937007874
0
LINE
8
BLACK
6
CONTINUOUS
10
3.6173760629921259
20
-3.6536153937007874
11
3.6173157086614172
21
-3.6534495275590548
0
LINE
8
BLACK
6
CONTINUOUS
10
3.6173157086614172
20
-3.6534495275590548
11
3.6173157086614172
21
-3.6496999999999997
0
LINE
8
BLACK
6
CONTINUOUS
10
3.6173157086614172
20
-3.6496999999999997
11
3.617493779527559
21
-3.6486900787401573
0
LINE
8
BLACK
6
CONTINUOUS
10
3.617493779527559
20
-3.6486900787401573
11
3.6176072440944882
21
-3.6485548031496062
0
LINE
8
BLACK
6
CONTINUOUS
10
3.6176072440944882
20
-3.6485548031496062
11
3.6176274409448816
21
-3.6483794881889762
0
LINE
8
BLACK
6
CONTINUOUS
10
3.6176274409448816
20
-3.6483794881889762
11
3.6195022047244092
21
-3.6446299606299211
0
LINE
8
BLACK
6
CONTINUOUS
10
3.6195022047244092
20
-3.6446299606299211
11
3.6200281102362202
21
-3.6439208661417322
0
LINE
8
BLACK
6
CONTINUOUS
10
3.6200281102362202
20
-3.6439208661417322
11
3.6200553149606298
21
-3.6438625590551181
0
LINE
8
BLACK
6
CONTINUOUS
10
3.6200553149606298
20
-3.6438625590551181
11
3.6219300787401574
21
-3.6419877952755906
0
LINE
8
BLACK
6
CONTINUOUS
10
3.6219300787401574
20
-3.6419877952755906
11
3.622653149606299
21
-3.6414814960629922
0
LINE
8
BLACK
6
CONTINUOUS
10
3.622653149606299
20
-3.6414814960629922
11
3.6226974803149607
21
-3.64143468503937
0
LINE
8
BLACK
6
CONTINUOUS
10
3.6226974803149607
20
-3.64143468503937
11
3.6264470078740159
21
-3.6395599212598424
0
LINE
8
BLACK
6
CONTINUOUS
10
3.6264470078740159
20
-3.6395599212598424
11
3.6269354330708659
21
-3.6394146062992125
0
LINE
8
BLACK
6
CONTINUOUS
10
3.6269354330708659
20
-3.6394146062992125
11
3.627051377952756
21
-3.6393363385826771
0
LINE
8
BLACK
6
CONTINUOUS
10
3.627051377952756
20
-3.6393363385826771
11
3.6345504330708662
21
-3.6374615748031496
0
LINE
8
BLACK
6
CONTINUOUS
10
3.6345504330708662
20
-3.6374615748031496
11
3.6351383070866139
21
-3.6374200787401576
0
LINE
8
BLACK
6
CONTINUOUS
10
3.6351383070866139
20
-3.6374200787401576
11
3.6352665748031496
21
-3.6373734251968504
0
LINE
8
BLACK
6
CONTINUOUS
10
3.6352665748031496
20
-3.6373734251968504
11
3.6446403937007874
21
-3.6373734251968504
0
LINE
8
BLACK
6
CONTINUOUS
10
3.6446403937007874
20
-3.6373734251968504
11
3.645220748031496
21
-3.6374757480314961
0
LINE
8
BLACK
6
CONTINUOUS
10
3.6287980708661416
20
-3.6449869291338581
11
3.6257670866141734
21
-3.6465024409448819
0
LINE
8
BLACK
6
CONTINUOUS
10
3.6257670866141734
20
-3.6465024409448819
11
3.6245699606299211
21
-3.6476995669291337
0
LINE
8
BLACK
6
CONTINUOUS
10
3.6245699606299211
20
-3.6476995669291337
11
3.6232212204724408
21
-3.6503970472440943
0
LINE
8
BLACK
6
CONTINUOUS
10
3.6232212204724408
20
-3.6503970472440943
11
3.6232212204724408
21
-3.6527524803149607
0
LINE
8
BLACK
6
CONTINUOUS
10
3.6232212204724408
20
-3.6527524803149607
11
3.6245699606299211
21
-3.6554499606299213
0
LINE
8
BLACK
6
CONTINUOUS
10
3.6245699606299211
20
-3.6554499606299213
11
3.6257670866141734
21
-3.6566470866141731
0
LINE
8
BLACK
6
CONTINUOUS
10
3.6257670866141734
20
-3.6566470866141731
11
3.6287980708661416
21
-3.6581625590551181
0
LINE
8
BLACK
6
CONTINUOUS
10
3.6287980708661416
20
-3.6581625590551181
11
3.6356301181102362
21
-3.659870590551181
0
LINE
8
BLACK
6
CONTINUOUS
10
3.6356301181102362
20
-3.659870590551181
11
3.6442768503937009
21
-3.659870590551181
0
LINE
8
BLACK
6
CONTINUOUS
10
3.6442768503937009
20
-3.659870590551181
11
3.651108897637795
21
-3.6581625590551181
0
LINE
8
BLACK
6
CONTINUOUS
10
3.651108897637795
20
-3.6581625590551181
11
3.6541398818897637
21
-3.6566470472440944
0
LINE
8
BLACK
6
CONTINUOUS
10
3.6541398818897637
20
-3.6566470472440944
11
3.6553370472440943
21
-3.6554499212598426
0
LINE
8
BLACK
6
CONTINUOUS
10
3.6553370472440943
20
-3.6554499212598426
11
3.6566857874015746
21
-3.6527524803149607
0
LINE
8
BLACK
6
CONTINUOUS
10
3.6566857874015746
20
-3.6527524803149607
11
3.6566857874015746
21
-3.6503970472440943
0
LINE
8
BLACK
6
CONTINUOUS
10
3.6566857874015746
20
-3.6503970472440943
11
3.6553370472440943
21
-3.6476995669291337
0
LINE
8
BLACK
6
CONTINUOUS
10
3.6553370472440943
20
-3.6476995669291337
11
3.6541398818897637
21
-3.6465024409448819
0
LINE
8
BLACK
6
CONTINUOUS
10
3.6541398818897637
20
-3.6465024409448819
11
3.651108897637795
21
-3.6449869291338581
0
LINE
8
BLACK
6
CONTINUOUS
10
3.651108897637795
20
-3.6449869291338581
11
3.6442768503937009
21
-3.643278937007874
0
LINE
8
BLACK
6
CONTINUOUS
10
3.6442768503937009
20
-3.643278937007874
11
3.6356301181102362
21
-3.643278937007874
0
LINE
8
BLACK
6
CONTINUOUS
10
3.6356301181102362
20
-3.643278937007874
11
3.6287980708661416
21
-3.6449869291338581
0
LINE
8
BLACK
6
CONTINUOUS
10
3.645220748031496
20
-3.5999804330708662
11
3.6453565354330708
21
-3.5999662598425197
0
LINE
8
BLACK
6
CONTINUOUS
10
3.6453565354330708
20
-3.5999662598425197
11
3.652855590551181
21
-3.6018410236220473
0
LINE
8
BLACK
6
CONTINUOUS
10
3.652855590551181
20
-3.6018410236220473
11
3.653321023622047
21
-3.6020485826771651
0
LINE
8
BLACK
6
CONTINUOUS
10
3.653321023622047
20
-3.6020485826771651
11
3.6534599606299212
21
-3.6020646062992125
0
LINE
8
BLACK
6
CONTINUOUS
10
3.6534599606299212
20
-3.6020646062992125
11
3.6572094881889763
21
-3.6039393700787401
0
LINE
8
BLACK
6
CONTINUOUS
10
3.6572094881889763
20
-3.6039393700787401
11
3.6579184645669289
21
-3.6044651968503936
0
LINE
8
BLACK
6
CONTINUOUS
10
3.6579184645669289
20
-3.6044651968503936
11
3.6579768503937009
21
-3.604492440944882
0
LINE
8
BLACK
6
CONTINUOUS
10
3.6579768503937009
20
-3.604492440944882
11
3.6598516535433072
21
-3.6063672047244095
0
LINE
8
BLACK
6
CONTINUOUS
10
3.6598516535433072
20
-3.6063672047244095
11
3.6603580314960631
21
-3.6070903543307087
0
LINE
8
BLACK
6
CONTINUOUS
10
3.6603580314960631
20
-3.6070903543307087
11
3.6604048031496061
21
-3.6071346456692912
0
LINE
8
BLACK
6
CONTINUOUS
10
3.6604048031496061
20
-3.6071346456692912
11
3.6622795669291337
21
-3.6108841732283463
0
LINE
8
BLACK
6
CONTINUOUS
10
3.6622795669291337
20
-3.6108841732283463
11
3.6625719291338581
21
-3.6118670866141733
0
LINE
8
BLACK
6
CONTINUOUS
10
3.6625719291338581
20
-3.6118670866141733
11
3.6625309055118112
21
-3.612038779527559
0
LINE
8
BLACK
6
CONTINUOUS
10
3.6625309055118112
20
-3.612038779527559
11
3.6625912992125982
21
-3.6122046850393699
0
LINE
8
BLACK
6
CONTINUOUS
10
3.6625912992125982
20
-3.6122046850393699
11
3.6625912992125982
21
-3.615954212598425
0
LINE
8
BLACK
6
CONTINUOUS
10
3.6625912992125982
20
-3.615954212598425
11
3.6624132283464568
21
-3.6169641338582674
0
LINE
8
BLACK
6
CONTINUOUS
10
3.6624132283464568
20
-3.6169641338582674
11
3.6622997244094488
21
-3.6170993700787402
0
LINE
8
BLACK
6
CONTINUOUS
10
3.6622997244094488
20
-3.6170993700787402
11
3.6622795669291337
21
-3.6172747244094485
0
LINE
8
BLACK
6
CONTINUOUS
10
3.6622795669291337
20
-3.6172747244094485
11
3.6604048031496061
21
-3.6210242519685036
0
LINE
8
BLACK
6
CONTINUOUS
10
3.6604048031496061
20
-3.6210242519685036
11
3.6598788188976377
21
-3.621733346456693
0
LINE
8
BLACK
6
CONTINUOUS
10
3.6598788188976377
20
-3.621733346456693
11
3.6598516535433072
21
-3.6217916929133858
0
LINE
8
BLACK
6
CONTINUOUS
10
3.6598516535433072
20
-3.6217916929133858
11
3.6579768503937009
21
-3.6236664566929133
0
LINE
8
BLACK
6
CONTINUOUS
10
3.6579768503937009
20
-3.6236664566929133
11
3.6572537795275588
21
-3.6241727165354329
0
LINE
8
BLACK
6
CONTINUOUS
10
3.6572537795275588
20
-3.6241727165354329
11
3.6572094881889763
21
-3.6242195275590552
0
LINE
8
BLACK
6
CONTINUOUS
10
3.6572094881889763
20
-3.6242195275590552
11
3.6534599606299212
21
-3.6260942913385827
0
LINE
8
BLACK
6
CONTINUOUS
10
3.6534599606299212
20
-3.6260942913385827
11
3.652971496062992
21
-3.6262395669291339
0
LINE
8
BLACK
6
CONTINUOUS
10
3.652971496062992
20
-3.6262395669291339
11
3.652855590551181
21
-3.626317874015748
0
LINE
8
BLACK
6
CONTINUOUS
10
3.652855590551181
20
-3.626317874015748
11
3.6453565354330708
21
-3.6281926377952756
0
LINE
8
BLACK
6
CONTINUOUS
10
3.6453565354330708
20
-3.6281926377952756
11
3.6447686220472439
21
-3.6282340944881888
0
LINE
8
BLACK
6
CONTINUOUS
10
3.6447686220472439
20
-3.6282340944881888
11
3.6446403937007874
21
-3.6282807874015748
0
LINE
8
BLACK
6
CONTINUOUS
10
3.6446403937007874
20
-3.6282807874015748
11
3.6352665748031496
21
-3.6282807874015748
0
LINE
8
BLACK
6
CONTINUOUS
10
3.6352665748031496
20
-3.6282807874015748
11
3.6346861811023623
21
-3.6281784251968503
0
LINE
8
BLACK
6
CONTINUOUS
10
3.6346861811023623
20
-3.6281784251968503
11
3.6345504330708662
21
-3.6281926377952756
0
LINE
8
BLACK
6
CONTINUOUS
10
3.6345504330708662
20
-3.6281926377952756
11
3.627051377952756
21
-3.626317874015748
0
LINE
8
BLACK
6
CONTINUOUS
10
3.627051377952756
20
-3.626317874015748
11
3.6265859055118108
21
-3.626110275590551
0
LINE
8
BLACK
6
CONTINUOUS
10
3.6265859055118108
20
-3.626110275590551
11
3.6264470078740159
21
-3.6260942913385827
0
LINE
8
BLACK
6
CONTINUOUS
10
3.6264470078740159
20
-3.6260942913385827
11
3.6226974803149607
21
-3.6242195275590552
0
LINE
8
BLACK
6
CONTINUOUS
10
3.6226974803149607
20
-3.6242195275590552
11
3.6219883858267714
21
-3.6236936220472442
0
LINE
8
BLACK
6
CONTINUOUS
10
3.6219883858267714
20
-3.6236936220472442
11
3.6219300787401574
21
-3.6236664173228346
0
LINE
8
BLACK
6
CONTINUOUS
10
3.6219300787401574
20
-3.6236664173228346
11
3.6200553149606298
21
-3.621791653543307
0
LINE
8
BLACK
6
CONTINUOUS
10
3.6200553149606298
20
-3.621791653543307
11
3.6195490157480315
21
-3.6210685433070866
0
LINE
8
BLACK
6
CONTINUOUS
10
3.6195490157480315
20
-3.6210685433070866
11
3.6195022047244092
21
-3.6210242519685036
0
LINE
8
BLACK
6
CONTINUOUS
10
3.6195022047244092
20
-3.6210242519685036
11
3.6176274409448816
21
-3.6172747244094485
0
LINE
8
BLACK
6
CONTINUOUS
10
3.6176274409448816
20
-3.6172747244094485
11
3.6173350787401573
21
-3.6162917716535432
0
LINE
8
BLACK
6
CONTINUOUS
10
3.6173350787401573
20
-3.6162917716535432
11
3.6173760629921259
21
-3.6161200787401575
0
LINE
8
BLACK
6
CONTINUOUS
10
3.6173760629921259
20
-3.6161200787401575
11
3.6173157086614172
21
-3.615954212598425
0
LINE
8
BLACK
6
CONTINUOUS
10
3.6173157086614172
20
-3.615954212598425
11
3.6173157086614172
21
-3.6122046850393699
0
LINE
8
BLACK
6
CONTINUOUS
10
3.6173157086614172
20
-3.6122046850393699
11
3.617493779527559
21
-3.6111947637795274
0
LINE
8
BLACK
6
CONTINUOUS
10
3.617493779527559
20
-3.6111947637795274
11
3.6176072440944882
21
-3.6110594881889764
0
LINE
8
BLACK
6
CONTINUOUS
10
3.6176072440944882
20
-3.6110594881889764
11
3.6176274409448816
21
-3.6108841732283463
0
LINE
8
BLACK
6
CONTINUOUS
10
3.6176274409448816
20
-3.6108841732283463
11
3.6195022047244092
21
-3.6071346456692912
0
LINE
8
BLACK
6
CONTINUOUS
10
3.6195022047244092
20
-3.6071346456692912
11
3.6200281102362202
21
-3.6064255511811023
0
LINE
8
BLACK
6
CONTINUOUS
10
3.6200281102362202
20
-3.6064255511811023
11
3.6200553149606298
21
-3.6063672440944883
0
LINE
8
BLACK
6
CONTINUOUS
10
3.6200553149606298
20
-3.6063672440944883
11
3.6219300787401574
21
-3.6044924803149607
0
LINE
8
BLACK
6
CONTINUOUS
10
3.6219300787401574
20
-3.6044924803149607
11
3.622653149606299
21
-3.6039861811023619
0
LINE
8
BLACK
6
CONTINUOUS
10
3.622653149606299
20
-3.6039861811023619
11
3.6226974803149607
21
-3.6039393700787401
0
LINE
8
BLACK
6
CONTINUOUS
10
3.6226974803149607
20
-3.6039393700787401
11
3.6264470078740159
21
-3.6020646062992125
0
LINE
8
BLACK
6
CONTINUOUS
10
3.6264470078740159
20
-3.6020646062992125
11
3.6269354330708659
21
-3.6019192913385827
0
LINE
8
BLACK
6
CONTINUOUS
10
3.6269354330708659
20
-3.6019192913385827
11
3.627051377952756
21
-3.6018410236220473
0
LINE
8
BLACK
6
CONTINUOUS
10
3.627051377952756
20
-3.6018410236220473
11
3.6345504330708662
21
-3.5999662598425197
0
LINE
8
BLACK
6
CONTINUOUS
10
3.6345504330708662
20
-3.5999662598425197
11
3.6351383070866139
21
-3.5999247637795273
0
LINE
8
BLACK
6
CONTINUOUS
10
3.6351383070866139
20
-3.5999247637795273
11
3.6352665748031496
21
-3.5998781102362205
0
LINE
8
BLACK
6
CONTINUOUS
10
3.6352665748031496
20
-3.5998781102362205
11
3.6446403937007874
21
-3.5998781102362205
0
LINE
8
BLACK
6
CONTINUOUS
10
3.6446403937007874
20
-3.5998781102362205
11
3.645220748031496
21
-3.5999804330708662
0
LINE
8
BLACK
6
CONTINUOUS
10
3.6287980708661416
20
-3.6074916141732283
11
3.6257670866141734
21
-3.609007125984252
0
LINE
8
BLACK
6
CONTINUOUS
10
3.6257670866141734
20
-3.609007125984252
11
3.6245699606299211
21
-3.6102042519685038
0
LINE
8
BLACK
6
CONTINUOUS
10
3.6245699606299211
20
-3.6102042519685038
11
3.6232212204724408
21
-3.6129017322834645
0
LINE
8
BLACK
6
CONTINUOUS
10
3.6232212204724408
20
-3.6129017322834645
11
3.6232212204724408
21
-3.6152571653543308
0
LINE
8
BLACK
6
CONTINUOUS
10
3.6232212204724408
20
-3.6152571653543308
11
3.6245699606299211
21
-3.617954645669291
0
LINE
8
BLACK
6
CONTINUOUS
10
3.6245699606299211
20
-3.617954645669291
11
3.6257670866141734
21
-3.6191517716535433
0
LINE
8
BLACK
6
CONTINUOUS
10
3.6257670866141734
20
-3.6191517716535433
11
3.6287980708661416
21
-3.6206672440944883
0
LINE
8
BLACK
6
CONTINUOUS
10
3.6287980708661416
20
-3.6206672440944883
11
3.6356301181102362
21
-3.6223752755905512
0
LINE
8
BLACK
6
CONTINUOUS
10
3.6356301181102362
20
-3.6223752755905512
11
3.6442768503937009
21
-3.6223752755905512
0
LINE
8
BLACK
6
CONTINUOUS
10
3.6442768503937009
20
-3.6223752755905512
11
3.651108897637795
21
-3.6206672440944883
0
LINE
8
BLACK
6
CONTINUOUS
10
3.651108897637795
20
-3.6206672440944883
11
3.6541398818897637
21
-3.6191517322834645
0
LINE
8
BLACK
6
CONTINUOUS
10
3.6541398818897637
20
-3.6191517322834645
11
3.6553370472440943
21
-3.6179546062992127
0
LINE
8
BLACK
6
CONTINUOUS
10
3.6553370472440943
20
-3.6179546062992127
11
3.6566857874015746
21
-3.6152571653543308
0
LINE
8
BLACK
6
CONTINUOUS
10
3.6566857874015746
20
-3.6152571653543308
11
3.6566857874015746
21
-3.6129017322834645
0
LINE
8
BLACK
6
CONTINUOUS
10
3.6566857874015746
20
-3.6129017322834645
11
3.6553370472440943
21
-3.6102042519685038
0
LINE
8
BLACK
6
CONTINUOUS
10
3.6553370472440943
20
-3.6102042519685038
11
3.6541398818897637
21
-3.609007125984252
0
LINE
8
BLACK
6
CONTINUOUS
10
3.6541398818897637
20
-3.609007125984252
11
3.651108897637795
21
-3.6074916141732283
0
LINE
8
BLACK
6
CONTINUOUS
10
3.651108897637795
20
-3.6074916141732283
11
3.6442768503937009
21
-3.6057836220472441
0
LINE
8
BLACK
6
CONTINUOUS
10
3.6442768503937009
20
-3.6057836220472441
11
3.6356301181102362
21
-3.6057836220472441
0
LINE
8
BLACK
6
CONTINUOUS
10
3.6356301181102362
20
-3.6057836220472441
11
3.6287980708661416
21
-3.6074916141732283
0
LINE
8
BLACK
6
CONTINUOUS
10
3.645220748031496
20
-3.5624851181102359
11
3.6453565354330708
21
-3.5624709448818899
0
LINE
8
BLACK
6
CONTINUOUS
10
3.6453565354330708
20
-3.5624709448818899
11
3.652855590551181
21
-3.5643457086614174
0
LINE
8
BLACK
6
CONTINUOUS
10
3.652855590551181
20
-3.5643457086614174
11
3.653321023622047
21
-3.5645532677165352
0
LINE
8
BLACK
6
CONTINUOUS
10
3.653321023622047
20
-3.5645532677165352
11
3.6534599606299212
21
-3.5645692913385827
0
LINE
8
BLACK
6
CONTINUOUS
10
3.6534599606299212
20
-3.5645692913385827
11
3.6572094881889763
21
-3.5664440551181102
0
LINE
8
BLACK
6
CONTINUOUS
10
3.6572094881889763
20
-3.5664440551181102
11
3.6579184645669289
21
-3.5669698818897637
0
LINE
8
BLACK
6
CONTINUOUS
10
3.6579184645669289
20
-3.5669698818897637
11
3.6579768503937009
21
-3.5669971259842517
0
LINE
8
BLACK
6
CONTINUOUS
10
3.6579768503937009
20
-3.5669971259842517
11
3.6598516535433072
21
-3.5688718897637792
0
LINE
8
BLACK
6
CONTINUOUS
10
3.6598516535433072
20
-3.5688718897637792
11
3.6603580314960631
21
-3.5695950393700788
0
LINE
8
BLACK
6
CONTINUOUS
10
3.6603580314960631
20
-3.5695950393700788
11
3.6604048031496061
21
-3.5696393307086614
0
LINE
8
BLACK
6
CONTINUOUS
10
3.6604048031496061
20
-3.5696393307086614
11
3.6622795669291337
21
-3.5733888582677165
0
LINE
8
BLACK
6
CONTINUOUS
10
3.6622795669291337
20
-3.5733888582677165
11
3.6625719291338581
21
-3.574371771653543
0
LINE
8
BLACK
6
CONTINUOUS
10
3.6625719291338581
20
-3.574371771653543
11
3.6625309055118112
21
-3.5745434645669292
0
LINE
8
BLACK
6
CONTINUOUS
10
3.6625309055118112
20
-3.5745434645669292
11
3.6625912992125982
21
-3.57470937007874
0
LINE
8
BLACK
6
CONTINUOUS
10
3.6625912992125982
20
-3.57470937007874
11
3.6625912992125982
21
-3.5784588976377951
0
LINE
8
BLACK
6
CONTINUOUS
10
3.6625912992125982
20
-3.5784588976377951
11
3.6624132283464568
21
-3.5794688188976376
0
LINE
8
BLACK
6
CONTINUOUS
10
3.6624132283464568
20
-3.5794688188976376
11
3.6622997244094488
21
-3.5796040551181103
0
LINE
8
BLACK
6
CONTINUOUS
10
3.6622997244094488
20
-3.5796040551181103
11
3.6622795669291337
21
-3.5797794094488187
0
LINE
8
BLACK
6
CONTINUOUS
10
3.6622795669291337
20
-3.5797794094488187
11
3.6604048031496061
21
-3.5835289370078738
0
LINE
8
BLACK
6
CONTINUOUS
10
3.6604048031496061
20
-3.5835289370078738
11
3.6598788188976377
21
-3.5842380314960631
0
LINE
8
BLACK
6
CONTINUOUS
10
3.6598788188976377
20
-3.5842380314960631
11
3.6598516535433072
21
-3.5842963779527559
0
LINE
8
BLACK
6
CONTINUOUS
10
3.6598516535433072
20
-3.5842963779527559
11
3.6579768503937009
21
-3.5861711417322835
0
LINE
8
BLACK
6
CONTINUOUS
10
3.6579768503937009
20
-3.5861711417322835
11
3.6572537795275588
21
-3.5866774015748031
0
LINE
8
BLACK
6
CONTINUOUS
10
3.6572537795275588
20
-3.5866774015748031
11
3.6572094881889763
21
-3.5867242125984253
0
LINE
8
BLACK
6
CONTINUOUS
10
3.6572094881889763
20
-3.5867242125984253
11
3.6534599606299212
21
-3.5885989763779529
0
LINE
8
BLACK
6
CONTINUOUS
10
3.6534599606299212
20
-3.5885989763779529
11
3.652971496062992
21
-3.588744251968504
0
LINE
8
BLACK
6
CONTINUOUS
10
3.652971496062992
20
-3.588744251968504
11
3.652855590551181
21
-3.5888225590551182
0
LINE
8
BLACK
6
CONTINUOUS
10
3.652855590551181
20
-3.5888225590551182
11
3.6453565354330708
21
-3.5906973228346457
0
LINE
8
BLACK
6
CONTINUOUS
10
3.6453565354330708
20
-3.5906973228346457
11
3.6447686220472439
21
-3.5907387795275589
0
LINE
8
BLACK
6
CONTINUOUS
10
3.6447686220472439
20
-3.5907387795275589
11
3.6446403937007874
21
-3.5907854724409449
0
LINE
8
BLACK
6
CONTINUOUS
10
3.6446403937007874
20
-3.5907854724409449
11
3.6352665748031496
21
-3.5907854724409449
0
LINE
8
BLACK
6
CONTINUOUS
10
3.6352665748031496
20
-3.5907854724409449
11
3.6346861811023623
21
-3.5906831102362204
0
LINE
8
BLACK
6
CONTINUOUS
10
3.6346861811023623
20
-3.5906831102362204
11
3.6345504330708662
21
-3.5906973228346457
0
LINE
8
BLACK
6
CONTINUOUS
10
3.6345504330708662
20
-3.5906973228346457
11
3.627051377952756
21
-3.5888225590551182
0
LINE
8
BLACK
6
CONTINUOUS
10
3.627051377952756
20
-3.5888225590551182
11
3.6265859055118108
21
-3.5886149606299211
0
LINE
8
BLACK
6
CONTINUOUS
10
3.6265859055118108
20
-3.5886149606299211
11
3.6264470078740159
21
-3.5885989763779529
0
LINE
8
BLACK
6
CONTINUOUS
10
3.6264470078740159
20
-3.5885989763779529
11
3.6226974803149607
21
-3.5867242125984253
0
LINE
8
BLACK
6
CONTINUOUS
10
3.6226974803149607
20
-3.5867242125984253
11
3.6219883858267714
21
-3.5861983070866139
0
LINE
8
BLACK
6
CONTINUOUS
10
3.6219883858267714
20
-3.5861983070866139
11
3.6219300787401574
21
-3.5861711023622047
0
LINE
8
BLACK
6
CONTINUOUS
10
3.6219300787401574
20
-3.5861711023622047
11
3.6200553149606298
21
-3.5842963385826772
0
LINE
8
BLACK
6
CONTINUOUS
10
3.6200553149606298
20
-3.5842963385826772
11
3.6195490157480315
21
-3.5835732283464568
0
LINE
8
BLACK
6
CONTINUOUS
10
3.6195490157480315
20
-3.5835732283464568
11
3.6195022047244092
21
-3.5835289370078738
0
LINE
8
BLACK
6
CONTINUOUS
10
3.6195022047244092
20
-3.5835289370078738
11
3.6176274409448816
21
-3.5797794094488187
0
LINE
8
BLACK
6
CONTINUOUS
10
3.6176274409448816
20
-3.5797794094488187
11
3.6173350787401573
21
-3.5787964566929134
0
LINE
8
BLACK
6
CONTINUOUS
10
3.6173350787401573
20
-3.5787964566929134
11
3.6173760629921259
21
-3.5786247637795277
0
LINE
8
BLACK
6
CONTINUOUS
10
3.6173760629921259
20
-3.5786247637795277
11
3.6173157086614172
21
-3.5784588976377951
0
LINE
8
BLACK
6
CONTINUOUS
10
3.6173157086614172
20
-3.5784588976377951
11
3.6173157086614172
21
-3.57470937007874
0
LINE
8
BLACK
6
CONTINUOUS
10
3.6173157086614172
20
-3.57470937007874
11
3.617493779527559
21
-3.5736994488188976
0
LINE
8
BLACK
6
CONTINUOUS
10
3.617493779527559
20
-3.5736994488188976
11
3.6176072440944882
21
-3.5735641732283465
0
LINE
8
BLACK
6
CONTINUOUS
10
3.6176072440944882
20
-3.5735641732283465
11
3.6176274409448816
21
-3.5733888582677165
0
LINE
8
BLACK
6
CONTINUOUS
10
3.6176274409448816
20
-3.5733888582677165
11
3.6195022047244092
21
-3.5696393307086614
0
LINE
8
BLACK
6
CONTINUOUS
10
3.6195022047244092
20
-3.5696393307086614
11
3.6200281102362202
21
-3.5689302362204725
0
LINE
8
BLACK
6
CONTINUOUS
10
3.6200281102362202
20
-3.5689302362204725
11
3.6200553149606298
21
-3.568871929133858
0
LINE
8
BLACK
6
CONTINUOUS
10
3.6200553149606298
20
-3.568871929133858
11
3.6219300787401574
21
-3.5669971653543304
0
LINE
8
BLACK
6
CONTINUOUS
10
3.6219300787401574
20
-3.5669971653543304
11
3.622653149606299
21
-3.5664908661417321
0
LINE
8
BLACK
6
CONTINUOUS
10
3.622653149606299
20
-3.5664908661417321
11
3.6226974803149607
21
-3.5664440551181102
0
LINE
8
BLACK
6
CONTINUOUS
10
3.6226974803149607
20
-3.5664440551181102
11
3.6264470078740159
21
-3.5645692913385827
0
LINE
8
BLACK
6
CONTINUOUS
10
3.6264470078740159
20
-3.5645692913385827
11
3.6269354330708659
21
-3.5644239763779528
0
LINE
8
BLACK
6
CONTINUOUS
10
3.6269354330708659
20
-3.5644239763779528
11
3.627051377952756
21
-3.5643457086614174
0
LINE
8
BLACK
6
CONTINUOUS
10
3.627051377952756
20
-3.5643457086614174
11
3.6345504330708662
21
-3.5624709448818899
0
LINE
8
BLACK
6
CONTINUOUS
10
3.6345504330708662
20
-3.5624709448818899
11
3.6351383070866139
21
-3.5624294488188974
0
LINE
8
BLACK
6
CONTINUOUS
10
3.6351383070866139
20
-3.5624294488188974
11
3.6352665748031496
21
-3.5623827952755907
0
LINE
8
BLACK
6
CONTINUOUS
10
3.6352665748031496
20
-3.5623827952755907
11
3.6446403937007874
21
-3.5623827952755907
0
LINE
8
BLACK
6
CONTINUOUS
10
3.6446403937007874
20
-3.5623827952755907
11
3.645220748031496
21
-3.5624851181102359
0
LINE
8
BLACK
6
CONTINUOUS
10
3.6287980708661416
20
-3.5699962992125984
11
3.6257670866141734
21
-3.5715118110236221
0
LINE
8
BLACK
6
CONTINUOUS
10
3.6257670866141734
20
-3.5715118110236221
11
3.6245699606299211
21
-3.572708937007874
0
LINE
8
BLACK
6
CONTINUOUS
10
3.6245699606299211
20
-3.572708937007874
11
3.6232212204724408
21
-3.5754064173228346
0
LINE
8
BLACK
6
CONTINUOUS
10
3.6232212204724408
20
-3.5754064173228346
11
3.6232212204724408
21
-3.5777618503937005
0
LINE
8
BLACK
6
CONTINUOUS
10
3.6232212204724408
20
-3.5777618503937005
11
3.6245699606299211
21
-3.5804593307086612
0
LINE
8
BLACK
6
CONTINUOUS
10
3.6245699606299211
20
-3.5804593307086612
11
3.6257670866141734
21
-3.5816564566929134
0
LINE
8
BLACK
6
CONTINUOUS
10
3.6257670866141734
20
-3.5816564566929134
11
3.6287980708661416
21
-3.5831719291338584
0
LINE
8
BLACK
6
CONTINUOUS
10
3.6287980708661416
20
-3.5831719291338584
11
3.6356301181102362
21
-3.5848799606299213
0
LINE
8
BLACK
6
CONTINUOUS
10
3.6356301181102362
20
-3.5848799606299213
11
3.6442768503937009
21
-3.5848799606299213
0
LINE
8
BLACK
6
CONTINUOUS
10
3.6442768503937009
20
-3.5848799606299213
11
3.651108897637795
21
-3.5831719291338584
0
LINE
8
BLACK
6
CONTINUOUS
10
3.651108897637795
20
-3.5831719291338584
11
3.6541398818897637
21
-3.5816564173228347
0
LINE
8
BLACK
6
CONTINUOUS
10
3.6541398818897637
20
-3.5816564173228347
11
3.6553370472440943
21
-3.5804592913385824
0
LINE
8
BLACK
6
CONTINUOUS
10
3.6553370472440943
20
-3.5804592913385824
11
3.6566857874015746
21
-3.5777618503937005
0
LINE
8
BLACK
6
CONTINUOUS
10
3.6566857874015746
20
-3.5777618503937005
11
3.6566857874015746
21
-3.5754064173228346
0
LINE
8
BLACK
6
CONTINUOUS
10
3.6566857874015746
20
-3.5754064173228346
11
3.6553370472440943
21
-3.572708937007874
0
LINE
8
BLACK
6
CONTINUOUS
10
3.6553370472440943
20
-3.572708937007874
11
3.6541398818897637
21
-3.5715118110236221
0
LINE
8
BLACK
6
CONTINUOUS
10
3.6541398818897637
20
-3.5715118110236221
11
3.651108897637795
21
-3.5699962992125984
0
LINE
8
BLACK
6
CONTINUOUS
10
3.651108897637795
20
-3.5699962992125984
11
3.6442768503937009
21
-3.5682883070866143
0
LINE
8
BLACK
6
CONTINUOUS
10
3.6442768503937009
20
-3.5682883070866143
11
3.6356301181102362
21
-3.5682883070866143
0
LINE
8
BLACK
6
CONTINUOUS
10
3.6356301181102362
20
-3.5682883070866143
11
3.6287980708661416
21
-3.5699962992125984
0
LINE
8
BLACK
6
CONTINUOUS
10
3.6606484645669291
20
-3.4819459055118109
11
3.6621957086614172
21
-3.4832442125984251
0
LINE
8
BLACK
6
CONTINUOUS
10
3.6621957086614172
20
-3.4832442125984251
11
3.6625464566929131
21
-3.4852333464566927
0
LINE
8
BLACK
6
CONTINUOUS
10
3.6625464566929131
20
-3.4852333464566927
11
3.6615365354330707
21
-3.4869825196850393
0
LINE
8
BLACK
6
CONTINUOUS
10
3.6615365354330707
20
-3.4869825196850393
11
3.6596385433070866
21
-3.4876733464566927
0
LINE
8
BLACK
6
CONTINUOUS
10
3.6596385433070866
20
-3.4876733464566927
11
3.6397131496062993
21
-3.4876733464566927
0
LINE
8
BLACK
6
CONTINUOUS
10
3.6397131496062993
20
-3.4876733464566927
11
3.6374674015748032
21
-3.4887961811023622
0
LINE
8
BLACK
6
CONTINUOUS
10
3.6374674015748032
20
-3.4887961811023622
11
3.6363445669291337
21
-3.4910419291338584
0
LINE
8
BLACK
6
CONTINUOUS
10
3.6363445669291337
20
-3.4910419291338584
11
3.6363445669291337
21
-3.4952721653543306
0
LINE
8
BLACK
6
CONTINUOUS
10
3.6363445669291337
20
-3.4952721653543306
11
3.6374674015748032
21
-3.497517874015748
0
LINE
8
BLACK
6
CONTINUOUS
10
3.6374674015748032
20
-3.497517874015748
11
3.6397131496062993
21
-3.4986407480314958
0
LINE
8
BLACK
6
CONTINUOUS
10
3.6397131496062993
20
-3.4986407480314958
11
3.6596385433070866
21
-3.4986407480314958
0
LINE
8
BLACK
6
CONTINUOUS
10
3.6596385433070866
20
-3.4986407480314958
11
3.6606484645669291
21
-3.4988188188976377
0
LINE
8
BLACK
6
CONTINUOUS
10
3.6606484645669291
20
-3.4988188188976377
11
3.6621957086614172
21
-3.5001171259842518
0
LINE
8
BLACK
6
CONTINUOUS
10
3.6621957086614172
20
-3.5001171259842518
11
3.6625464566929131
21
-3.5021062598425194
0
LINE
8
BLACK
6
CONTINUOUS
10
3.6625464566929131
20
-3.5021062598425194
11
3.6615365354330707
21
-3.503855433070866
0
LINE
8
BLACK
6
CONTINUOUS
10
3.6615365354330707
20
-3.503855433070866
11
3.6596385433070866
21
-3.5045462598425194
0
LINE
8
BLACK
6
CONTINUOUS
10
3.6596385433070866
20
-3.5045462598425194
11
3.6397131496062993
21
-3.5045462598425194
0
LINE
8
BLACK
6
CONTINUOUS
10
3.6397131496062993
20
-3.5045462598425194
11
3.6374674015748032
21
-3.505669094488189
0
LINE
8
BLACK
6
CONTINUOUS
10
3.6374674015748032
20
-3.505669094488189
11
3.6363445669291337
21
-3.5079148425196851
0
LINE
8
BLACK
6
CONTINUOUS
10
3.6363445669291337
20
-3.5079148425196851
11
3.6363445669291337
21
-3.5121450393700786
0
LINE
8
BLACK
6
CONTINUOUS
10
3.6363445669291337
20
-3.5121450393700786
11
3.637693307086614
21
-3.5148425196850392
0
LINE
8
BLACK
6
CONTINUOUS
10
3.637693307086614
20
-3.5148425196850392
11
3.638364409448819
21
-3.5155136220472438
0
LINE
8
BLACK
6
CONTINUOUS
10
3.638364409448819
20
-3.5155136220472438
11
3.6596385433070866
21
-3.5155136220472438
0
LINE
8
BLACK
6
CONTINUOUS
10
3.6596385433070866
20
-3.5155136220472438
11
3.6606484645669291
21
-3.5156916929133857
0
LINE
8
BLACK
6
CONTINUOUS
10
3.6606484645669291
20
-3.5156916929133857
11
3.6621957086614172
21
-3.5169899999999998
0
LINE
8
BLACK
6
CONTINUOUS
10
3.6621957086614172
20
-3.5169899999999998
11
3.6625464566929131
21
-3.5189791338582674
0
LINE
8
BLACK
6
CONTINUOUS
10
3.6625464566929131
20
-3.5189791338582674
11
3.6615365354330707
21
-3.520728307086614
0
LINE
8
BLACK
6
CONTINUOUS
10
3.6615365354330707
20
-3.520728307086614
11
3.6596385433070866
21
-3.5214191338582674
0
LINE
8
BLACK
6
CONTINUOUS
10
3.6596385433070866
20
-3.5214191338582674
11
3.6333918110236221
21
-3.5214191338582674
0
LINE
8
BLACK
6
CONTINUOUS
10
3.6333918110236221
20
-3.5214191338582674
11
3.6323818897637796
21
-3.521241062992126
0
LINE
8
BLACK
6
CONTINUOUS
10
3.6323818897637796
20
-3.521241062992126
11
3.630834645669291
21
-3.5199427559055119
0
LINE
8
BLACK
6
CONTINUOUS
10
3.630834645669291
20
-3.5199427559055119
11
3.6304838976377951
21
-3.5179536220472438
0
LINE
8
BLACK
6
CONTINUOUS
10
3.6304838976377951
20
-3.5179536220472438
11
3.6314938188976376
21
-3.5162044488188977
0
LINE
8
BLACK
6
CONTINUOUS
10
3.6314938188976376
20
-3.5162044488188977
11
3.6317288976377951
21
-3.5161188582677165
0
LINE
8
BLACK
6
CONTINUOUS
10
3.6317288976377951
20
-3.5161188582677165
11
3.6307507874015745
21
-3.5141625984251967
0
LINE
8
BLACK
6
CONTINUOUS
10
3.6307507874015745
20
-3.5141625984251967
11
3.6304584251968501
21
-3.5131796456692914
0
LINE
8
BLACK
6
CONTINUOUS
10
3.6304584251968501
20
-3.5131796456692914
11
3.6304994094488188
21
-3.5130079527559053
0
LINE
8
BLACK
6
CONTINUOUS
10
3.6304994094488188
20
-3.5130079527559053
11
3.63043905511811
21
-3.5128420866141732
0
LINE
8
BLACK
6
CONTINUOUS
10
3.63043905511811
20
-3.5128420866141732
11
3.63043905511811
21
-3.5072177952755905
0
LINE
8
BLACK
6
CONTINUOUS
10
3.63043905511811
20
-3.5072177952755905
11
3.6306171259842519
21
-3.5062078740157481
0
LINE
8
BLACK
6
CONTINUOUS
10
3.6306171259842519
20
-3.5062078740157481
11
3.6307305905511811
21
-3.5060725984251966
0
LINE
8
BLACK
6
CONTINUOUS
10
3.6307305905511811
20
-3.5060725984251966
11
3.6307507874015745
21
-3.505897283464567
0
LINE
8
BLACK
6
CONTINUOUS
10
3.6307507874015745
20
-3.505897283464567
11
3.6326255511811021
21
-3.5021477559055119
0
LINE
8
BLACK
6
CONTINUOUS
10
3.6326255511811021
20
-3.5021477559055119
11
3.6330482283464565
21
-3.5015777952755904
0
LINE
8
BLACK
6
CONTINUOUS
10
3.6330482283464565
20
-3.5015777952755904
11
3.6329465354330708
21
-3.5013431496062992
0
LINE
8
BLACK
6
CONTINUOUS
10
3.6329465354330708
20
-3.5013431496062992
11
3.6326255511811021
21
-3.5010392519685039
0
LINE
8
BLACK
6
CONTINUOUS
10
3.6326255511811021
20
-3.5010392519685039
11
3.6307507874015745
21
-3.4972897244094487
0
LINE
8
BLACK
6
CONTINUOUS
10
3.6307507874015745
20
-3.4972897244094487
11
3.6304584251968501
21
-3.4963067716535434
0
LINE
8
BLACK
6
CONTINUOUS
10
3.6304584251968501
20
-3.4963067716535434
11
3.6304994094488188
21
-3.4961350787401573
0
LINE
8
BLACK
6
CONTINUOUS
10
3.6304994094488188
20
-3.4961350787401573
11
3.63043905511811
21
-3.4959692125984252
0
LINE
8
BLACK
6
CONTINUOUS
10
3.63043905511811
20
-3.4959692125984252
11
3.63043905511811
21
-3.4903449212598425
0
LINE
8
BLACK
6
CONTINUOUS
10
3.63043905511811
20
-3.4903449212598425
11
3.6306171259842519
21
-3.4893350000000001
0
LINE
8
BLACK
6
CONTINUOUS
10
3.6306171259842519
20
-3.4893350000000001
11
3.6307305905511811
21
-3.4891997244094486
0
LINE
8
BLACK
6
CONTINUOUS
10
3.6307305905511811
20
-3.4891997244094486
11
3.6307507874015745
21
-3.489024409448819
0
LINE
8
BLACK
6
CONTINUOUS
10
3.6307507874015745
20
-3.489024409448819
11
3.6326255511811021
21
-3.4852748425196851
0
LINE
8
BLACK
6
CONTINUOUS
10
3.6326255511811021
20
-3.4852748425196851
11
3.6332364566929134
21
-3.484451181102362
0
LINE
8
BLACK
6
CONTINUOUS
10
3.6332364566929134
20
-3.484451181102362
11
3.633642125984252
21
-3.4842753149606298
0
LINE
8
BLACK
6
CONTINUOUS
10
3.633642125984252
20
-3.4842753149606298
11
3.6339460629921261
21
-3.4839543307086611
0
LINE
8
BLACK
6
CONTINUOUS
10
3.6339460629921261
20
-3.4839543307086611
11
3.6376955905511812
21
-3.4820795669291336
0
LINE
8
BLACK
6
CONTINUOUS
10
3.6376955905511812
20
-3.4820795669291336
11
3.6386785039370078
21
-3.4817872047244092
0
LINE
8
BLACK
6
CONTINUOUS
10
3.6386785039370078
20
-3.4817872047244092
11
3.6388501968503935
21
-3.4818281889763778
0
LINE
8
BLACK
6
CONTINUOUS
10
3.6388501968503935
20
-3.4818281889763778
11
3.6390161023622047
21
-3.4817678346456691
0
LINE
8
BLACK
6
CONTINUOUS
10
3.6390161023622047
20
-3.4817678346456691
11
3.6596385433070866
21
-3.4817678346456691
0
LINE
8
BLACK
6
CONTINUOUS
10
3.6596385433070866
20
-3.4817678346456691
11
3.6606484645669291
21
-3.4819459055118109
0
LINE
8
BLACK
6
CONTINUOUS
10
3.6606484645669291
20
-3.4294524803149606
11
3.6621957086614172
21
-3.4307507874015748
0
LINE
8
BLACK
6
CONTINUOUS
10
3.6621957086614172
20
-3.4307507874015748
11
3.6625464566929131
21
-3.4327399212598424
0
LINE
8
BLACK
6
CONTINUOUS
10
3.6625464566929131
20
-3.4327399212598424
11
3.6615365354330707
21
-3.434489094488189
0
LINE
8
BLACK
6
CONTINUOUS
10
3.6615365354330707
20
-3.434489094488189
11
3.6596385433070866
21
-3.4351799212598424
0
LINE
8
BLACK
6
CONTINUOUS
10
3.6596385433070866
20
-3.4351799212598424
11
3.6397131496062993
21
-3.4351799212598424
0
LINE
8
BLACK
6
CONTINUOUS
10
3.6397131496062993
20
-3.4351799212598424
11
3.6374674015748032
21
-3.4363027559055119
0
LINE
8
BLACK
6
CONTINUOUS
10
3.6374674015748032
20
-3.4363027559055119
11
3.6363445669291337
21
-3.4385485039370076
0
LINE
8
BLACK
6
CONTINUOUS
10
3.6363445669291337
20
-3.4385485039370076
11
3.6363445669291337
21
-3.4427787401574803
0
LINE
8
BLACK
6
CONTINUOUS
10
3.6363445669291337
20
-3.4427787401574803
11
3.6374674015748032
21
-3.4450244488188977
0
LINE
8
BLACK
6
CONTINUOUS
10
3.6374674015748032
20
-3.4450244488188977
11
3.6397131496062993
21
-3.4461473228346455
0
LINE
8
BLACK
6
CONTINUOUS
10
3.6397131496062993
20
-3.4461473228346455
11
3.6596385433070866
21
-3.4461473228346455
0
LINE
8
BLACK
6
CONTINUOUS
10
3.6596385433070866
20
-3.4461473228346455
11
3.6606484645669291
21
-3.4463253937007874
0
LINE
8
BLACK
6
CONTINUOUS
10
3.6606484645669291
20
-3.4463253937007874
11
3.6621957086614172
21
-3.4476237007874015
0
LINE
8
BLACK
6
CONTINUOUS
10
3.6621957086614172
20
-3.4476237007874015
11
3.6625464566929131
21
-3.4496128346456691
0
LINE
8
BLACK
6
CONTINUOUS
10
3.6625464566929131
20
-3.4496128346456691
11
3.6615365354330707
21
-3.4513620078740157
0
LINE
8
BLACK
6
CONTINUOUS
10
3.6615365354330707
20
-3.4513620078740157
11
3.6596385433070866
21
-3.4520528346456691
0
LINE
8
BLACK
6
CONTINUOUS
10
3.6596385433070866
20
-3.4520528346456691
11
3.6397131496062993
21
-3.4520528346456691
0
LINE
8
BLACK
6
CONTINUOUS
10
3.6397131496062993
20
-3.4520528346456691
11
3.6374674015748032
21
-3.4531756692913387
0
LINE
8
BLACK
6
CONTINUOUS
10
3.6374674015748032
20
-3.4531756692913387
11
3.6363445669291337
21
-3.4554214173228344
0
LINE
8
BLACK
6
CONTINUOUS
10
3.6363445669291337
20
-3.4554214173228344
11
3.6363445669291337
21
-3.4596516141732283
0
LINE
8
BLACK
6
CONTINUOUS
10
3.6363445669291337
20
-3.4596516141732283
11
3.637693307086614
21
-3.4623490944881889
0
LINE
8
BLACK
6
CONTINUOUS
10
3.637693307086614
20
-3.4623490944881889
11
3.638364409448819
21
-3.4630201968503935
0
LINE
8
BLACK
6
CONTINUOUS
10
3.638364409448819
20
-3.4630201968503935
11
3.6596385433070866
21
-3.4630201968503935
0
LINE
8
BLACK
6
CONTINUOUS
10
3.6596385433070866
20
-3.4630201968503935
11
3.6606484645669291
21
-3.4631982677165354
0
LINE
8
BLACK
6
CONTINUOUS
10
3.6606484645669291
20
-3.4631982677165354
11
3.6621957086614172
21
-3.4644965748031495
0
LINE
8
BLACK
6
CONTINUOUS
10
3.6621957086614172
20
-3.4644965748031495
11
3.6625464566929131
21
-3.4664857086614171
0
LINE
8
BLACK
6
CONTINUOUS
10
3.6625464566929131
20
-3.4664857086614171
11
3.6615365354330707
21
-3.4682348818897637
0
LINE
8
BLACK
6
CONTINUOUS
10
3.6615365354330707
20
-3.4682348818897637
11
3.6596385433070866
21
-3.4689257086614171
0
LINE
8
BLACK
6
CONTINUOUS
10
3.6596385433070866
20
-3.4689257086614171
11
3.6333918110236221
21
-3.4689257086614171
0
LINE
8
BLACK
6
CONTINUOUS
10
3.6333918110236221
20
-3.4689257086614171
11
3.6323818897637796
21
-3.4687476377952757
0
LINE
8
BLACK
6
CONTINUOUS
10
3.6323818897637796
20
-3.4687476377952757
11
3.630834645669291
21
-3.4674493307086611
0
LINE
8
BLACK
6
CONTINUOUS
10
3.630834645669291
20
-3.4674493307086611
11
3.6304838976377951
21
-3.4654601968503935
0
LINE
8
BLACK
6
CONTINUOUS
10
3.6304838976377951
20
-3.4654601968503935
11
3.6314938188976376
21
-3.463711023622047
0
LINE
8
BLACK
6
CONTINUOUS
10
3.6314938188976376
20
-3.463711023622047
11
3.6317288976377951
21
-3.4636254330708662
0
LINE
8
BLACK
6
CONTINUOUS
10
3.6317288976377951
20
-3.4636254330708662
11
3.6307507874015745
21
-3.4616691732283464
0
LINE
8
BLACK
6
CONTINUOUS
10
3.6307507874015745
20
-3.4616691732283464
11
3.6304584251968501
21
-3.4606862204724407
0
LINE
8
BLACK
6
CONTINUOUS
10
3.6304584251968501
20
-3.4606862204724407
11
3.6304994094488188
21
-3.460514527559055
0
LINE
8
BLACK
6
CONTINUOUS
10
3.6304994094488188
20
-3.460514527559055
11
3.63043905511811
21
-3.4603486614173229
0
LINE
8
BLACK
6
CONTINUOUS
10
3.63043905511811
20
-3.4603486614173229
11
3.63043905511811
21
-3.4547243700787402
0
LINE
8
BLACK
6
CONTINUOUS
10
3.63043905511811
20
-3.4547243700787402
11
3.6306171259842519
21
-3.4537144488188978
0
LINE
8
BLACK
6
CONTINUOUS
10
3.6306171259842519
20
-3.4537144488188978
11
3.6307305905511811
21
-3.4535791732283463
0
LINE
8
BLACK
6
CONTINUOUS
10
3.6307305905511811
20
-3.4535791732283463
11
3.6307507874015745
21
-3.4534038582677167
0
LINE
8
BLACK
6
CONTINUOUS
10
3.6307507874015745
20
-3.4534038582677167
11
3.6326255511811021
21
-3.4496543307086611
0
LINE
8
BLACK
6
CONTINUOUS
10
3.6326255511811021
20
-3.4496543307086611
11
3.6330482283464565
21
-3.4490843700787401
0
LINE
8
BLACK
6
CONTINUOUS
10
3.6330482283464565
20
-3.4490843700787401
11
3.6329465354330708
21
-3.4488497244094489
0
LINE
8
BLACK
6
CONTINUOUS
10
3.6329465354330708
20
-3.4488497244094489
11
3.6326255511811021
21
-3.4485458267716536
0
LINE
8
BLACK
6
CONTINUOUS
10
3.6326255511811021
20
-3.4485458267716536
11
3.6307507874015745
21
-3.4447962992125984
0
LINE
8
BLACK
6
CONTINUOUS
10
3.6307507874015745
20
-3.4447962992125984
11
3.6304584251968501
21
-3.4438133464566927
0
LINE
8
BLACK
6
CONTINUOUS
10
3.6304584251968501
20
-3.4438133464566927
11
3.6304994094488188
21
-3.443641653543307
0
LINE
8
BLACK
6
CONTINUOUS
10
3.6304994094488188
20
-3.443641653543307
11
3.63043905511811
21
-3.4434757874015749
0
LINE
8
BLACK
6
CONTINUOUS
10
3.63043905511811
20
-3.4434757874015749
11
3.63043905511811
21
-3.4378514960629922
0
LINE
8
BLACK
6
CONTINUOUS
10
3.63043905511811
20
-3.4378514960629922
11
3.6306171259842519
21
-3.4368415748031493
0
LINE
8
BLACK
6
CONTINUOUS
10
3.6306171259842519
20
-3.4368415748031493
11
3.6307305905511811
21
-3.4367062992125983
0
LINE
8
BLACK
6
CONTINUOUS
10
3.6307305905511811
20
-3.4367062992125983
11
3.6307507874015745
21
-3.4365309842519682
0
LINE
8
BLACK
6
CONTINUOUS
10
3.6307507874015745
20
-3.4365309842519682
11
3.6326255511811021
21
-3.4327814173228344
0
LINE
8
BLACK
6
CONTINUOUS
10
3.6326255511811021
20
-3.4327814173228344
11
3.6332364566929134
21
-3.4319577559055117
0
LINE
8
BLACK
6
CONTINUOUS
10
3.6332364566929134
20
-3.4319577559055117
11
3.633642125984252
21
-3.4317818897637795
0
LINE
8
BLACK
6
CONTINUOUS
10
3.633642125984252
20
-3.4317818897637795
11
3.6339460629921261
21
-3.4314609055118108
0
LINE
8
BLACK
6
CONTINUOUS
10
3.6339460629921261
20
-3.4314609055118108
11
3.6376955905511812
21
-3.4295861417322833
0
LINE
8
BLACK
6
CONTINUOUS
10
3.6376955905511812
20
-3.4295861417322833
11
3.6386785039370078
21
-3.4292937795275589
0
LINE
8
BLACK
6
CONTINUOUS
10
3.6386785039370078
20
-3.4292937795275589
11
3.6388501968503935
21
-3.4293347637795275
0
LINE
8
BLACK
6
CONTINUOUS
10
3.6388501968503935
20
-3.4293347637795275
11
3.6390161023622047
21
-3.4292744094488188
0
LINE
8
BLACK
6
CONTINUOUS
10
3.6390161023622047
20
-3.4292744094488188
11
3.6596385433070866
21
-3.4292744094488188
0
LINE
8
BLACK
6
CONTINUOUS
10
3.6596385433070866
20
-3.4292744094488188
11
3.6606484645669291
21
-3.4294524803149606
0
LINE
8
BLACK
6
CONTINUOUS
10
6.4383998031496059
20
-2.0877253937007874
11
6.4389763779527556
21
-2.0891173228346456
0
LINE
8
BLACK
6
CONTINUOUS
10
6.4389763779527556
20
-2.0891173228346456
11
6.4389763779527556
21
-2.3425196850393699
0
LINE
8
BLACK
6
CONTINUOUS
10
6.4389763779527556
20
-2.3425196850393699
11
6.4383998031496059
21
-2.3439116141732281
0
LINE
8
BLACK
6
CONTINUOUS
10
6.4383998031496059
20
-2.3439116141732281
11
6.4370078740157481
21
-2.3444881889763778
0
LINE
8
BLACK
6
CONTINUOUS
10
6.4370078740157481
20
-2.3444881889763778
11
6.4356159448818895
21
-2.3439116141732281
0
LINE
8
BLACK
6
CONTINUOUS
10
6.4356159448818895
20
-2.3439116141732281
11
6.4350393700787398
21
-2.3425196850393699
0
LINE
8
BLACK
6
CONTINUOUS
10
6.4350393700787398
20
-2.3425196850393699
11
6.4350393700787398
21
-2.1154487007874017
0
LINE
8
BLACK
6
CONTINUOUS
10
6.4350393700787398
20
-2.1154487007874017
11
6.3935662598425198
21
-2.1370382677165356
0
LINE
8
BLACK
6
CONTINUOUS
10
6.3935662598425198
20
-2.1370382677165356
11
6.3920653937007872
21
-2.1371695275590552
0
LINE
8
BLACK
6
CONTINUOUS
10
6.3920653937007872
20
-2.1371695275590552
11
6.3909112204724412
21
-2.1362011023622047
0
LINE
8
BLACK
6
CONTINUOUS
10
6.3909112204724412
20
-2.1362011023622047
11
6.3907799606299207
21
-2.1347002362204726
0
LINE
8
BLACK
6
CONTINUOUS
10
6.3907799606299207
20
-2.1347002362204726
11
6.3917483858267712
21
-2.1335460629921261
0
LINE
8
BLACK
6
CONTINUOUS
10
6.3917483858267712
20
-2.1335460629921261
11
6.4289632677165356
21
-2.1141732283464565
0
LINE
8
BLACK
6
CONTINUOUS
10
6.4289632677165356
20
-2.1141732283464565
11
3.9450525196850394
21
-2.1141732283464565
0
LINE
8
BLACK
6
CONTINUOUS
10
3.9450525196850394
20
-2.1141732283464565
11
3.9822673622047242
21
-2.1335460629921261
0
LINE
8
BLACK
6
CONTINUOUS
10
3.9822673622047242
20
-2.1335460629921261
11
3.9832357874015747
21
-2.1347002362204726
0
LINE
8
BLACK
6
CONTINUOUS
10
3.9832357874015747
20
-2.1347002362204726
11
3.9831044881889763
21
-2.1362011023622047
0
LINE
8
BLACK
6
CONTINUOUS
10
3.9831044881889763
20
-2.1362011023622047
11
3.9819503543307087
21
-2.1371695275590552
0
LINE
8
BLACK
6
CONTINUOUS
10
3.9819503543307087
20
-2.1371695275590552
11
3.9804494488188977
21
-2.1370382283464568
0
LINE
8
BLACK
6
CONTINUOUS
10
3.9804494488188977
20
-2.1370382283464568
11
3.938976377952756
21
-2.1154487007874017
0
LINE
8
BLACK
6
CONTINUOUS
10
3.938976377952756
20
-2.1154487007874017
11
3.938976377952756
21
-2.3425196850393699
0
LINE
8
BLACK
6
CONTINUOUS
10
3.938976377952756
20
-2.3425196850393699
11
3.9383998031496064
21
-2.3439116141732281
0
LINE
8
BLACK
6
CONTINUOUS
10
3.9383998031496064
20
-2.3439116141732281
11
3.9370078740157481
21
-2.3444881889763778
0
LINE
8
BLACK
6
CONTINUOUS
10
3.9370078740157481
20
-2.3444881889763778
11
3.9356159448818895
21
-2.3439116141732281
0
LINE
8
BLACK
6
CONTINUOUS
10
3.9356159448818895
20
-2.3439116141732281
11
3.9350393700787403
21
-2.3425196850393699
0
LINE
8
BLACK
6
CONTINUOUS
10
3.9350393700787403
20
-2.3425196850393699
11
3.9350393700787403
21
-2.0891173228346456
0
LINE
8
BLACK
6
CONTINUOUS
10
3.9350393700787403
20
-2.0891173228346456
11
3.9356159448818895
21
-2.0877253937007874
0
LINE
8
BLACK
6
CONTINUOUS
10
3.9356159448818895
20
-2.0877253937007874
11
3.9370078740157481
21
-2.0871488188976377
0
LINE
8
BLACK
6
CONTINUOUS
10
3.9370078740157481
20
-2.0871488188976377
11
3.9383998031496064
21
-2.0877253937007874
0
LINE
8
BLACK
6
CONTINUOUS
10
3.9383998031496064
20
-2.0877253937007874
11
3.938976377952756
21
-2.0891173228346456
0
LINE
8
BLACK
6
CONTINUOUS
10
3.938976377952756
20
-2.0891173228346456
11
3.938976377952756
21
-2.1089607086614173
0
LINE
8
BLACK
6
CONTINUOUS
10
3.938976377952756
20
-2.1089607086614173
11
3.9804494488188977
21
-2.0873712204724408
0
LINE
8
BLACK
6
CONTINUOUS
10
3.9804494488188977
20
-2.0873712204724408
11
3.9819503543307087
21
-2.0872399212598425
0
LINE
8
BLACK
6
CONTINUOUS
10
3.9819503543307087
20
-2.0872399212598425
11
3.9831044881889763
21
-2.088208346456693
0
LINE
8
BLACK
6
CONTINUOUS
10
3.9831044881889763
20
-2.088208346456693
11
3.9832357874015747
21
-2.0897092125984251
0
LINE
8
BLACK
6
CONTINUOUS
10
3.9832357874015747
20
-2.0897092125984251
11
3.9822673622047242
21
-2.0908633858267716
0
LINE
8
BLACK
6
CONTINUOUS
10
3.9822673622047242
20
-2.0908633858267716
11
3.9450525196850394
21
-2.1102362204724407
0
LINE
8
BLACK
6
CONTINUOUS
10
3.9450525196850394
20
-2.1102362204724407
11
6.4289632677165356
21
-2.1102362204724407
0
LINE
8
BLACK
6
CONTINUOUS
10
6.4289632677165356
20
-2.1102362204724407
11
6.3917483858267712
21
-2.0908633858267716
0
LINE
8
BLACK
6
CONTINUOUS
10
6.3917483858267712
20
-2.0908633858267716
11
6.3907799606299207
21
-2.0897092125984251
0
LINE
8
BLACK
6
CONTINUOUS
10
6.3907799606299207
20
-2.0897092125984251
11
6.3909112204724412
21
-2.088208346456693
0
LINE
8
BLACK
6
CONTINUOUS
10
6.3909112204724412
20
-2.088208346456693
11
6.3920653937007872
21
-2.0872399212598425
0
LINE
8
BLACK
6
CONTINUOUS
10
6.3920653937007872
20
-2.0872399212598425
11
6.3935662598425198
21
-2.0873711811023621
0
LINE
8
BLACK
6
CONTINUOUS
10
6.3935662598425198
20
-2.0873711811023621
11
6.4350393700787398
21
-2.1089607086614173
0
LINE
8
BLACK
6
CONTINUOUS
10
6.4350393700787398
20
-2.1089607086614173
11
6.4350393700787398
21
-2.0891173228346456
0
LINE
8
BLACK
6
CONTINUOUS
10
6.4350393700787398
20
-2.0891173228346456
11
6.4356159448818895
21
-2.0877253937007874
0
LINE
8
BLACK
6
CONTINUOUS
10
6.4356159448818895
20
-2.0877253937007874
11
6.4370078740157481
21
-2.0871488188976377
0
LINE
8
BLACK
6
CONTINUOUS
10
6.4370078740157481
20
-2.0871488188976377
11
6.4383998031496059
21
-2.0877253937007874
0
LINE
8
BLACK
6
CONTINUOUS
10
5.0249131889763774
20
-2.0426906299212599
11
5.0264604330708664
21
-2.0439889370078741
0
LINE
8
BLACK
6
CONTINUOUS
10
5.0264604330708664
20
-2.0439889370078741
11
5.0268111811023619
21
-2.0459780708661417
0
LINE
8
BLACK
6
CONTINUOUS
10
5.0268111811023619
20
-2.0459780708661417
11
5.0258012598425195
21
-2.0477272440944883
0
LINE
8
BLACK
6
CONTINUOUS
10
5.0258012598425195
20
-2.0477272440944883
11
5.0239032677165349
21
-2.0484180708661417
0
LINE
8
BLACK
6
CONTINUOUS
10
5.0239032677165349
20
-2.0484180708661417
11
5.0171012598425193
21
-2.0484180708661417
0
LINE
8
BLACK
6
CONTINUOUS
10
5.0171012598425193
20
-2.0484180708661417
11
5.0144037795275587
21
-2.049766811023622
0
LINE
8
BLACK
6
CONTINUOUS
10
5.0144037795275587
20
-2.049766811023622
11
5.0130745669291334
21
-2.0510959842519685
0
LINE
8
BLACK
6
CONTINUOUS
10
5.0130745669291334
20
-2.0510959842519685
11
5.0097709448818897
21
-2.0560514566929133
0
LINE
8
BLACK
6
CONTINUOUS
10
5.0097709448818897
20
-2.0560514566929133
11
5.0090416535433073
21
-2.0589686614173228
0
LINE
8
BLACK
6
CONTINUOUS
10
5.0090416535433073
20
-2.0589686614173228
11
5.0113341732283461
21
-2.057822401574803
0
LINE
8
BLACK
6
CONTINUOUS
10
5.0113341732283461
20
-2.057822401574803
11
5.0123170866141731
21
-2.0575300393700786
0
LINE
8
BLACK
6
CONTINUOUS
10
5.0123170866141731
20
-2.0575300393700786
11
5.0124887795275592
21
-2.0575710236220472
0
LINE
8
BLACK
6
CONTINUOUS
10
5.0124887795275592
20
-2.0575710236220472
11
5.0126546850393696
21
-2.0575106692913385
0
LINE
8
BLACK
6
CONTINUOUS
10
5.0126546850393696
20
-2.0575106692913385
11
5.0201537401574798
21
-2.0575106692913385
0
LINE
8
BLACK
6
CONTINUOUS
10
5.0201537401574798
20
-2.0575106692913385
11
5.0211636614173223
21
-2.0576887401574804
0
LINE
8
BLACK
6
CONTINUOUS
10
5.0211636614173223
20
-2.0576887401574804
11
5.021298897637795
21
-2.0578022047244096
0
LINE
8
BLACK
6
CONTINUOUS
10
5.021298897637795
20
-2.0578022047244096
11
5.0214742519685034
21
-2.057822401574803
0
LINE
8
BLACK
6
CONTINUOUS
10
5.0214742519685034
20
-2.057822401574803
11
5.0252237795275585
21
-2.0596971653543306
0
LINE
8
BLACK
6
CONTINUOUS
10
5.0252237795275585
20
-2.0596971653543306
11
5.0259328346456691
21
-2.0602230708661415
0
LINE
8
BLACK
6
CONTINUOUS
10
5.0259328346456691
20
-2.0602230708661415
11
5.0259911811023619
21
-2.0602502755905512
0
LINE
8
BLACK
6
CONTINUOUS
10
5.0259911811023619
20
-2.0602502755905512
11
5.0278659448818894
21
-2.0621250393700787
0
LINE
8
BLACK
6
CONTINUOUS
10
5.0278659448818894
20
-2.0621250393700787
11
5.028372204724409
21
-2.0628481102362204
0
LINE
8
BLACK
6
CONTINUOUS
10
5.028372204724409
20
-2.0628481102362204
11
5.0284190551181105
21
-2.0628924409448817
0
LINE
8
BLACK
6
CONTINUOUS
10
5.0284190551181105
20
-2.0628924409448817
11
5.030293818897638
21
-2.0666419685039368
0
LINE
8
BLACK
6
CONTINUOUS
10
5.030293818897638
20
-2.0666419685039368
11
5.030586181102362
21
-2.0676248818897638
0
LINE
8
BLACK
6
CONTINUOUS
10
5.030586181102362
20
-2.0676248818897638
11
5.0305451574803151
21
-2.0677965748031495
0
LINE
8
BLACK
6
CONTINUOUS
10
5.0305451574803151
20
-2.0677965748031495
11
5.0306055511811021
21
-2.0679624803149608
0
LINE
8
BLACK
6
CONTINUOUS
10
5.0306055511811021
20
-2.0679624803149608
11
5.0306055511811021
21
-2.0773362992125985
0
LINE
8
BLACK
6
CONTINUOUS
10
5.0306055511811021
20
-2.0773362992125985
11
5.0304274803149607
21
-2.078346220472441
0
LINE
8
BLACK
6
CONTINUOUS
10
5.0304274803149607
20
-2.078346220472441
11
5.0303139763779523
21
-2.0784814566929133
0
LINE
8
BLACK
6
CONTINUOUS
10
5.0303139763779523
20
-2.0784814566929133
11
5.030293818897638
21
-2.0786568110236221
0
LINE
8
BLACK
6
CONTINUOUS
10
5.030293818897638
20
-2.0786568110236221
11
5.0284190551181105
21
-2.0824063385826772
0
LINE
8
BLACK
6
CONTINUOUS
10
5.0284190551181105
20
-2.0824063385826772
11
5.0278931102362208
21
-2.0831153937007874
0
LINE
8
BLACK
6
CONTINUOUS
10
5.0278931102362208
20
-2.0831153937007874
11
5.0278659448818894
21
-2.0831737401574801
0
LINE
8
BLACK
6
CONTINUOUS
10
5.0278659448818894
20
-2.0831737401574801
11
5.0259912204724406
21
-2.0850485039370077
0
LINE
8
BLACK
6
CONTINUOUS
10
5.0259912204724406
20
-2.0850485039370077
11
5.0252680314960632
21
-2.0855548818897636
0
LINE
8
BLACK
6
CONTINUOUS
10
5.0252680314960632
20
-2.0855548818897636
11
5.0252237795275585
21
-2.0856016535433071
0
LINE
8
BLACK
6
CONTINUOUS
10
5.0252237795275585
20
-2.0856016535433071
11
5.0214742519685034
21
-2.0874764173228346
0
LINE
8
BLACK
6
CONTINUOUS
10
5.0214742519685034
20
-2.0874764173228346
11
5.0204912992125985
21
-2.087768779527559
0
LINE
8
BLACK
6
CONTINUOUS
10
5.0204912992125985
20
-2.087768779527559
11
5.0203196062992124
21
-2.0877277559055116
0
LINE
8
BLACK
6
CONTINUOUS
10
5.0203196062992124
20
-2.0877277559055116
11
5.0201537401574798
21
-2.0877881496062991
0
LINE
8
BLACK
6
CONTINUOUS
10
5.0201537401574798
20
-2.0877881496062991
11
5.0126546850393696
21
-2.0877881496062991
0
LINE
8
BLACK
6
CONTINUOUS
10
5.0126546850393696
20
-2.0877881496062991
11
5.0116447637795272
21
-2.0876100787401572
0
LINE
8
BLACK
6
CONTINUOUS
10
5.0116447637795272
20
-2.0876100787401572
11
5.0115094881889766
21
-2.0874965748031498
0
LINE
8
BLACK
6
CONTINUOUS
10
5.0115094881889766
20
-2.0874965748031498
11
5.0113341732283461
21
-2.0874764173228346
0
LINE
8
BLACK
6
CONTINUOUS
10
5.0113341732283461
20
-2.0874764173228346
11
5.007584645669291
21
-2.0856016535433071
0
LINE
8
BLACK
6
CONTINUOUS
10
5.007584645669291
20
-2.0856016535433071
11
5.0068755118110237
21
-2.0850756692913386
0
LINE
8
BLACK
6
CONTINUOUS
10
5.0068755118110237
20
-2.0850756692913386
11
5.0068172047244097
21
-2.0850485039370077
0
LINE
8
BLACK
6
CONTINUOUS
10
5.0068172047244097
20
-2.0850485039370077
11
5.0049424409448822
21
-2.0831737007874014
0
LINE
8
BLACK
6
CONTINUOUS
10
5.0049424409448822
20
-2.0831737007874014
11
5.0044361417322838
21
-2.0824506299212597
0
LINE
8
BLACK
6
CONTINUOUS
10
5.0044361417322838
20
-2.0824506299212597
11
5.0043893700787399
21
-2.0824063385826772
0
LINE
8
BLACK
6
CONTINUOUS
10
5.0043893700787399
20
-2.0824063385826772
11
5.0025146062992123
21
-2.0786568110236221
0
LINE
8
BLACK
6
CONTINUOUS
10
5.0025146062992123
20
-2.0786568110236221
11
5.0022222440944883
21
-2.0776738582677163
0
LINE
8
BLACK
6
CONTINUOUS
10
5.0022222440944883
20
-2.0776738582677163
11
5.0022632283464565
21
-2.0775021653543306
0
LINE
8
BLACK
6
CONTINUOUS
10
5.0022632283464565
20
-2.0775021653543306
11
5.0022028740157483
21
-2.0773362992125985
0
LINE
8
BLACK
6
CONTINUOUS
10
5.0022028740157483
20
-2.0773362992125985
11
5.0022028740157483
21
-2.0623381889763781
0
LINE
8
BLACK
6
CONTINUOUS
10
5.0022028740157483
20
-2.0623381889763781
11
5.0023051968503935
21
-2.0617577952755903
0
LINE
8
BLACK
6
CONTINUOUS
10
5.0023051968503935
20
-2.0617577952755903
11
5.002291023622047
21
-2.0616220472440943
0
LINE
8
BLACK
6
CONTINUOUS
10
5.002291023622047
20
-2.0616220472440943
11
5.0041657874015746
21
-2.054122992125984
0
LINE
8
BLACK
6
CONTINUOUS
10
5.0041657874015746
20
-2.054122992125984
11
5.0045694881889764
21
-2.0532177952755903
0
LINE
8
BLACK
6
CONTINUOUS
10
5.0045694881889764
20
-2.0532177952755903
11
5.0045735433070861
21
-2.0532012204724408
0
LINE
8
BLACK
6
CONTINUOUS
10
5.0045735433070861
20
-2.0532012204724408
11
5.0083230708661413
21
-2.0475769291338581
0
LINE
8
BLACK
6
CONTINUOUS
10
5.0083230708661413
20
-2.0475769291338581
11
5.0086338582677161
21
-2.0472515354330709
0
LINE
8
BLACK
6
CONTINUOUS
10
5.0086338582677161
20
-2.0472515354330709
11
5.008692007874016
21
-2.0471269291338583
0
LINE
8
BLACK
6
CONTINUOUS
10
5.008692007874016
20
-2.0471269291338583
11
5.0105667716535436
21
-2.0452521653543307
0
LINE
8
BLACK
6
CONTINUOUS
10
5.0105667716535436
20
-2.0452521653543307
11
5.0112898425196848
21
-2.0447458661417324
0
LINE
8
BLACK
6
CONTINUOUS
10
5.0112898425196848
20
-2.0447458661417324
11
5.0113341732283461
21
-2.0446990551181101
0
LINE
8
BLACK
6
CONTINUOUS
10
5.0113341732283461
20
-2.0446990551181101
11
5.0150837007874012
21
-2.0428242913385826
0
LINE
8
BLACK
6
CONTINUOUS
10
5.0150837007874012
20
-2.0428242913385826
11
5.0160666141732282
21
-2.0425319291338582
0
LINE
8
BLACK
6
CONTINUOUS
10
5.0160666141732282
20
-2.0425319291338582
11
5.0162383070866143
21
-2.0425729133858268
0
LINE
8
BLACK
6
CONTINUOUS
10
5.0162383070866143
20
-2.0425729133858268
11
5.0164042125984247
21
-2.0425125590551181
0
LINE
8
BLACK
6
CONTINUOUS
10
5.0164042125984247
20
-2.0425125590551181
11
5.0239032677165349
21
-2.0425125590551181
0
LINE
8
BLACK
6
CONTINUOUS
10
5.0239032677165349
20
-2.0425125590551181
11
5.0249131889763774
21
-2.0426906299212599
0
LINE
8
BLACK
6
CONTINUOUS
10
5.0106542519685036
20
-2.0647649212598425
11
5.0094571259842517
21
-2.0659620472440943
0
LINE
8
BLACK
6
CONTINUOUS
10
5.0094571259842517
20
-2.0659620472440943
11
5.0081083858267714
21
-2.0686595275590549
0
LINE
8
BLACK
6
CONTINUOUS
10
5.0081083858267714
20
-2.0686595275590549
11
5.0081083858267714
21
-2.076639251968504
0
LINE
8
BLACK
6
CONTINUOUS
10
5.0081083858267714
20
-2.076639251968504
11
5.0094571259842517
21
-2.0793367322834646
0
LINE
8
BLACK
6
CONTINUOUS
10
5.0094571259842517
20
-2.0793367322834646
11
5.0106542519685036
21
-2.0805338976377952
0
LINE
8
BLACK
6
CONTINUOUS
10
5.0106542519685036
20
-2.0805338976377952
11
5.0133517322834642
21
-2.0818826377952755
0
LINE
8
BLACK
6
CONTINUOUS
10
5.0133517322834642
20
-2.0818826377952755
11
5.0194566929133861
21
-2.0818826377952755
0
LINE
8
BLACK
6
CONTINUOUS
10
5.0194566929133861
20
-2.0818826377952755
11
5.022154133858268
21
-2.0805338976377952
0
LINE
8
BLACK
6
CONTINUOUS
10
5.022154133858268
20
-2.0805338976377952
11
5.0233512598425198
21
-2.0793367322834646
0
LINE
8
BLACK
6
CONTINUOUS
10
5.0233512598425198
20
-2.0793367322834646
11
5.0247000393700789
21
-2.076639251968504
0
LINE
8
BLACK
6
CONTINUOUS
10
5.0247000393700789
20
-2.076639251968504
11
5.0247000393700789
21
-2.0686595275590549
0
LINE
8
BLACK
6
CONTINUOUS
10
5.0247000393700789
20
-2.0686595275590549
11
5.0233512992125986
21
-2.0659620472440943
0
LINE
8
BLACK
6
CONTINUOUS
10
5.0233512992125986
20
-2.0659620472440943
11
5.0221541732283468
21
-2.0647649212598425
0
LINE
8
BLACK
6
CONTINUOUS
10
5.0221541732283468
20
-2.0647649212598425
11
5.0194566929133861
21
-2.0634161811023621
0
LINE
8
BLACK
6
CONTINUOUS
10
5.0194566929133861
20
-2.0634161811023621
11
5.0133517322834642
21
-2.0634161811023621
0
LINE
8
BLACK
6
CONTINUOUS
10
5.0133517322834642
20
-2.0634161811023621
11
5.0106542519685036
21
-2.0647649212598425
0
LINE
8
BLACK
6
CONTINUOUS
10
5.0655854330708658
20
-2.0425896456692914
11
5.0657209448818898
21
-2.0425686614173229
0
LINE
8
BLACK
6
CONTINUOUS
10
5.0657209448818898
20
-2.0425686614173229
11
5.0658255905511806
21
-2.0426320078740159
0
LINE
8
BLACK
6
CONTINUOUS
10
5.0658255905511806
20
-2.0426320078740159
11
5.0661580314960633
21
-2.0426906299212599
0
LINE
8
BLACK
6
CONTINUOUS
10
5.0661580314960633
20
-2.0426906299212599
11
5.0667677952755907
21
-2.0432022834645669
0
LINE
8
BLACK
6
CONTINUOUS
10
5.0667677952755907
20
-2.0432022834645669
11
5.0674488582677162
21
-2.0436145275590549
0
LINE
8
BLACK
6
CONTINUOUS
10
5.0674488582677162
20
-2.0436145275590549
11
5.0675248031496061
21
-2.0438375196850394
0
LINE
8
BLACK
6
CONTINUOUS
10
5.0675248031496061
20
-2.0438375196850394
11
5.0677052755905514
21
-2.0439889370078741
0
LINE
8
BLACK
6
CONTINUOUS
10
5.0677052755905514
20
-2.0439889370078741
11
5.0678435039370076
21
-2.0447728740157478
0
LINE
8
BLACK
6
CONTINUOUS
10
5.0678435039370076
20
-2.0447728740157478
11
5.0681002362204719
21
-2.0455264173228347
0
LINE
8
BLACK
6
CONTINUOUS
10
5.0681002362204719
20
-2.0455264173228347
11
5.0680150787401574
21
-2.0457460236220473
0
LINE
8
BLACK
6
CONTINUOUS
10
5.0680150787401574
20
-2.0457460236220473
11
5.0680560236220469
21
-2.0459780708661417
0
LINE
8
BLACK
6
CONTINUOUS
10
5.0680560236220469
20
-2.0459780708661417
11
5.0676579133858271
21
-2.0466675196850392
0
LINE
8
BLACK
6
CONTINUOUS
10
5.0676579133858271
20
-2.0466675196850392
11
5.0673702755905508
21
-2.0474097244094489
0
LINE
8
BLACK
6
CONTINUOUS
10
5.0673702755905508
20
-2.0474097244094489
11
5.0584139370078738
21
-2.0576455118110237
0
LINE
8
BLACK
6
CONTINUOUS
10
5.0584139370078738
20
-2.0576455118110237
11
5.058658976377953
21
-2.0576887401574804
0
LINE
8
BLACK
6
CONTINUOUS
10
5.058658976377953
20
-2.0576887401574804
11
5.0587942125984249
21
-2.0578022047244096
0
LINE
8
BLACK
6
CONTINUOUS
10
5.0587942125984249
20
-2.0578022047244096
11
5.0589695669291341
21
-2.057822401574803
0
LINE
8
BLACK
6
CONTINUOUS
10
5.0589695669291341
20
-2.057822401574803
11
5.0627190944881892
21
-2.0596971653543306
0
LINE
8
BLACK
6
CONTINUOUS
10
5.0627190944881892
20
-2.0596971653543306
11
5.0634281496062989
21
-2.0602230708661415
0
LINE
8
BLACK
6
CONTINUOUS
10
5.0634281496062989
20
-2.0602230708661415
11
5.0634864960629917
21
-2.0602502755905512
0
LINE
8
BLACK
6
CONTINUOUS
10
5.0634864960629917
20
-2.0602502755905512
11
5.0653612598425193
21
-2.0621250393700787
0
LINE
8
BLACK
6
CONTINUOUS
10
5.0653612598425193
20
-2.0621250393700787
11
5.0658675196850389
21
-2.0628481102362204
0
LINE
8
BLACK
6
CONTINUOUS
10
5.0658675196850389
20
-2.0628481102362204
11
5.0659143700787403
21
-2.0628924409448817
0
LINE
8
BLACK
6
CONTINUOUS
10
5.0659143700787403
20
-2.0628924409448817
11
5.0677891338582679
21
-2.0666419685039368
0
LINE
8
BLACK
6
CONTINUOUS
10
5.0677891338582679
20
-2.0666419685039368
11
5.0680814960629919
21
-2.0676248818897638
0
LINE
8
BLACK
6
CONTINUOUS
10
5.0680814960629919
20
-2.0676248818897638
11
5.0680404724409449
21
-2.0677965748031495
0
LINE
8
BLACK
6
CONTINUOUS
10
5.0680404724409449
20
-2.0677965748031495
11
5.0681008661417319
21
-2.0679624803149608
0
LINE
8
BLACK
6
CONTINUOUS
10
5.0681008661417319
20
-2.0679624803149608
11
5.0681008661417319
21
-2.0773362992125985
0
LINE
8
BLACK
6
CONTINUOUS
10
5.0681008661417319
20
-2.0773362992125985
11
5.0679227952755905
21
-2.078346220472441
0
LINE
8
BLACK
6
CONTINUOUS
10
5.0679227952755905
20
-2.078346220472441
11
5.0678092913385822
21
-2.0784814566929133
0
LINE
8
BLACK
6
CONTINUOUS
10
5.0678092913385822
20
-2.0784814566929133
11
5.0677891338582679
21
-2.0786568110236221
0
LINE
8
BLACK
6
CONTINUOUS
10
5.0677891338582679
20
-2.0786568110236221
11
5.0659143700787403
21
-2.0824063385826772
0
LINE
8
BLACK
6
CONTINUOUS
10
5.0659143700787403
20
-2.0824063385826772
11
5.0653884251968506
21
-2.0831153937007874
0
LINE
8
BLACK
6
CONTINUOUS
10
5.0653884251968506
20
-2.0831153937007874
11
5.0653612598425193
21
-2.0831737401574801
0
LINE
8
BLACK
6
CONTINUOUS
10
5.0653612598425193
20
-2.0831737401574801
11
5.0634865354330705
21
-2.0850485039370077
0
LINE
8
BLACK
6
CONTINUOUS
10
5.0634865354330705
20
-2.0850485039370077
11
5.062763346456693
21
-2.0855548818897636
0
LINE
8
BLACK
6
CONTINUOUS
10
5.062763346456693
20
-2.0855548818897636
11
5.0627190944881892
21
-2.0856016535433071
0
LINE
8
BLACK
6
CONTINUOUS
10
5.0627190944881892
20
-2.0856016535433071
11
5.0589695669291341
21
-2.0874764173228346
0
LINE
8
BLACK
6
CONTINUOUS
10
5.0589695669291341
20
-2.0874764173228346
11
5.0579866141732284
21
-2.087768779527559
0
LINE
8
BLACK
6
CONTINUOUS
10
5.0579866141732284
20
-2.087768779527559
11
5.0578149212598422
21
-2.0877277559055116
0
LINE
8
BLACK
6
CONTINUOUS
10
5.0578149212598422
20
-2.0877277559055116
11
5.0576490551181097
21
-2.0877881496062991
0
LINE
8
BLACK
6
CONTINUOUS
10
5.0576490551181097
20
-2.0877881496062991
11
5.0464004724409444
21
-2.0877881496062991
0
LINE
8
BLACK
6
CONTINUOUS
10
5.0464004724409444
20
-2.0877881496062991
11
5.0453905511811019
21
-2.0876100787401572
0
LINE
8
BLACK
6
CONTINUOUS
10
5.0453905511811019
20
-2.0876100787401572
11
5.0452552755905513
21
-2.0874965748031498
0
LINE
8
BLACK
6
CONTINUOUS
10
5.0452552755905513
20
-2.0874965748031498
11
5.0450799606299208
21
-2.0874764173228346
0
LINE
8
BLACK
6
CONTINUOUS
10
5.0450799606299208
20
-2.0874764173228346
11
5.0413304330708657
21
-2.0856016535433071
0
LINE
8
BLACK
6
CONTINUOUS
10
5.0413304330708657
20
-2.0856016535433071
11
5.0406212992125985
21
-2.0850756692913386
0
LINE
8
BLACK
6
CONTINUOUS
10
5.0406212992125985
20
-2.0850756692913386
11
5.0405629921259845
21
-2.0850485039370077
0
LINE
8
BLACK
6
CONTINUOUS
10
5.0405629921259845
20
-2.0850485039370077
11
5.0386882283464569
21
-2.0831737007874014
0
LINE
8
BLACK
6
CONTINUOUS
10
5.0386882283464569
20
-2.0831737007874014
11
5.0381000393700788
21
-2.0823336614173229
0
LINE
8
BLACK
6
CONTINUOUS
10
5.0381000393700788
20
-2.0823336614173229
11
5.0379240551181104
21
-2.0803215748031496
0
LINE
8
BLACK
6
CONTINUOUS
10
5.0379240551181104
20
-2.0803215748031496
11
5.0390825590551183
21
-2.0786670472440942
0
LINE
8
BLACK
6
CONTINUOUS
10
5.0390825590551183
20
-2.0786670472440942
11
5.0410335433070861
21
-2.0781443307086613
0
LINE
8
BLACK
6
CONTINUOUS
10
5.0410335433070861
20
-2.0781443307086613
11
5.0428641338582674
21
-2.0789979527559055
0
LINE
8
BLACK
6
CONTINUOUS
10
5.0428641338582674
20
-2.0789979527559055
11
5.0444000393700783
21
-2.0805338976377952
0
LINE
8
BLACK
6
CONTINUOUS
10
5.0444000393700783
20
-2.0805338976377952
11
5.0470975196850389
21
-2.0818826377952755
0
LINE
8
BLACK
6
CONTINUOUS
10
5.0470975196850389
20
-2.0818826377952755
11
5.056952007874016
21
-2.0818826377952755
0
LINE
8
BLACK
6
CONTINUOUS
10
5.056952007874016
20
-2.0818826377952755
11
5.0596494488188979
21
-2.0805338976377952
0
LINE
8
BLACK
6
CONTINUOUS
10
5.0596494488188979
20
-2.0805338976377952
11
5.0608465748031497
21
-2.0793367322834646
0
LINE
8
BLACK
6
CONTINUOUS
10
5.0608465748031497
20
-2.0793367322834646
11
5.0621953543307088
21
-2.076639251968504
0
LINE
8
BLACK
6
CONTINUOUS
10
5.0621953543307088
20
-2.076639251968504
11
5.0621953543307088
21
-2.0686595275590549
0
LINE
8
BLACK
6
CONTINUOUS
10
5.0621953543307088
20
-2.0686595275590549
11
5.0608466141732285
21
-2.0659620472440943
0
LINE
8
BLACK
6
CONTINUOUS
10
5.0608466141732285
20
-2.0659620472440943
11
5.0596494881889766
21
-2.0647649212598425
0
LINE
8
BLACK
6
CONTINUOUS
10
5.0596494881889766
20
-2.0647649212598425
11
5.056952007874016
21
-2.0634161811023621
0
LINE
8
BLACK
6
CONTINUOUS
10
5.056952007874016
20
-2.0634161811023621
11
5.052024763779527
21
-2.0634161811023621
0
LINE
8
BLACK
6
CONTINUOUS
10
5.052024763779527
20
-2.0634161811023621
11
5.0515874015748032
21
-2.0633390551181101
0
LINE
8
BLACK
6
CONTINUOUS
10
5.0515874015748032
20
-2.0633390551181101
11
5.051451929133858
21
-2.0633600787401574
0
LINE
8
BLACK
6
CONTINUOUS
10
5.051451929133858
20
-2.0633600787401574
11
5.0513472440944884
21
-2.0632966929133856
0
LINE
8
BLACK
6
CONTINUOUS
10
5.0513472440944884
20
-2.0632966929133856
11
5.0510148425196846
21
-2.0632381102362203
0
LINE
8
BLACK
6
CONTINUOUS
10
5.0510148425196846
20
-2.0632381102362203
11
5.0504050393700783
21
-2.0627264173228346
0
LINE
8
BLACK
6
CONTINUOUS
10
5.0504050393700783
20
-2.0627264173228346
11
5.0497240157480316
21
-2.0623142125984253
0
LINE
8
BLACK
6
CONTINUOUS
10
5.0497240157480316
20
-2.0623142125984253
11
5.049648031496063
21
-2.0620911811023621
0
LINE
8
BLACK
6
CONTINUOUS
10
5.049648031496063
20
-2.0620911811023621
11
5.0494675984251964
21
-2.0619398031496061
0
LINE
8
BLACK
6
CONTINUOUS
10
5.0494675984251964
20
-2.0619398031496061
11
5.0493293307086615
21
-2.0611558267716537
0
LINE
8
BLACK
6
CONTINUOUS
10
5.0493293307086615
20
-2.0611558267716537
11
5.049072637795275
21
-2.0604023228346455
0
LINE
8
BLACK
6
CONTINUOUS
10
5.049072637795275
20
-2.0604023228346455
11
5.0491577559055116
21
-2.0601826771653542
0
LINE
8
BLACK
6
CONTINUOUS
10
5.0491577559055116
20
-2.0601826771653542
11
5.049116850393701
21
-2.0599506692913385
0
LINE
8
BLACK
6
CONTINUOUS
10
5.049116850393701
20
-2.0599506692913385
11
5.049514921259842
21
-2.0592611811023622
0
LINE
8
BLACK
6
CONTINUOUS
10
5.049514921259842
20
-2.0592611811023622
11
5.0498025984251971
21
-2.0585190157480313
0
LINE
8
BLACK
6
CONTINUOUS
10
5.0498025984251971
20
-2.0585190157480313
11
5.0586409448818896
21
-2.0484180708661417
0
LINE
8
BLACK
6
CONTINUOUS
10
5.0586409448818896
20
-2.0484180708661417
11
5.0407761811023617
21
-2.0484180708661417
0
LINE
8
BLACK
6
CONTINUOUS
10
5.0407761811023617
20
-2.0484180708661417
11
5.0397662598425192
21
-2.0482399999999998
0
LINE
8
BLACK
6
CONTINUOUS
10
5.0397662598425192
20
-2.0482399999999998
11
5.0382190157480311
21
-2.0469416929133857
0
LINE
8
BLACK
6
CONTINUOUS
10
5.0382190157480311
20
-2.0469416929133857
11
5.0378682677165356
21
-2.0449525590551181
0
LINE
8
BLACK
6
CONTINUOUS
10
5.0378682677165356
20
-2.0449525590551181
11
5.0388781889763781
21
-2.0432033858267715
0
LINE
8
BLACK
6
CONTINUOUS
10
5.0388781889763781
20
-2.0432033858267715
11
5.0407761811023617
21
-2.0425125590551181
0
LINE
8
BLACK
6
CONTINUOUS
10
5.0407761811023617
20
-2.0425125590551181
11
5.0651481102362199
21
-2.0425125590551181
0
LINE
8
BLACK
6
CONTINUOUS
10
5.0651481102362199
20
-2.0425125590551181
11
5.0655854330708658
21
-2.0425896456692914
0
LINE
8
BLACK
6
CONTINUOUS
10
5.1205262204724411
20
-2.0426906299212599
11
5.1220734645669292
21
-2.0439889370078741
0
LINE
8
BLACK
6
CONTINUOUS
10
5.1220734645669292
20
-2.0439889370078741
11
5.1224242125984247
21
-2.0459780708661417
0
LINE
8
BLACK
6
CONTINUOUS
10
5.1224242125984247
20
-2.0459780708661417
11
5.1214142913385823
21
-2.0477272440944883
0
LINE
8
BLACK
6
CONTINUOUS
10
5.1214142913385823
20
-2.0477272440944883
11
5.1195162992125987
21
-2.0484180708661417
0
LINE
8
BLACK
6
CONTINUOUS
10
5.1195162992125987
20
-2.0484180708661417
11
5.1034408661417325
21
-2.0484180708661417
0
LINE
8
BLACK
6
CONTINUOUS
10
5.1034408661417325
20
-2.0484180708661417
11
5.1024637401574804
21
-2.0581893307086614
0
LINE
8
BLACK
6
CONTINUOUS
10
5.1024637401574804
20
-2.0581893307086614
11
5.1031976771653538
21
-2.057822401574803
0
LINE
8
BLACK
6
CONTINUOUS
10
5.1031976771653538
20
-2.057822401574803
11
5.1041805905511808
21
-2.0575300393700786
0
LINE
8
BLACK
6
CONTINUOUS
10
5.1041805905511808
20
-2.0575300393700786
11
5.1043522834645669
21
-2.0575710236220472
0
LINE
8
BLACK
6
CONTINUOUS
10
5.1043522834645669
20
-2.0575710236220472
11
5.1045181889763782
21
-2.0575106692913385
0
LINE
8
BLACK
6
CONTINUOUS
10
5.1045181889763782
20
-2.0575106692913385
11
5.113892007874016
21
-2.0575106692913385
0
LINE
8
BLACK
6
CONTINUOUS
10
5.113892007874016
20
-2.0575106692913385
11
5.1149019291338584
21
-2.0576887401574804
0
LINE
8
BLACK
6
CONTINUOUS
10
5.1149019291338584
20
-2.0576887401574804
11
5.1150371653543303
21
-2.0578022047244096
0
LINE
8
BLACK
6
CONTINUOUS
10
5.1150371653543303
20
-2.0578022047244096
11
5.1152125196850395
21
-2.057822401574803
0
LINE
8
BLACK
6
CONTINUOUS
10
5.1152125196850395
20
-2.057822401574803
11
5.1189620472440946
21
-2.0596971653543306
0
LINE
8
BLACK
6
CONTINUOUS
10
5.1189620472440946
20
-2.0596971653543306
11
5.1196711023622044
21
-2.0602230708661415
0
LINE
8
BLACK
6
CONTINUOUS
10
5.1196711023622044
20
-2.0602230708661415
11
5.1197294488188971
21
-2.0602502755905512
0
LINE
8
BLACK
6
CONTINUOUS
10
5.1197294488188971
20
-2.0602502755905512
11
5.1216042125984247
21
-2.0621250393700787
0
LINE
8
BLACK
6
CONTINUOUS
10
5.1216042125984247
20
-2.0621250393700787
11
5.1221104724409452
21
-2.0628481102362204
0
LINE
8
BLACK
6
CONTINUOUS
10
5.1221104724409452
20
-2.0628481102362204
11
5.1221573228346458
21
-2.0628924409448817
0
LINE
8
BLACK
6
CONTINUOUS
10
5.1221573228346458
20
-2.0628924409448817
11
5.1240320866141733
21
-2.0666419685039368
0
LINE
8
BLACK
6
CONTINUOUS
10
5.1240320866141733
20
-2.0666419685039368
11
5.1243244488188973
21
-2.0676248818897638
0
LINE
8
BLACK
6
CONTINUOUS
10
5.1243244488188973
20
-2.0676248818897638
11
5.1242834251968503
21
-2.0677965748031495
0
LINE
8
BLACK
6
CONTINUOUS
10
5.1242834251968503
20
-2.0677965748031495
11
5.1243438188976373
21
-2.0679624803149608
0
LINE
8
BLACK
6
CONTINUOUS
10
5.1243438188976373
20
-2.0679624803149608
11
5.1243438188976373
21
-2.0773362992125985
0
LINE
8
BLACK
6
CONTINUOUS
10
5.1243438188976373
20
-2.0773362992125985
11
5.1241657480314959
21
-2.078346220472441
0
LINE
8
BLACK
6
CONTINUOUS
10
5.1241657480314959
20
-2.078346220472441
11
5.1240522440944885
21
-2.0784814566929133
0
LINE
8
BLACK
6
CONTINUOUS
10
5.1240522440944885
20
-2.0784814566929133
11
5.1240320866141733
21
-2.0786568110236221
0
LINE
8
BLACK
6
CONTINUOUS
10
5.1240320866141733
20
-2.0786568110236221
11
5.1221573228346458
21
-2.0824063385826772
0
LINE
8
BLACK
6
CONTINUOUS
10
5.1221573228346458
20
-2.0824063385826772
11
5.121631377952756
21
-2.0831153937007874
0
LINE
8
BLACK
6
CONTINUOUS
10
5.121631377952756
20
-2.0831153937007874
11
5.1216042125984247
21
-2.0831737401574801
0
LINE
8
BLACK
6
CONTINUOUS
10
5.1216042125984247
20
-2.0831737401574801
11
5.1197294881889759
21
-2.0850485039370077
0
LINE
8
BLACK
6
CONTINUOUS
10
5.1197294881889759
20
-2.0850485039370077
11
5.1190062992125984
21
-2.0855548818897636
0
LINE
8
BLACK
6
CONTINUOUS
10
5.1190062992125984
20
-2.0855548818897636
11
5.1189620472440946
21
-2.0856016535433071
0
LINE
8
BLACK
6
CONTINUOUS
10
5.1189620472440946
20
-2.0856016535433071
11
5.1152125196850395
21
-2.0874764173228346
0
LINE
8
BLACK
6
CONTINUOUS
10
5.1152125196850395
20
-2.0874764173228346
11
5.1142295669291338
21
-2.087768779527559
0
LINE
8
BLACK
6
CONTINUOUS
10
5.1142295669291338
20
-2.087768779527559
11
5.1140578740157476
21
-2.0877277559055116
0
LINE
8
BLACK
6
CONTINUOUS
10
5.1140578740157476
20
-2.0877277559055116
11
5.113892007874016
21
-2.0877881496062991
0
LINE
8
BLACK
6
CONTINUOUS
10
5.113892007874016
20
-2.0877881496062991
11
5.1045181889763782
21
-2.0877881496062991
0
LINE
8
BLACK
6
CONTINUOUS
10
5.1045181889763782
20
-2.0877881496062991
11
5.1035082677165349
21
-2.0876100787401572
0
LINE
8
BLACK
6
CONTINUOUS
10
5.1035082677165349
20
-2.0876100787401572
11
5.1033729921259843
21
-2.0874965748031498
0
LINE
8
BLACK
6
CONTINUOUS
10
5.1033729921259843
20
-2.0874965748031498
11
5.1031976771653538
21
-2.0874764173228346
0
LINE
8
BLACK
6
CONTINUOUS
10
5.1031976771653538
20
-2.0874764173228346
11
5.0994481496062987
21
-2.0856016535433071
0
LINE
8
BLACK
6
CONTINUOUS
10
5.0994481496062987
20
-2.0856016535433071
11
5.0987390157480315
21
-2.0850756692913386
0
LINE
8
BLACK
6
CONTINUOUS
10
5.0987390157480315
20
-2.0850756692913386
11
5.0986807086614174
21
-2.0850485039370077
0
LINE
8
BLACK
6
CONTINUOUS
10
5.0986807086614174
20
-2.0850485039370077
11
5.0968059448818899
21
-2.0831737007874014
0
LINE
8
BLACK
6
CONTINUOUS
10
5.0968059448818899
20
-2.0831737007874014
11
5.0962177559055117
21
-2.0823336614173229
0
LINE
8
BLACK
6
CONTINUOUS
10
5.0962177559055117
20
-2.0823336614173229
11
5.0960417716535433
21
-2.0803215748031496
0
LINE
8
BLACK
6
CONTINUOUS
10
5.0960417716535433
20
-2.0803215748031496
11
5.0972002755905512
21
-2.0786670472440942
0
LINE
8
BLACK
6
CONTINUOUS
10
5.0972002755905512
20
-2.0786670472440942
11
5.0991512598425199
21
-2.0781443307086613
0
LINE
8
BLACK
6
CONTINUOUS
10
5.0991512598425199
20
-2.0781443307086613
11
5.1009818503937003
21
-2.0789979527559055
0
LINE
8
BLACK
6
CONTINUOUS
10
5.1009818503937003
20
-2.0789979527559055
11
5.1025177559055113
21
-2.0805338976377952
0
LINE
8
BLACK
6
CONTINUOUS
10
5.1025177559055113
20
-2.0805338976377952
11
5.1052152362204719
21
-2.0818826377952755
0
LINE
8
BLACK
6
CONTINUOUS
10
5.1052152362204719
20
-2.0818826377952755
11
5.1131949606299214
21
-2.0818826377952755
0
LINE
8
BLACK
6
CONTINUOUS
10
5.1131949606299214
20
-2.0818826377952755
11
5.1158924015748033
21
-2.0805338976377952
0
LINE
8
BLACK
6
CONTINUOUS
10
5.1158924015748033
20
-2.0805338976377952
11
5.1170895275590551
21
-2.0793367322834646
0
LINE
8
BLACK
6
CONTINUOUS
10
5.1170895275590551
20
-2.0793367322834646
11
5.1184383070866142
21
-2.076639251968504
0
LINE
8
BLACK
6
CONTINUOUS
10
5.1184383070866142
20
-2.076639251968504
11
5.1184383070866142
21
-2.0686595275590549
0
LINE
8
BLACK
6
CONTINUOUS
10
5.1184383070866142
20
-2.0686595275590549
11
5.1170895669291339
21
-2.0659620472440943
0
LINE
8
BLACK
6
CONTINUOUS
10
5.1170895669291339
20
-2.0659620472440943
11
5.115892440944882
21
-2.0647649212598425
0
LINE
8
BLACK
6
CONTINUOUS
10
5.115892440944882
20
-2.0647649212598425
11
5.1131949606299214
21
-2.0634161811023621
0
LINE
8
BLACK
6
CONTINUOUS
10
5.1131949606299214
20
-2.0634161811023621
11
5.1052152362204719
21
-2.0634161811023621
0
LINE
8
BLACK
6
CONTINUOUS
10
5.1052152362204719
20
-2.0634161811023621
11
5.1025177559055113
21
-2.0647649212598425
0
LINE
8
BLACK
6
CONTINUOUS
10
5.1025177559055113
20
-2.0647649212598425
11
5.1009818110236216
21
-2.0663008661417321
0
LINE
8
BLACK
6
CONTINUOUS
10
5.1009818110236216
20
-2.0663008661417321
11
5.1001417716535435
21
-2.0668890551181103
0
LINE
8
BLACK
6
CONTINUOUS
10
5.1001417716535435
20
-2.0668890551181103
11
5.1001224015748035
21
-2.0668907086614174
0
LINE
8
BLACK
6
CONTINUOUS
10
5.1001224015748035
20
-2.0668907086614174
11
5.1001085039370073
21
-2.0669043307086614
0
LINE
8
BLACK
6
CONTINUOUS
10
5.1001085039370073
20
-2.0669043307086614
11
5.0991179921259837
21
-2.0669786220472441
0
LINE
8
BLACK
6
CONTINUOUS
10
5.0991179921259837
20
-2.0669786220472441
11
5.0981296850393703
21
-2.0670651181102362
0
LINE
8
BLACK
6
CONTINUOUS
10
5.0981296850393703
20
-2.0670651181102362
11
5.0981137401574799
21
-2.067053937007874
0
LINE
8
BLACK
6
CONTINUOUS
10
5.0981137401574799
20
-2.067053937007874
11
5.098094330708661
21
-2.0670554330708661
0
LINE
8
BLACK
6
CONTINUOUS
10
5.098094330708661
20
-2.0670554330708661
11
5.0972874803149608
21
-2.0664753937007871
0
LINE
8
BLACK
6
CONTINUOUS
10
5.0972874803149608
20
-2.0664753937007871
11
5.0964751181102361
21
-2.0659065748031495
0
LINE
8
BLACK
6
CONTINUOUS
10
5.0964751181102361
20
-2.0659065748031495
11
5.0964700787401576
21
-2.0658877559055115
0
LINE
8
BLACK
6
CONTINUOUS
10
5.0964700787401576
20
-2.0658877559055115
11
5.0964543307086609
21
-2.0658764566929135
0
LINE
8
BLACK
6
CONTINUOUS
10
5.0964543307086609
20
-2.0658764566929135
11
5.0962093307086613
21
-2.0649146456692913
0
LINE
8
BLACK
6
CONTINUOUS
10
5.0962093307086613
20
-2.0649146456692913
11
5.0959524015748032
21
-2.0639556299212596
0
LINE
8
BLACK
6
CONTINUOUS
10
5.0959524015748032
20
-2.0639556299212596
11
5.0959605905511811
21
-2.0639380314960629
0
LINE
8
BLACK
6
CONTINUOUS
10
5.0959605905511811
20
-2.0639380314960629
11
5.0959557874015751
21
-2.0639191338582679
0
LINE
8
BLACK
6
CONTINUOUS
10
5.0959557874015751
20
-2.0639191338582679
11
5.0978305511811026
21
-2.0451714960629919
0
LINE
8
BLACK
6
CONTINUOUS
10
5.0978305511811026
20
-2.0451714960629919
11
5.0978728346456688
21
-2.0450211417322834
0
LINE
8
BLACK
6
CONTINUOUS
10
5.0978728346456688
20
-2.0450211417322834
11
5.0978607480314961
21
-2.0449525590551181
0
LINE
8
BLACK
6
CONTINUOUS
10
5.0978607480314961
20
-2.0449525590551181
11
5.0979219291338582
21
-2.0448465354330709
0
LINE
8
BLACK
6
CONTINUOUS
10
5.0979219291338582
20
-2.0448465354330709
11
5.0981082283464563
21
-2.0441843307086613
0
LINE
8
BLACK
6
CONTINUOUS
10
5.0981082283464563
20
-2.0441843307086613
11
5.0985571259842519
21
-2.0437464173228346
0
LINE
8
BLACK
6
CONTINUOUS
10
5.0985571259842519
20
-2.0437464173228346
11
5.0988706692913386
21
-2.0432033858267715
0
LINE
8
BLACK
6
CONTINUOUS
10
5.0988706692913386
20
-2.0432033858267715
11
5.0992585039370075
21
-2.0430622047244094
0
LINE
8
BLACK
6
CONTINUOUS
10
5.0992585039370075
20
-2.0430622047244094
11
5.0995540551181104
21
-2.0427739370078739
0
LINE
8
BLACK
6
CONTINUOUS
10
5.0995540551181104
20
-2.0427739370078739
11
5.1001793700787399
21
-2.0427270078740158
0
LINE
8
BLACK
6
CONTINUOUS
10
5.1001793700787399
20
-2.0427270078740158
11
5.1007686614173231
21
-2.0425125590551181
0
LINE
8
BLACK
6
CONTINUOUS
10
5.1007686614173231
20
-2.0425125590551181
11
5.1195162992125987
21
-2.0425125590551181
0
LINE
8
BLACK
6
CONTINUOUS
10
5.1195162992125987
20
-2.0425125590551181
11
5.1205262204724411
21
-2.0426906299212599
0
LINE
8
BLACK
6
CONTINUOUS
10
5.1505224803149607
20
-2.0426906299212599
11
5.1506577165354326
21
-2.0428040944881891
0
LINE
8
BLACK
6
CONTINUOUS
10
5.1506577165354326
20
-2.0428040944881891
11
5.1508330708661418
21
-2.0428242913385826
0
LINE
8
BLACK
6
CONTINUOUS
10
5.1508330708661418
20
-2.0428242913385826
11
5.1545825984251969
21
-2.0446990551181101
0
LINE
8
BLACK
6
CONTINUOUS
10
5.1545825984251969
20
-2.0446990551181101
11
5.1552916535433067
21
-2.0452249606299211
0
LINE
8
BLACK
6
CONTINUOUS
10
5.1552916535433067
20
-2.0452249606299211
11
5.1553500000000003
21
-2.0452521653543307
0
LINE
8
BLACK
6
CONTINUOUS
10
5.1553500000000003
20
-2.0452521653543307
11
5.1572247637795279
21
-2.0471269291338583
0
LINE
8
BLACK
6
CONTINUOUS
10
5.1572247637795279
20
-2.0471269291338583
11
5.1577310236220475
21
-2.0478499999999999
0
LINE
8
BLACK
6
CONTINUOUS
10
5.1577310236220475
20
-2.0478499999999999
11
5.1577778740157481
21
-2.0478943307086612
0
LINE
8
BLACK
6
CONTINUOUS
10
5.1577778740157481
20
-2.0478943307086612
11
5.1596526377952756
21
-2.0516438582677163
0
LINE
8
BLACK
6
CONTINUOUS
10
5.1596526377952756
20
-2.0516438582677163
11
5.1597979133858267
21
-2.0521322834645668
0
LINE
8
BLACK
6
CONTINUOUS
10
5.1597979133858267
20
-2.0521322834645668
11
5.1598762204724409
21
-2.0522482283464565
0
LINE
8
BLACK
6
CONTINUOUS
10
5.1598762204724409
20
-2.0522482283464565
11
5.1617509842519684
21
-2.0597472834645667
0
LINE
8
BLACK
6
CONTINUOUS
10
5.1617509842519684
20
-2.0597472834645667
11
5.1617924409448817
21
-2.0603351574803148
0
LINE
8
BLACK
6
CONTINUOUS
10
5.1617924409448817
20
-2.0603351574803148
11
5.1618391338582672
21
-2.0604634251968506
0
LINE
8
BLACK
6
CONTINUOUS
10
5.1618391338582672
20
-2.0604634251968506
11
5.1618391338582672
21
-2.0698372440944883
0
LINE
8
BLACK
6
CONTINUOUS
10
5.1618391338582672
20
-2.0698372440944883
11
5.1617367716535432
21
-2.0704175984251969
0
LINE
8
BLACK
6
CONTINUOUS
10
5.1617367716535432
20
-2.0704175984251969
11
5.1617509842519684
21
-2.0705533858267717
0
LINE
8
BLACK
6
CONTINUOUS
10
5.1617509842519684
20
-2.0705533858267717
11
5.1598762204724409
21
-2.078052440944882
0
LINE
8
BLACK
6
CONTINUOUS
10
5.1598762204724409
20
-2.078052440944882
11
5.1596686220472439
21
-2.0785178740157479
0
LINE
8
BLACK
6
CONTINUOUS
10
5.1596686220472439
20
-2.0785178740157479
11
5.1596526377952756
21
-2.0786568110236221
0
LINE
8
BLACK
6
CONTINUOUS
10
5.1596526377952756
20
-2.0786568110236221
11
5.1577778740157481
21
-2.0824063385826772
0
LINE
8
BLACK
6
CONTINUOUS
10
5.1577778740157481
20
-2.0824063385826772
11
5.1572519291338583
21
-2.0831153937007874
0
LINE
8
BLACK
6
CONTINUOUS
10
5.1572519291338583
20
-2.0831153937007874
11
5.1572247637795279
21
-2.0831737401574801
0
LINE
8
BLACK
6
CONTINUOUS
10
5.1572247637795279
20
-2.0831737401574801
11
5.1553500393700782
21
-2.0850485039370077
0
LINE
8
BLACK
6
CONTINUOUS
10
5.1553500393700782
20
-2.0850485039370077
11
5.1546268503937007
21
-2.0855548818897636
0
LINE
8
BLACK
6
CONTINUOUS
10
5.1546268503937007
20
-2.0855548818897636
11
5.1545825984251969
21
-2.0856016535433071
0
LINE
8
BLACK
6
CONTINUOUS
10
5.1545825984251969
20
-2.0856016535433071
11
5.1508330708661418
21
-2.0874764173228346
0
LINE
8
BLACK
6
CONTINUOUS
10
5.1508330708661418
20
-2.0874764173228346
11
5.1498501181102361
21
-2.087768779527559
0
LINE
8
BLACK
6
CONTINUOUS
10
5.1498501181102361
20
-2.087768779527559
11
5.1496784251968499
21
-2.0877277559055116
0
LINE
8
BLACK
6
CONTINUOUS
10
5.1496784251968499
20
-2.0877277559055116
11
5.1495125590551183
21
-2.0877881496062991
0
LINE
8
BLACK
6
CONTINUOUS
10
5.1495125590551183
20
-2.0877881496062991
11
5.1457630314960632
21
-2.0877881496062991
0
LINE
8
BLACK
6
CONTINUOUS
10
5.1457630314960632
20
-2.0877881496062991
11
5.1447531102362207
21
-2.0876100787401572
0
LINE
8
BLACK
6
CONTINUOUS
10
5.1447531102362207
20
-2.0876100787401572
11
5.1446178346456692
21
-2.0874965748031498
0
LINE
8
BLACK
6
CONTINUOUS
10
5.1446178346456692
20
-2.0874965748031498
11
5.1444425196850396
21
-2.0874764173228346
0
LINE
8
BLACK
6
CONTINUOUS
10
5.1444425196850396
20
-2.0874764173228346
11
5.1406929921259845
21
-2.0856016535433071
0
LINE
8
BLACK
6
CONTINUOUS
10
5.1406929921259845
20
-2.0856016535433071
11
5.1399838582677164
21
-2.0850756692913386
0
LINE
8
BLACK
6
CONTINUOUS
10
5.1399838582677164
20
-2.0850756692913386
11
5.1399255511811024
21
-2.0850485039370077
0
LINE
8
BLACK
6
CONTINUOUS
10
5.1399255511811024
20
-2.0850485039370077
11
5.1380507874015748
21
-2.0831737007874014
0
LINE
8
BLACK
6
CONTINUOUS
10
5.1380507874015748
20
-2.0831737007874014
11
5.1375444881889765
21
-2.0824506299212597
0
LINE
8
BLACK
6
CONTINUOUS
10
5.1375444881889765
20
-2.0824506299212597
11
5.1374977165354325
21
-2.0824063385826772
0
LINE
8
BLACK
6
CONTINUOUS
10
5.1374977165354325
20
-2.0824063385826772
11
5.135622952755905
21
-2.0786568110236221
0
LINE
8
BLACK
6
CONTINUOUS
10
5.135622952755905
20
-2.0786568110236221
11
5.1354776377952751
21
-2.0781683464566929
0
LINE
8
BLACK
6
CONTINUOUS
10
5.1354776377952751
20
-2.0781683464566929
11
5.1353993700787397
21
-2.078052440944882
0
LINE
8
BLACK
6
CONTINUOUS
10
5.1353993700787397
20
-2.078052440944882
11
5.1335246062992121
21
-2.0705533858267717
0
LINE
8
BLACK
6
CONTINUOUS
10
5.1335246062992121
20
-2.0705533858267717
11
5.1334831102362202
21
-2.0699654724409449
0
LINE
8
BLACK
6
CONTINUOUS
10
5.1334831102362202
20
-2.0699654724409449
11
5.1334364566929134
21
-2.0698372440944883
0
LINE
8
BLACK
6
CONTINUOUS
10
5.1334364566929134
20
-2.0698372440944883
11
5.1334364566929134
21
-2.0604634251968506
0
LINE
8
BLACK
6
CONTINUOUS
10
5.1334364566929134
20
-2.0604634251968506
11
5.1335387795275587
21
-2.0598830314960628
0
LINE
8
BLACK
6
CONTINUOUS
10
5.1335387795275587
20
-2.0598830314960628
11
5.1335246062992121
21
-2.0597472834645667
0
LINE
8
BLACK
6
CONTINUOUS
10
5.1335246062992121
20
-2.0597472834645667
11
5.1353993700787397
21
-2.0522482283464565
0
LINE
8
BLACK
6
CONTINUOUS
10
5.1353993700787397
20
-2.0522482283464565
11
5.135606929133858
21
-2.0517827559055117
0
LINE
8
BLACK
6
CONTINUOUS
10
5.135606929133858
20
-2.0517827559055117
11
5.135622952755905
21
-2.0516438582677163
0
LINE
8
BLACK
6
CONTINUOUS
10
5.135622952755905
20
-2.0516438582677163
11
5.1374977165354325
21
-2.0478943307086612
0
LINE
8
BLACK
6
CONTINUOUS
10
5.1374977165354325
20
-2.0478943307086612
11
5.1380236220472444
21
-2.0471852362204723
0
LINE
8
BLACK
6
CONTINUOUS
10
5.1380236220472444
20
-2.0471852362204723
11
5.1380508267716536
21
-2.0471269291338583
0
LINE
8
BLACK
6
CONTINUOUS
10
5.1380508267716536
20
-2.0471269291338583
11
5.1399255905511811
21
-2.0452521653543307
0
LINE
8
BLACK
6
CONTINUOUS
10
5.1399255905511811
20
-2.0452521653543307
11
5.1406486614173224
21
-2.0447458661417324
0
LINE
8
BLACK
6
CONTINUOUS
10
5.1406486614173224
20
-2.0447458661417324
11
5.1406929921259845
21
-2.0446990551181101
0
LINE
8
BLACK
6
CONTINUOUS
10
5.1406929921259845
20
-2.0446990551181101
11
5.1444425196850396
21
-2.0428242913385826
0
LINE
8
BLACK
6
CONTINUOUS
10
5.1444425196850396
20
-2.0428242913385826
11
5.1454254330708658
21
-2.0425319291338582
0
LINE
8
BLACK
6
CONTINUOUS
10
5.1454254330708658
20
-2.0425319291338582
11
5.1455971259842519
21
-2.0425729133858268
0
LINE
8
BLACK
6
CONTINUOUS
10
5.1455971259842519
20
-2.0425729133858268
11
5.1457630314960632
21
-2.0425125590551181
0
LINE
8
BLACK
6
CONTINUOUS
10
5.1457630314960632
20
-2.0425125590551181
11
5.1495125590551183
21
-2.0425125590551181
0
LINE
8
BLACK
6
CONTINUOUS
10
5.1495125590551183
20
-2.0425125590551181
11
5.1505224803149607
21
-2.0426906299212599
0
LINE
8
BLACK
6
CONTINUOUS
10
5.1437625984251971
20
-2.049766811023622
11
5.1425654724409444
21
-2.0509639370078738
0
LINE
8
BLACK
6
CONTINUOUS
10
5.1425654724409444
20
-2.0509639370078738
11
5.1410499606299211
21
-2.0539949212598425
0
LINE
8
BLACK
6
CONTINUOUS
10
5.1410499606299211
20
-2.0539949212598425
11
5.1393419685039365
21
-2.0608269685039371
0
LINE
8
BLACK
6
CONTINUOUS
10
5.1393419685039365
20
-2.0608269685039371
11
5.1393419685039365
21
-2.0694737007874013
0
LINE
8
BLACK
6
CONTINUOUS
10
5.1393419685039365
20
-2.0694737007874013
11
5.1410499606299211
21
-2.0763057480314959
0
LINE
8
BLACK
6
CONTINUOUS
10
5.1410499606299211
20
-2.0763057480314959
11
5.1425654724409444
21
-2.0793367322834646
0
LINE
8
BLACK
6
CONTINUOUS
10
5.1425654724409444
20
-2.0793367322834646
11
5.1437625984251971
21
-2.0805338976377952
0
LINE
8
BLACK
6
CONTINUOUS
10
5.1437625984251971
20
-2.0805338976377952
11
5.1464600787401578
21
-2.0818826377952755
0
LINE
8
BLACK
6
CONTINUOUS
10
5.1464600787401578
20
-2.0818826377952755
11
5.1488155118110237
21
-2.0818826377952755
0
LINE
8
BLACK
6
CONTINUOUS
10
5.1488155118110237
20
-2.0818826377952755
11
5.1515129527559056
21
-2.0805338976377952
0
LINE
8
BLACK
6
CONTINUOUS
10
5.1515129527559056
20
-2.0805338976377952
11
5.1527100787401574
21
-2.0793367322834646
0
LINE
8
BLACK
6
CONTINUOUS
10
5.1527100787401574
20
-2.0793367322834646
11
5.1542255905511807
21
-2.0763057480314959
0
LINE
8
BLACK
6
CONTINUOUS
10
5.1542255905511807
20
-2.0763057480314959
11
5.155933622047244
21
-2.0694737007874013
0
LINE
8
BLACK
6
CONTINUOUS
10
5.155933622047244
20
-2.0694737007874013
11
5.155933622047244
21
-2.0608269685039371
0
LINE
8
BLACK
6
CONTINUOUS
10
5.155933622047244
20
-2.0608269685039371
11
5.1542255905511807
21
-2.0539949212598425
0
LINE
8
BLACK
6
CONTINUOUS
10
5.1542255905511807
20
-2.0539949212598425
11
5.1527101181102362
21
-2.0509639370078738
0
LINE
8
BLACK
6
CONTINUOUS
10
5.1527101181102362
20
-2.0509639370078738
11
5.1515129921259843
21
-2.049766811023622
0
LINE
8
BLACK
6
CONTINUOUS
10
5.1515129921259843
20
-2.049766811023622
11
5.1488155118110237
21
-2.0484180708661417
0
LINE
8
BLACK
6
CONTINUOUS
10
5.1488155118110237
20
-2.0484180708661417
11
5.1464600787401578
21
-2.0484180708661417
0
LINE
8
BLACK
6
CONTINUOUS
10
5.1464600787401578
20
-2.0484180708661417
11
5.1437625984251971
21
-2.049766811023622
0
LINE
8
BLACK
6
CONTINUOUS
10
5.1880177952755906
20
-2.0426906299212599
11
5.1881530314960624
21
-2.0428040944881891
0
LINE
8
BLACK
6
CONTINUOUS
10
5.1881530314960624
20
-2.0428040944881891
11
5.1883283858267717
21
-2.0428242913385826
0
LINE
8
BLACK
6
CONTINUOUS
10
5.1883283858267717
20
-2.0428242913385826
11
5.1920779133858268
21
-2.0446990551181101
0
LINE
8
BLACK
6
CONTINUOUS
10
5.1920779133858268
20
-2.0446990551181101
11
5.1927869685039365
21
-2.0452249606299211
0
LINE
8
BLACK
6
CONTINUOUS
10
5.1927869685039365
20
-2.0452249606299211
11
5.1928453149606302
21
-2.0452521653543307
0
LINE
8
BLACK
6
CONTINUOUS
10
5.1928453149606302
20
-2.0452521653543307
11
5.1947200787401577
21
-2.0471269291338583
0
LINE
8
BLACK
6
CONTINUOUS
10
5.1947200787401577
20
-2.0471269291338583
11
5.1952263385826774
21
-2.0478499999999999
0
LINE
8
BLACK
6
CONTINUOUS
10
5.1952263385826774
20
-2.0478499999999999
11
5.1952731889763779
21
-2.0478943307086612
0
LINE
8
BLACK
6
CONTINUOUS
10
5.1952731889763779
20
-2.0478943307086612
11
5.1971479527559055
21
-2.0516438582677163
0
LINE
8
BLACK
6
CONTINUOUS
10
5.1971479527559055
20
-2.0516438582677163
11
5.1972932283464566
21
-2.0521322834645668
0
LINE
8
BLACK
6
CONTINUOUS
10
5.1972932283464566
20
-2.0521322834645668
11
5.1973715354330707
21
-2.0522482283464565
0
LINE
8
BLACK
6
CONTINUOUS
10
5.1973715354330707
20
-2.0522482283464565
11
5.1992462992125983
21
-2.0597472834645667
0
LINE
8
BLACK
6
CONTINUOUS
10
5.1992462992125983
20
-2.0597472834645667
11
5.1992877559055115
21
-2.0603351574803148
0
LINE
8
BLACK
6
CONTINUOUS
10
5.1992877559055115
20
-2.0603351574803148
11
5.1993344488188979
21
-2.0604634251968506
0
LINE
8
BLACK
6
CONTINUOUS
10
5.1993344488188979
20
-2.0604634251968506
11
5.1993344488188979
21
-2.0698372440944883
0
LINE
8
BLACK
6
CONTINUOUS
10
5.1993344488188979
20
-2.0698372440944883
11
5.199232086614173
21
-2.0704175984251969
0
LINE
8
BLACK
6
CONTINUOUS
10
5.199232086614173
20
-2.0704175984251969
11
5.1992462992125983
21
-2.0705533858267717
0
LINE
8
BLACK
6
CONTINUOUS
10
5.1992462992125983
20
-2.0705533858267717
11
5.1973715354330707
21
-2.078052440944882
0
LINE
8
BLACK
6
CONTINUOUS
10
5.1973715354330707
20
-2.078052440944882
11
5.1971639370078737
21
-2.0785178740157479
0
LINE
8
BLACK
6
CONTINUOUS
10
5.1971639370078737
20
-2.0785178740157479
11
5.1971479527559055
21
-2.0786568110236221
0
LINE
8
BLACK
6
CONTINUOUS
10
5.1971479527559055
20
-2.0786568110236221
11
5.1952731889763779
21
-2.0824063385826772
0
LINE
8
BLACK
6
CONTINUOUS
10
5.1952731889763779
20
-2.0824063385826772
11
5.1947472440944882
21
-2.0831153937007874
0
LINE
8
BLACK
6
CONTINUOUS
10
5.1947472440944882
20
-2.0831153937007874
11
5.1947200787401577
21
-2.0831737401574801
0
LINE
8
BLACK
6
CONTINUOUS
10
5.1947200787401577
20
-2.0831737401574801
11
5.1928453543307089
21
-2.0850485039370077
0
LINE
8
BLACK
6
CONTINUOUS
10
5.1928453543307089
20
-2.0850485039370077
11
5.1921221653543306
21
-2.0855548818897636
0
LINE
8
BLACK
6
CONTINUOUS
10
5.1921221653543306
20
-2.0855548818897636
11
5.1920779133858268
21
-2.0856016535433071
0
LINE
8
BLACK
6
CONTINUOUS
10
5.1920779133858268
20
-2.0856016535433071
11
5.1883283858267717
21
-2.0874764173228346
0
LINE
8
BLACK
6
CONTINUOUS
10
5.1883283858267717
20
-2.0874764173228346
11
5.1873454330708659
21
-2.087768779527559
0
LINE
8
BLACK
6
CONTINUOUS
10
5.1873454330708659
20
-2.087768779527559
11
5.1871737401574798
21
-2.0877277559055116
0
LINE
8
BLACK
6
CONTINUOUS
10
5.1871737401574798
20
-2.0877277559055116
11
5.1870078740157481
21
-2.0877881496062991
0
LINE
8
BLACK
6
CONTINUOUS
10
5.1870078740157481
20
-2.0877881496062991
11
5.183258346456693
21
-2.0877881496062991
0
LINE
8
BLACK
6
CONTINUOUS
10
5.183258346456693
20
-2.0877881496062991
11
5.1822484251968506
21
-2.0876100787401572
0
LINE
8
BLACK
6
CONTINUOUS
10
5.1822484251968506
20
-2.0876100787401572
11
5.1821131496062991
21
-2.0874965748031498
0
LINE
8
BLACK
6
CONTINUOUS
10
5.1821131496062991
20
-2.0874965748031498
11
5.1819378346456695
21
-2.0874764173228346
0
LINE
8
BLACK
6
CONTINUOUS
10
5.1819378346456695
20
-2.0874764173228346
11
5.1781883070866144
21
-2.0856016535433071
0
LINE
8
BLACK
6
CONTINUOUS
10
5.1781883070866144
20
-2.0856016535433071
11
5.1774791732283463
21
-2.0850756692913386
0
LINE
8
BLACK
6
CONTINUOUS
10
5.1774791732283463
20
-2.0850756692913386
11
5.1774208661417322
21
-2.0850485039370077
0
LINE
8
BLACK
6
CONTINUOUS
10
5.1774208661417322
20
-2.0850485039370077
11
5.1755461023622047
21
-2.0831737007874014
0
LINE
8
BLACK
6
CONTINUOUS
10
5.1755461023622047
20
-2.0831737007874014
11
5.1750398031496063
21
-2.0824506299212597
0
LINE
8
BLACK
6
CONTINUOUS
10
5.1750398031496063
20
-2.0824506299212597
11
5.1749930314960633
21
-2.0824063385826772
0
LINE
8
BLACK
6
CONTINUOUS
10
5.1749930314960633
20
-2.0824063385826772
11
5.1731182677165357
21
-2.0786568110236221
0
LINE
8
BLACK
6
CONTINUOUS
10
5.1731182677165357
20
-2.0786568110236221
11
5.172972952755905
21
-2.0781683464566929
0
LINE
8
BLACK
6
CONTINUOUS
10
5.172972952755905
20
-2.0781683464566929
11
5.1728946850393696
21
-2.078052440944882
0
LINE
8
BLACK
6
CONTINUOUS
10
5.1728946850393696
20
-2.078052440944882
11
5.171019921259842
21
-2.0705533858267717
0
LINE
8
BLACK
6
CONTINUOUS
10
5.171019921259842
20
-2.0705533858267717
11
5.17097842519685
21
-2.0699654724409449
0
LINE
8
BLACK
6
CONTINUOUS
10
5.17097842519685
20
-2.0699654724409449
11
5.1709317716535432
21
-2.0698372440944883
0
LINE
8
BLACK
6
CONTINUOUS
10
5.1709317716535432
20
-2.0698372440944883
11
5.1709317716535432
21
-2.0604634251968506
0
LINE
8
BLACK
6
CONTINUOUS
10
5.1709317716535432
20
-2.0604634251968506
11
5.1710340944881885
21
-2.0598830314960628
0
LINE
8
BLACK
6
CONTINUOUS
10
5.1710340944881885
20
-2.0598830314960628
11
5.171019921259842
21
-2.0597472834645667
0
LINE
8
BLACK
6
CONTINUOUS
10
5.171019921259842
20
-2.0597472834645667
11
5.1728946850393696
21
-2.0522482283464565
0
LINE
8
BLACK
6
CONTINUOUS
10
5.1728946850393696
20
-2.0522482283464565
11
5.1731022440944878
21
-2.0517827559055117
0
LINE
8
BLACK
6
CONTINUOUS
10
5.1731022440944878
20
-2.0517827559055117
11
5.1731182677165357
21
-2.0516438582677163
0
LINE
8
BLACK
6
CONTINUOUS
10
5.1731182677165357
20
-2.0516438582677163
11
5.1749930314960633
21
-2.0478943307086612
0
LINE
8
BLACK
6
CONTINUOUS
10
5.1749930314960633
20
-2.0478943307086612
11
5.1755189370078742
21
-2.0471852362204723
0
LINE
8
BLACK
6
CONTINUOUS
10
5.1755189370078742
20
-2.0471852362204723
11
5.1755461417322834
21
-2.0471269291338583
0
LINE
8
BLACK
6
CONTINUOUS
10
5.1755461417322834
20
-2.0471269291338583
11
5.177420905511811
21
-2.0452521653543307
0
LINE
8
BLACK
6
CONTINUOUS
10
5.177420905511811
20
-2.0452521653543307
11
5.1781439763779522
21
-2.0447458661417324
0
LINE
8
BLACK
6
CONTINUOUS
10
5.1781439763779522
20
-2.0447458661417324
11
5.1781883070866144
21
-2.0446990551181101
0
LINE
8
BLACK
6
CONTINUOUS
10
5.1781883070866144
20
-2.0446990551181101
11
5.1819378346456695
21
-2.0428242913385826
0
LINE
8
BLACK
6
CONTINUOUS
10
5.1819378346456695
20
-2.0428242913385826
11
5.1829207480314956
21
-2.0425319291338582
0
LINE
8
BLACK
6
CONTINUOUS
10
5.1829207480314956
20
-2.0425319291338582
11
5.1830924409448818
21
-2.0425729133858268
0
LINE
8
BLACK
6
CONTINUOUS
10
5.1830924409448818
20
-2.0425729133858268
11
5.183258346456693
21
-2.0425125590551181
0
LINE
8
BLACK
6
CONTINUOUS
10
5.183258346456693
20
-2.0425125590551181
11
5.1870078740157481
21
-2.0425125590551181
0
LINE
8
BLACK
6
CONTINUOUS
10
5.1870078740157481
20
-2.0425125590551181
11
5.1880177952755906
21
-2.0426906299212599
0
LINE
8
BLACK
6
CONTINUOUS
10
5.181257913385827
20
-2.049766811023622
11
5.1800607874015743
21
-2.0509639370078738
0
LINE
8
BLACK
6
CONTINUOUS
10
5.1800607874015743
20
-2.0509639370078738
11
5.178545275590551
21
-2.0539949212598425
0
LINE
8
BLACK
6
CONTINUOUS
10
5.178545275590551
20
-2.0539949212598425
11
5.1768372834645664
21
-2.0608269685039371
0
LINE
8
BLACK
6
CONTINUOUS
10
5.1768372834645664
20
-2.0608269685039371
11
5.1768372834645664
21
-2.0694737007874013
0
LINE
8
BLACK
6
CONTINUOUS
10
5.1768372834645664
20
-2.0694737007874013
11
5.178545275590551
21
-2.0763057480314959
0
LINE
8
BLACK
6
CONTINUOUS
10
5.178545275590551
20
-2.0763057480314959
11
5.1800607874015743
21
-2.0793367322834646
0
LINE
8
BLACK
6
CONTINUOUS
10
5.1800607874015743
20
-2.0793367322834646
11
5.181257913385827
21
-2.0805338976377952
0
LINE
8
BLACK
6
CONTINUOUS
10
5.181257913385827
20
-2.0805338976377952
11
5.1839553937007876
21
-2.0818826377952755
0
LINE
8
BLACK
6
CONTINUOUS
10
5.1839553937007876
20
-2.0818826377952755
11
5.1863108267716536
21
-2.0818826377952755
0
LINE
8
BLACK
6
CONTINUOUS
10
5.1863108267716536
20
-2.0818826377952755
11
5.1890082677165354
21
-2.0805338976377952
0
LINE
8
BLACK
6
CONTINUOUS
10
5.1890082677165354
20
-2.0805338976377952
11
5.1902053937007873
21
-2.0793367322834646
0
LINE
8
BLACK
6
CONTINUOUS
10
5.1902053937007873
20
-2.0793367322834646
11
5.1917209055118105
21
-2.0763057480314959
0
LINE
8
BLACK
6
CONTINUOUS
10
5.1917209055118105
20
-2.0763057480314959
11
5.1934289370078739
21
-2.0694737007874013
0
LINE
8
BLACK
6
CONTINUOUS
10
5.1934289370078739
20
-2.0694737007874013
11
5.1934289370078739
21
-2.0608269685039371
0
LINE
8
BLACK
6
CONTINUOUS
10
5.1934289370078739
20
-2.0608269685039371
11
5.1917209055118105
21
-2.0539949212598425
0
LINE
8
BLACK
6
CONTINUOUS
10
5.1917209055118105
20
-2.0539949212598425
11
5.190205433070866
21
-2.0509639370078738
0
LINE
8
BLACK
6
CONTINUOUS
10
5.190205433070866
20
-2.0509639370078738
11
5.1890083070866142
21
-2.049766811023622
0
LINE
8
BLACK
6
CONTINUOUS
10
5.1890083070866142
20
-2.049766811023622
11
5.1863108267716536
21
-2.0484180708661417
0
LINE
8
BLACK
6
CONTINUOUS
10
5.1863108267716536
20
-2.0484180708661417
11
5.1839553937007876
21
-2.0484180708661417
0
LINE
8
BLACK
6
CONTINUOUS
10
5.1839553937007876
20
-2.0484180708661417
11
5.181257913385827
21
-2.049766811023622
0
LINE
8
BLACK
6
CONTINUOUS
10
5.2255131102362204
20
-2.0426906299212599
11
5.2256483464566932
21
-2.0428040944881891
0
LINE
8
BLACK
6
CONTINUOUS
10
5.2256483464566932
20
-2.0428040944881891
11
5.2258237007874015
21
-2.0428242913385826
0
LINE
8
BLACK
6
CONTINUOUS
10
5.2258237007874015
20
-2.0428242913385826
11
5.2295732283464567
21
-2.0446990551181101
0
LINE
8
BLACK
6
CONTINUOUS
10
5.2295732283464567
20
-2.0446990551181101
11
5.2302822834645673
21
-2.0452249606299211
0
LINE
8
BLACK
6
CONTINUOUS
10
5.2302822834645673
20
-2.0452249606299211
11
5.23034062992126
21
-2.0452521653543307
0
LINE
8
BLACK
6
CONTINUOUS
10
5.23034062992126
20
-2.0452521653543307
11
5.2322153937007876
21
-2.0471269291338583
0
LINE
8
BLACK
6
CONTINUOUS
10
5.2322153937007876
20
-2.0471269291338583
11
5.2327216535433072
21
-2.0478499999999999
0
LINE
8
BLACK
6
CONTINUOUS
10
5.2327216535433072
20
-2.0478499999999999
11
5.2327685039370078
21
-2.0478943307086612
0
LINE
8
BLACK
6
CONTINUOUS
10
5.2327685039370078
20
-2.0478943307086612
11
5.2346432677165353
21
-2.0516438582677163
0
LINE
8
BLACK
6
CONTINUOUS
10
5.2346432677165353
20
-2.0516438582677163
11
5.2347885433070864
21
-2.0521322834645668
0
LINE
8
BLACK
6
CONTINUOUS
10
5.2347885433070864
20
-2.0521322834645668
11
5.2348668503937006
21
-2.0522482283464565
0
LINE
8
BLACK
6
CONTINUOUS
10
5.2348668503937006
20
-2.0522482283464565
11
5.2367416141732281
21
-2.0597472834645667
0
LINE
8
BLACK
6
CONTINUOUS
10
5.2367416141732281
20
-2.0597472834645667
11
5.2367830708661414
21
-2.0603351574803148
0
LINE
8
BLACK
6
CONTINUOUS
10
5.2367830708661414
20
-2.0603351574803148
11
5.2368297637795278
21
-2.0604634251968506
0
LINE
8
BLACK
6
CONTINUOUS
10
5.2368297637795278
20
-2.0604634251968506
11
5.2368297637795278
21
-2.0698372440944883
0
LINE
8
BLACK
6
CONTINUOUS
10
5.2368297637795278
20
-2.0698372440944883
11
5.2367274015748029
21
-2.0704175984251969
0
LINE
8
BLACK
6
CONTINUOUS
10
5.2367274015748029
20
-2.0704175984251969
11
5.2367416141732281
21
-2.0705533858267717
0
LINE
8
BLACK
6
CONTINUOUS
10
5.2367416141732281
20
-2.0705533858267717
11
5.2348668503937006
21
-2.078052440944882
0
LINE
8
BLACK
6
CONTINUOUS
10
5.2348668503937006
20
-2.078052440944882
11
5.2346592519685036
21
-2.0785178740157479
0
LINE
8
BLACK
6
CONTINUOUS
10
5.2346592519685036
20
-2.0785178740157479
11
5.2346432677165353
21
-2.0786568110236221
0
LINE
8
BLACK
6
CONTINUOUS
10
5.2346432677165353
20
-2.0786568110236221
11
5.2327685039370078
21
-2.0824063385826772
0
LINE
8
BLACK
6
CONTINUOUS
10
5.2327685039370078
20
-2.0824063385826772
11
5.232242559055118
21
-2.0831153937007874
0
LINE
8
BLACK
6
CONTINUOUS
10
5.232242559055118
20
-2.0831153937007874
11
5.2322153937007876
21
-2.0831737401574801
0
LINE
8
BLACK
6
CONTINUOUS
10
5.2322153937007876
20
-2.0831737401574801
11
5.2303406692913388
21
-2.0850485039370077
0
LINE
8
BLACK
6
CONTINUOUS
10
5.2303406692913388
20
-2.0850485039370077
11
5.2296174803149604
21
-2.0855548818897636
0
LINE
8
BLACK
6
CONTINUOUS
10
5.2296174803149604
20
-2.0855548818897636
11
5.2295732283464567
21
-2.0856016535433071
0
LINE
8
BLACK
6
CONTINUOUS
10
5.2295732283464567
20
-2.0856016535433071
11
5.2258237007874015
21
-2.0874764173228346
0
LINE
8
BLACK
6
CONTINUOUS
10
5.2258237007874015
20
-2.0874764173228346
11
5.2248407480314958
21
-2.087768779527559
0
LINE
8
BLACK
6
CONTINUOUS
10
5.2248407480314958
20
-2.087768779527559
11
5.2246690551181105
21
-2.0877277559055116
0
LINE
8
BLACK
6
CONTINUOUS
10
5.2246690551181105
20
-2.0877277559055116
11
5.224503188976378
21
-2.0877881496062991
0
LINE
8
BLACK
6
CONTINUOUS
10
5.224503188976378
20
-2.0877881496062991
11
5.2207536614173229
21
-2.0877881496062991
0
LINE
8
BLACK
6
CONTINUOUS
10
5.2207536614173229
20
-2.0877881496062991
11
5.2197437401574804
21
-2.0876100787401572
0
LINE
8
BLACK
6
CONTINUOUS
10
5.2197437401574804
20
-2.0876100787401572
11
5.219608464566929
21
-2.0874965748031498
0
LINE
8
BLACK
6
CONTINUOUS
10
5.219608464566929
20
-2.0874965748031498
11
5.2194331496062993
21
-2.0874764173228346
0
LINE
8
BLACK
6
CONTINUOUS
10
5.2194331496062993
20
-2.0874764173228346
11
5.2156836220472442
21
-2.0856016535433071
0
LINE
8
BLACK
6
CONTINUOUS
10
5.2156836220472442
20
-2.0856016535433071
11
5.2149744881889761
21
-2.0850756692913386
0
LINE
8
BLACK
6
CONTINUOUS
10
5.2149744881889761
20
-2.0850756692913386
11
5.2149161811023621
21
-2.0850485039370077
0
LINE
8
BLACK
6
CONTINUOUS
10
5.2149161811023621
20
-2.0850485039370077
11
5.2130414173228345
21
-2.0831737007874014
0
LINE
8
BLACK
6
CONTINUOUS
10
5.2130414173228345
20
-2.0831737007874014
11
5.2125351181102362
21
-2.0824506299212597
0
LINE
8
BLACK
6
CONTINUOUS
10
5.2125351181102362
20
-2.0824506299212597
11
5.2124883464566931
21
-2.0824063385826772
0
LINE
8
BLACK
6
CONTINUOUS
10
5.2124883464566931
20
-2.0824063385826772
11
5.2106135826771656
21
-2.0786568110236221
0
LINE
8
BLACK
6
CONTINUOUS
10
5.2106135826771656
20
-2.0786568110236221
11
5.2104682677165357
21
-2.0781683464566929
0
LINE
8
BLACK
6
CONTINUOUS
10
5.2104682677165357
20
-2.0781683464566929
11
5.2103900000000003
21
-2.078052440944882
0
LINE
8
BLACK
6
CONTINUOUS
10
5.2103900000000003
20
-2.078052440944882
11
5.2085152362204727
21
-2.0705533858267717
0
LINE
8
BLACK
6
CONTINUOUS
10
5.2085152362204727
20
-2.0705533858267717
11
5.2084737401574799
21
-2.0699654724409449
0
LINE
8
BLACK
6
CONTINUOUS
10
5.2084737401574799
20
-2.0699654724409449
11
5.2084270866141731
21
-2.0698372440944883
0
LINE
8
BLACK
6
CONTINUOUS
10
5.2084270866141731
20
-2.0698372440944883
11
5.2084270866141731
21
-2.0604634251968506
0
LINE
8
BLACK
6
CONTINUOUS
10
5.2084270866141731
20
-2.0604634251968506
11
5.2085294094488184
21
-2.0598830314960628
0
LINE
8
BLACK
6
CONTINUOUS
10
5.2085294094488184
20
-2.0598830314960628
11
5.2085152362204727
21
-2.0597472834645667
0
LINE
8
BLACK
6
CONTINUOUS
10
5.2085152362204727
20
-2.0597472834645667
11
5.2103900000000003
21
-2.0522482283464565
0
LINE
8
BLACK
6
CONTINUOUS
10
5.2103900000000003
20
-2.0522482283464565
11
5.2105975590551177
21
-2.0517827559055117
0
LINE
8
BLACK
6
CONTINUOUS
10
5.2105975590551177
20
-2.0517827559055117
11
5.2106135826771656
21
-2.0516438582677163
0
LINE
8
BLACK
6
CONTINUOUS
10
5.2106135826771656
20
-2.0516438582677163
11
5.2124883464566931
21
-2.0478943307086612
0
LINE
8
BLACK
6
CONTINUOUS
10
5.2124883464566931
20
-2.0478943307086612
11
5.2130142519685041
21
-2.0471852362204723
0
LINE
8
BLACK
6
CONTINUOUS
10
5.2130142519685041
20
-2.0471852362204723
11
5.2130414566929133
21
-2.0471269291338583
0
LINE
8
BLACK
6
CONTINUOUS
10
5.2130414566929133
20
-2.0471269291338583
11
5.2149162204724409
21
-2.0452521653543307
0
LINE
8
BLACK
6
CONTINUOUS
10
5.2149162204724409
20
-2.0452521653543307
11
5.215639291338583
21
-2.0447458661417324
0
LINE
8
BLACK
6
CONTINUOUS
10
5.215639291338583
20
-2.0447458661417324
11
5.2156836220472442
21
-2.0446990551181101
0
LINE
8
BLACK
6
CONTINUOUS
10
5.2156836220472442
20
-2.0446990551181101
11
5.2194331496062993
21
-2.0428242913385826
0
LINE
8
BLACK
6
CONTINUOUS
10
5.2194331496062993
20
-2.0428242913385826
11
5.2204160629921255
21
-2.0425319291338582
0
LINE
8
BLACK
6
CONTINUOUS
10
5.2204160629921255
20
-2.0425319291338582
11
5.2205877559055116
21
-2.0425729133858268
0
LINE
8
BLACK
6
CONTINUOUS
10
5.2205877559055116
20
-2.0425729133858268
11
5.2207536614173229
21
-2.0425125590551181
0
LINE
8
BLACK
6
CONTINUOUS
10
5.2207536614173229
20
-2.0425125590551181
11
5.224503188976378
21
-2.0425125590551181
0
LINE
8
BLACK
6
CONTINUOUS
10
5.224503188976378
20
-2.0425125590551181
11
5.2255131102362204
21
-2.0426906299212599
0
LINE
8
BLACK
6
CONTINUOUS
10
5.2187532283464568
20
-2.049766811023622
11
5.217556102362205
21
-2.0509639370078738
0
LINE
8
BLACK
6
CONTINUOUS
10
5.217556102362205
20
-2.0509639370078738
11
5.2160405905511809
21
-2.0539949212598425
0
LINE
8
BLACK
6
CONTINUOUS
10
5.2160405905511809
20
-2.0539949212598425
11
5.2143325984251971
21
-2.0608269685039371
0
LINE
8
BLACK
6
CONTINUOUS
10
5.2143325984251971
20
-2.0608269685039371
11
5.2143325984251971
21
-2.0694737007874013
0
LINE
8
BLACK
6
CONTINUOUS
10
5.2143325984251971
20
-2.0694737007874013
11
5.2160405905511809
21
-2.0763057480314959
0
LINE
8
BLACK
6
CONTINUOUS
10
5.2160405905511809
20
-2.0763057480314959
11
5.217556102362205
21
-2.0793367322834646
0
LINE
8
BLACK
6
CONTINUOUS
10
5.217556102362205
20
-2.0793367322834646
11
5.2187532283464568
21
-2.0805338976377952
0
LINE
8
BLACK
6
CONTINUOUS
10
5.2187532283464568
20
-2.0805338976377952
11
5.2214507086614175
21
-2.0818826377952755
0
LINE
8
BLACK
6
CONTINUOUS
10
5.2214507086614175
20
-2.0818826377952755
11
5.2238061417322834
21
-2.0818826377952755
0
LINE
8
BLACK
6
CONTINUOUS
10
5.2238061417322834
20
-2.0818826377952755
11
5.2265035826771653
21
-2.0805338976377952
0
LINE
8
BLACK
6
CONTINUOUS
10
5.2265035826771653
20
-2.0805338976377952
11
5.2277007086614171
21
-2.0793367322834646
0
LINE
8
BLACK
6
CONTINUOUS
10
5.2277007086614171
20
-2.0793367322834646
11
5.2292162204724404
21
-2.0763057480314959
0
LINE
8
BLACK
6
CONTINUOUS
10
5.2292162204724404
20
-2.0763057480314959
11
5.2309242519685037
21
-2.0694737007874013
0
LINE
8
BLACK
6
CONTINUOUS
10
5.2309242519685037
20
-2.0694737007874013
11
5.2309242519685037
21
-2.0608269685039371
0
LINE
8
BLACK
6
CONTINUOUS
10
5.2309242519685037
20
-2.0608269685039371
11
5.2292162204724404
21
-2.0539949212598425
0
LINE
8
BLACK
6
CONTINUOUS
10
5.2292162204724404
20
-2.0539949212598425
11
5.2277007480314959
21
-2.0509639370078738
0
LINE
8
BLACK
6
CONTINUOUS
10
5.2277007480314959
20
-2.0509639370078738
11
5.2265036220472441
21
-2.049766811023622
0
LINE
8
BLACK
6
CONTINUOUS
10
5.2265036220472441
20
-2.049766811023622
11
5.2238061417322834
21
-2.0484180708661417
0
LINE
8
BLACK
6
CONTINUOUS
10
5.2238061417322834
20
-2.0484180708661417
11
5.2214507086614175
21
-2.0484180708661417
0
LINE
8
BLACK
6
CONTINUOUS
10
5.2214507086614175
20
-2.0484180708661417
11
5.2187532283464568
21
-2.049766811023622
0
LINE
8
BLACK
6
CONTINUOUS
10
5.0824007086614174
20
-2.078201338582677
11
5.0825337795275587
21
-2.0781779133858267
0
LINE
8
BLACK
6
CONTINUOUS
10
5.0825337795275587
20
-2.0781779133858267
11
5.0826507086614168
21
-2.0782453937007874
0
LINE
8
BLACK
6
CONTINUOUS
10
5.0826507086614168
20
-2.0782453937007874
11
5.082785236220472
21
-2.0782336614173227
0
LINE
8
BLACK
6
CONTINUOUS
10
5.082785236220472
20
-2.0782336614173227
11
5.0834137795275591
21
-2.0786737795275592
0
LINE
8
BLACK
6
CONTINUOUS
10
5.0834137795275591
20
-2.0786737795275592
11
5.0841089763779523
21
-2.0789979527559055
0
LINE
8
BLACK
6
CONTINUOUS
10
5.0841089763779523
20
-2.0789979527559055
11
5.0859837007874011
21
-2.080872716535433
0
LINE
8
BLACK
6
CONTINUOUS
10
5.0859837007874011
20
-2.080872716535433
11
5.0862070866141735
21
-2.0811917322834645
0
LINE
8
BLACK
6
CONTINUOUS
10
5.0862070866141735
20
-2.0811917322834645
11
5.0863145669291336
21
-2.0812670078740156
0
LINE
8
BLACK
6
CONTINUOUS
10
5.0863145669291336
20
-2.0812670078740156
11
5.0863485039370078
21
-2.0813937007874017
0
LINE
8
BLACK
6
CONTINUOUS
10
5.0863485039370078
20
-2.0813937007874017
11
5.086571929133858
21
-2.0817127952755907
0
LINE
8
BLACK
6
CONTINUOUS
10
5.086571929133858
20
-2.0817127952755907
11
5.08663874015748
21
-2.0824770866141731
0
LINE
8
BLACK
6
CONTINUOUS
10
5.08663874015748
20
-2.0824770866141731
11
5.0868372834645665
21
-2.0832179921259844
0
LINE
8
BLACK
6
CONTINUOUS
10
5.0868372834645665
20
-2.0832179921259844
11
5.0867246850393704
21
-2.0834594094488188
0
LINE
8
BLACK
6
CONTINUOUS
10
5.0867246850393704
20
-2.0834594094488188
11
5.0867479133858264
21
-2.0837248818897636
0
LINE
8
BLACK
6
CONTINUOUS
10
5.0867479133858264
20
-2.0837248818897636
11
5.0863078740157484
21
-2.084353307086614
0
LINE
8
BLACK
6
CONTINUOUS
10
5.0863078740157484
20
-2.084353307086614
11
5.0859837007874011
21
-2.0850485433070864
0
LINE
8
BLACK
6
CONTINUOUS
10
5.0859837007874011
20
-2.0850485433070864
11
5.0841089370078736
21
-2.086923307086614
0
LINE
8
BLACK
6
CONTINUOUS
10
5.0841089370078736
20
-2.086923307086614
11
5.0837898818897633
21
-2.0871466929133859
0
LINE
8
BLACK
6
CONTINUOUS
10
5.0837898818897633
20
-2.0871466929133859
11
5.083714645669291
21
-2.0872541732283465
0
LINE
8
BLACK
6
CONTINUOUS
10
5.083714645669291
20
-2.0872541732283465
11
5.0835878740157483
21
-2.0872881102362206
0
LINE
8
BLACK
6
CONTINUOUS
10
5.0835878740157483
20
-2.0872881102362206
11
5.0835809055118109
21
-2.0872929921259842
0
LINE
8
BLACK
6
CONTINUOUS
10
5.0835809055118109
20
-2.0872929921259842
11
5.0834974015748031
21
-2.0873925590551181
0
LINE
8
BLACK
6
CONTINUOUS
10
5.0834974015748031
20
-2.0873925590551181
11
5.0834190157480315
21
-2.0874063779527559
0
LINE
8
BLACK
6
CONTINUOUS
10
5.0834190157480315
20
-2.0874063779527559
11
5.0832688976377955
21
-2.0875114960629921
0
LINE
8
BLACK
6
CONTINUOUS
10
5.0832688976377955
20
-2.0875114960629921
11
5.082504566929134
21
-2.0875783464566928
0
LINE
8
BLACK
6
CONTINUOUS
10
5.082504566929134
20
-2.0875783464566928
11
5.0817636614173223
21
-2.0877768897637794
0
LINE
8
BLACK
6
CONTINUOUS
10
5.0817636614173223
20
-2.0877768897637794
11
5.0816412992125981
21
-2.087719842519685
0
LINE
8
BLACK
6
CONTINUOUS
10
5.0816412992125981
20
-2.087719842519685
11
5.0815082677165355
21
-2.087743307086614
0
LINE
8
BLACK
6
CONTINUOUS
10
5.0815082677165355
20
-2.087743307086614
11
5.0813912992125987
21
-2.0876757874015746
0
LINE
8
BLACK
6
CONTINUOUS
10
5.0813912992125987
20
-2.0876757874015746
11
5.0812568110236223
21
-2.087687559055118
0
LINE
8
BLACK
6
CONTINUOUS
10
5.0812568110236223
20
-2.087687559055118
11
5.0806283070866138
21
-2.087247440944882
0
LINE
8
BLACK
6
CONTINUOUS
10
5.0806283070866138
20
-2.087247440944882
11
5.0799331102362206
21
-2.086923307086614
0
LINE
8
BLACK
6
CONTINUOUS
10
5.0799331102362206
20
-2.086923307086614
11
5.0780583464566931
21
-2.0850485433070864
0
LINE
8
BLACK
6
CONTINUOUS
10
5.0780583464566931
20
-2.0850485433070864
11
5.0778350000000003
21
-2.0847295669291337
0
LINE
8
BLACK
6
CONTINUOUS
10
5.0778350000000003
20
-2.0847295669291337
11
5.0777274803149606
21
-2.0846542913385826
0
LINE
8
BLACK
6
CONTINUOUS
10
5.0777274803149606
20
-2.0846542913385826
11
5.0776935039370077
21
-2.0845274803149607
0
LINE
8
BLACK
6
CONTINUOUS
10
5.0776935039370077
20
-2.0845274803149607
11
5.0774701574803149
21
-2.084208503937008
0
LINE
8
BLACK
6
CONTINUOUS
10
5.0774701574803149
20
-2.084208503937008
11
5.0774032677165355
21
-2.0834442519685039
0
LINE
8
BLACK
6
CONTINUOUS
10
5.0774032677165355
20
-2.0834442519685039
11
5.0772047637795277
21
-2.0827033070866143
0
LINE
8
BLACK
6
CONTINUOUS
10
5.0772047637795277
20
-2.0827033070866143
11
5.077317322834646
21
-2.0824618897637794
0
LINE
8
BLACK
6
CONTINUOUS
10
5.077317322834646
20
-2.0824618897637794
11
5.077294094488189
21
-2.0821964173228347
0
LINE
8
BLACK
6
CONTINUOUS
10
5.077294094488189
20
-2.0821964173228347
11
5.077734133858268
21
-2.0815679133858267
0
LINE
8
BLACK
6
CONTINUOUS
10
5.077734133858268
20
-2.0815679133858267
11
5.0780583070866143
21
-2.0808727559055118
0
LINE
8
BLACK
6
CONTINUOUS
10
5.0780583070866143
20
-2.0808727559055118
11
5.0799330708661419
21
-2.0789979527559055
0
LINE
8
BLACK
6
CONTINUOUS
10
5.0799330708661419
20
-2.0789979527559055
11
5.0802521259842521
21
-2.0787744881889765
0
LINE
8
BLACK
6
CONTINUOUS
10
5.0802521259842521
20
-2.0787744881889765
11
5.0803274015748032
21
-2.0786670472440942
0
LINE
8
BLACK
6
CONTINUOUS
10
5.0803274015748032
20
-2.0786670472440942
11
5.0804540944881893
21
-2.0786330708661418
0
LINE
8
BLACK
6
CONTINUOUS
10
5.0804540944881893
20
-2.0786330708661418
11
5.0804611023622046
21
-2.078628149606299
0
LINE
8
BLACK
6
CONTINUOUS
10
5.0804611023622046
20
-2.078628149606299
11
5.0805446456692911
21
-2.0785286614173226
0
LINE
8
BLACK
6
CONTINUOUS
10
5.0805446456692911
20
-2.0785286614173226
11
5.0806229527559053
21
-2.0785148425196849
0
LINE
8
BLACK
6
CONTINUOUS
10
5.0806229527559053
20
-2.0785148425196849
11
5.0807731102362199
21
-2.0784097244094486
0
LINE
8
BLACK
6
CONTINUOUS
10
5.0807731102362199
20
-2.0784097244094486
11
5.0815374409448815
21
-2.0783428346456692
0
LINE
8
BLACK
6
CONTINUOUS
10
5.0815374409448815
20
-2.0783428346456692
11
5.0822783858267719
21
-2.0781443307086613
0
LINE
8
BLACK
6
CONTINUOUS
10
5.0822783858267719
20
-2.0781443307086613
11
5.0824007086614174
21
-2.078201338582677
0
LINE
8
BLACK
6
CONTINUOUS
10
5.2930046850393699
20
-2.0558139763779528
11
5.2931399212598427
21
-2.055927440944882
0
LINE
8
BLACK
6
CONTINUOUS
10
5.2931399212598427
20
-2.055927440944882
11
5.293315275590551
21
-2.0559476377952755
0
LINE
8
BLACK
6
CONTINUOUS
10
5.293315275590551
20
-2.0559476377952755
11
5.2970648031496061
21
-2.057822401574803
0
LINE
8
BLACK
6
CONTINUOUS
10
5.2970648031496061
20
-2.057822401574803
11
5.2976347244094484
21
-2.0582450787401574
0
LINE
8
BLACK
6
CONTINUOUS
10
5.2976347244094484
20
-2.0582450787401574
11
5.2978693700787405
21
-2.0581433858267717
0
LINE
8
BLACK
6
CONTINUOUS
10
5.2978693700787405
20
-2.0581433858267717
11
5.2981733070866142
21
-2.057822401574803
0
LINE
8
BLACK
6
CONTINUOUS
10
5.2981733070866142
20
-2.057822401574803
11
5.3019228346456693
21
-2.0559476377952755
0
LINE
8
BLACK
6
CONTINUOUS
10
5.3019228346456693
20
-2.0559476377952755
11
5.3029057480314963
21
-2.0556552755905511
0
LINE
8
BLACK
6
CONTINUOUS
10
5.3029057480314963
20
-2.0556552755905511
11
5.3030774409448815
21
-2.0556962598425197
0
LINE
8
BLACK
6
CONTINUOUS
10
5.3030774409448815
20
-2.0556962598425197
11
5.3032433464566928
21
-2.055635905511811
0
LINE
8
BLACK
6
CONTINUOUS
10
5.3032433464566928
20
-2.055635905511811
11
5.3088676377952755
21
-2.055635905511811
0
LINE
8
BLACK
6
CONTINUOUS
10
5.3088676377952755
20
-2.055635905511811
11
5.3098775590551179
21
-2.0558139763779528
0
LINE
8
BLACK
6
CONTINUOUS
10
5.3098775590551179
20
-2.0558139763779528
11
5.3100127952755907
21
-2.055927440944882
0
LINE
8
BLACK
6
CONTINUOUS
10
5.3100127952755907
20
-2.055927440944882
11
5.310188149606299
21
-2.0559476377952755
0
LINE
8
BLACK
6
CONTINUOUS
10
5.310188149606299
20
-2.0559476377952755
11
5.3139377165354329
21
-2.057822401574803
0
LINE
8
BLACK
6
CONTINUOUS
10
5.3139377165354329
20
-2.057822401574803
11
5.314761377952756
21
-2.0584333070866143
0
LINE
8
BLACK
6
CONTINUOUS
10
5.314761377952756
20
-2.0584333070866143
11
5.3149372047244094
21
-2.0588389763779529
0
LINE
8
BLACK
6
CONTINUOUS
10
5.3149372047244094
20
-2.0588389763779529
11
5.3152582283464564
21
-2.0591429133858266
0
LINE
8
BLACK
6
CONTINUOUS
10
5.3152582283464564
20
-2.0591429133858266
11
5.317132992125984
21
-2.0628924409448817
0
LINE
8
BLACK
6
CONTINUOUS
10
5.317132992125984
20
-2.0628924409448817
11
5.3174253543307088
21
-2.0638753543307087
0
LINE
8
BLACK
6
CONTINUOUS
10
5.3174253543307088
20
-2.0638753543307087
11
5.317384330708661
21
-2.0640470472440944
0
LINE
8
BLACK
6
CONTINUOUS
10
5.317384330708661
20
-2.0640470472440944
11
5.3174447244094489
21
-2.0642129527559057
0
LINE
8
BLACK
6
CONTINUOUS
10
5.3174447244094489
20
-2.0642129527559057
11
5.3174447244094489
21
-2.0848353937007875
0
LINE
8
BLACK
6
CONTINUOUS
10
5.3174447244094489
20
-2.0848353937007875
11
5.3172666535433066
21
-2.08584531496063
0
LINE
8
BLACK
6
CONTINUOUS
10
5.3172666535433066
20
-2.08584531496063
11
5.3159683464566925
21
-2.0873925590551181
0
LINE
8
BLACK
6
CONTINUOUS
10
5.3159683464566925
20
-2.0873925590551181
11
5.3139792125984249
21
-2.087743307086614
0
LINE
8
BLACK
6
CONTINUOUS
10
5.3139792125984249
20
-2.087743307086614
11
5.3122300393700783
21
-2.0867333858267716
0
LINE
8
BLACK
6
CONTINUOUS
10
5.3122300393700783
20
-2.0867333858267716
11
5.3115392125984249
21
-2.0848353937007875
0
LINE
8
BLACK
6
CONTINUOUS
10
5.3115392125984249
20
-2.0848353937007875
11
5.3115392125984249
21
-2.0649099999999998
0
LINE
8
BLACK
6
CONTINUOUS
10
5.3115392125984249
20
-2.0649099999999998
11
5.3104163385826775
21
-2.0626642519685037
0
LINE
8
BLACK
6
CONTINUOUS
10
5.3104163385826775
20
-2.0626642519685037
11
5.3081705905511809
21
-2.0615414173228346
0
LINE
8
BLACK
6
CONTINUOUS
10
5.3081705905511809
20
-2.0615414173228346
11
5.3039403937007874
21
-2.0615414173228346
0
LINE
8
BLACK
6
CONTINUOUS
10
5.3039403937007874
20
-2.0615414173228346
11
5.3016946456692908
21
-2.0626642519685037
0
LINE
8
BLACK
6
CONTINUOUS
10
5.3016946456692908
20
-2.0626642519685037
11
5.3005718110236222
21
-2.0649099999999998
0
LINE
8
BLACK
6
CONTINUOUS
10
5.3005718110236222
20
-2.0649099999999998
11
5.3005718110236222
21
-2.0848353937007875
0
LINE
8
BLACK
6
CONTINUOUS
10
5.3005718110236222
20
-2.0848353937007875
11
5.3003937401574799
21
-2.08584531496063
0
LINE
8
BLACK
6
CONTINUOUS
10
5.3003937401574799
20
-2.08584531496063
11
5.2990954330708657
21
-2.0873925590551181
0
LINE
8
BLACK
6
CONTINUOUS
10
5.2990954330708657
20
-2.0873925590551181
11
5.2971062992125981
21
-2.087743307086614
0
LINE
8
BLACK
6
CONTINUOUS
10
5.2971062992125981
20
-2.087743307086614
11
5.2953571259842516
21
-2.0867333858267716
0
LINE
8
BLACK
6
CONTINUOUS
10
5.2953571259842516
20
-2.0867333858267716
11
5.2946662992125981
21
-2.0848353937007875
0
LINE
8
BLACK
6
CONTINUOUS
10
5.2946662992125981
20
-2.0848353937007875
11
5.2946662992125981
21
-2.0649099999999998
0
LINE
8
BLACK
6
CONTINUOUS
10
5.2946662992125981
20
-2.0649099999999998
11
5.2935434251968498
21
-2.0626642519685037
0
LINE
8
BLACK
6
CONTINUOUS
10
5.2935434251968498
20
-2.0626642519685037
11
5.2912977165354329
21
-2.0615414173228346
0
LINE
8
BLACK
6
CONTINUOUS
10
5.2912977165354329
20
-2.0615414173228346
11
5.2870675196850394
21
-2.0615414173228346
0
LINE
8
BLACK
6
CONTINUOUS
10
5.2870675196850394
20
-2.0615414173228346
11
5.2843700393700788
21
-2.0628901574803149
0
LINE
8
BLACK
6
CONTINUOUS
10
5.2843700393700788
20
-2.0628901574803149
11
5.2836989370078742
21
-2.0635612598425195
0
LINE
8
BLACK
6
CONTINUOUS
10
5.2836989370078742
20
-2.0635612598425195
11
5.2836989370078742
21
-2.0848353937007875
0
LINE
8
BLACK
6
CONTINUOUS
10
5.2836989370078742
20
-2.0848353937007875
11
5.2835208661417319
21
-2.08584531496063
0
LINE
8
BLACK
6
CONTINUOUS
10
5.2835208661417319
20
-2.08584531496063
11
5.2822225590551177
21
-2.0873925590551181
0
LINE
8
BLACK
6
CONTINUOUS
10
5.2822225590551177
20
-2.0873925590551181
11
5.2802334251968501
21
-2.087743307086614
0
LINE
8
BLACK
6
CONTINUOUS
10
5.2802334251968501
20
-2.087743307086614
11
5.2784842519685036
21
-2.0867333858267716
0
LINE
8
BLACK
6
CONTINUOUS
10
5.2784842519685036
20
-2.0867333858267716
11
5.2777934251968501
21
-2.0848353937007875
0
LINE
8
BLACK
6
CONTINUOUS
10
5.2777934251968501
20
-2.0848353937007875
11
5.2777934251968501
21
-2.058588661417323
0
LINE
8
BLACK
6
CONTINUOUS
10
5.2777934251968501
20
-2.058588661417323
11
5.2779714960629924
21
-2.0575787401574801
0
LINE
8
BLACK
6
CONTINUOUS
10
5.2779714960629924
20
-2.0575787401574801
11
5.2792698031496066
21
-2.056031496062992
0
LINE
8
BLACK
6
CONTINUOUS
10
5.2792698031496066
20
-2.056031496062992
11
5.2812589370078742
21
-2.055680748031496
0
LINE
8
BLACK
6
CONTINUOUS
10
5.2812589370078742
20
-2.055680748031496
11
5.2830081102362207
21
-2.0566906692913385
0
LINE
8
BLACK
6
CONTINUOUS
10
5.2830081102362207
20
-2.0566906692913385
11
5.2830936614173227
21
-2.056925748031496
0
LINE
8
BLACK
6
CONTINUOUS
10
5.2830936614173227
20
-2.056925748031496
11
5.2850499606299213
21
-2.0559476377952755
0
LINE
8
BLACK
6
CONTINUOUS
10
5.2850499606299213
20
-2.0559476377952755
11
5.2860328740157483
21
-2.0556552755905511
0
LINE
8
BLACK
6
CONTINUOUS
10
5.2860328740157483
20
-2.0556552755905511
11
5.2862045669291335
21
-2.0556962598425197
0
LINE
8
BLACK
6
CONTINUOUS
10
5.2862045669291335
20
-2.0556962598425197
11
5.2863704724409448
21
-2.055635905511811
0
LINE
8
BLACK
6
CONTINUOUS
10
5.2863704724409448
20
-2.055635905511811
11
5.2919947637795275
21
-2.055635905511811
0
LINE
8
BLACK
6
CONTINUOUS
10
5.2919947637795275
20
-2.055635905511811
11
5.2930046850393699
21
-2.0558139763779528
0
LINE
8
BLACK
6
CONTINUOUS
10
5.3454981102362202
20
-2.0558139763779528
11
5.345633346456693
21
-2.055927440944882
0
LINE
8
BLACK
6
CONTINUOUS
10
5.345633346456693
20
-2.055927440944882
11
5.3458087007874013
21
-2.0559476377952755
0
LINE
8
BLACK
6
CONTINUOUS
10
5.3458087007874013
20
-2.0559476377952755
11
5.3495582283464564
21
-2.057822401574803
0
LINE
8
BLACK
6
CONTINUOUS
10
5.3495582283464564
20
-2.057822401574803
11
5.3501281496062987
21
-2.0582450787401574
0
LINE
8
BLACK
6
CONTINUOUS
10
5.3501281496062987
20
-2.0582450787401574
11
5.3503627952755908
21
-2.0581433858267717
0
LINE
8
BLACK
6
CONTINUOUS
10
5.3503627952755908
20
-2.0581433858267717
11
5.3506667322834645
21
-2.057822401574803
0
LINE
8
BLACK
6
CONTINUOUS
10
5.3506667322834645
20
-2.057822401574803
11
5.3544162598425196
21
-2.0559476377952755
0
LINE
8
BLACK
6
CONTINUOUS
10
5.3544162598425196
20
-2.0559476377952755
11
5.3553991732283466
21
-2.0556552755905511
0
LINE
8
BLACK
6
CONTINUOUS
10
5.3553991732283466
20
-2.0556552755905511
11
5.3555708661417318
21
-2.0556962598425197
0
LINE
8
BLACK
6
CONTINUOUS
10
5.3555708661417318
20
-2.0556962598425197
11
5.3557367716535431
21
-2.055635905511811
0
LINE
8
BLACK
6
CONTINUOUS
10
5.3557367716535431
20
-2.055635905511811
11
5.3613610629921258
21
-2.055635905511811
0
LINE
8
BLACK
6
CONTINUOUS
10
5.3613610629921258
20
-2.055635905511811
11
5.3623709842519682
21
-2.0558139763779528
0
LINE
8
BLACK
6
CONTINUOUS
10
5.3623709842519682
20
-2.0558139763779528
11
5.362506220472441
21
-2.055927440944882
0
LINE
8
BLACK
6
CONTINUOUS
10
5.362506220472441
20
-2.055927440944882
11
5.3626815748031493
21
-2.0559476377952755
0
LINE
8
BLACK
6
CONTINUOUS
10
5.3626815748031493
20
-2.0559476377952755
11
5.3664311417322832
21
-2.057822401574803
0
LINE
8
BLACK
6
CONTINUOUS
10
5.3664311417322832
20
-2.057822401574803
11
5.3672548031496063
21
-2.0584333070866143
0
LINE
8
BLACK
6
CONTINUOUS
10
5.3672548031496063
20
-2.0584333070866143
11
5.3674306299212597
21
-2.0588389763779529
0
LINE
8
BLACK
6
CONTINUOUS
10
5.3674306299212597
20
-2.0588389763779529
11
5.3677516535433067
21
-2.0591429133858266
0
LINE
8
BLACK
6
CONTINUOUS
10
5.3677516535433067
20
-2.0591429133858266
11
5.3696264173228343
21
-2.0628924409448817
0
LINE
8
BLACK
6
CONTINUOUS
10
5.3696264173228343
20
-2.0628924409448817
11
5.3699187795275591
21
-2.0638753543307087
0
LINE
8
BLACK
6
CONTINUOUS
10
5.3699187795275591
20
-2.0638753543307087
11
5.3698777559055113
21
-2.0640470472440944
0
LINE
8
BLACK
6
CONTINUOUS
10
5.3698777559055113
20
-2.0640470472440944
11
5.3699381496062992
21
-2.0642129527559057
0
LINE
8
BLACK
6
CONTINUOUS
10
5.3699381496062992
20
-2.0642129527559057
11
5.3699381496062992
21
-2.0848353937007875
0
LINE
8
BLACK
6
CONTINUOUS
10
5.3699381496062992
20
-2.0848353937007875
11
5.3697600787401569
21
-2.08584531496063
0
LINE
8
BLACK
6
CONTINUOUS
10
5.3697600787401569
20
-2.08584531496063
11
5.3684617716535428
21
-2.0873925590551181
0
LINE
8
BLACK
6
CONTINUOUS
10
5.3684617716535428
20
-2.0873925590551181
11
5.3664726377952752
21
-2.087743307086614
0
LINE
8
BLACK
6
CONTINUOUS
10
5.3664726377952752
20
-2.087743307086614
11
5.3647234645669286
21
-2.0867333858267716
0
LINE
8
BLACK
6
CONTINUOUS
10
5.3647234645669286
20
-2.0867333858267716
11
5.3640326377952752
21
-2.0848353937007875
0
LINE
8
BLACK
6
CONTINUOUS
10
5.3640326377952752
20
-2.0848353937007875
11
5.3640326377952752
21
-2.0649099999999998
0
LINE
8
BLACK
6
CONTINUOUS
10
5.3640326377952752
20
-2.0649099999999998
11
5.3629097637795278
21
-2.0626642519685037
0
LINE
8
BLACK
6
CONTINUOUS
10
5.3629097637795278
20
-2.0626642519685037
11
5.3606640157480312
21
-2.0615414173228346
0
LINE
8
BLACK
6
CONTINUOUS
10
5.3606640157480312
20
-2.0615414173228346
11
5.3564338188976377
21
-2.0615414173228346
0
LINE
8
BLACK
6
CONTINUOUS
10
5.3564338188976377
20
-2.0615414173228346
11
5.354188070866142
21
-2.0626642519685037
0
LINE
8
BLACK
6
CONTINUOUS
10
5.354188070866142
20
-2.0626642519685037
11
5.3530652362204725
21
-2.0649099999999998
0
LINE
8
BLACK
6
CONTINUOUS
10
5.3530652362204725
20
-2.0649099999999998
11
5.3530652362204725
21
-2.0848353937007875
0
LINE
8
BLACK
6
CONTINUOUS
10
5.3530652362204725
20
-2.0848353937007875
11
5.3528871653543302
21
-2.08584531496063
0
LINE
8
BLACK
6
CONTINUOUS
10
5.3528871653543302
20
-2.08584531496063
11
5.351588858267716
21
-2.0873925590551181
0
LINE
8
BLACK
6
CONTINUOUS
10
5.351588858267716
20
-2.0873925590551181
11
5.3495997244094484
21
-2.087743307086614
0
LINE
8
BLACK
6
CONTINUOUS
10
5.3495997244094484
20
-2.087743307086614
11
5.3478505511811019
21
-2.0867333858267716
0
LINE
8
BLACK
6
CONTINUOUS
10
5.3478505511811019
20
-2.0867333858267716
11
5.3471597244094484
21
-2.0848353937007875
0
LINE
8
BLACK
6
CONTINUOUS
10
5.3471597244094484
20
-2.0848353937007875
11
5.3471597244094484
21
-2.0649099999999998
0
LINE
8
BLACK
6
CONTINUOUS
10
5.3471597244094484
20
-2.0649099999999998
11
5.346036850393701
21
-2.0626642519685037
0
LINE
8
BLACK
6
CONTINUOUS
10
5.346036850393701
20
-2.0626642519685037
11
5.3437911417322832
21
-2.0615414173228346
0
LINE
8
BLACK
6
CONTINUOUS
10
5.3437911417322832
20
-2.0615414173228346
11
5.3395609448818897
21
-2.0615414173228346
0
LINE
8
BLACK
6
CONTINUOUS
10
5.3395609448818897
20
-2.0615414173228346
11
5.3368634645669291
21
-2.0628901574803149
0
LINE
8
BLACK
6
CONTINUOUS
10
5.3368634645669291
20
-2.0628901574803149
11
5.3361923622047245
21
-2.0635612598425195
0
LINE
8
BLACK
6
CONTINUOUS
10
5.3361923622047245
20
-2.0635612598425195
11
5.3361923622047245
21
-2.0848353937007875
0
LINE
8
BLACK
6
CONTINUOUS
10
5.3361923622047245
20
-2.0848353937007875
11
5.3360142913385822
21
-2.08584531496063
0
LINE
8
BLACK
6
CONTINUOUS
10
5.3360142913385822
20
-2.08584531496063
11
5.334715984251968
21
-2.0873925590551181
0
LINE
8
BLACK
6
CONTINUOUS
10
5.334715984251968
20
-2.0873925590551181
11
5.3327268503937004
21
-2.087743307086614
0
LINE
8
BLACK
6
CONTINUOUS
10
5.3327268503937004
20
-2.087743307086614
11
5.3309776771653539
21
-2.0867333858267716
0
LINE
8
BLACK
6
CONTINUOUS
10
5.3309776771653539
20
-2.0867333858267716
11
5.3302868503937004
21
-2.0848353937007875
0
LINE
8
BLACK
6
CONTINUOUS
10
5.3302868503937004
20
-2.0848353937007875
11
5.3302868503937004
21
-2.058588661417323
0
LINE
8
BLACK
6
CONTINUOUS
10
5.3302868503937004
20
-2.058588661417323
11
5.3304649212598427
21
-2.0575787401574801
0
LINE
8
BLACK
6
CONTINUOUS
10
5.3304649212598427
20
-2.0575787401574801
11
5.3317632283464569
21
-2.056031496062992
0
LINE
8
BLACK
6
CONTINUOUS
10
5.3317632283464569
20
-2.056031496062992
11
5.3337523622047245
21
-2.055680748031496
0
LINE
8
BLACK
6
CONTINUOUS
10
5.3337523622047245
20
-2.055680748031496
11
5.335501535433071
21
-2.0566906692913385
0
LINE
8
BLACK
6
CONTINUOUS
10
5.335501535433071
20
-2.0566906692913385
11
5.335587086614173
21
-2.056925748031496
0
LINE
8
BLACK
6
CONTINUOUS
10
5.335587086614173
20
-2.056925748031496
11
5.3375433858267716
21
-2.0559476377952755
0
LINE
8
BLACK
6
CONTINUOUS
10
5.3375433858267716
20
-2.0559476377952755
11
5.3385262992125986
21
-2.0556552755905511
0
LINE
8
BLACK
6
CONTINUOUS
10
5.3385262992125986
20
-2.0556552755905511
11
5.3386979921259838
21
-2.0556962598425197
0
LINE
8
BLACK
6
CONTINUOUS
10
5.3386979921259838
20
-2.0556962598425197
11
5.3388638976377951
21
-2.055635905511811
0
LINE
8
BLACK
6
CONTINUOUS
10
5.3388638976377951
20
-2.055635905511811
11
5.3444881889763778
21
-2.055635905511811
0
LINE
8
BLACK
6
CONTINUOUS
10
5.3444881889763778
20
-2.055635905511811
11
5.3454981102362202
21
-2.0558139763779528
  0
ENDSEC
  0
EOF
