%TF.GenerationSoftware,KiCad,Pcbnew,7.0.9*%
%TF.CreationDate,2023-12-12T23:07:43+09:00*%
%TF.ProjectId,shikisaku,7368696b-6973-4616-9b75-2e6b69636164,rev?*%
%TF.SameCoordinates,Original*%
%TF.FileFunction,Profile,NP*%
%FSLAX46Y46*%
G04 Gerber Fmt 4.6, Leading zero omitted, Abs format (unit mm)*
G04 Created by KiCad (PCBNEW 7.0.9) date 2023-12-12 23:07:43*
%MOMM*%
%LPD*%
G01*
G04 APERTURE LIST*
%TA.AperFunction,Profile*%
%ADD10C,0.100000*%
%TD*%
G04 APERTURE END LIST*
D10*
X144295000Y-63100000D02*
X144295000Y-60000000D01*
X140795000Y-63100000D02*
X144295000Y-63100000D01*
X140795000Y-60000000D02*
X140795000Y-63100000D01*
X122705000Y-63100000D02*
X122705000Y-60000000D01*
X119205000Y-63100000D02*
X122705000Y-63100000D01*
X119205000Y-60000000D02*
X119205000Y-63100000D01*
X103100000Y-79205000D02*
X100000000Y-79205000D01*
X103100000Y-82705000D02*
X103100000Y-79205000D01*
X100000000Y-82705000D02*
X103100000Y-82705000D01*
X103100000Y-100795000D02*
X100000000Y-100795000D01*
X103100000Y-104295000D02*
X103100000Y-100795000D01*
X100000000Y-104295000D02*
X103100000Y-104295000D01*
X119205000Y-120400000D02*
X119205000Y-123500000D01*
X122705000Y-120400000D02*
X119205000Y-120400000D01*
X122705000Y-123500000D02*
X122705000Y-120400000D01*
X140795000Y-120400000D02*
X140795000Y-123500000D01*
X144295000Y-120400000D02*
X140795000Y-120400000D01*
X144295000Y-123500000D02*
X144295000Y-120400000D01*
X160400000Y-104295000D02*
X163500000Y-104295000D01*
X160400000Y-100795000D02*
X160400000Y-104295000D01*
X163500000Y-100795000D02*
X160400000Y-100795000D01*
X160400000Y-82705000D02*
X163500000Y-82705000D01*
X160400000Y-79205000D02*
X160400000Y-82705000D01*
X163500000Y-79205000D02*
X160400000Y-79205000D01*
X144295000Y-60000000D02*
X163500000Y-60000000D01*
X122705000Y-60000000D02*
X140795000Y-60000000D01*
X100000000Y-60000000D02*
X119205000Y-60000000D01*
X100000000Y-79205000D02*
X100000000Y-60000000D01*
X100000000Y-100795000D02*
X100000000Y-82705000D01*
X100000000Y-123500000D02*
X100000000Y-104295000D01*
X119205000Y-123500000D02*
X100000000Y-123500000D01*
X140795000Y-123500000D02*
X122705000Y-123500000D01*
X163500000Y-123500000D02*
X144295000Y-123500000D01*
X163500000Y-104295000D02*
X163500000Y-123500000D01*
X163500000Y-82705000D02*
X163500000Y-100795000D01*
X163500000Y-60000000D02*
X163500000Y-79205000D01*
M02*
