%TF.GenerationSoftware,KiCad,Pcbnew,7.0.9*%
%TF.CreationDate,2023-12-12T23:07:43+09:00*%
%TF.ProjectId,shikisaku,7368696b-6973-4616-9b75-2e6b69636164,rev?*%
%TF.SameCoordinates,Original*%
%TF.FileFunction,Soldermask,Top*%
%TF.FilePolarity,Negative*%
%FSLAX46Y46*%
G04 Gerber Fmt 4.6, Leading zero omitted, Abs format (unit mm)*
G04 Created by KiCad (PCBNEW 7.0.9) date 2023-12-12 23:07:43*
%MOMM*%
%LPD*%
G01*
G04 APERTURE LIST*
G04 Aperture macros list*
%AMRoundRect*
0 Rectangle with rounded corners*
0 $1 Rounding radius*
0 $2 $3 $4 $5 $6 $7 $8 $9 X,Y pos of 4 corners*
0 Add a 4 corners polygon primitive as box body*
4,1,4,$2,$3,$4,$5,$6,$7,$8,$9,$2,$3,0*
0 Add four circle primitives for the rounded corners*
1,1,$1+$1,$2,$3*
1,1,$1+$1,$4,$5*
1,1,$1+$1,$6,$7*
1,1,$1+$1,$8,$9*
0 Add four rect primitives between the rounded corners*
20,1,$1+$1,$2,$3,$4,$5,0*
20,1,$1+$1,$4,$5,$6,$7,0*
20,1,$1+$1,$6,$7,$8,$9,0*
20,1,$1+$1,$8,$9,$2,$3,0*%
%AMOutline5P*
0 Free polygon, 5 corners , with rotation*
0 The origin of the aperture is its center*
0 number of corners: always 5*
0 $1 to $10 corner X, Y*
0 $11 Rotation angle, in degrees counterclockwise*
0 create outline with 5 corners*
4,1,5,$1,$2,$3,$4,$5,$6,$7,$8,$9,$10,$1,$2,$11*%
%AMOutline6P*
0 Free polygon, 6 corners , with rotation*
0 The origin of the aperture is its center*
0 number of corners: always 6*
0 $1 to $12 corner X, Y*
0 $13 Rotation angle, in degrees counterclockwise*
0 create outline with 6 corners*
4,1,6,$1,$2,$3,$4,$5,$6,$7,$8,$9,$10,$11,$12,$1,$2,$13*%
%AMOutline7P*
0 Free polygon, 7 corners , with rotation*
0 The origin of the aperture is its center*
0 number of corners: always 7*
0 $1 to $14 corner X, Y*
0 $15 Rotation angle, in degrees counterclockwise*
0 create outline with 7 corners*
4,1,7,$1,$2,$3,$4,$5,$6,$7,$8,$9,$10,$11,$12,$13,$14,$1,$2,$15*%
%AMOutline8P*
0 Free polygon, 8 corners , with rotation*
0 The origin of the aperture is its center*
0 number of corners: always 8*
0 $1 to $16 corner X, Y*
0 $17 Rotation angle, in degrees counterclockwise*
0 create outline with 8 corners*
4,1,8,$1,$2,$3,$4,$5,$6,$7,$8,$9,$10,$11,$12,$13,$14,$15,$16,$1,$2,$17*%
G04 Aperture macros list end*
%ADD10R,0.820000X1.800000*%
%ADD11Outline5P,-0.900000X0.410000X0.654000X0.410000X0.900000X0.164000X0.900000X-0.410000X-0.900000X-0.410000X270.000000*%
%ADD12R,1.800000X0.820000*%
%ADD13Outline5P,-0.900000X0.410000X0.654000X0.410000X0.900000X0.164000X0.900000X-0.410000X-0.900000X-0.410000X180.000000*%
%ADD14Outline5P,-0.900000X0.410000X0.654000X0.410000X0.900000X0.164000X0.900000X-0.410000X-0.900000X-0.410000X90.000000*%
%ADD15Outline5P,-0.900000X0.410000X0.654000X0.410000X0.900000X0.164000X0.900000X-0.410000X-0.900000X-0.410000X0.000000*%
%ADD16RoundRect,0.250000X0.600000X0.750000X-0.600000X0.750000X-0.600000X-0.750000X0.600000X-0.750000X0*%
%ADD17O,1.700000X2.000000*%
%ADD18RoundRect,0.250000X-0.750000X0.600000X-0.750000X-0.600000X0.750000X-0.600000X0.750000X0.600000X0*%
%ADD19O,2.000000X1.700000*%
%ADD20R,1.600000X1.600000*%
%ADD21C,1.600000*%
%ADD22C,3.200000*%
%ADD23C,1.500000*%
%ADD24RoundRect,0.250000X-0.600000X-0.750000X0.600000X-0.750000X0.600000X0.750000X-0.600000X0.750000X0*%
%ADD25R,2.250000X2.250000*%
%ADD26C,2.250000*%
%ADD27RoundRect,0.250000X0.475000X-0.337500X0.475000X0.337500X-0.475000X0.337500X-0.475000X-0.337500X0*%
%ADD28O,1.600000X1.600000*%
%ADD29RoundRect,0.250000X0.725000X-0.600000X0.725000X0.600000X-0.725000X0.600000X-0.725000X-0.600000X0*%
%ADD30O,1.950000X1.700000*%
%ADD31C,1.778000*%
G04 APERTURE END LIST*
D10*
%TO.C,D5*%
X161200000Y-78005000D03*
X162700000Y-78005000D03*
D11*
X162700000Y-83905000D03*
D10*
X161200000Y-83905000D03*
%TD*%
D12*
%TO.C,D2*%
X123905000Y-121200000D03*
X123905000Y-122700000D03*
D13*
X118005000Y-122700000D03*
D12*
X118005000Y-121200000D03*
%TD*%
D10*
%TO.C,D8*%
X102300000Y-83905000D03*
X100800000Y-83905000D03*
D14*
X100800000Y-78005000D03*
D10*
X102300000Y-78005000D03*
%TD*%
%TO.C,D4*%
X161200000Y-99595000D03*
X162700000Y-99595000D03*
D11*
X162700000Y-105495000D03*
D10*
X161200000Y-105495000D03*
%TD*%
%TO.C,D1*%
X102300000Y-105495000D03*
X100800000Y-105495000D03*
D14*
X100800000Y-99595000D03*
D10*
X102300000Y-99595000D03*
%TD*%
D12*
%TO.C,D3*%
X145495000Y-121200000D03*
X145495000Y-122700000D03*
D13*
X139595000Y-122700000D03*
D12*
X139595000Y-121200000D03*
%TD*%
%TO.C,D6*%
X139595000Y-62300000D03*
X139595000Y-60800000D03*
D15*
X145495000Y-60800000D03*
D12*
X145495000Y-62300000D03*
%TD*%
%TO.C,D7*%
X118005000Y-62300000D03*
X118005000Y-60800000D03*
D15*
X123905000Y-60800000D03*
D12*
X123905000Y-62300000D03*
%TD*%
D16*
%TO.C,SW_POWER*%
X120955000Y-93020000D03*
D17*
X118455000Y-93020000D03*
%TD*%
D18*
%TO.C,BATT*%
X109800000Y-90500000D03*
D19*
X109800000Y-93000000D03*
%TD*%
D20*
%TO.C,U1*%
X105080000Y-85400000D03*
D21*
X107620000Y-85400000D03*
X110160000Y-85400000D03*
X112700000Y-85400000D03*
X115240000Y-85400000D03*
X117780000Y-85400000D03*
X120320000Y-85400000D03*
X122860000Y-85400000D03*
X125400000Y-85400000D03*
X127940000Y-85400000D03*
X130480000Y-85400000D03*
X133020000Y-85400000D03*
X133020000Y-70160000D03*
X130480000Y-70160000D03*
X127940000Y-70160000D03*
X125400000Y-70160000D03*
X122860000Y-70160000D03*
X120320000Y-70160000D03*
X117780000Y-70160000D03*
X115240000Y-70160000D03*
X112700000Y-70160000D03*
X110160000Y-70160000D03*
X107620000Y-70160000D03*
X105080000Y-70160000D03*
%TD*%
D22*
%TO.C,H4*%
X104000000Y-119500000D03*
%TD*%
D23*
%TO.C,U5*%
X120955000Y-98070000D03*
X118415000Y-98070000D03*
X115875000Y-98070000D03*
X115875000Y-105690000D03*
X118415000Y-105690000D03*
X120955000Y-105690000D03*
%TD*%
D24*
%TO.C,SW_KEY*%
X130520000Y-63810000D03*
D17*
X133020000Y-63810000D03*
%TD*%
D22*
%TO.C,H3*%
X159500000Y-119500000D03*
%TD*%
D25*
%TO.C,SW_RST*%
X116510000Y-65080000D03*
D26*
X110010000Y-65080000D03*
%TD*%
D27*
%TO.C,C1*%
X112700000Y-105720000D03*
X112700000Y-103645000D03*
%TD*%
D22*
%TO.C,H2*%
X159500000Y-64000000D03*
%TD*%
%TO.C,H1*%
X104000000Y-64000000D03*
%TD*%
D21*
%TO.C,R1*%
X112700000Y-99370000D03*
D28*
X105080000Y-99370000D03*
%TD*%
D29*
%TO.C,U3_H*%
X140005000Y-81510000D03*
D30*
X140005000Y-79010000D03*
X140005000Y-76510000D03*
X140005000Y-74010000D03*
%TD*%
D29*
%TO.C,U4_V*%
X148895000Y-81510000D03*
D30*
X148895000Y-79010000D03*
X148895000Y-76510000D03*
X148895000Y-74010000D03*
%TD*%
D22*
%TO.C,U2*%
X126670000Y-90480000D03*
X126670000Y-103180000D03*
X146990000Y-90480000D03*
X146990000Y-103180000D03*
D31*
X131750000Y-90480000D03*
X134290000Y-90480000D03*
X136830000Y-90480000D03*
X139370000Y-90480000D03*
X141910000Y-90480000D03*
%TD*%
M02*
