%TF.GenerationSoftware,KiCad,Pcbnew,7.0.9*%
%TF.CreationDate,2023-12-12T23:07:43+09:00*%
%TF.ProjectId,shikisaku,7368696b-6973-4616-9b75-2e6b69636164,rev?*%
%TF.SameCoordinates,Original*%
%TF.FileFunction,Legend,Bot*%
%TF.FilePolarity,Positive*%
%FSLAX46Y46*%
G04 Gerber Fmt 4.6, Leading zero omitted, Abs format (unit mm)*
G04 Created by KiCad (PCBNEW 7.0.9) date 2023-12-12 23:07:43*
%MOMM*%
%LPD*%
G01*
G04 APERTURE LIST*
%ADD10C,0.153000*%
%ADD11C,0.100000*%
%ADD12C,0.120000*%
G04 APERTURE END LIST*
D10*
X101994663Y-87130951D02*
X102708948Y-87130951D01*
X102708948Y-87130951D02*
X102851805Y-87083332D01*
X102851805Y-87083332D02*
X102947044Y-86988094D01*
X102947044Y-86988094D02*
X102994663Y-86845237D01*
X102994663Y-86845237D02*
X102994663Y-86749999D01*
X102994663Y-88083332D02*
X102994663Y-87607142D01*
X102994663Y-87607142D02*
X101994663Y-87607142D01*
X102899424Y-88988094D02*
X102947044Y-88940475D01*
X102947044Y-88940475D02*
X102994663Y-88797618D01*
X102994663Y-88797618D02*
X102994663Y-88702380D01*
X102994663Y-88702380D02*
X102947044Y-88559523D01*
X102947044Y-88559523D02*
X102851805Y-88464285D01*
X102851805Y-88464285D02*
X102756567Y-88416666D01*
X102756567Y-88416666D02*
X102566091Y-88369047D01*
X102566091Y-88369047D02*
X102423234Y-88369047D01*
X102423234Y-88369047D02*
X102232758Y-88416666D01*
X102232758Y-88416666D02*
X102137520Y-88464285D01*
X102137520Y-88464285D02*
X102042282Y-88559523D01*
X102042282Y-88559523D02*
X101994663Y-88702380D01*
X101994663Y-88702380D02*
X101994663Y-88797618D01*
X101994663Y-88797618D02*
X102042282Y-88940475D01*
X102042282Y-88940475D02*
X102089901Y-88988094D01*
X101994663Y-89702380D02*
X102708948Y-89702380D01*
X102708948Y-89702380D02*
X102851805Y-89654761D01*
X102851805Y-89654761D02*
X102947044Y-89559523D01*
X102947044Y-89559523D02*
X102994663Y-89416666D01*
X102994663Y-89416666D02*
X102994663Y-89321428D01*
X102994663Y-90654761D02*
X102994663Y-90178571D01*
X102994663Y-90178571D02*
X101994663Y-90178571D01*
X102899424Y-91559523D02*
X102947044Y-91511904D01*
X102947044Y-91511904D02*
X102994663Y-91369047D01*
X102994663Y-91369047D02*
X102994663Y-91273809D01*
X102994663Y-91273809D02*
X102947044Y-91130952D01*
X102947044Y-91130952D02*
X102851805Y-91035714D01*
X102851805Y-91035714D02*
X102756567Y-90988095D01*
X102756567Y-90988095D02*
X102566091Y-90940476D01*
X102566091Y-90940476D02*
X102423234Y-90940476D01*
X102423234Y-90940476D02*
X102232758Y-90988095D01*
X102232758Y-90988095D02*
X102137520Y-91035714D01*
X102137520Y-91035714D02*
X102042282Y-91130952D01*
X102042282Y-91130952D02*
X101994663Y-91273809D01*
X101994663Y-91273809D02*
X101994663Y-91369047D01*
X101994663Y-91369047D02*
X102042282Y-91511904D01*
X102042282Y-91511904D02*
X102089901Y-91559523D01*
X101994663Y-92273809D02*
X102708948Y-92273809D01*
X102708948Y-92273809D02*
X102851805Y-92226190D01*
X102851805Y-92226190D02*
X102947044Y-92130952D01*
X102947044Y-92130952D02*
X102994663Y-91988095D01*
X102994663Y-91988095D02*
X102994663Y-91892857D01*
X102994663Y-93226190D02*
X102994663Y-92750000D01*
X102994663Y-92750000D02*
X101994663Y-92750000D01*
X102899424Y-94130952D02*
X102947044Y-94083333D01*
X102947044Y-94083333D02*
X102994663Y-93940476D01*
X102994663Y-93940476D02*
X102994663Y-93845238D01*
X102994663Y-93845238D02*
X102947044Y-93702381D01*
X102947044Y-93702381D02*
X102851805Y-93607143D01*
X102851805Y-93607143D02*
X102756567Y-93559524D01*
X102756567Y-93559524D02*
X102566091Y-93511905D01*
X102566091Y-93511905D02*
X102423234Y-93511905D01*
X102423234Y-93511905D02*
X102232758Y-93559524D01*
X102232758Y-93559524D02*
X102137520Y-93607143D01*
X102137520Y-93607143D02*
X102042282Y-93702381D01*
X102042282Y-93702381D02*
X101994663Y-93845238D01*
X101994663Y-93845238D02*
X101994663Y-93940476D01*
X101994663Y-93940476D02*
X102042282Y-94083333D01*
X102042282Y-94083333D02*
X102089901Y-94130952D01*
X101994663Y-94845238D02*
X102708948Y-94845238D01*
X102708948Y-94845238D02*
X102851805Y-94797619D01*
X102851805Y-94797619D02*
X102947044Y-94702381D01*
X102947044Y-94702381D02*
X102994663Y-94559524D01*
X102994663Y-94559524D02*
X102994663Y-94464286D01*
X102994663Y-95797619D02*
X102994663Y-95321429D01*
X102994663Y-95321429D02*
X101994663Y-95321429D01*
X102899424Y-96702381D02*
X102947044Y-96654762D01*
X102947044Y-96654762D02*
X102994663Y-96511905D01*
X102994663Y-96511905D02*
X102994663Y-96416667D01*
X102994663Y-96416667D02*
X102947044Y-96273810D01*
X102947044Y-96273810D02*
X102851805Y-96178572D01*
X102851805Y-96178572D02*
X102756567Y-96130953D01*
X102756567Y-96130953D02*
X102566091Y-96083334D01*
X102566091Y-96083334D02*
X102423234Y-96083334D01*
X102423234Y-96083334D02*
X102232758Y-96130953D01*
X102232758Y-96130953D02*
X102137520Y-96178572D01*
X102137520Y-96178572D02*
X102042282Y-96273810D01*
X102042282Y-96273810D02*
X101994663Y-96416667D01*
X101994663Y-96416667D02*
X101994663Y-96511905D01*
X101994663Y-96511905D02*
X102042282Y-96654762D01*
X102042282Y-96654762D02*
X102089901Y-96702381D01*
X156922044Y-78940475D02*
X156969663Y-79083332D01*
X156969663Y-79083332D02*
X156969663Y-79321427D01*
X156969663Y-79321427D02*
X156922044Y-79416665D01*
X156922044Y-79416665D02*
X156874424Y-79464284D01*
X156874424Y-79464284D02*
X156779186Y-79511903D01*
X156779186Y-79511903D02*
X156683948Y-79511903D01*
X156683948Y-79511903D02*
X156588710Y-79464284D01*
X156588710Y-79464284D02*
X156541091Y-79416665D01*
X156541091Y-79416665D02*
X156493472Y-79321427D01*
X156493472Y-79321427D02*
X156445853Y-79130951D01*
X156445853Y-79130951D02*
X156398234Y-79035713D01*
X156398234Y-79035713D02*
X156350615Y-78988094D01*
X156350615Y-78988094D02*
X156255377Y-78940475D01*
X156255377Y-78940475D02*
X156160139Y-78940475D01*
X156160139Y-78940475D02*
X156064901Y-78988094D01*
X156064901Y-78988094D02*
X156017282Y-79035713D01*
X156017282Y-79035713D02*
X155969663Y-79130951D01*
X155969663Y-79130951D02*
X155969663Y-79369046D01*
X155969663Y-79369046D02*
X156017282Y-79511903D01*
X156969663Y-79940475D02*
X155969663Y-79940475D01*
X156969663Y-80369046D02*
X156445853Y-80369046D01*
X156445853Y-80369046D02*
X156350615Y-80321427D01*
X156350615Y-80321427D02*
X156302996Y-80226189D01*
X156302996Y-80226189D02*
X156302996Y-80083332D01*
X156302996Y-80083332D02*
X156350615Y-79988094D01*
X156350615Y-79988094D02*
X156398234Y-79940475D01*
X156969663Y-80845237D02*
X156302996Y-80845237D01*
X155969663Y-80845237D02*
X156017282Y-80797618D01*
X156017282Y-80797618D02*
X156064901Y-80845237D01*
X156064901Y-80845237D02*
X156017282Y-80892856D01*
X156017282Y-80892856D02*
X155969663Y-80845237D01*
X155969663Y-80845237D02*
X156064901Y-80845237D01*
X156969663Y-81321427D02*
X155969663Y-81321427D01*
X156588710Y-81416665D02*
X156969663Y-81702379D01*
X156302996Y-81702379D02*
X156683948Y-81321427D01*
X156969663Y-82130951D02*
X156302996Y-82130951D01*
X155969663Y-82130951D02*
X156017282Y-82083332D01*
X156017282Y-82083332D02*
X156064901Y-82130951D01*
X156064901Y-82130951D02*
X156017282Y-82178570D01*
X156017282Y-82178570D02*
X155969663Y-82130951D01*
X155969663Y-82130951D02*
X156064901Y-82130951D01*
X156922044Y-82559522D02*
X156969663Y-82654760D01*
X156969663Y-82654760D02*
X156969663Y-82845236D01*
X156969663Y-82845236D02*
X156922044Y-82940474D01*
X156922044Y-82940474D02*
X156826805Y-82988093D01*
X156826805Y-82988093D02*
X156779186Y-82988093D01*
X156779186Y-82988093D02*
X156683948Y-82940474D01*
X156683948Y-82940474D02*
X156636329Y-82845236D01*
X156636329Y-82845236D02*
X156636329Y-82702379D01*
X156636329Y-82702379D02*
X156588710Y-82607141D01*
X156588710Y-82607141D02*
X156493472Y-82559522D01*
X156493472Y-82559522D02*
X156445853Y-82559522D01*
X156445853Y-82559522D02*
X156350615Y-82607141D01*
X156350615Y-82607141D02*
X156302996Y-82702379D01*
X156302996Y-82702379D02*
X156302996Y-82845236D01*
X156302996Y-82845236D02*
X156350615Y-82940474D01*
X156969663Y-83845236D02*
X156445853Y-83845236D01*
X156445853Y-83845236D02*
X156350615Y-83797617D01*
X156350615Y-83797617D02*
X156302996Y-83702379D01*
X156302996Y-83702379D02*
X156302996Y-83511903D01*
X156302996Y-83511903D02*
X156350615Y-83416665D01*
X156922044Y-83845236D02*
X156969663Y-83749998D01*
X156969663Y-83749998D02*
X156969663Y-83511903D01*
X156969663Y-83511903D02*
X156922044Y-83416665D01*
X156922044Y-83416665D02*
X156826805Y-83369046D01*
X156826805Y-83369046D02*
X156731567Y-83369046D01*
X156731567Y-83369046D02*
X156636329Y-83416665D01*
X156636329Y-83416665D02*
X156588710Y-83511903D01*
X156588710Y-83511903D02*
X156588710Y-83749998D01*
X156588710Y-83749998D02*
X156541091Y-83845236D01*
X156969663Y-84321427D02*
X155969663Y-84321427D01*
X156588710Y-84416665D02*
X156969663Y-84702379D01*
X156302996Y-84702379D02*
X156683948Y-84321427D01*
X156302996Y-85559522D02*
X156969663Y-85559522D01*
X156302996Y-85130951D02*
X156826805Y-85130951D01*
X156826805Y-85130951D02*
X156922044Y-85178570D01*
X156922044Y-85178570D02*
X156969663Y-85273808D01*
X156969663Y-85273808D02*
X156969663Y-85416665D01*
X156969663Y-85416665D02*
X156922044Y-85511903D01*
X156922044Y-85511903D02*
X156874424Y-85559522D01*
X156969663Y-87226189D02*
X155969663Y-87226189D01*
X156922044Y-87226189D02*
X156969663Y-87130951D01*
X156969663Y-87130951D02*
X156969663Y-86940475D01*
X156969663Y-86940475D02*
X156922044Y-86845237D01*
X156922044Y-86845237D02*
X156874424Y-86797618D01*
X156874424Y-86797618D02*
X156779186Y-86749999D01*
X156779186Y-86749999D02*
X156493472Y-86749999D01*
X156493472Y-86749999D02*
X156398234Y-86797618D01*
X156398234Y-86797618D02*
X156350615Y-86845237D01*
X156350615Y-86845237D02*
X156302996Y-86940475D01*
X156302996Y-86940475D02*
X156302996Y-87130951D01*
X156302996Y-87130951D02*
X156350615Y-87226189D01*
X156922044Y-88083332D02*
X156969663Y-87988094D01*
X156969663Y-87988094D02*
X156969663Y-87797618D01*
X156969663Y-87797618D02*
X156922044Y-87702380D01*
X156922044Y-87702380D02*
X156826805Y-87654761D01*
X156826805Y-87654761D02*
X156445853Y-87654761D01*
X156445853Y-87654761D02*
X156350615Y-87702380D01*
X156350615Y-87702380D02*
X156302996Y-87797618D01*
X156302996Y-87797618D02*
X156302996Y-87988094D01*
X156302996Y-87988094D02*
X156350615Y-88083332D01*
X156350615Y-88083332D02*
X156445853Y-88130951D01*
X156445853Y-88130951D02*
X156541091Y-88130951D01*
X156541091Y-88130951D02*
X156636329Y-87654761D01*
X156922044Y-88511904D02*
X156969663Y-88607142D01*
X156969663Y-88607142D02*
X156969663Y-88797618D01*
X156969663Y-88797618D02*
X156922044Y-88892856D01*
X156922044Y-88892856D02*
X156826805Y-88940475D01*
X156826805Y-88940475D02*
X156779186Y-88940475D01*
X156779186Y-88940475D02*
X156683948Y-88892856D01*
X156683948Y-88892856D02*
X156636329Y-88797618D01*
X156636329Y-88797618D02*
X156636329Y-88654761D01*
X156636329Y-88654761D02*
X156588710Y-88559523D01*
X156588710Y-88559523D02*
X156493472Y-88511904D01*
X156493472Y-88511904D02*
X156445853Y-88511904D01*
X156445853Y-88511904D02*
X156350615Y-88559523D01*
X156350615Y-88559523D02*
X156302996Y-88654761D01*
X156302996Y-88654761D02*
X156302996Y-88797618D01*
X156302996Y-88797618D02*
X156350615Y-88892856D01*
X156969663Y-89369047D02*
X156302996Y-89369047D01*
X155969663Y-89369047D02*
X156017282Y-89321428D01*
X156017282Y-89321428D02*
X156064901Y-89369047D01*
X156064901Y-89369047D02*
X156017282Y-89416666D01*
X156017282Y-89416666D02*
X155969663Y-89369047D01*
X155969663Y-89369047D02*
X156064901Y-89369047D01*
X156302996Y-90273808D02*
X157112520Y-90273808D01*
X157112520Y-90273808D02*
X157207758Y-90226189D01*
X157207758Y-90226189D02*
X157255377Y-90178570D01*
X157255377Y-90178570D02*
X157302996Y-90083332D01*
X157302996Y-90083332D02*
X157302996Y-89940475D01*
X157302996Y-89940475D02*
X157255377Y-89845237D01*
X156922044Y-90273808D02*
X156969663Y-90178570D01*
X156969663Y-90178570D02*
X156969663Y-89988094D01*
X156969663Y-89988094D02*
X156922044Y-89892856D01*
X156922044Y-89892856D02*
X156874424Y-89845237D01*
X156874424Y-89845237D02*
X156779186Y-89797618D01*
X156779186Y-89797618D02*
X156493472Y-89797618D01*
X156493472Y-89797618D02*
X156398234Y-89845237D01*
X156398234Y-89845237D02*
X156350615Y-89892856D01*
X156350615Y-89892856D02*
X156302996Y-89988094D01*
X156302996Y-89988094D02*
X156302996Y-90178570D01*
X156302996Y-90178570D02*
X156350615Y-90273808D01*
X156302996Y-90749999D02*
X156969663Y-90749999D01*
X156398234Y-90749999D02*
X156350615Y-90797618D01*
X156350615Y-90797618D02*
X156302996Y-90892856D01*
X156302996Y-90892856D02*
X156302996Y-91035713D01*
X156302996Y-91035713D02*
X156350615Y-91130951D01*
X156350615Y-91130951D02*
X156445853Y-91178570D01*
X156445853Y-91178570D02*
X156969663Y-91178570D01*
X156922044Y-92035713D02*
X156969663Y-91940475D01*
X156969663Y-91940475D02*
X156969663Y-91749999D01*
X156969663Y-91749999D02*
X156922044Y-91654761D01*
X156922044Y-91654761D02*
X156826805Y-91607142D01*
X156826805Y-91607142D02*
X156445853Y-91607142D01*
X156445853Y-91607142D02*
X156350615Y-91654761D01*
X156350615Y-91654761D02*
X156302996Y-91749999D01*
X156302996Y-91749999D02*
X156302996Y-91940475D01*
X156302996Y-91940475D02*
X156350615Y-92035713D01*
X156350615Y-92035713D02*
X156445853Y-92083332D01*
X156445853Y-92083332D02*
X156541091Y-92083332D01*
X156541091Y-92083332D02*
X156636329Y-91607142D01*
X156969663Y-92940475D02*
X155969663Y-92940475D01*
X156922044Y-92940475D02*
X156969663Y-92845237D01*
X156969663Y-92845237D02*
X156969663Y-92654761D01*
X156969663Y-92654761D02*
X156922044Y-92559523D01*
X156922044Y-92559523D02*
X156874424Y-92511904D01*
X156874424Y-92511904D02*
X156779186Y-92464285D01*
X156779186Y-92464285D02*
X156493472Y-92464285D01*
X156493472Y-92464285D02*
X156398234Y-92511904D01*
X156398234Y-92511904D02*
X156350615Y-92559523D01*
X156350615Y-92559523D02*
X156302996Y-92654761D01*
X156302996Y-92654761D02*
X156302996Y-92845237D01*
X156302996Y-92845237D02*
X156350615Y-92940475D01*
X156969663Y-94178571D02*
X155969663Y-94178571D01*
X156350615Y-94178571D02*
X156302996Y-94273809D01*
X156302996Y-94273809D02*
X156302996Y-94464285D01*
X156302996Y-94464285D02*
X156350615Y-94559523D01*
X156350615Y-94559523D02*
X156398234Y-94607142D01*
X156398234Y-94607142D02*
X156493472Y-94654761D01*
X156493472Y-94654761D02*
X156779186Y-94654761D01*
X156779186Y-94654761D02*
X156874424Y-94607142D01*
X156874424Y-94607142D02*
X156922044Y-94559523D01*
X156922044Y-94559523D02*
X156969663Y-94464285D01*
X156969663Y-94464285D02*
X156969663Y-94273809D01*
X156969663Y-94273809D02*
X156922044Y-94178571D01*
X156302996Y-94988095D02*
X156969663Y-95226190D01*
X156302996Y-95464285D02*
X156969663Y-95226190D01*
X156969663Y-95226190D02*
X157207758Y-95130952D01*
X157207758Y-95130952D02*
X157255377Y-95083333D01*
X157255377Y-95083333D02*
X157302996Y-94988095D01*
X156969663Y-96750000D02*
X156922044Y-96654762D01*
X156922044Y-96654762D02*
X156874424Y-96607143D01*
X156874424Y-96607143D02*
X156779186Y-96559524D01*
X156779186Y-96559524D02*
X156493472Y-96559524D01*
X156493472Y-96559524D02*
X156398234Y-96607143D01*
X156398234Y-96607143D02*
X156350615Y-96654762D01*
X156350615Y-96654762D02*
X156302996Y-96750000D01*
X156302996Y-96750000D02*
X156302996Y-96892857D01*
X156302996Y-96892857D02*
X156350615Y-96988095D01*
X156350615Y-96988095D02*
X156398234Y-97035714D01*
X156398234Y-97035714D02*
X156493472Y-97083333D01*
X156493472Y-97083333D02*
X156779186Y-97083333D01*
X156779186Y-97083333D02*
X156874424Y-97035714D01*
X156874424Y-97035714D02*
X156922044Y-96988095D01*
X156922044Y-96988095D02*
X156969663Y-96892857D01*
X156969663Y-96892857D02*
X156969663Y-96750000D01*
X156969663Y-97511905D02*
X155969663Y-97511905D01*
X156350615Y-97511905D02*
X156302996Y-97607143D01*
X156302996Y-97607143D02*
X156302996Y-97797619D01*
X156302996Y-97797619D02*
X156350615Y-97892857D01*
X156350615Y-97892857D02*
X156398234Y-97940476D01*
X156398234Y-97940476D02*
X156493472Y-97988095D01*
X156493472Y-97988095D02*
X156779186Y-97988095D01*
X156779186Y-97988095D02*
X156874424Y-97940476D01*
X156874424Y-97940476D02*
X156922044Y-97892857D01*
X156922044Y-97892857D02*
X156969663Y-97797619D01*
X156969663Y-97797619D02*
X156969663Y-97607143D01*
X156969663Y-97607143D02*
X156922044Y-97511905D01*
X156302996Y-98416667D02*
X157160139Y-98416667D01*
X157160139Y-98416667D02*
X157255377Y-98369048D01*
X157255377Y-98369048D02*
X157302996Y-98273810D01*
X157302996Y-98273810D02*
X157302996Y-98226191D01*
X155969663Y-98416667D02*
X156017282Y-98369048D01*
X156017282Y-98369048D02*
X156064901Y-98416667D01*
X156064901Y-98416667D02*
X156017282Y-98464286D01*
X156017282Y-98464286D02*
X155969663Y-98416667D01*
X155969663Y-98416667D02*
X156064901Y-98416667D01*
X156922044Y-99273809D02*
X156969663Y-99178571D01*
X156969663Y-99178571D02*
X156969663Y-98988095D01*
X156969663Y-98988095D02*
X156922044Y-98892857D01*
X156922044Y-98892857D02*
X156826805Y-98845238D01*
X156826805Y-98845238D02*
X156445853Y-98845238D01*
X156445853Y-98845238D02*
X156350615Y-98892857D01*
X156350615Y-98892857D02*
X156302996Y-98988095D01*
X156302996Y-98988095D02*
X156302996Y-99178571D01*
X156302996Y-99178571D02*
X156350615Y-99273809D01*
X156350615Y-99273809D02*
X156445853Y-99321428D01*
X156445853Y-99321428D02*
X156541091Y-99321428D01*
X156541091Y-99321428D02*
X156636329Y-98845238D01*
X156922044Y-100178571D02*
X156969663Y-100083333D01*
X156969663Y-100083333D02*
X156969663Y-99892857D01*
X156969663Y-99892857D02*
X156922044Y-99797619D01*
X156922044Y-99797619D02*
X156874424Y-99750000D01*
X156874424Y-99750000D02*
X156779186Y-99702381D01*
X156779186Y-99702381D02*
X156493472Y-99702381D01*
X156493472Y-99702381D02*
X156398234Y-99750000D01*
X156398234Y-99750000D02*
X156350615Y-99797619D01*
X156350615Y-99797619D02*
X156302996Y-99892857D01*
X156302996Y-99892857D02*
X156302996Y-100083333D01*
X156302996Y-100083333D02*
X156350615Y-100178571D01*
X156302996Y-100464286D02*
X156302996Y-100845238D01*
X155969663Y-100607143D02*
X156826805Y-100607143D01*
X156826805Y-100607143D02*
X156922044Y-100654762D01*
X156922044Y-100654762D02*
X156969663Y-100750000D01*
X156969663Y-100750000D02*
X156969663Y-100845238D01*
X156969663Y-101702381D02*
X156969663Y-101130953D01*
X156969663Y-101416667D02*
X155969663Y-101416667D01*
X155969663Y-101416667D02*
X156112520Y-101321429D01*
X156112520Y-101321429D02*
X156207758Y-101226191D01*
X156207758Y-101226191D02*
X156255377Y-101130953D01*
X155969663Y-102321429D02*
X155969663Y-102416667D01*
X155969663Y-102416667D02*
X156017282Y-102511905D01*
X156017282Y-102511905D02*
X156064901Y-102559524D01*
X156064901Y-102559524D02*
X156160139Y-102607143D01*
X156160139Y-102607143D02*
X156350615Y-102654762D01*
X156350615Y-102654762D02*
X156588710Y-102654762D01*
X156588710Y-102654762D02*
X156779186Y-102607143D01*
X156779186Y-102607143D02*
X156874424Y-102559524D01*
X156874424Y-102559524D02*
X156922044Y-102511905D01*
X156922044Y-102511905D02*
X156969663Y-102416667D01*
X156969663Y-102416667D02*
X156969663Y-102321429D01*
X156969663Y-102321429D02*
X156922044Y-102226191D01*
X156922044Y-102226191D02*
X156874424Y-102178572D01*
X156874424Y-102178572D02*
X156779186Y-102130953D01*
X156779186Y-102130953D02*
X156588710Y-102083334D01*
X156588710Y-102083334D02*
X156350615Y-102083334D01*
X156350615Y-102083334D02*
X156160139Y-102130953D01*
X156160139Y-102130953D02*
X156064901Y-102178572D01*
X156064901Y-102178572D02*
X156017282Y-102226191D01*
X156017282Y-102226191D02*
X155969663Y-102321429D01*
X155969663Y-102988096D02*
X155969663Y-103607143D01*
X155969663Y-103607143D02*
X156350615Y-103273810D01*
X156350615Y-103273810D02*
X156350615Y-103416667D01*
X156350615Y-103416667D02*
X156398234Y-103511905D01*
X156398234Y-103511905D02*
X156445853Y-103559524D01*
X156445853Y-103559524D02*
X156541091Y-103607143D01*
X156541091Y-103607143D02*
X156779186Y-103607143D01*
X156779186Y-103607143D02*
X156874424Y-103559524D01*
X156874424Y-103559524D02*
X156922044Y-103511905D01*
X156922044Y-103511905D02*
X156969663Y-103416667D01*
X156969663Y-103416667D02*
X156969663Y-103130953D01*
X156969663Y-103130953D02*
X156922044Y-103035715D01*
X156922044Y-103035715D02*
X156874424Y-102988096D01*
X155969663Y-103940477D02*
X155969663Y-104607143D01*
X155969663Y-104607143D02*
X156969663Y-104178572D01*
X143009663Y-76093333D02*
X143819186Y-76093333D01*
X143819186Y-76093333D02*
X143914424Y-76140952D01*
X143914424Y-76140952D02*
X143962044Y-76188571D01*
X143962044Y-76188571D02*
X144009663Y-76283809D01*
X144009663Y-76283809D02*
X144009663Y-76474285D01*
X144009663Y-76474285D02*
X143962044Y-76569523D01*
X143962044Y-76569523D02*
X143914424Y-76617142D01*
X143914424Y-76617142D02*
X143819186Y-76664761D01*
X143819186Y-76664761D02*
X143009663Y-76664761D01*
X143009663Y-77045714D02*
X143009663Y-77664761D01*
X143009663Y-77664761D02*
X143390615Y-77331428D01*
X143390615Y-77331428D02*
X143390615Y-77474285D01*
X143390615Y-77474285D02*
X143438234Y-77569523D01*
X143438234Y-77569523D02*
X143485853Y-77617142D01*
X143485853Y-77617142D02*
X143581091Y-77664761D01*
X143581091Y-77664761D02*
X143819186Y-77664761D01*
X143819186Y-77664761D02*
X143914424Y-77617142D01*
X143914424Y-77617142D02*
X143962044Y-77569523D01*
X143962044Y-77569523D02*
X144009663Y-77474285D01*
X144009663Y-77474285D02*
X144009663Y-77188571D01*
X144009663Y-77188571D02*
X143962044Y-77093333D01*
X143962044Y-77093333D02*
X143914424Y-77045714D01*
X144104901Y-77855238D02*
X144104901Y-78617142D01*
X144009663Y-78855238D02*
X143009663Y-78855238D01*
X143485853Y-78855238D02*
X143485853Y-79426666D01*
X144009663Y-79426666D02*
X143009663Y-79426666D01*
X151899663Y-76188571D02*
X152709186Y-76188571D01*
X152709186Y-76188571D02*
X152804424Y-76236190D01*
X152804424Y-76236190D02*
X152852044Y-76283809D01*
X152852044Y-76283809D02*
X152899663Y-76379047D01*
X152899663Y-76379047D02*
X152899663Y-76569523D01*
X152899663Y-76569523D02*
X152852044Y-76664761D01*
X152852044Y-76664761D02*
X152804424Y-76712380D01*
X152804424Y-76712380D02*
X152709186Y-76759999D01*
X152709186Y-76759999D02*
X151899663Y-76759999D01*
X152232996Y-77664761D02*
X152899663Y-77664761D01*
X151852044Y-77426666D02*
X152566329Y-77188571D01*
X152566329Y-77188571D02*
X152566329Y-77807618D01*
X152994901Y-77950476D02*
X152994901Y-78712380D01*
X151899663Y-78807619D02*
X152899663Y-79140952D01*
X152899663Y-79140952D02*
X151899663Y-79474285D01*
X136068095Y-101185336D02*
X136068095Y-100375813D01*
X136068095Y-100375813D02*
X136115714Y-100280575D01*
X136115714Y-100280575D02*
X136163333Y-100232956D01*
X136163333Y-100232956D02*
X136258571Y-100185336D01*
X136258571Y-100185336D02*
X136449047Y-100185336D01*
X136449047Y-100185336D02*
X136544285Y-100232956D01*
X136544285Y-100232956D02*
X136591904Y-100280575D01*
X136591904Y-100280575D02*
X136639523Y-100375813D01*
X136639523Y-100375813D02*
X136639523Y-101185336D01*
X137068095Y-101090098D02*
X137115714Y-101137717D01*
X137115714Y-101137717D02*
X137210952Y-101185336D01*
X137210952Y-101185336D02*
X137449047Y-101185336D01*
X137449047Y-101185336D02*
X137544285Y-101137717D01*
X137544285Y-101137717D02*
X137591904Y-101090098D01*
X137591904Y-101090098D02*
X137639523Y-100994860D01*
X137639523Y-100994860D02*
X137639523Y-100899622D01*
X137639523Y-100899622D02*
X137591904Y-100756765D01*
X137591904Y-100756765D02*
X137020476Y-100185336D01*
X137020476Y-100185336D02*
X137639523Y-100185336D01*
%TO.C,REF\u002A\u002A*%
D11*
X135750000Y-110705000D02*
X135000000Y-110705000D01*
X134000000Y-109705000D01*
X134750000Y-109705000D01*
X135750000Y-110705000D01*
G36*
X135750000Y-110705000D02*
G01*
X135000000Y-110705000D01*
X134000000Y-109705000D01*
X134750000Y-109705000D01*
X135750000Y-110705000D01*
G37*
X130000000Y-110705000D02*
X127500000Y-110705000D01*
X127500000Y-110205000D01*
X130500000Y-110205000D01*
X130000000Y-110705000D01*
G36*
X130000000Y-110705000D02*
G01*
X127500000Y-110705000D01*
X127500000Y-110205000D01*
X130500000Y-110205000D01*
X130000000Y-110705000D01*
G37*
X131250000Y-113455000D02*
X130500000Y-113455000D01*
X129250000Y-112205000D01*
X130000000Y-112205000D01*
X131250000Y-113455000D01*
G36*
X131250000Y-113455000D02*
G01*
X130500000Y-113455000D01*
X129250000Y-112205000D01*
X130000000Y-112205000D01*
X131250000Y-113455000D01*
G37*
X131250000Y-114705000D02*
X130500000Y-114705000D01*
X128750000Y-112955000D01*
X129500000Y-112955000D01*
X131250000Y-114705000D01*
G36*
X131250000Y-114705000D02*
G01*
X130500000Y-114705000D01*
X128750000Y-112955000D01*
X129500000Y-112955000D01*
X131250000Y-114705000D01*
G37*
X133750000Y-114705000D02*
X136000000Y-114705000D01*
X136500000Y-115205000D01*
X133500000Y-115205000D01*
X130750000Y-112455000D01*
X131500000Y-112455000D01*
X133750000Y-114705000D01*
G36*
X133750000Y-114705000D02*
G01*
X136000000Y-114705000D01*
X136500000Y-115205000D01*
X133500000Y-115205000D01*
X130750000Y-112455000D01*
X131500000Y-112455000D01*
X133750000Y-114705000D01*
G37*
X129250000Y-110705000D02*
X129250000Y-111205000D01*
X128750000Y-111205000D01*
X128750000Y-110705000D01*
X128750000Y-109705000D01*
X129250000Y-109705000D01*
X129250000Y-110705000D01*
G36*
X129250000Y-110705000D02*
G01*
X129250000Y-111205000D01*
X128750000Y-111205000D01*
X128750000Y-110705000D01*
X128750000Y-109705000D01*
X129250000Y-109705000D01*
X129250000Y-110705000D01*
G37*
X131500000Y-111705000D02*
X127500000Y-111705000D01*
X126500000Y-112705000D01*
X126500000Y-111955000D01*
X127250000Y-111205000D01*
X131500000Y-111205000D01*
X131500000Y-111705000D01*
G36*
X131500000Y-111705000D02*
G01*
X127500000Y-111705000D01*
X126500000Y-112705000D01*
X126500000Y-111955000D01*
X127250000Y-111205000D01*
X131500000Y-111205000D01*
X131500000Y-111705000D01*
G37*
X136000000Y-112705000D02*
X136500000Y-113205000D01*
X135750000Y-113205000D01*
X133250000Y-113205000D01*
X132750000Y-112705000D01*
X135250000Y-112705000D01*
X132750000Y-110205000D01*
X133500000Y-110205000D01*
X136000000Y-112705000D01*
G36*
X136000000Y-112705000D02*
G01*
X136500000Y-113205000D01*
X135750000Y-113205000D01*
X133250000Y-113205000D01*
X132750000Y-112705000D01*
X135250000Y-112705000D01*
X132750000Y-110205000D01*
X133500000Y-110205000D01*
X136000000Y-112705000D01*
G37*
X129250000Y-113955000D02*
X129250000Y-115205000D01*
X128750000Y-115205000D01*
X128750000Y-114205000D01*
X128000000Y-113455000D01*
X126500000Y-114955000D01*
X126500000Y-114205000D01*
X128000000Y-112705000D01*
X129250000Y-113955000D01*
G36*
X129250000Y-113955000D02*
G01*
X129250000Y-115205000D01*
X128750000Y-115205000D01*
X128750000Y-114205000D01*
X128000000Y-113455000D01*
X126500000Y-114955000D01*
X126500000Y-114205000D01*
X128000000Y-112705000D01*
X129250000Y-113955000D01*
G37*
X137000000Y-111955000D02*
X137000000Y-114705000D01*
X136500000Y-114205000D01*
X136500000Y-111705000D01*
X132750000Y-111705000D01*
X132750000Y-112705000D01*
X132250000Y-112205000D01*
X132250000Y-111205000D01*
X136250000Y-111205000D01*
X137000000Y-111955000D01*
G36*
X137000000Y-111955000D02*
G01*
X137000000Y-114705000D01*
X136500000Y-114205000D01*
X136500000Y-111705000D01*
X132750000Y-111705000D01*
X132750000Y-112705000D01*
X132250000Y-112205000D01*
X132250000Y-111205000D01*
X136250000Y-111205000D01*
X137000000Y-111955000D01*
G37*
D12*
%TO.C,U3_H*%
X142755000Y-84360000D02*
X141505000Y-84360000D01*
X136495000Y-84070000D02*
X136495000Y-71450000D01*
X142465000Y-84070000D02*
X136495000Y-84070000D01*
X140205000Y-84060000D02*
X140205000Y-83310000D01*
X141705000Y-84060000D02*
X141705000Y-82260000D01*
X142455000Y-84060000D02*
X141705000Y-84060000D01*
X137255000Y-83310000D02*
X137255000Y-77760000D01*
X140205000Y-83310000D02*
X137255000Y-83310000D01*
X142755000Y-83110000D02*
X142755000Y-84360000D01*
X141705000Y-82260000D02*
X142455000Y-82260000D01*
X142455000Y-82260000D02*
X142455000Y-84060000D01*
X141705000Y-80760000D02*
X141705000Y-74760000D01*
X142455000Y-80760000D02*
X141705000Y-80760000D01*
X141705000Y-74760000D02*
X142455000Y-74760000D01*
X142455000Y-74760000D02*
X142455000Y-80760000D01*
X141705000Y-73260000D02*
X141705000Y-71460000D01*
X142455000Y-73260000D02*
X141705000Y-73260000D01*
X137255000Y-72210000D02*
X137255000Y-77760000D01*
X140205000Y-72210000D02*
X137255000Y-72210000D01*
X140205000Y-71460000D02*
X140205000Y-72210000D01*
X141705000Y-71460000D02*
X142455000Y-71460000D01*
X142455000Y-71460000D02*
X142455000Y-73260000D01*
X136495000Y-71450000D02*
X142465000Y-71450000D01*
X142465000Y-71450000D02*
X142465000Y-84070000D01*
%TO.C,U4_V*%
X151645000Y-84360000D02*
X150395000Y-84360000D01*
X145385000Y-84070000D02*
X145385000Y-71450000D01*
X151355000Y-84070000D02*
X145385000Y-84070000D01*
X149095000Y-84060000D02*
X149095000Y-83310000D01*
X150595000Y-84060000D02*
X150595000Y-82260000D01*
X151345000Y-84060000D02*
X150595000Y-84060000D01*
X146145000Y-83310000D02*
X146145000Y-77760000D01*
X149095000Y-83310000D02*
X146145000Y-83310000D01*
X151645000Y-83110000D02*
X151645000Y-84360000D01*
X150595000Y-82260000D02*
X151345000Y-82260000D01*
X151345000Y-82260000D02*
X151345000Y-84060000D01*
X150595000Y-80760000D02*
X150595000Y-74760000D01*
X151345000Y-80760000D02*
X150595000Y-80760000D01*
X150595000Y-74760000D02*
X151345000Y-74760000D01*
X151345000Y-74760000D02*
X151345000Y-80760000D01*
X150595000Y-73260000D02*
X150595000Y-71460000D01*
X151345000Y-73260000D02*
X150595000Y-73260000D01*
X146145000Y-72210000D02*
X146145000Y-77760000D01*
X149095000Y-72210000D02*
X146145000Y-72210000D01*
X149095000Y-71460000D02*
X149095000Y-72210000D01*
X150595000Y-71460000D02*
X151345000Y-71460000D01*
X151345000Y-71460000D02*
X151345000Y-73260000D01*
X145385000Y-71450000D02*
X151355000Y-71450000D01*
X151355000Y-71450000D02*
X151355000Y-84070000D01*
D11*
%TO.C,U2*%
X124020000Y-90370000D02*
X124020000Y-103290000D01*
X126560000Y-105830000D02*
X147100000Y-105830000D01*
X147100000Y-87830000D02*
X126560000Y-87830000D01*
X149640000Y-103290000D02*
X149640000Y-90370000D01*
X126560000Y-87830000D02*
G75*
G03*
X124020000Y-90370000I1J-2540001D01*
G01*
X124020000Y-103290000D02*
G75*
G03*
X126560000Y-105830000I2540001J1D01*
G01*
X149640000Y-90370000D02*
G75*
G03*
X147100000Y-87830000I-2540000J0D01*
G01*
X147100000Y-105830000D02*
G75*
G03*
X149640000Y-103290000I0J2540000D01*
G01*
%TD*%
M02*
